<svg xmlns="http://www.w3.org/2000/svg" xmlns:xlink="http://www.w3.org/1999/xlink" viewBox="0 0 1300 300"><defs><style>.cls-1{fill:url(#Degradado_sin_nombre_2);}.cls-2{fill:url(#Degradado_sin_nombre_390);}.cls-3{fill:url(#Degradado_sin_nombre_31);}.cls-4{fill:url(#Degradado_sin_nombre_132);}.cls-5{isolation:isolate;}.cls-6{clip-path:url(#clip-path);}.cls-7{fill:#3a3b52;}.cls-10,.cls-13,.cls-7{opacity:0.2;mix-blend-mode:multiply;}.cls-8{fill:#fff;}.cls-9{clip-path:url(#clip-path-2);}.cls-10{fill:#6d4e77;}.cls-11{mix-blend-mode:soft-light;fill:url(#Degradado_sin_nombre_17);}.cls-12{clip-path:url(#clip-path-3);}.cls-13{fill:#b04e77;}.cls-14{fill:url(#Degradado_sin_nombre_70);}.cls-15{clip-path:url(#clip-path-4);}</style><linearGradient id="Degradado_sin_nombre_2" x1="1508.04" y1="-582.87" x2="228.36" y2="662.1" gradientTransform="matrix(0, -0.39, 0.99, 0, 723.64, 534.23)" gradientUnits="userSpaceOnUse"><stop offset="0" stop-color="#a21968"/><stop offset="1" stop-color="#1c1cb2"/></linearGradient><linearGradient id="Degradado_sin_nombre_390" x1="-28.68" y1="-1050.86" x2="-124.16" y2="-902.09" gradientTransform="translate(-842.36 336.75) rotate(86.2)" gradientUnits="userSpaceOnUse"><stop offset="0" stop-color="#dc3f82"/><stop offset="1" stop-color="#6d3bd0"/></linearGradient><linearGradient id="Degradado_sin_nombre_31" x1="821.94" y1="1256.32" x2="755.28" y2="1390.71" gradientTransform="matrix(0.8, 0.6, -0.6, 0.8, 1235.69, -1425.64)" gradientUnits="userSpaceOnUse"><stop offset="0" stop-color="#95dffd"/><stop offset="1" stop-color="#e79b60"/></linearGradient><linearGradient id="Degradado_sin_nombre_132" x1="-4222.96" y1="2225.36" x2="-4150.68" y2="2132.92" gradientTransform="translate(-3664.22 -1688.75) rotate(-130.51)" gradientUnits="userSpaceOnUse"><stop offset="0" stop-color="#e79b26"/><stop offset="1" stop-color="#f9ec64"/></linearGradient><clipPath id="clip-path"><polyline class="cls-1" points="0.06 223.76 -0.11 -0.46 1299.89 -1.43 1300.11 299.49 0.11 300.46 0.06 223.76"/></clipPath><clipPath id="clip-path-2"><circle class="cls-2" cx="151.8" cy="209.43" r="51.85" transform="translate(-106.38 225.13) rotate(-57.55)"/></clipPath><radialGradient id="Degradado_sin_nombre_17" cx="786.25" cy="1328.28" r="98.25" gradientTransform="matrix(1, -0.05, 0.05, 1, 229.97, -1181.58)" gradientUnits="userSpaceOnUse"><stop offset="0.73" stop-color="#fff" stop-opacity="0"/><stop offset="1" stop-color="#ffff71"/></radialGradient><clipPath id="clip-path-3"><circle class="cls-3" cx="1075.77" cy="109.55" r="81.83" transform="translate(419.38 968.87) rotate(-58.44)"/></clipPath><linearGradient id="Degradado_sin_nombre_70" x1="171.86" y1="-2068.57" x2="231.84" y2="-2145.29" gradientTransform="translate(-660.15 1581.42) rotate(43.11)" gradientUnits="userSpaceOnUse"><stop offset="0" stop-color="#a2e6fd"/><stop offset="1" stop-color="#5fa4d4"/></linearGradient><clipPath id="clip-path-4"><path class="cls-4" d="M680.77,38.24a53.32,53.32,0,1,1-5.91,75.19A53.33,53.33,0,0,1,680.77,38.24Z"/></clipPath></defs><title>Mesa de trabajo 1</title><g class="cls-5"><g id="Capa_1" data-name="Capa 1"><polyline class="cls-1" points="0.06 223.76 -0.11 -0.46 1299.89 -1.43 1300.11 299.49 0.11 300.46 0.06 223.76"/><g class="cls-6"><path class="cls-7" d="M935.81-680.23c-83-37.79-182-51.51-276.21-27.12-55.77,14.44-112.38,45.27-138.82,94.86-39.91,74.86,4.13,160.4,66,210.72s141,81.1,197.53,136.76c101,99.54,109.42,265.47,49.22,403.37S655.18,389,526.39,478.09C441.53,536.83,347.81,588.35,247.3,604.48c-44,7.06-90.21,6.78-128.08-11.28S54,536.22,60.4,494.49a92.85,92.85,0,0,1,15.08-37.57c-21.41-4.21-42.82-8.34-64.35-11.78-3.78-.6-3.5-6.6.31-6C29,442,46.56,445.2,64.05,448.6q7.62,1.47,15.23,3c23.34-30.82,63.89-52.62,103.27-60.81,55.79-11.6,112-3.79,168.14-6.25,94.18-4.12,191.18-39.26,262.45-103.68s113.8-159,102.46-246.23S635.36-128.08,544.13-142.53c-48.27-7.65-99.74,1.07-147.83,17.75-86.94,30.17-165.65,86.88-220.7,159C131.13,92.52,102.39,159.43,60.19,219.09S-44.17,333.77-117,342c-66.29,7.46-129.72-28.29-157.88-82.46s-22.87-123.38,7.38-181.67C-254.06,52-235.4,27.37-210,11.11c53.74-34.45,121.19-23.9,183-21.8,83.2,2.83,175.46-16.16,236-76.17,61-60.38,87.41-158.08,168.69-186.67,23.87-8.4,49.24-9.12,73.72-15s50.31-19.13,59.81-41.56c14.18-33.44-15.31-65.73-47.3-80.44-101.28-46.56-232.68-3.84-332.18,63S-49.67-191.1-150.32-125.91C-207.63-88.8-274.12-56.4-306.48,1.38c-34.46,61.54-19.29,132.94,1.83,195,110.55,325,252.41,657.36,580.25,794l535-74.18C707,907,611.82,857.71,551.12,781.78c-31.89-39.9-54.91-89.18-50-141.63,5.17-55.58,41.09-107.69,84.88-148.36s95.65-72.23,144.63-107C890.36,271.39,1021.93,120.62,1108.29-48c35-68.27,62.85-140.27,71.2-213.64C1199.5-437.4,1096.7-607,935.81-680.23Z"/></g><path class="cls-8" d="M587.94,101.79a7.76,7.76,0,1,1-7.75,7.76A7.77,7.77,0,0,1,587.94,101.79Z"/><path class="cls-8" d="M1272.57,151.08a7.76,7.76,0,1,1-7.75,7.77A7.75,7.75,0,0,1,1272.57,151.08Z"/><path class="cls-8" d="M48.73,253.06A7.76,7.76,0,1,1,41,260.82,7.77,7.77,0,0,1,48.73,253.06Z"/><path class="cls-8" d="M880.32,23.67a7.76,7.76,0,1,1-7.75,7.76A7.75,7.75,0,0,1,880.32,23.67Z"/><path class="cls-8" d="M253.49,142.24a7.76,7.76,0,1,1-7.75,7.77A7.76,7.76,0,0,1,253.49,142.24Z"/><path class="cls-8" d="M1156.91,245.3a7.76,7.76,0,1,1-7.75,7.77A7.76,7.76,0,0,1,1156.91,245.3Z"/><path class="cls-8" d="M45.36,134.17a1.59,1.59,0,1,1-1.59,1.59A1.6,1.6,0,0,1,45.36,134.17Z"/><path class="cls-8" d="M377.81,42.73a1.59,1.59,0,1,1-1.59,1.59A1.59,1.59,0,0,1,377.81,42.73Z"/><path class="cls-8" d="M1199,40.52a1.6,1.6,0,1,1-1.59,1.6A1.6,1.6,0,0,1,1199,40.52Z"/><circle class="cls-8" cx="872.45" cy="167.97" r="1.59"/><path class="cls-8" d="M245.74,224.15a1.59,1.59,0,1,1-1.59,1.59A1.59,1.59,0,0,1,245.74,224.15Z"/><path class="cls-8" d="M1155.32,37.37a1.6,1.6,0,1,1-1.59,1.59A1.59,1.59,0,0,1,1155.32,37.37Z"/><path class="cls-8" d="M404,24.68a1.6,1.6,0,1,1-1.59,1.6A1.59,1.59,0,0,1,404,24.68Z"/><path class="cls-8" d="M869.25,139.84a1.6,1.6,0,1,1-1.59,1.6A1.6,1.6,0,0,1,869.25,139.84Z"/><path class="cls-8" d="M829,265a3.6,3.6,0,1,1-3.59,3.6A3.59,3.59,0,0,1,829,265Z"/><path class="cls-8" d="M1171.18,79.11a3.6,3.6,0,1,1-3.59,3.6A3.6,3.6,0,0,1,1171.18,79.11Z"/><path class="cls-8" d="M452.4,24.23a3.6,3.6,0,1,1-3.59,3.6A3.61,3.61,0,0,1,452.4,24.23Z"/><path class="cls-8" d="M682.42,268.57a3.6,3.6,0,1,1-3.59,3.6A3.6,3.6,0,0,1,682.42,268.57Z"/><path class="cls-8" d="M637.49,166.14a3.6,3.6,0,1,1-3.6,3.6A3.59,3.59,0,0,1,637.49,166.14Z"/><path class="cls-8" d="M380.27,162.74a3.6,3.6,0,1,1-3.59,3.59A3.58,3.58,0,0,1,380.27,162.74Z"/><path class="cls-8" d="M328.52,40.76a3.6,3.6,0,1,1-3.59,3.6A3.6,3.6,0,0,1,328.52,40.76Z"/><path class="cls-8" d="M418.75,224.51a3.6,3.6,0,1,1-3.6,3.6A3.59,3.59,0,0,1,418.75,224.51Z"/><path class="cls-8" d="M783.66,158.84a3.6,3.6,0,1,1-3.59,3.6A3.6,3.6,0,0,1,783.66,158.84Z"/><path class="cls-8" d="M1023.92,249.47a3.6,3.6,0,1,1-3.59,3.59A3.58,3.58,0,0,1,1023.92,249.47Z"/><path class="cls-8" d="M298.38,272.17a3.6,3.6,0,1,1-3.59,3.6A3.61,3.61,0,0,1,298.38,272.17Z"/><path class="cls-8" d="M184.57,113.71a3.6,3.6,0,1,1-3.59,3.6A3.59,3.59,0,0,1,184.57,113.71Z"/><path class="cls-8" d="M405.59,59.84a3.6,3.6,0,1,1-3.6,3.6A3.59,3.59,0,0,1,405.59,59.84Z"/><path class="cls-8" d="M580.19,245.4h0a15.41,15.41,0,0,0-15.4,15.42h0a15.4,15.4,0,0,0-15.42-15.4h0A15.41,15.41,0,0,0,564.77,230h0A15.42,15.42,0,0,0,580.19,245.4Z"/><path class="cls-8" d="M284.32,78.94h0a15.4,15.4,0,0,0-15.4,15.42h0A15.41,15.41,0,0,0,253.5,79h0a15.4,15.4,0,0,0,15.39-15.42h0A15.43,15.43,0,0,0,284.32,78.94Z"/><path class="cls-8" d="M1039.33,150.43h0a15.41,15.41,0,0,0-15.4,15.42h0a15.42,15.42,0,0,0-15.42-15.4h0a15.41,15.41,0,0,0,15.4-15.42h0A15.4,15.4,0,0,0,1039.33,150.43Z"/><path class="cls-8" d="M100.43,82.69h0A15.4,15.4,0,0,0,85,98.11h0A15.4,15.4,0,0,0,69.62,82.72h0A15.41,15.41,0,0,0,85,67.29h0A15.41,15.41,0,0,0,100.43,82.69Z"/><circle class="cls-2" cx="151.8" cy="209.43" r="51.85" transform="translate(-106.38 225.13) rotate(-57.55)"/><g class="cls-9"><path class="cls-10" d="M107.59,125.61A54,54,0,0,1,136,108.52c6.23-1.43,13-1.69,18.83.81s10.66,8.25,10.63,14.64c0,6.63-4.88,12.2-9.94,16.48-7.17,6.07-15.3,10.92-22.63,16.81s-14,13.11-16.91,22.05c-3.42,10.6-1,22.39,4.12,32.27A62.62,62.62,0,0,0,215,231.5c8-6.43,14.46-15.05,17.11-25a49.23,49.23,0,0,0,1-19.12,64.62,64.62,0,0,0-26.24-43.58c-6.12-4.35-13.18-7.79-17.53-13.91,24.49-2.23,49.37,12.1,60.71,33.91a66.41,66.41,0,0,1,1.34,57.64c-6.45,14-17.86,25.39-31.33,32.8s-28.94,10.88-44.32,11c-7.79.06-19.38,7.34-26.84,5.1-8.23-2.48-28.22.23-34.9-5.18-21.77-17.63-46.42-62-41.2-89.51s55.52-52.46,80.74-64.66"/><path class="cls-10" d="M168.93,153a18,18,0,0,0-8.32,1,9.23,9.23,0,0,0-5.54,6c-1.19,4.84,2.68,9.39,6.59,12.48a64.81,64.81,0,0,0,37.73,13.77c3.15.1,6.56-.13,9-2.14s3.32-5.67,2.69-8.84a18.16,18.16,0,0,0-4.66-8.37c-10.29-11.44-26.55-15-41.77-17.3"/><path class="cls-10" d="M159.65,200.92c1.49,2.67,4.15,4.47,6.82,6a22,22,0,0,0,9,3.11c3.19.22,6.62-.85,8.57-3.38a9,9,0,0,0,1.21-8.23,13.25,13.25,0,0,0-5.28-6.65C173.34,187.24,152.76,188.62,159.65,200.92Z"/><path class="cls-10" d="M129.47,180.51c.85,4,2.64,8.27,6.37,10a11.17,11.17,0,0,0,8.2,0,7.94,7.94,0,0,0,3.68-2.26,7.62,7.62,0,0,0,1.44-3.66,13.77,13.77,0,0,0-4.71-12.73C136.84,165.77,127.43,170.94,129.47,180.51Z"/><path class="cls-10" d="M138,213.07a15.58,15.58,0,0,0,6.39,3.91c2.45.63,5.33.09,6.92-1.87s1.54-4.7.74-7a12.58,12.58,0,0,0-7.9-7.76c-2.8-.91-9.6-1-11.44,2C130.6,205.67,135.74,211.06,138,213.07Z"/><path class="cls-10" d="M189.84,221.94a11.61,11.61,0,0,0-3.58,9.91,13.1,13.1,0,0,0,5.62,9,21,21,0,0,0,9.71,3.14,16.52,16.52,0,0,0,8.06-.7c4.25-1.72,6.9-6.23,7.42-10.78.66-5.74-2.31-12.62-8.49-13.34C202.58,218.48,194.71,217.55,189.84,221.94Z"/><path class="cls-10" d="M130.68,242.67a16.94,16.94,0,0,0,4.6,6.6A15.56,15.56,0,0,0,143,253.4c12.8,2.15,16.94-14.64,8.65-22.31C143.87,223.85,126.59,231.09,130.68,242.67Z"/><path class="cls-10" d="M84.13,212.58a36.62,36.62,0,0,1,14.26.54,19.34,19.34,0,0,1,9.31,4.7,19.51,19.51,0,0,1,4.38,7.72c1.49,4.45,2.13,9.39.54,13.8s-5.81,8.09-10.5,7.91c-2.81-.11-5.38-1.51-7.8-2.94-4-2.38-8-5-10.68-8.89S80,226.23,82.4,222.21"/><path class="cls-10" d="M97.68,178.24c3.47-1.22,7.31-.09,10.68,1.38a31.6,31.6,0,0,1,10.88,7.32,10.25,10.25,0,0,1,2.78,5,5,5,0,0,1-2,5.07,7.2,7.2,0,0,1-3.07.82,20.46,20.46,0,0,1-8.07-.43,25.94,25.94,0,0,1-7.47-4.17l-5.66-4a7.31,7.31,0,0,1-2.44-2.41,2.51,2.51,0,0,1,.49-3.14"/><path class="cls-10" d="M170.11,219.76c-2.39-.78-5.1,1.15-5.62,3.6a6.84,6.84,0,0,0,2.75,6.59,6.59,6.59,0,0,0,4.1,1.5,4.38,4.38,0,0,0,3.72-2.06,5.29,5.29,0,0,0,.54-3.09c-.24-2.85-2-5.7-4.78-6.5"/><path class="cls-10" d="M174.17,251c-3.63.87-6.25,4-8.27,7.13A5.3,5.3,0,0,0,165,260a4.8,4.8,0,0,0,.46,2.65,13.58,13.58,0,0,0,11.65,8.11c6.13.28,14.79-5.35,13.5-12.42C189.53,252.41,179.11,249.81,174.17,251Z"/></g><circle class="cls-11" cx="1075.77" cy="109.55" r="98.24" transform="matrix(0.94, -0.33, 0.33, 0.94, 24.1, 361.07)"/><circle class="cls-3" cx="1075.77" cy="109.55" r="81.83" transform="translate(419.38 968.87) rotate(-58.44)"/><g class="cls-12"><path class="cls-13" d="M1067.68,219c25.56-21.44,44.61-51.57,49-84.64s-7.25-68.73-32.91-90.05c-12-10-26.47-16.56-40.64-23.17-9.83-4.58-20-9.5-26.76-17.95a6.43,6.43,0,0,1-1.74-3.66c-.09-2.81,2.95-4.57,5.61-5.5,15.94-5.61,33.65-4.91,49.87-.15s31.06,13.38,44.71,23.33c24.68,18,46.74,41.94,54.21,71.56,8.09,32.06-3.24,68.23-28.16,90-7.54,6.57-16.12,11.84-24.93,16.55a253.77,253.77,0,0,1-33.72,15"/><path class="cls-13" d="M977.81,61.35c8.17,9.94,22.83,11.39,35.62,10a121.16,121.16,0,0,0,78.94-42.26c6.24-7.46,11.78-17.58,7.91-26.5-7.29,20.64-24.24,37.08-44.09,46.3S1013.83,60.55,992,58.68c-5.16-.45-10.38-1.12-15.51-.39s-10.31,3.12-13.08,7.5c-3.78,6-2.19,13.76-.48,20.63,1.66,6.67,3.4,13.51,7.35,19.15a33.51,33.51,0,0,0,9.91,9.13c15.59,9.66,36.17,7.78,52.73-.08s30-20.91,43.2-33.63,26.85-25.6,43.62-33c12.77-5.64,26.91-7.85,40.87-7.38,6.2.21,12.83.85,18.23-2.23.9-5.11-3.64-9.9-8.68-11.17s-10.31.07-15.31,1.46c-11.29,3.13-22.57,6.62-32.95,12.05-14.85,7.77-27.37,19.23-39.82,30.45s-25.21,22.47-40.34,29.68-33.15,10-48.69,3.72c-9.1-3.67-17.17-10.32-26.91-11.65"/><path class="cls-13" d="M946.57,146.88a142.56,142.56,0,0,1,79.67-17.51c20.93,1.59,41.63,7.84,62.55,6.09,20.65-1.74,40.29-11.43,55.24-25.77s25.34-33.1,31-53c.47-1.69,1.81-3.84,3.38-3.07,2.38,6.45,1.55,13.74-.9,20.17s-6.4,12.15-10.37,17.76c-10.38,14.69-21.62,29.6-37.44,38.14-10,5.37-21.18,7.9-32.26,10.19-10.87,2.24-22,4.34-33,3-9.8-1.2-19.12-5.09-28.93-6.17-12.42-1.36-24.93,1.86-36.58,6.4-9.89,3.86-19.73,8.94-26.28,17.3s-9,20.66-3.46,29.72a8.66,8.66,0,0,0,3.31,3.4c3.7,1.85,8-.86,11.2-3.43,20.93-16.6,43.65-33.89,70.3-35.74,9-.63,18.06.58,27.1,1.15,21.64,1.37,43.72-1,64-8.84s38.54-21.29,50.49-39.39c2,6.24,0,13.22-3.73,18.6s-9.06,9.42-14.37,13.26c-6.69,4.84-13.6,9.53-21.36,12.35-7.58,2.75-15.71,3.62-23.77,4.13-22.54,1.45-45.22.34-67.69,2.6-10.48,1.05-21.09,2.9-30.35,7.9a48.93,48.93,0,0,0-20.53,21.27,4.07,4.07,0,0,0-.6,2.73c.73,2.85,5,1.3,7.28-.62a62.34,62.34,0,0,1,80-1.1c3.66,3,7.27,7.67,5.34,12a10.92,10.92,0,0,1-4.21,4.24c-15.35,10.23-34.4,13.24-52.84,13.8-6.86.21-13.84.1-20.39-1.94-7.58-2.36-14.13-7.15-20.34-12.09-18.3-14.6-35.82-32.89-39.7-56"/><path class="cls-13" d="M1155.09,20.22c2.57,5.84,1.45,12.83-1.72,18.36s-8.17,9.79-13.45,13.36c-12.36,8.34-26.62,13.41-39.64,20.68s-25.42,17.61-29.85,31.85c-1.44,4.63-1.88,10,.77,14a14.54,14.54,0,0,0,5.71,4.79,29.07,29.07,0,0,0,17.22,2.36,59,59,0,0,0,16.7-5.54,123.43,123.43,0,0,0,42.37-33.2c8.49-10.39,15.49-23,14.77-36.44-.51-9.43-4.76-18.18-7.48-27.23"/><path class="cls-13" d="M1080.7,96.63c-2.23,3.06-4.13,7.07-2.13,9.9a6.88,6.88,0,0,0,4,2.42c3.14.84,6.63.47,10-.16a70,70,0,0,0,27.83-11.91,44,44,0,0,0,10.05-9.66,17.5,17.5,0,0,0,3.34-7.31,8.33,8.33,0,0,0-2-7.13,11.47,11.47,0,0,0-5.94-2.89c-7.83-1.7-18.14,4.76-24.81,8.77A68.89,68.89,0,0,0,1080.7,96.63Z"/></g><path class="cls-14" d="M956.88,211.73a44.25,44.25,0,1,1-2.07-62.55A44.26,44.26,0,0,1,956.88,211.73Z"/><path class="cls-13" d="M949.15,235.34a39.61,39.61,0,0,1-22.26,9.89c-4.67.48-9.59.07-13.65-2.29s-7-7-6.43-11.62c.62-4.82,4.66-8.44,8.73-11.11,5.77-3.78,12.13-6.58,18-10.2s11.39-8.29,14.3-14.55c3.45-7.41,2.76-16.22-.09-23.88a46,46,0,0,0-67.29-23.05c-6.4,4-11.88,9.67-14.7,16.65A36,36,0,0,0,863.34,179a47.44,47.44,0,0,0,15.2,34.11c4.06,3.72,8.89,6.86,11.51,11.71-18-.58-34.88-13.26-41.18-30.17a48.79,48.79,0,0,1,4.22-42.11,53.8,53.8,0,0,1,25.78-21.07,68.92,68.92,0,0,1,33.28-4c5.68.65,14.77-3.6,20-1.3,5.77,2.54,20.58,2.38,25,6.92,14.27,14.8,28.23,49.34,22,68.92s-45.17,33.21-64.64,39.83"/><path class="cls-4" d="M680.77,38.24a53.32,53.32,0,1,1-5.91,75.19A53.33,53.33,0,0,1,680.77,38.24Z"/><g class="cls-15"><path class="cls-13" d="M717.52,191a62.45,62.45,0,0,1-37.8,6.77c-7.32-1-14.71-3.5-20-8.63s-8.13-13.31-5.47-20.21c2.76-7.16,10.31-11.18,17.54-13.73,10.26-3.61,21-5.51,31.4-8.86s20.56-8.41,27.36-16.89c8.06-10,10.32-23.8,8.84-36.6A72.48,72.48,0,0,0,645,32.22c-11.29,3.67-21.83,10.33-28.78,20a57,57,0,0,0-8.89,20.28,74.75,74.75,0,0,0,10.44,57.94c4.82,7.22,11,13.86,13.22,22.26-27.4-7.66-48.41-33.4-51.7-61.67A76.9,76.9,0,0,1,601.56,28.1C614.29,15.67,631.33,8,649,5.53s35.78.14,52.47,6.34c8.45,3.14,24,0,31.12,5.53,7.88,6.07,30.62,11.38,35.62,20,16.29,28,24.68,86.16,7.7,113.77S694.22,185,661.93,187.84"/><path class="cls-13" d="M766.38-7.92C765.27,3.51,757,12.86,748.23,20.33c-23,19.69-51.47,32.2-80.72,40.06-10.68,2.87-22.19,5.53-29.73,13.62-2.73,2.94-4.86,6.74-4.69,10.76s3.29,8,7.3,8.18c4.72.18,8-4.41,10.84-8.19A60.93,60.93,0,0,1,681.88,63.3c13.53-4.13,28-3.4,41.94-5.94a89.86,89.86,0,0,0,54.47-33c4.08-5.29,7.65-11.14,13-15.18S804.36,3.28,809.89,7c3.18,2.15,5.11,5.79,6,9.53,2.12,9-1.34,18.59-7.31,25.61S794.39,53.93,786,57.68c-17,7.59-35.36,11.64-53.69,14.89-13.9,2.47-27.94,4.52-41.38,8.85s-26.4,11.16-35.77,21.72C645.07,114.5,640,132.07,647.91,145c1.27,2.05,3.46,4.14,5.76,3.42,1.67-.52,2.56-2.32,3.1-4,2.8-8.65,1.35-18.34,4.75-26.77s11.3-14.39,19.19-19.1A157.82,157.82,0,0,1,807,83.74c5.41,1.69,10.91,3.8,14.91,7.81a4.81,4.81,0,0,1,1.57,2.61c.48,3.34-4.43,4.31-7.76,3.81-12.67-1.9-25.4-4.48-38.17-3.57a71.29,71.29,0,0,0-50.46,26.9c-5,6.47-9.08,14.69-7.14,22.66,2.56,10.5,14.3,16,25,17.27,14.87,1.69,29.91-2,43.72-7.8,15.27-6.36,29.61-15.34,40.94-27.4S849.2,98.7,851.51,82.32c4-28.47-10.15-57.1-30.59-77.31"/></g></g></g></svg>