<svg xmlns="http://www.w3.org/2000/svg" xmlns:xlink="http://www.w3.org/1999/xlink" viewBox="0 0 1300 500"><defs><style>.cls-1{fill:url(#Degradado_sin_nombre_46);}.cls-2{fill:url(#Degradado_sin_nombre_346);}.cls-3{fill:url(#Degradado_sin_nombre_346-2);}.cls-4{fill:url(#Degradado_sin_nombre_346-3);}.cls-5{fill:url(#Degradado_sin_nombre_346-4);}.cls-6{fill:url(#Degradado_sin_nombre_346-5);}.cls-7{fill:url(#Degradado_sin_nombre_346-6);}.cls-8{fill:url(#Degradado_sin_nombre_346-7);}.cls-9{fill:url(#Degradado_sin_nombre_346-8);}.cls-10{fill:url(#Degradado_sin_nombre_346-9);}.cls-11{fill:url(#Degradado_sin_nombre_346-10);}.cls-12{fill:url(#Degradado_sin_nombre_346-11);}.cls-13{fill:url(#Degradado_sin_nombre_346-12);}.cls-14{fill:url(#Degradado_sin_nombre_346-13);}.cls-15{fill:url(#Degradado_sin_nombre_346-14);}.cls-16{fill:url(#Degradado_sin_nombre_346-15);}.cls-17{fill:url(#Degradado_sin_nombre_346-16);}.cls-18{isolation:isolate;}.cls-19{fill:url(#Degradado_sin_nombre_31);}.cls-20,.cls-22{fill:#fff;}.cls-21{fill:#3a3b52;opacity:0.2;}.cls-21,.cls-26,.cls-27{mix-blend-mode:multiply;}.cls-22,.cls-26,.cls-27{opacity:0.3;}.cls-23{fill:#e79b26;}.cls-24{fill:#f4da62;}.cls-25{clip-path:url(#clip-path);}.cls-26{fill:#b04e77;}.cls-27{fill:#6a4e77;}.cls-28{clip-path:url(#clip-path-2);}.cls-29{clip-path:url(#clip-path-3);}.cls-30{clip-path:url(#clip-path-4);}.cls-31{clip-path:url(#clip-path-5);}.cls-32{clip-path:url(#clip-path-6);}.cls-33{clip-path:url(#clip-path-7);}.cls-34{clip-path:url(#clip-path-8);}.cls-35{clip-path:url(#clip-path-9);}.cls-36{clip-path:url(#clip-path-10);}.cls-37{clip-path:url(#clip-path-11);}.cls-38{clip-path:url(#clip-path-12);}.cls-39{clip-path:url(#clip-path-13);}.cls-40{clip-path:url(#clip-path-14);}.cls-41{clip-path:url(#clip-path-15);}.cls-42{clip-path:url(#clip-path-16);}.cls-43{clip-path:url(#clip-path-17);}</style><linearGradient id="Degradado_sin_nombre_46" x1="941.49" y1="-968.47" x2="784.22" y2="-811.2" gradientTransform="translate(-164 -207.54) rotate(66.95)" gradientUnits="userSpaceOnUse"><stop offset="0" stop-color="#db3339"/><stop offset="1" stop-color="#621b70"/></linearGradient><linearGradient id="Degradado_sin_nombre_346" x1="38.56" y1="451.86" x2="224.44" y2="169.21" gradientTransform="translate(508.93 2.37) rotate(90.07)" gradientUnits="userSpaceOnUse"><stop offset="0" stop-color="#3c3047"/><stop offset="1" stop-color="#58487f"/></linearGradient><linearGradient id="Degradado_sin_nombre_346-2" x1="-252.47" y1="-1356.33" x2="-233.07" y2="-1356.33" gradientTransform="matrix(0.69, 0.72, -0.72, 0.69, -586.83, 1550.3)" xlink:href="#Degradado_sin_nombre_346"/><linearGradient id="Degradado_sin_nombre_346-3" x1="916.95" y1="-1267.86" x2="997.18" y2="-1389.86" gradientTransform="translate(-257.86 1084.47) rotate(29.96)" xlink:href="#Degradado_sin_nombre_346"/><linearGradient id="Degradado_sin_nombre_346-4" x1="1229.08" y1="443.43" x2="1309.31" y2="321.43" gradientTransform="matrix(1, 0, 0, 1, 0, 0)" xlink:href="#Degradado_sin_nombre_346"/><linearGradient id="Degradado_sin_nombre_346-5" x1="481.15" y1="-2072.75" x2="503.24" y2="-2072.75" gradientTransform="matrix(0.69, 0.72, -0.72, 0.69, -586.83, 1550.3)" xlink:href="#Degradado_sin_nombre_346"/><linearGradient id="Degradado_sin_nombre_346-6" x1="741.81" y1="-1611.29" x2="822.04" y2="-1733.28" gradientTransform="translate(-257.86 1084.47) rotate(29.96)" xlink:href="#Degradado_sin_nombre_346"/><linearGradient id="Degradado_sin_nombre_346-7" x1="810.08" y1="-1606.65" x2="890.3" y2="-1728.65" gradientTransform="translate(-257.86 1084.47) rotate(29.96)" xlink:href="#Degradado_sin_nombre_346"/><linearGradient id="Degradado_sin_nombre_346-8" x1="767.55" y1="-1578.55" x2="825.94" y2="-1667.34" gradientTransform="translate(-257.86 1084.47) rotate(29.96)" xlink:href="#Degradado_sin_nombre_346"/><linearGradient id="Degradado_sin_nombre_346-9" x1="113.91" y1="501.42" x2="299.79" y2="218.77" xlink:href="#Degradado_sin_nombre_346"/><linearGradient id="Degradado_sin_nombre_346-10" x1="27.61" y1="444.66" x2="213.49" y2="162.01" xlink:href="#Degradado_sin_nombre_346"/><linearGradient id="Degradado_sin_nombre_346-11" x1="226.28" y1="351.83" x2="277.46" y2="351.83" xlink:href="#Degradado_sin_nombre_346"/><linearGradient id="Degradado_sin_nombre_346-12" x1="162.81" y1="-1049.16" x2="301.43" y2="-1259.95" gradientTransform="translate(-257.86 1084.47) rotate(29.96)" xlink:href="#Degradado_sin_nombre_346"/><linearGradient id="Degradado_sin_nombre_346-13" x1="509.64" y1="255.94" x2="648.27" y2="45.15" gradientTransform="matrix(1, 0, 0, 1, 0, 0)" xlink:href="#Degradado_sin_nombre_346"/><linearGradient id="Degradado_sin_nombre_346-14" x1="-141.46" y1="-1683.51" x2="-103.29" y2="-1683.51" gradientTransform="matrix(0.69, 0.72, -0.72, 0.69, -586.83, 1550.3)" xlink:href="#Degradado_sin_nombre_346"/><linearGradient id="Degradado_sin_nombre_346-15" x1="22.4" y1="-789.06" x2="91.73" y2="-894.48" gradientTransform="translate(-257.86 1084.47) rotate(29.96)" xlink:href="#Degradado_sin_nombre_346"/><linearGradient id="Degradado_sin_nombre_346-16" x1="205.27" y1="412.69" x2="280.91" y2="297.66" gradientTransform="matrix(1, 0, 0, 1, 0, 0)" xlink:href="#Degradado_sin_nombre_346"/><linearGradient id="Degradado_sin_nombre_31" x1="1.22" y1="253.27" x2="1301.25" y2="253.27" gradientUnits="userSpaceOnUse"><stop offset="0" stop-color="#007aa7"/><stop offset="1" stop-color="#26a3db"/></linearGradient><clipPath id="clip-path"><circle class="cls-1" cx="992.73" cy="238.08" r="128.37" transform="translate(122.41 771.7) rotate(-45)"/></clipPath><clipPath id="clip-path-2"><path class="cls-2" d="M180,62.54c-20.75,9.71-30.13,33.55-37.61,55.21-2,5.9-4.11,11.95-4.1,18.2,0,5.64,1.71,11.13,3.54,16.46A294.54,294.54,0,0,0,153.43,181c3.79,8.14,8.1,16.29,14.74,22.35,11.47,10.47,27.87,13.07,43.25,15.2,6.32.88,13,1.72,18.91-.66,6.56-2.62,11-8.67,16-13.6,11.78-11.47,28.14-17.67,38.94-30.07,18.44-21.14,12.88-58.39-10.92-73.24-5.58-3.48-11.85-5.82-17.09-9.79-13.26-10-10.68-19.82-29-26.89C212.9,58.37,195.59,55.27,180,62.54Z"/></clipPath><clipPath id="clip-path-3"><path class="cls-10" d="M77.14,112.71c-6.48-4.39-14.58-7-22.21-5.24-10.88,2.47-18,12.66-24,22.06-3.15,4.93-6.34,9.94-8,15.55s-1.58,12,1.54,16.94c2.32,3.69,6.06,6.21,9.12,9.31C38.25,176,41.32,182,45.28,187.18s9.35,10,15.89,10.65c5.92.56,11.55-2.37,17.4-3.44,2.59-.48,5.25-.6,7.8-1.28,11.95-3.19,17.17-16.9,20.61-28.78.65-2.23,1.3-4.59.71-6.84-1.07-4.09-5.6-6-8.77-8.82-6.71-5.93-3.1-11.92-5.31-18.93C91.6,123.35,82.46,116.31,77.14,112.71Z"/></clipPath><clipPath id="clip-path-4"><path class="cls-11" d="M98,27.47a8.74,8.74,0,0,0-4.17-.88,8.68,8.68,0,0,0-4.16,2.05A78.26,78.26,0,0,0,78,40.08c-3.34,3.9-6.63,8.45-6.46,13.58.2,6.15,5.59,11.19,11.54,12.76s12.25.33,18.13-1.47a19.37,19.37,0,0,0,5.36-2.31c4.3-2.92,5.93-8.37,7.26-13.39C117,37.17,108.55,31.81,98,27.47Z"/></clipPath><clipPath id="clip-path-5"><path class="cls-12" d="M166.08,233.64c-3.62-2.48-7.62-4.59-12-5.22a21.51,21.51,0,0,0-17,5.42,27.87,27.87,0,0,0-8.57,15.88,14.44,14.44,0,0,0,.29,7.53,15,15,0,0,0,4.65,5.95c8.21,6.94,18.87,10.1,29.19,13.09l9.14,2.64a8.36,8.36,0,0,0,3.12.49,7.17,7.17,0,0,0,4.19-2.5C193.8,261.57,179.88,243.08,166.08,233.64Z"/></clipPath><clipPath id="clip-path-6"><path class="cls-13" d="M431.15,210.56c-5.25,2.56-9.94,6.84-11.65,12.42-2.44,8,1.51,16.32,5.36,23.7,2,3.86,4.07,7.79,7.08,10.94s7.17,5.48,11.53,5.3c3.24-.13,6.26-1.61,9.41-2.44,4.73-1.25,9.72-1,14.57-1.63s10-2.33,12.79-6.32c2.56-3.62,2.77-8.35,4.24-12.53.66-1.85,1.57-3.62,2.08-5.52,2.38-8.91-4.54-17.38-10.94-24a9.72,9.72,0,0,0-4.16-3c-3-.83-6,1.38-9,2.39-6.33,2.14-8.86-2.43-14.21-3.6C443.4,205.17,435.45,208.47,431.15,210.56Z"/></clipPath><clipPath id="clip-path-7"><path class="cls-14" d="M508.14,230.76a6.42,6.42,0,0,0-.66,3.11A6.54,6.54,0,0,0,509,237a58.25,58.25,0,0,0,8.54,8.73c2.91,2.49,6.3,4.94,10.13,4.81,4.58-.16,8.34-4.19,9.5-8.62s.24-9.14-1.1-13.52a14.56,14.56,0,0,0-1.73-4c-2.18-3.2-6.25-4.41-10-5.4C515.35,216.59,511.36,222.89,508.14,230.76Z"/></clipPath><clipPath id="clip-path-8"><path class="cls-15" d="M534,277.42a21.54,21.54,0,0,0-9.12,3.41,16.05,16.05,0,0,0-6.29,11.71,20.69,20.69,0,0,0,3.65,12.95,10.72,10.72,0,0,0,4,3.89,11.15,11.15,0,0,0,5.58.77c8-.53,15.35-4.37,22.44-8.12l6.26-3.32a6.09,6.09,0,0,0,1.92-1.36,5.23,5.23,0,0,0,1-3.51C563.3,278,546.25,275.33,534,277.42Z"/></clipPath><clipPath id="clip-path-9"><path class="cls-16" d="M168,387.5a11.55,11.55,0,0,0-5.67,6.95c-1.19,4.46.74,9.14,2.61,13.28a26.85,26.85,0,0,0,3.44,6.12,7.22,7.22,0,0,0,5.61,3c1.57-.07,3-.9,4.57-1.36,2.3-.7,4.73-.58,7.09-.92a8.39,8.39,0,0,0,6.22-3.54c1.25-2,1.34-4.67,2.06-7,.32-1,.77-2,1-3.09,1.16-5-2.21-9.73-5.32-13.45a4.75,4.75,0,0,0-2-1.68c-1.48-.47-2.91.77-4.36,1.33-3.08,1.2-4.31-1.35-6.91-2C173.93,384.48,170.07,386.32,168,387.5Z"/></clipPath><clipPath id="clip-path-10"><path class="cls-17" d="M205.41,398.81a4.13,4.13,0,0,0-.31,1.74,3.92,3.92,0,0,0,.74,1.74,32.1,32.1,0,0,0,4.15,4.89c1.42,1.39,3.07,2.76,4.93,2.69,2.23-.09,4.06-2.34,4.62-4.83a16,16,0,0,0-.53-7.57,8.87,8.87,0,0,0-.85-2.24c-1.06-1.8-3-2.47-4.86-3C208.92,390.87,207,394.4,205.41,398.81Z"/></clipPath><clipPath id="clip-path-11"><path class="cls-3" d="M218,425a9.53,9.53,0,0,0-4.43,1.91,9.42,9.42,0,0,0-3.06,6.55,12.94,12.94,0,0,0,1.77,7.26,5.64,5.64,0,0,0,2,2.18,4.82,4.82,0,0,0,2.72.43c3.89-.3,7.46-2.45,10.91-4.55l3-1.86a3.12,3.12,0,0,0,.94-.76,3.26,3.26,0,0,0,.46-2C232.24,425.28,224,423.77,218,425Z"/></clipPath><clipPath id="clip-path-12"><path class="cls-4" d="M1183.65,417.17c-3,1.48-5.75,3.95-6.74,7.18-1.42,4.61.87,9.45,3.1,13.72a26.34,26.34,0,0,0,4.1,6.33,9.07,9.07,0,0,0,6.67,3.07c1.88-.08,3.62-.93,5.44-1.41,2.74-.73,5.63-.59,8.44-.95s5.76-1.34,7.4-3.66c1.48-2.09,1.6-4.83,2.46-7.25.37-1.07.9-2.09,1.2-3.19,1.37-5.16-2.63-10.06-6.34-13.9a5.53,5.53,0,0,0-2.4-1.74c-1.77-.48-3.46.8-5.19,1.38-3.67,1.24-5.13-1.4-8.23-2.08C1190.74,414.05,1186.14,416,1183.65,417.17Z"/></clipPath><clipPath id="clip-path-13"><path class="cls-5" d="M1228.21,428.85a2.95,2.95,0,0,0,.5,3.6,33.76,33.76,0,0,0,5,5.05c1.68,1.44,3.65,2.86,5.86,2.78,2.65-.09,4.83-2.42,5.5-5a14.48,14.48,0,0,0-.64-7.83,8.21,8.21,0,0,0-1-2.31c-1.26-1.86-3.62-2.56-5.78-3.13C1232.38,420.65,1230.07,424.3,1228.21,428.85Z"/></clipPath><clipPath id="clip-path-14"><path class="cls-6" d="M1243.15,455.86a12.53,12.53,0,0,0-5.28,2,9.31,9.31,0,0,0-3.64,6.78,12,12,0,0,0,2.11,7.5,6.26,6.26,0,0,0,2.35,2.25,6.55,6.55,0,0,0,3.23.45c4.63-.31,8.88-2.53,13-4.71l3.63-1.92a3.48,3.48,0,0,0,1.11-.78,3,3,0,0,0,.55-2C1260.13,456.21,1250.26,454.65,1243.15,455.86Z"/></clipPath><clipPath id="clip-path-15"><path class="cls-7" d="M1203.41,32.16c-3,1.48-5.75,4-6.74,7.19-1.42,4.6.87,9.44,3.1,13.71a26.34,26.34,0,0,0,4.1,6.33,9,9,0,0,0,6.67,3.07c1.88-.07,3.63-.93,5.45-1.41,2.73-.72,5.62-.59,8.43-.94s5.76-1.35,7.4-3.66c1.49-2.09,1.6-4.83,2.46-7.25.38-1.07.91-2.1,1.2-3.2,1.38-5.15-2.63-10-6.33-13.9a5.73,5.73,0,0,0-2.41-1.74c-1.76-.47-3.46.8-5.19,1.39-3.66,1.23-5.13-1.41-8.22-2.09C1210.5,29,1205.9,31,1203.41,32.16Z"/></clipPath><clipPath id="clip-path-16"><path class="cls-8" d="M1260.24,70.27c-3,1.48-5.75,4-6.74,7.18-1.41,4.61.88,9.45,3.1,13.72a27,27,0,0,0,4.1,6.33,9,9,0,0,0,6.67,3.07c1.88-.07,3.63-.93,5.45-1.41,2.74-.72,5.62-.59,8.43-1s5.77-1.34,7.41-3.65c1.48-2.1,1.6-4.83,2.45-7.25.38-1.08.91-2.1,1.2-3.2,1.38-5.16-2.63-10.06-6.33-13.9a5.65,5.65,0,0,0-2.41-1.74c-1.76-.48-3.46.8-5.19,1.38-3.66,1.24-5.12-1.4-8.22-2.08C1267.33,67.15,1262.73,69.06,1260.24,70.27Z"/></clipPath><clipPath id="clip-path-17"><path class="cls-9" d="M1205.58,80.65a9.12,9.12,0,0,0-4.9,5.23c-1,3.35.63,6.88,2.25,10a19.35,19.35,0,0,0,3,4.6,6.6,6.6,0,0,0,4.85,2.24,19.34,19.34,0,0,0,4-1,48.06,48.06,0,0,1,6.14-.69c2-.26,4.19-1,5.38-2.66,1.08-1.52,1.17-3.52,1.79-5.28.28-.78.66-1.52.88-2.32,1-3.76-1.92-7.32-4.62-10.12a4,4,0,0,0-1.75-1.26c-1.28-.35-2.51.58-3.77,1-2.67.9-3.74-1-6-1.52C1210.74,78.38,1207.4,79.77,1205.58,80.65Z"/></clipPath></defs><title>Mesa de trabajo 1</title><g class="cls-18"><g id="Capa_1" data-name="Capa 1"><rect class="cls-19" x="1.22" width="1300.02" height="506.53"/><path class="cls-20" d="M49.46,96.3a6,6,0,1,1-6-6A6,6,0,0,1,49.46,96.3Z"/><path class="cls-20" d="M441.56,498.67a6,6,0,1,1-6-6A6,6,0,0,1,441.56,498.67Z"/><path class="cls-20" d="M482.4,63.36a6,6,0,1,1-6-6A6,6,0,0,1,482.4,63.36Z"/><path class="cls-20" d="M218.63,46a6,6,0,1,1-6-6A6,6,0,0,1,218.63,46Z"/><path class="cls-20" d="M90.12,169.91a1.22,1.22,0,1,1-1.22-1.23A1.21,1.21,0,0,1,90.12,169.91Z"/><path class="cls-20" d="M312.89,469.34a1.23,1.23,0,1,1-1.22-1.23A1.22,1.22,0,0,1,312.89,469.34Z"/><circle class="cls-20" cx="536.6" cy="483.18" r="1.22"/><circle class="cls-20" cx="554.3" cy="171.13" r="1.22"/><path class="cls-20" d="M483.63,108.64a1.23,1.23,0,1,1-1.23-1.23A1.23,1.23,0,0,1,483.63,108.64Z"/><path class="cls-20" d="M309.22,85.34A1.23,1.23,0,1,1,308,84.11,1.23,1.23,0,0,1,309.22,85.34Z"/><path class="cls-20" d="M399.1,86.56a1.22,1.22,0,1,1-1.22-1.22A1.22,1.22,0,0,1,399.1,86.56Z"/><circle class="cls-20" cx="263.92" cy="171.13" r="1.22"/><path class="cls-20" d="M310.44,123.26a1.23,1.23,0,1,1-1.22-1.22A1.22,1.22,0,0,1,310.44,123.26Z"/><path class="cls-20" d="M88.61,489.9a1.23,1.23,0,1,1-1.23-1.23A1.23,1.23,0,0,1,88.61,489.9Z"/><path class="cls-20" d="M265.14,96.3a1.23,1.23,0,1,1-1.22-1.23A1.22,1.22,0,0,1,265.14,96.3Z"/><path class="cls-20" d="M32.07,407.87a1.23,1.23,0,1,1-1.22-1.23A1.22,1.22,0,0,1,32.07,407.87Z"/><path class="cls-20" d="M397.88,288.6a1.23,1.23,0,1,1-1.22-1.23A1.22,1.22,0,0,1,397.88,288.6Z"/><circle class="cls-20" cx="54.68" cy="466.18" r="1.22"/><path class="cls-20" d="M30.85,492.7a1.23,1.23,0,1,1-1.23-1.23A1.22,1.22,0,0,1,30.85,492.7Z"/><path class="cls-20" d="M154.87,131.44a1.23,1.23,0,1,1-1.22-1.22A1.23,1.23,0,0,1,154.87,131.44Z"/><path class="cls-20" d="M114.08,188.16a2.77,2.77,0,1,1-2.77-2.77A2.77,2.77,0,0,1,114.08,188.16Z"/><path class="cls-20" d="M133.26,155.77A2.77,2.77,0,1,1,130.5,153,2.76,2.76,0,0,1,133.26,155.77Z"/><path class="cls-20" d="M373,303.14a2.77,2.77,0,1,1-2.77-2.76A2.77,2.77,0,0,1,373,303.14Z"/><path class="cls-20" d="M529,285.83a2.77,2.77,0,1,1-2.77-2.77A2.77,2.77,0,0,1,529,285.83Z"/><path class="cls-20" d="M399.42,255.35a2.77,2.77,0,1,1-2.76-2.76A2.77,2.77,0,0,1,399.42,255.35Z"/><path class="cls-20" d="M466.17,120.49a2.77,2.77,0,1,1-2.77-2.76A2.77,2.77,0,0,1,466.17,120.49Z"/><path class="cls-20" d="M292.3,102.27a2.77,2.77,0,1,1-2.77-2.77A2.77,2.77,0,0,1,292.3,102.27Z"/><circle class="cls-20" cx="108.55" cy="43.24" r="2.77"/><path class="cls-20" d="M161.94,181.77a2.77,2.77,0,1,1-2.76-2.77A2.75,2.75,0,0,1,161.94,181.77Z"/><path class="cls-20" d="M159.18,460.89a2.77,2.77,0,1,1-2.77-2.76A2.77,2.77,0,0,1,159.18,460.89Z"/><path class="cls-20" d="M6.76,458.13A2.77,2.77,0,1,1,4,455.36,2.77,2.77,0,0,1,6.76,458.13Z"/><path class="cls-20" d="M502.94,326.86h0A11.86,11.86,0,0,0,491.08,315h0a11.86,11.86,0,0,0,11.86-11.86h0A11.86,11.86,0,0,0,514.8,315h0A11.86,11.86,0,0,0,502.94,326.86Z"/><path class="cls-20" d="M21.22,181.77h0A11.86,11.86,0,0,0,9.36,169.91h0a11.86,11.86,0,0,0,11.86-11.86h0a11.86,11.86,0,0,0,11.86,11.86h0A11.86,11.86,0,0,0,21.22,181.77Z"/><path class="cls-20" d="M99.24,132.35h0a11.86,11.86,0,0,0-11.86-11.86h0a11.86,11.86,0,0,0,11.86-11.85h0a11.86,11.86,0,0,0,11.86,11.85h0A11.86,11.86,0,0,0,99.24,132.35Z"/><path class="cls-20" d="M819.29,417a6,6,0,1,1-6-6A6,6,0,0,1,819.29,417Z"/><path class="cls-20" d="M970.88,95a6,6,0,1,1-6-6A6,6,0,0,1,970.88,95Z"/><path class="cls-20" d="M868.64,330.82a1.23,1.23,0,1,1-1.22-1.22A1.23,1.23,0,0,1,868.64,330.82Z"/><path class="cls-20" d="M1069.6,235.09a1.23,1.23,0,1,1-1.22-1.22A1.22,1.22,0,0,1,1069.6,235.09Z"/><path class="cls-20" d="M575.26,455.74a1.23,1.23,0,1,1-1.22-1.23A1.22,1.22,0,0,1,575.26,455.74Z"/><path class="cls-20" d="M842.22,65.64A1.23,1.23,0,1,1,841,64.41,1.22,1.22,0,0,1,842.22,65.64Z"/><circle class="cls-20" cx="839.77" cy="327.65" r="1.22"/><circle class="cls-20" cx="1065.93" cy="79.48" r="1.22"/><path class="cls-20" d="M1058,147.8a1.23,1.23,0,1,1-1.22-1.22A1.23,1.23,0,0,1,1058,147.8Z"/><path class="cls-20" d="M617.94,86.2A1.23,1.23,0,1,1,616.71,85,1.23,1.23,0,0,1,617.94,86.2Z"/><path class="cls-20" d="M561.4,4.17a1.23,1.23,0,1,1-1.23-1.23A1.22,1.22,0,0,1,561.4,4.17Z"/><circle class="cls-20" cx="584.01" cy="62.48" r="1.22"/><path class="cls-20" d="M560.17,89a1.23,1.23,0,0,1-2.45,0,1.23,1.23,0,1,1,2.45,0Z"/><circle class="cls-20" cx="530.55" cy="249.97" r="1.22"/><path class="cls-20" d="M975.51,219a1.23,1.23,0,1,1-1.23-1.23A1.23,1.23,0,0,1,975.51,219Z"/><path class="cls-20" d="M927.21,267.77a1.23,1.23,0,1,1-1.23-1.23A1.23,1.23,0,0,1,927.21,267.77Z"/><path class="cls-20" d="M880.67,137.69a1.23,1.23,0,1,1-1.22-1.22A1.23,1.23,0,0,1,880.67,137.69Z"/><path class="cls-20" d="M782.61,137.69a1.23,1.23,0,1,1-1.22-1.22A1.23,1.23,0,0,1,782.61,137.69Z"/><path class="cls-20" d="M928.43,181.08a1.23,1.23,0,1,1-1.22-1.23A1.22,1.22,0,0,1,928.43,181.08Z"/><path class="cls-20" d="M892.29,358.53a1.23,1.23,0,1,1-1.23-1.23A1.22,1.22,0,0,1,892.29,358.53Z"/><path class="cls-20" d="M818.86,306.65a2.77,2.77,0,1,1-2.77-2.76A2.77,2.77,0,0,1,818.86,306.65Z"/><path class="cls-20" d="M816.09,157.3a2.77,2.77,0,1,1-2.77-2.77A2.77,2.77,0,0,1,816.09,157.3Z"/><path class="cls-20" d="M593.61,502.59a2.77,2.77,0,1,1-2.77-2.76A2.77,2.77,0,0,1,593.61,502.59Z"/><path class="cls-20" d="M553.31,209.58a2.77,2.77,0,1,1-2.76-2.77A2.76,2.76,0,0,1,553.31,209.58Z"/><path class="cls-20" d="M992.73,267.77A2.77,2.77,0,1,1,990,265,2.77,2.77,0,0,1,992.73,267.77Z"/><path class="cls-20" d="M835.47,499.83a2.77,2.77,0,1,1-2.76-2.77A2.76,2.76,0,0,1,835.47,499.83Z"/><path class="cls-20" d="M959,165.7a2.77,2.77,0,1,1-2.77-2.77A2.76,2.76,0,0,1,959,165.7Z"/><path class="cls-20" d="M990,147.8A2.77,2.77,0,1,1,987.2,145,2.77,2.77,0,0,1,990,147.8Z"/><path class="cls-20" d="M688.51,57.19a2.77,2.77,0,1,1-2.77-2.77A2.77,2.77,0,0,1,688.51,57.19Z"/><path class="cls-20" d="M536.09,54.42a2.77,2.77,0,1,1-2.77-2.76A2.77,2.77,0,0,1,536.09,54.42Z"/><path class="cls-20" d="M781.39,351.36h0a11.85,11.85,0,0,0-11.86-11.85h0a11.86,11.86,0,0,0,11.86-11.86h0a11.86,11.86,0,0,0,11.86,11.86h0A11.85,11.85,0,0,0,781.39,351.36Z"/><path class="cls-20" d="M1067.76,500.56a6,6,0,1,1-6-6A6,6,0,0,1,1067.76,500.56Z"/><path class="cls-20" d="M1219.35,178.52a6,6,0,1,1-6-6A6,6,0,0,1,1219.35,178.52Z"/><path class="cls-20" d="M1117.11,414.38a1.23,1.23,0,1,1-1.23-1.23A1.23,1.23,0,0,1,1117.11,414.38Z"/><path class="cls-20" d="M1090.69,149.19a1.23,1.23,0,1,1-1.23-1.23A1.23,1.23,0,0,1,1090.69,149.19Z"/><circle class="cls-20" cx="1088.24" cy="411.2" r="1.22"/><path class="cls-20" d="M866.4,169.75a1.23,1.23,0,1,1-1.22-1.23A1.22,1.22,0,0,1,866.4,169.75Z"/><path class="cls-20" d="M809.86,87.72a1.23,1.23,0,1,1-1.22-1.22A1.23,1.23,0,0,1,809.86,87.72Z"/><circle class="cls-20" cx="832.47" cy="146.03" r="1.22"/><path class="cls-20" d="M808.64,172.55a1.23,1.23,0,1,1-1.23-1.22A1.23,1.23,0,0,1,808.64,172.55Z"/><circle class="cls-20" cx="779.02" cy="333.52" r="1.22"/><path class="cls-20" d="M1224,302.51a1.23,1.23,0,1,1-1.23-1.23A1.22,1.22,0,0,1,1224,302.51Z"/><path class="cls-20" d="M1175.67,351.32a1.23,1.23,0,1,1-1.22-1.23A1.22,1.22,0,0,1,1175.67,351.32Z"/><path class="cls-20" d="M1129.13,221.25a1.23,1.23,0,1,1-1.22-1.23A1.22,1.22,0,0,1,1129.13,221.25Z"/><path class="cls-20" d="M1031.07,221.25a1.22,1.22,0,1,1-1.22-1.23A1.22,1.22,0,0,1,1031.07,221.25Z"/><path class="cls-20" d="M1176.9,264.63a1.23,1.23,0,1,1-1.23-1.23A1.23,1.23,0,0,1,1176.9,264.63Z"/><path class="cls-20" d="M1140.75,442.08a1.23,1.23,0,1,1-1.23-1.22A1.23,1.23,0,0,1,1140.75,442.08Z"/><path class="cls-20" d="M1067.32,390.2a2.77,2.77,0,1,1-2.77-2.76A2.77,2.77,0,0,1,1067.32,390.2Z"/><path class="cls-20" d="M1064.55,240.85a2.77,2.77,0,1,1-2.76-2.77A2.75,2.75,0,0,1,1064.55,240.85Z"/><path class="cls-20" d="M801.78,293.13a2.77,2.77,0,1,1-2.77-2.77A2.76,2.76,0,0,1,801.78,293.13Z"/><path class="cls-20" d="M1241.19,351.32a2.77,2.77,0,1,1-2.76-2.77A2.76,2.76,0,0,1,1241.19,351.32Z"/><path class="cls-20" d="M1207.41,249.25a2.77,2.77,0,1,1-2.77-2.77A2.77,2.77,0,0,1,1207.41,249.25Z"/><path class="cls-20" d="M1238.43,231.36a2.77,2.77,0,1,1-2.77-2.77A2.77,2.77,0,0,1,1238.43,231.36Z"/><path class="cls-20" d="M937,140.74A2.77,2.77,0,1,1,934.2,138,2.77,2.77,0,0,1,937,140.74Z"/><path class="cls-20" d="M784.55,138a2.77,2.77,0,1,1-2.77-2.77A2.77,2.77,0,0,1,784.55,138Z"/><path class="cls-20" d="M1029.85,434.92h0A11.86,11.86,0,0,0,1018,423.06h0a11.86,11.86,0,0,0,11.86-11.86h0a11.86,11.86,0,0,0,11.86,11.86h0A11.86,11.86,0,0,0,1029.85,434.92Z"/><path class="cls-20" d="M1280.73,6.71h0a11.86,11.86,0,0,0-11.86-11.86h0A11.86,11.86,0,0,0,1280.73-17h0a11.86,11.86,0,0,0,11.86,11.86h0A11.86,11.86,0,0,0,1280.73,6.71Z"/><path class="cls-21" d="M545.6,515.28C475.47,490.41,432.83,455.92,429.09,421c-1.42-13.21,2.83-26.8,20.18-38.31s49.59-20.64,86.46-21.38c31.26-.63,61.52,4.61,88,10.85,57.35,13.5,104.13,32,158.57,47a910.82,910.82,0,0,0,197.35,31.24c71.8,3.32,147.75-2.64,202.45-19,48.81-14.59,77.48-36.11,96-58,76-89.56-13.4-197-226.39-254.43-44.92-12.11-95.69-22.2-150.81-25.41s-115.15,1.28-154.35,15c-49.37,17.33-56.59,45.41-42.42,70,27.07,47,117.26,86.16,179.86,128.93,26.55,18.14,46.52,42.13,8.85,57-30,11.81-82.69,11.57-126.7,7.52-99.81-9.19-184.54-32.59-275.31-50.37S289.49,291.63,196.59,306.3c-50.66,8-89.35,23.09-122.62,38.84-10.63,5-26.2,10.8-43.08,8.57A49.36,49.36,0,0,1,14,348.2C-16.1,332.64-24.14,313-21.34,294.32c5-33.66,55.32-69.92,147.1-77.2,57.58-4.57,118.78,3.38,168.48,15.36s91.1,27.81,136.89,41.66C481,289.21,536.23,302,595,312c41.26,7,92.16,12.49,129.57,3.7,27.31-6.42,39-19.18,35.35-30.94s-20.26-22.64-39.86-32.31C663.17,224.36,580.2,204.15,493,189.11s-179.79-25.44-270.12-37.8c-55.61-7.61-112.78-16.58-151-33-52.64-22.56-57.34-56.89-16-81.52S179.32-2,260.57-.78C327,.26,394.93,11.93,429.5,32.47c36.26,21.55,31.07,48.12,34.09,73s22.11,53.2,83.79,65.3c25.66,5,60.08,6.1,81.52-.68,19.7-6.23,22.55-16.8,21.83-26.32-3.26-42.95-51.59-84-99.15-123.85C544.36,13.86,537,7.71,525.2,2.62c-15.68-6.78-38-11.17-60.55-14.61-132.14-20.09-294-10.4-397.08,23.78C26,25.59-6,42.76-32,60.84c-85.67,59.68-107.14,130.37-72.78,197.27s122.68,130,242.21,183.58c61.27,27.48,132.28,53.05,219,69.5,14.94,2.83,35.75,5,46.25.47"/><path class="cls-22" d="M1235.47,335.93l-6.35-2.56c8.21-20.37-79.72-82.2-219-138.36-63.79-25.71-125.67-45.09-174.24-54.55-53.71-10.47-76.29-5.66-79.51,2.33L750,140.23c7.25-18,51.41-13.47,87.18-6.49,49,9.54,111.29,29,175.48,54.92s122.61,55,164.52,82.13C1207.77,290.57,1242.73,317.93,1235.47,335.93Z"/><path class="cls-23" d="M1181.14,314l-9.52-3.84c0-.08,1.41-9.68-43.09-36.73-32.16-19.54-76.74-41.14-125.55-60.82s-95.9-35-132.62-43.25c-50.83-11.38-56.49-3.5-56.52-3.42l-9.53-3.84c11.16-27.65,137.35,14.72,202.51,41,49.31,19.87,94.43,41.74,127,61.56C1182.22,294.08,1184,306.93,1181.14,314Z"/><path class="cls-24" d="M1271.81,350.58l-3.18-1.28c11.86-29.42-104.47-105.2-254-165.48-74-29.84-145.93-52.08-202.48-62.64-55-10.27-89.7-8.19-95.29,5.68l-3.18-1.28c6.35-15.75,41.55-18.51,99.1-7.77,56.77,10.6,128.91,32.91,203.13,62.83C1172.38,243.72,1284.79,318.37,1271.81,350.58Z"/><circle class="cls-1" cx="992.73" cy="238.08" r="128.37" transform="translate(122.41 771.7) rotate(-45)"/><g class="cls-25"><path class="cls-26" d="M1046.88,6.42C998,50.5,962.48,111.29,956.19,176.84s19.15,135.1,71.28,175.35c24.44,18.87,53.38,30.81,81.81,42.86,19.71,8.34,40.06,17.34,54.06,33.53,1.77,2.05,3.5,4.39,3.69,7.1.38,5.53-5.51,9.22-10.68,11.25-31,12.18-66.06,12.05-98.38,3.8s-62.23-24.21-89.87-42.89c-50-33.75-95.15-79.46-112-137.35C837.91,207.8,857.7,135.64,905.35,91c14.41-13.48,31-24.48,48-34.4a497.77,497.77,0,0,1,65.49-31.94"/><path class="cls-27" d="M968.19,34.84c32.94,77.64,77.23,145.81,193.16,179.85,27.23,8,57.1,10.51,64.11,9-8.79-8.86-49.58-14-61.47-17.48C1074.48,179.92,999.1,108.11,967.43,19"/><path class="cls-27" d="M948.15,55.41c33,77.63,77.24,145.8,193.17,179.84,27.23,8,57.09,10.52,64.11,9-8.79-8.87-49.58-14-61.47-17.48-89.52-26.31-164.89-98.12-196.57-187.28"/><path class="cls-27" d="M928.12,76c32.94,77.64,77.23,145.81,193.16,179.85,27.24,8,57.1,10.51,64.11,9-8.79-8.87-49.57-14-61.47-17.48C1034.41,221.05,959,149.23,927.36,60.08"/><path class="cls-27" d="M908.08,96.54c32.95,77.63,77.24,145.8,193.17,179.84,27.23,8,57.1,10.52,64.11,9-8.79-8.87-49.58-14-61.47-17.49C1014.37,241.61,939,169.8,907.33,80.64"/><path class="cls-27" d="M888.05,117.1c32.94,77.64,77.23,145.81,193.16,179.84,27.24,8,57.1,10.52,64.11,9-8.79-8.87-49.57-14-61.47-17.48C994.34,262.18,919,190.36,887.29,101.21"/><path class="cls-27" d="M868,137.67c32.94,77.63,77.23,145.8,193.16,179.84,27.23,8,57.1,10.52,64.11,9-8.79-8.86-49.58-14-61.47-17.48-89.52-26.3-164.89-98.11-196.56-187.27"/><path class="cls-27" d="M848,158.23c32.95,77.64,77.24,145.81,193.17,179.84,27.23,8,57.09,10.52,64.11,9-8.8-8.87-49.58-14-61.47-17.48-89.52-26.31-164.9-98.12-196.57-187.28"/><path class="cls-27" d="M828,178.8c32.94,77.63,77.23,145.8,193.16,179.84,27.23,8,57.1,10.52,64.11,9-8.79-8.86-49.58-14-61.47-17.48-89.51-26.3-164.89-98.11-196.56-187.27"/><path class="cls-27" d="M807.91,199.36c33,77.63,77.24,145.8,193.17,179.84,27.23,8,57.09,10.52,64.11,9-8.79-8.87-49.58-14-61.47-17.48-89.52-26.31-164.89-98.12-196.57-187.28"/></g><path class="cls-24" d="M1230.72,364.79c-15.47,0-34.94-2.13-58-6.44-56.77-10.6-128.91-32.91-203.14-62.83-156.49-63.08-268.9-137.73-255.92-169.94l3.18,1.28c-11.86,29.42,104.47,105.2,254,165.48,74,29.84,145.92,52.09,202.48,62.64,55,10.27,89.7,8.19,95.29-5.68l3.18,1.28C1268,360,1253.84,364.79,1230.72,364.79Z"/><path class="cls-22" d="M1200.59,348.56c-16,0-35.13-2.79-52.3-6.13-49-9.55-111.3-29.06-175.48-54.93s-122.62-55-164.52-82.13c-30.6-19.78-65.56-47.14-58.3-65.14l6.35,2.56c-3.22,8,9.71,27.12,55.67,56.83,41.55,26.86,99.56,55.81,163.36,81.53S1101,326.24,1149.6,335.7c53.72,10.47,76.3,5.66,79.52-2.33l6.35,2.56C1231.7,345.29,1218,348.56,1200.59,348.56Z"/><path class="cls-23" d="M1158.21,323.23c-10,0-24.48-1.76-45.35-6.43-37.25-8.34-84.92-23.88-134.23-43.75-65.16-26.27-185.46-83.26-174.32-110.92l9.53,3.84c0,.09-1.41,9.68,43.09,36.73,32.16,19.55,76.74,41.14,125.55,60.82s95.9,35,132.62,43.25c50.83,11.38,56.48,3.5,56.52,3.42l9.52,3.84C1179.36,318.45,1174.74,323.23,1158.21,323.23Z"/><path class="cls-2" d="M180,62.54c-20.75,9.71-30.13,33.55-37.61,55.21-2,5.9-4.11,11.95-4.1,18.2,0,5.64,1.71,11.13,3.54,16.46A294.54,294.54,0,0,0,153.43,181c3.79,8.14,8.1,16.29,14.74,22.35,11.47,10.47,27.87,13.07,43.25,15.2,6.32.88,13,1.72,18.91-.66,6.56-2.62,11-8.67,16-13.6,11.78-11.47,28.14-17.67,38.94-30.07,18.44-21.14,12.88-58.39-10.92-73.24-5.58-3.48-11.85-5.82-17.09-9.79-13.26-10-10.68-19.82-29-26.89C212.9,58.37,195.59,55.27,180,62.54Z"/><g class="cls-28"><path class="cls-21" d="M273.69,74.37c-8,3.13-17,3-25.39,1.4s-16.52-4.72-24.66-7.47c-2.19-.73-4.55-1.45-6.76-.78-2.64.8-4.3,3.35-5.73,5.71l-6.86,11.28a29,29,0,0,0-4,8.55c-1.31,6,1.24,12,3.4,17.73s4,12.25,1.29,17.75c-4.61,9.47-19.37,10-24.24,19.36a19.14,19.14,0,0,0-1.82,8.19c-.33,9.41,2.59,18.68,2.64,28.09a4.92,4.92,0,0,1-.62,2.91,5.22,5.22,0,0,1-3,1.67q-18.45,5.24-37.35,8.66c-3.24.59-6.75,1.1-9.69-.38s-4.56-4.47-5.9-7.39c-7.22-15.73-9.38-33.27-10.54-50.55-.93-14-1.25-28.18,1.75-41.87s9.62-27,20.53-35.79c8.42-6.8,18.89-10.57,29.43-13A143.79,143.79,0,0,1,253,55.53"/><path class="cls-21" d="M279.65,87.46c-10.31,4-21.81,2.32-32.85,1.68a13.62,13.62,0,0,0-6,.59c-4.19,1.74-5.64,6.81-6.58,11.24q-1.75,8.23-3.5,16.46c-.41,1.94-.79,4.09.25,5.78a7.94,7.94,0,0,0,3.73,2.67l12.18,5.45a7.36,7.36,0,0,0,3.54.92c2.18-.19,3.67-2.17,5.14-3.78,6.15-6.74,15.73-8.89,23.66-13.39a12.29,12.29,0,0,0,5.13-4.62c2.76-5.26-1.68-11.37-2.05-17.31"/><path class="cls-21" d="M245.53,151.34a97,97,0,0,0-7.13,21.42l15.44,2.85c5.27,1,11.2,1.82,15.59-1.26,4.93-3.44,6.38-10.6,8.61-15.84s3.44-10.81-1.29-15C267.45,135.36,250.23,141.32,245.53,151.34Z"/><path class="cls-21" d="M221.22,157a4.66,4.66,0,0,0,.93,3.72,4.13,4.13,0,0,0,1.34.91c3.43,1.57,7.86-.45,9.41-3.89,1.41-3.13.65-10.12-3.81-10.5C225.15,146.85,221.59,153.73,221.22,157Z"/><path class="cls-21" d="M249,199.63c-5.51-3.5-10.4-7.9-15.82-11.53a67.2,67.2,0,0,0-11.4-6.11,7.74,7.74,0,0,0-2.84-.76c-2,0-3.6,1.33-5.17,2.47-4.54,3.29-9.8,5.39-14.84,7.85s-10,5.42-13.36,9.92-4.69,10.86-2,15.8a21.32,21.32,0,0,0,4.88,5.59,31.28,31.28,0,0,0,8,5.58c3.69,1.63,7.8,2,11.82,2.22q14.2.93,28.45,1.16c6,.09,12.38,0,17.68-2.88,5.08-2.77,13.89-12.59,13.4-18.93-.26-3.45-3.26-4.22-6.12-5.09C257.06,203.53,253,202.22,249,199.63Z"/><path class="cls-21" d="M200.87,151c-1.39-1.91-3.5-4.08-5.72-3.27-1.52.55-2.23,2.26-2.73,3.8a90.23,90.23,0,0,0-3.72,16.88c-.25,2.08-.38,4.38.84,6.08a8.16,8.16,0,0,0,4.51,2.66,40.82,40.82,0,0,0,12.13,1.69,2.86,2.86,0,0,0,1.73-.42,2.78,2.78,0,0,0,.81-1.47C212,165.87,207,159.47,200.87,151Z"/><path class="cls-21" d="M141.4,187.36c10.11-11.06,8-28.56,14.4-42.08,5.42-11.39,16.55-19.16,22.48-30.29a23.56,23.56,0,0,0,3.15-12c-.2-4.15-1.93-8-3.37-12a90.29,90.29,0,0,1-4.88-20.24c-.84-6.8-.72-14.28,3.4-19.77,1.39-1.85,3.3-4.1,2.24-6.16a45.57,45.57,0,0,0-25.45,9.81c-7.75,6.22-13.23,15-16.73,24.28s-5.13,19.22-6.18,29.11c-2.53,23.82-1.72,48.48,6.84,70.85"/></g><path class="cls-10" d="M77.14,112.71c-6.48-4.39-14.58-7-22.21-5.24-10.88,2.47-18,12.66-24,22.06-3.15,4.93-6.34,9.94-8,15.55s-1.58,12,1.54,16.94c2.32,3.69,6.06,6.21,9.12,9.31C38.25,176,41.32,182,45.28,187.18s9.35,10,15.89,10.65c5.92.56,11.55-2.37,17.4-3.44,2.59-.48,5.25-.6,7.8-1.28,11.95-3.19,17.17-16.9,20.61-28.78.65-2.23,1.3-4.59.71-6.84-1.07-4.09-5.6-6-8.77-8.82-6.71-5.93-3.1-11.92-5.31-18.93C91.6,123.35,82.46,116.31,77.14,112.71Z"/><g class="cls-29"><path class="cls-21" d="M114.32,127.61l-27.39-8.26c-4.42-1.33-9-2.68-13.57-2-8.23,1.25-13.94,8.6-18.76,15.39a9.72,9.72,0,0,0-2.12,4.42c-.39,3.75,3.53,6.51,7.17,7.5s7.73,1.23,10.53,3.75a8,8,0,0,1-8.36,13.43c-4.17-1.67-8.52-6.74-12-3.87a5.24,5.24,0,0,0-1.45,2.24c-2.53,6.79,3.48,14.33,10.48,16.2s14.38-.26,21.31-2.37l27.41,24.36Q85,206.66,62.11,213.77c-4.47,1.39-9.15,2.76-13.77,2-8.69-1.41-14.4-9.62-18.68-17.31a266.64,266.64,0,0,1-25.21-63c-1.74-6.74-3.14-14.21,0-20.38,2-3.88,5.58-6.68,9.07-9.29,6.12-4.57,12.51-9,19.8-11.26,12.48-3.83,26.11-.73,38.1,4.44s23,12.37,35.16,17.25"/><path class="cls-21" d="M85.22,148a1.79,1.79,0,0,0-3.23.12c-2.41,2.93-4.92,7.06-2.78,10.2A9.45,9.45,0,0,0,82.85,161c7.15,3.74,12.49,8.95,18.82,13.73,4.16,3.14,5,5.61,6.94-.22C112.7,162.4,91.48,154.45,85.22,148Z"/></g><path class="cls-11" d="M98,27.47a8.74,8.74,0,0,0-4.17-.88,8.68,8.68,0,0,0-4.16,2.05A78.26,78.26,0,0,0,78,40.08c-3.34,3.9-6.63,8.45-6.46,13.58.2,6.15,5.59,11.19,11.54,12.76s12.25.33,18.13-1.47a19.37,19.37,0,0,0,5.36-2.31c4.3-2.92,5.93-8.37,7.26-13.39C117,37.17,108.55,31.81,98,27.47Z"/><g class="cls-30"><path class="cls-21" d="M141.16,40.3a69.53,69.53,0,0,0-21.68-8.21c-3.79-.74-7.76-1.16-11.48-.13-4,1.13-7.43,3.86-10.68,6.52s-6.83,5.77-7.6,10C88.24,56.63,97.71,62.81,99,71a4.94,4.94,0,0,1-.39,3.33,5.75,5.75,0,0,1-2.34,1.9,34.19,34.19,0,0,1-17.46,3.93,9.54,9.54,0,0,1-5.33-1.47,10.66,10.66,0,0,1-3.08-4.64,105,105,0,0,1-5.58-17.4c-.87-3.8-1.51-7.8-.48-11.56A20,20,0,0,1,70.54,36a39.4,39.4,0,0,1,42.78-6.19"/></g><path class="cls-12" d="M166.08,233.64c-3.62-2.48-7.62-4.59-12-5.22a21.51,21.51,0,0,0-17,5.42,27.87,27.87,0,0,0-8.57,15.88,14.44,14.44,0,0,0,.29,7.53,15,15,0,0,0,4.65,5.95c8.21,6.94,18.87,10.1,29.19,13.09l9.14,2.64a8.36,8.36,0,0,0,3.12.49,7.17,7.17,0,0,0,4.19-2.5C193.8,261.57,179.88,243.08,166.08,233.64Z"/><g class="cls-31"><path class="cls-21" d="M198.16,249.83a26.92,26.92,0,0,0-14.36-9.75c-5.72-1.4-12.19-.25-16.59,3.67-2.08,1.86-3.93,4.41-6.7,4.78a16.85,16.85,0,0,1-2.61-15.78c3.41-2.67,8.2-2.39,12.52-2,7.12.68,17.26,5.63,22.31,10.69a52,52,0,0,0-22.52-12.65c-7-1.87-14.92-2.13-21.23,1.51s-10.16,12-6.94,18.58c1.69,3.44,5,5.92,6.49,9.44.62,1.47,1.12,3.29,2.63,3.8a4.09,4.09,0,0,0,2.32-.13,16.89,16.89,0,0,0,8.5-5.71c.81-1,1.67-2.25,3-2.38,1.66-.17,2.84,1.52,3.59,3a79.55,79.55,0,0,1,7.09,20.89,7.38,7.38,0,0,1,0,3.93,6.47,6.47,0,0,1-2.33,2.73c-5,3.77-11.59,5-17.83,4.37s-12.18-2.91-17.84-5.6c-4.72-2.25-9.47-4.93-12.49-9.2-3.18-4.5-4-10.23-4.21-15.74-.34-12.56,2.56-25,5.44-37.2a2.67,2.67,0,0,1,3.45-2.47A102.5,102.5,0,0,1,176,232.39"/></g><path class="cls-13" d="M431.15,210.56c-5.25,2.56-9.94,6.84-11.65,12.42-2.44,8,1.51,16.32,5.36,23.7,2,3.86,4.07,7.79,7.08,10.94s7.17,5.48,11.53,5.3c3.24-.13,6.26-1.61,9.41-2.44,4.73-1.25,9.72-1,14.57-1.63s10-2.33,12.79-6.32c2.56-3.62,2.77-8.35,4.24-12.53.66-1.85,1.57-3.62,2.08-5.52,2.38-8.91-4.54-17.38-10.94-24a9.72,9.72,0,0,0-4.16-3c-3-.83-6,1.38-9,2.39-6.33,2.14-8.86-2.43-14.21-3.6C443.4,205.17,435.45,208.47,431.15,210.56Z"/><g class="cls-32"><path class="cls-21" d="M454.6,192.07,439.08,206.7c-2.5,2.36-5.08,4.84-6.33,8-2.25,5.79.39,12.21,3,17.85a7.17,7.17,0,0,0,2.07,3c2.28,1.65,5.52.14,7.51-1.85s3.67-4.54,6.35-5.41a6,6,0,0,1,5.57,10.4c-2.63,2.08-7.52,3-7,6.3a3.92,3.92,0,0,0,.9,1.78c3.46,4.16,10.56,3.08,14.37-.76s5.18-9.39,6.39-14.66l25.94-8.66q-3.06,17.64-7,35.11c-.76,3.4-1.61,6.94-3.81,9.65-4.14,5.09-11.58,5.73-18.14,5.64A199.31,199.31,0,0,1,418.83,266c-5-1.38-10.35-3.25-13.16-7.61-1.76-2.74-2.24-6.09-2.63-9.32-.68-5.65-1.18-11.44.08-17,2.16-9.5,9.23-17.16,17-23s16.56-10.3,24.22-16.32"/><path class="cls-21" d="M457,218.45a1.8,1.8,0,0,0-1.24.71,1.78,1.78,0,0,0,.11,1.42c1,2.65,2.74,5.81,5.56,5.59a7,7,0,0,0,3.09-1.35c5.08-3.23,10.43-4.75,15.88-7.06,3.57-1.53,5.47-1.13,2.43-4.57C476.49,206.05,463.46,216.8,457,218.45Z"/></g><path class="cls-14" d="M508.14,230.76a6.42,6.42,0,0,0-.66,3.11A6.54,6.54,0,0,0,509,237a58.25,58.25,0,0,0,8.54,8.73c2.91,2.49,6.3,4.94,10.13,4.81,4.58-.16,8.34-4.19,9.5-8.62s.24-9.14-1.1-13.52a14.56,14.56,0,0,0-1.73-4c-2.18-3.2-6.25-4.41-10-5.4C515.35,216.59,511.36,222.89,508.14,230.76Z"/><g class="cls-33"><path class="cls-21" d="M517.66,198.57a51.85,51.85,0,0,0-6.1,16.17,18.62,18.62,0,0,0-.08,8.56c.84,3,2.88,5.54,4.87,8s4.31,5.09,7.44,5.66c6.1,1.1,10.7-6,16.81-7a3.64,3.64,0,0,1,2.48.29A4.26,4.26,0,0,1,544.5,232a25.51,25.51,0,0,1,3,13,7.24,7.24,0,0,1-1.1,4,7.89,7.89,0,0,1-3.45,2.29,77.81,77.81,0,0,1-13,4.18c-2.84.65-5.82,1.14-8.62.37a14.92,14.92,0,0,1-6.82-4.6,29.36,29.36,0,0,1-4.66-31.89"/></g><path class="cls-15" d="M534,277.42a21.54,21.54,0,0,0-9.12,3.41,16.05,16.05,0,0,0-6.29,11.71,20.69,20.69,0,0,0,3.65,12.95,10.72,10.72,0,0,0,4,3.89,11.15,11.15,0,0,0,5.58.77c8-.53,15.35-4.37,22.44-8.12l6.26-3.32a6.09,6.09,0,0,0,1.92-1.36,5.23,5.23,0,0,0,1-3.51C563.3,278,546.25,275.33,534,277.42Z"/><g class="cls-34"><path class="cls-21" d="M559.55,269.46a20.15,20.15,0,0,0-12.75,2.22,13.87,13.87,0,0,0-7,10.57c-.16,2.08.18,4.41-1.11,6a12.59,12.59,0,0,1-9.59-7.1c.45-3.2,3.16-5.54,5.69-7.55,4.16-3.33,12.16-5.94,17.5-5.84a38.86,38.86,0,0,0-18.64,4.89c-4.74,2.65-9.09,6.6-10.59,11.82s.8,11.72,5.91,13.56c2.69,1,5.75.58,8.38,1.69,1.09.47,2.31,1.19,3.38.67a2.88,2.88,0,0,0,1.17-1.27,12.48,12.48,0,0,0,1.6-7.47c-.1-1-.27-2.07.36-2.81.8-.95,2.31-.66,3.49-.25A59.74,59.74,0,0,1,562,296.14a5.6,5.6,0,0,1,2,2.12,4.71,4.71,0,0,1,.16,2.66c-.72,4.62-3.63,8.69-7.28,11.6a40.67,40.67,0,0,1-12.47,6.24c-3.7,1.25-7.63,2.28-11.47,1.55-4-.76-7.48-3.38-10.42-6.25-6.7-6.56-11.57-14.71-16.37-22.76a2.69,2.69,0,0,1-.52-1.5,2.62,2.62,0,0,1,1.08-1.61,76.23,76.23,0,0,1,31.9-16.59"/></g><path class="cls-16" d="M168,387.5a11.55,11.55,0,0,0-5.67,6.95c-1.19,4.46.74,9.14,2.61,13.28a26.85,26.85,0,0,0,3.44,6.12,7.22,7.22,0,0,0,5.61,3c1.57-.07,3-.9,4.57-1.36,2.3-.7,4.73-.58,7.09-.92a8.39,8.39,0,0,0,6.22-3.54c1.25-2,1.34-4.67,2.06-7,.32-1,.77-2,1-3.09,1.16-5-2.21-9.73-5.32-13.45a4.75,4.75,0,0,0-2-1.68c-1.48-.47-2.91.77-4.36,1.33-3.08,1.2-4.31-1.35-6.91-2C173.93,384.48,170.07,386.32,168,387.5Z"/><g class="cls-35"><path class="cls-21" d="M179.38,377.14l-7.55,8.19a13.05,13.05,0,0,0-3.07,4.51c-1.1,3.24.18,6.84,1.44,10a4,4,0,0,0,1,1.69c1.11.92,2.69.08,3.65-1s1.79-2.55,3.09-3a2.86,2.86,0,0,1,3.47,1.61,3.84,3.84,0,0,1-.76,4.22c-1.28,1.16-3.66,1.68-3.38,3.53a2.22,2.22,0,0,0,.44,1c1.68,2.33,5.13,1.73,7-.42s2.51-5.26,3.1-8.21l12.61-4.86Q199,404.19,197,414a14,14,0,0,1-1.85,5.41c-2,2.85-5.63,3.21-8.82,3.16a85,85,0,0,1-24.38-4c-2.43-.78-5-1.82-6.39-4.27a13.51,13.51,0,0,1-1.28-5.22,31.9,31.9,0,0,1,0-9.51c1-5.32,4.48-9.61,8.28-12.87s8.05-5.77,11.77-9.14"/><path class="cls-21" d="M180.53,391.91a.91.91,0,0,0-.61.4,1.12,1.12,0,0,0,.06.8c.48,1.48,1.33,3.25,2.7,3.13a3.28,3.28,0,0,0,1.51-.76c2.47-1.81,5.07-2.66,7.71-4,1.74-.85,2.67-.63,1.19-2.55C190,385,183.69,391,180.53,391.91Z"/></g><path class="cls-17" d="M205.41,398.81a4.13,4.13,0,0,0-.31,1.74,3.92,3.92,0,0,0,.74,1.74,32.1,32.1,0,0,0,4.15,4.89c1.42,1.39,3.07,2.76,4.93,2.69,2.23-.09,4.06-2.34,4.62-4.83a16,16,0,0,0-.53-7.57,8.87,8.87,0,0,0-.85-2.24c-1.06-1.8-3-2.47-4.86-3C208.92,390.87,207,394.4,205.41,398.81Z"/><g class="cls-36"><path class="cls-21" d="M210.05,380.78a31.82,31.82,0,0,0-3,9.06,11.89,11.89,0,0,0,0,4.79,13.22,13.22,0,0,0,2.37,4.46c1,1.38,2.09,2.85,3.62,3.17,3,.61,5.2-3.34,8.17-3.9a1.56,1.56,0,0,1,1.2.16,2.37,2.37,0,0,1,.7,1,16,16,0,0,1,1.43,7.29A4.51,4.51,0,0,1,224,409a3.89,3.89,0,0,1-1.68,1.28,34.79,34.79,0,0,1-6.31,2.35,7.59,7.59,0,0,1-4.19.2,7.4,7.4,0,0,1-3.32-2.57,18.44,18.44,0,0,1-2.26-17.87"/></g><path class="cls-3" d="M218,425a9.53,9.53,0,0,0-4.43,1.91,9.42,9.42,0,0,0-3.06,6.55,12.94,12.94,0,0,0,1.77,7.26,5.64,5.64,0,0,0,2,2.18,4.82,4.82,0,0,0,2.72.43c3.89-.3,7.46-2.45,10.91-4.55l3-1.86a3.12,3.12,0,0,0,.94-.76,3.26,3.26,0,0,0,.46-2C232.24,425.28,224,423.77,218,425Z"/><g class="cls-37"><path class="cls-21" d="M230.41,420.49a8.68,8.68,0,0,0-6.2,1.24,7.89,7.89,0,0,0-3.39,5.92c-.08,1.17.08,2.47-.55,3.39a6.25,6.25,0,0,1-4.65-4c.21-1.79,1.53-3.09,2.76-4.22a14.24,14.24,0,0,1,8.51-3.28,16.91,16.91,0,0,0-9.06,2.75,11.33,11.33,0,0,0-5.15,6.62c-.73,2.92.39,6.56,2.87,7.59,1.31.54,2.79.33,4.07.95.54.26,1.13.66,1.65.37a1.57,1.57,0,0,0,.57-.71,8,8,0,0,0,.78-4.18,2.34,2.34,0,0,1,.17-1.58c.39-.53,1.12-.37,1.7-.14a28.13,28.13,0,0,1,7.11,4.21,2.88,2.88,0,0,1,1,1.19,3,3,0,0,1,.08,1.49,10.91,10.91,0,0,1-3.54,6.49,18.76,18.76,0,0,1-6.06,3.5,9.89,9.89,0,0,1-5.58.87,10.11,10.11,0,0,1-5.06-3.5c-3.26-3.68-5.63-8.24-8-12.75a1.68,1.68,0,0,1-.25-.84,1.47,1.47,0,0,1,.53-.9,35.75,35.75,0,0,1,15.51-9.3"/></g><path class="cls-4" d="M1183.65,417.17c-3,1.48-5.75,3.95-6.74,7.18-1.42,4.61.87,9.45,3.1,13.72a26.34,26.34,0,0,0,4.1,6.33,9.07,9.07,0,0,0,6.67,3.07c1.88-.08,3.62-.93,5.44-1.41,2.74-.73,5.63-.59,8.44-.95s5.76-1.34,7.4-3.66c1.48-2.09,1.6-4.83,2.46-7.25.37-1.07.9-2.09,1.2-3.19,1.37-5.16-2.63-10.06-6.34-13.9a5.53,5.53,0,0,0-2.4-1.74c-1.77-.48-3.46.8-5.19,1.38-3.67,1.24-5.13-1.4-8.23-2.08C1190.74,414.05,1186.14,416,1183.65,417.17Z"/><g class="cls-38"><path class="cls-21" d="M1197.22,406.46l-9,8.47a13.57,13.57,0,0,0-3.66,4.65c-1.31,3.35.22,7.07,1.72,10.34a4.26,4.26,0,0,0,1.2,1.74c1.32.95,3.19.08,4.35-1.07s2.12-2.63,3.67-3.13a3.46,3.46,0,0,1,3.22,6c-1.52,1.21-4.35,1.74-4,3.65a2.15,2.15,0,0,0,.52,1c2,2.41,6.11,1.78,8.32-.44s3-5.43,3.7-8.48l15-5q-1.77,10.21-4,20.32a13.15,13.15,0,0,1-2.21,5.59c-2.39,2.95-6.7,3.32-10.49,3.27a115.59,115.59,0,0,1-29-4.13c-2.9-.8-6-1.88-7.62-4.4a12.56,12.56,0,0,1-1.52-5.4,29,29,0,0,1,0-9.83c1.25-5.49,5.35-9.92,9.86-13.3s9.59-6,14-9.44"/><path class="cls-21" d="M1198.58,421.73a1,1,0,0,0-.71.41,1,1,0,0,0,.06.82c.58,1.54,1.59,3.37,3.22,3.24a4,4,0,0,0,1.79-.79c2.94-1.86,6-2.74,9.19-4.08,2.07-.88,3.16-.66,1.41-2.65C1209.89,414.55,1202.35,420.78,1198.58,421.73Z"/></g><path class="cls-5" d="M1228.21,428.85a2.95,2.95,0,0,0,.5,3.6,33.76,33.76,0,0,0,5,5.05c1.68,1.44,3.65,2.86,5.86,2.78,2.65-.09,4.83-2.42,5.5-5a14.48,14.48,0,0,0-.64-7.83,8.21,8.21,0,0,0-1-2.31c-1.26-1.86-3.62-2.56-5.78-3.13C1232.38,420.65,1230.07,424.3,1228.21,428.85Z"/><g class="cls-39"><path class="cls-21" d="M1233.72,410.22a30,30,0,0,0-3.53,9.37,10.76,10.76,0,0,0,0,5,13.29,13.29,0,0,0,2.82,4.61c1.17,1.42,2.49,2.94,4.31,3.27,3.52.64,6.19-3.45,9.72-4a2.16,2.16,0,0,1,1.44.17,2.48,2.48,0,0,1,.82,1,14.73,14.73,0,0,1,1.71,7.53,4.16,4.16,0,0,1-.64,2.3,4.44,4.44,0,0,1-2,1.33,44,44,0,0,1-7.5,2.42,10.19,10.19,0,0,1-5,.21,8.66,8.66,0,0,1-3.95-2.65,17,17,0,0,1-2.69-18.47"/></g><path class="cls-6" d="M1243.15,455.86a12.53,12.53,0,0,0-5.28,2,9.31,9.31,0,0,0-3.64,6.78,12,12,0,0,0,2.11,7.5,6.26,6.26,0,0,0,2.35,2.25,6.55,6.55,0,0,0,3.23.45c4.63-.31,8.88-2.53,13-4.71l3.63-1.92a3.48,3.48,0,0,0,1.11-.78,3,3,0,0,0,.55-2C1260.13,456.21,1250.26,454.65,1243.15,455.86Z"/><g class="cls-40"><path class="cls-21" d="M1258,451.25a11.71,11.71,0,0,0-7.38,1.29,8,8,0,0,0-4,6.12c-.09,1.2.1,2.55-.65,3.49a7.24,7.24,0,0,1-5.54-4.11c.25-1.85,1.82-3.2,3.28-4.37a18.6,18.6,0,0,1,10.13-3.38,22.49,22.49,0,0,0-10.78,2.83c-2.74,1.54-5.27,3.82-6.13,6.84s.46,6.79,3.42,7.85c1.56.56,3.32.34,4.85,1,.63.27,1.33.69,2,.39a1.68,1.68,0,0,0,.68-.74,7.23,7.23,0,0,0,.93-4.32,2.16,2.16,0,0,1,.2-1.63c.47-.55,1.34-.38,2-.14a34.46,34.46,0,0,1,8.47,4.35,3.14,3.14,0,0,1,1.18,1.22,2.78,2.78,0,0,1,.1,1.54,11,11,0,0,1-4.22,6.71,23.5,23.5,0,0,1-7.21,3.62,13.33,13.33,0,0,1-6.64.89,12.17,12.17,0,0,1-6-3.62c-3.88-3.79-6.7-8.51-9.48-13.17a1.52,1.52,0,0,1-.3-.86,1.53,1.53,0,0,1,.63-.94,44.16,44.16,0,0,1,18.46-9.6"/></g><path class="cls-7" d="M1203.41,32.16c-3,1.48-5.75,4-6.74,7.19-1.42,4.6.87,9.44,3.1,13.71a26.34,26.34,0,0,0,4.1,6.33,9,9,0,0,0,6.67,3.07c1.88-.07,3.63-.93,5.45-1.41,2.73-.72,5.62-.59,8.43-.94s5.76-1.35,7.4-3.66c1.49-2.09,1.6-4.83,2.46-7.25.38-1.07.91-2.1,1.2-3.2,1.38-5.15-2.63-10-6.33-13.9a5.73,5.73,0,0,0-2.41-1.74c-1.76-.47-3.46.8-5.19,1.39-3.66,1.23-5.13-1.41-8.22-2.09C1210.5,29,1205.9,31,1203.41,32.16Z"/><g class="cls-41"><path class="cls-21" d="M1217,21.46l-9,8.47a13.39,13.39,0,0,0-3.66,4.65c-1.3,3.35.22,7.07,1.72,10.33a4.13,4.13,0,0,0,1.2,1.74c1.32,1,3.2.08,4.35-1.07s2.12-2.63,3.67-3.13a3.47,3.47,0,0,1,3.22,6c-1.52,1.2-4.35,1.74-4,3.65a2.28,2.28,0,0,0,.53,1c2,2.41,6.11,1.78,8.31-.43s3-5.44,3.7-8.49l15-5q-1.77,10.2-4,20.32a13.11,13.11,0,0,1-2.21,5.58c-2.39,3-6.69,3.32-10.49,3.27a114.75,114.75,0,0,1-29-4.13c-2.9-.79-6-1.87-7.61-4.4a12.67,12.67,0,0,1-1.53-5.39,29,29,0,0,1,0-9.83c1.25-5.5,5.34-9.93,9.85-13.3s9.59-6,14-9.45"/><path class="cls-21" d="M1218.35,36.73a1,1,0,0,0-.72.4,1.05,1.05,0,0,0,.07.83c.57,1.53,1.58,3.36,3.21,3.23a4,4,0,0,0,1.79-.78c2.94-1.87,6-2.75,9.19-4.09,2.07-.88,3.17-.65,1.41-2.64C1229.65,29.55,1222.11,35.77,1218.35,36.73Z"/></g><path class="cls-8" d="M1260.24,70.27c-3,1.48-5.75,4-6.74,7.18-1.41,4.61.88,9.45,3.1,13.72a27,27,0,0,0,4.1,6.33,9,9,0,0,0,6.67,3.07c1.88-.07,3.63-.93,5.45-1.41,2.74-.72,5.62-.59,8.43-1s5.77-1.34,7.41-3.65c1.48-2.1,1.6-4.83,2.45-7.25.38-1.08.91-2.1,1.2-3.2,1.38-5.16-2.63-10.06-6.33-13.9a5.65,5.65,0,0,0-2.41-1.74c-1.76-.48-3.46.8-5.19,1.38-3.66,1.24-5.12-1.4-8.22-2.08C1267.33,67.15,1262.73,69.06,1260.24,70.27Z"/><g class="cls-42"><path class="cls-21" d="M1273.81,59.56l-9,8.48a13.39,13.39,0,0,0-3.66,4.65c-1.3,3.35.22,7.06,1.72,10.33a4.19,4.19,0,0,0,1.2,1.74c1.32.95,3.2.08,4.35-1.07s2.13-2.63,3.67-3.13a3.47,3.47,0,0,1,3.23,6c-1.53,1.2-4.36,1.73-4,3.64a2.26,2.26,0,0,0,.53,1c2,2.41,6.11,1.78,8.31-.44s3-5.43,3.7-8.48l15-5q-1.75,10.22-4,20.32a13.36,13.36,0,0,1-2.21,5.59c-2.4,3-6.7,3.32-10.5,3.27a114.75,114.75,0,0,1-29-4.13c-2.89-.79-6-1.88-7.61-4.4a12.67,12.67,0,0,1-1.53-5.39,29,29,0,0,1,0-9.83c1.25-5.5,5.34-9.93,9.86-13.3s9.58-6,14-9.45"/><path class="cls-21" d="M1275.18,74.83a1.08,1.08,0,0,0-.72.41,1.06,1.06,0,0,0,.07.83c.58,1.53,1.58,3.36,3.22,3.23a4.14,4.14,0,0,0,1.79-.78c2.93-1.87,6-2.75,9.18-4.09,2.07-.88,3.17-.65,1.41-2.64C1286.49,67.65,1278.94,73.88,1275.18,74.83Z"/></g><path class="cls-9" d="M1205.58,80.65a9.12,9.12,0,0,0-4.9,5.23c-1,3.35.63,6.88,2.25,10a19.35,19.35,0,0,0,3,4.6,6.6,6.6,0,0,0,4.85,2.24,19.34,19.34,0,0,0,4-1,48.06,48.06,0,0,1,6.14-.69c2-.26,4.19-1,5.38-2.66,1.08-1.52,1.17-3.52,1.79-5.28.28-.78.66-1.52.88-2.32,1-3.76-1.92-7.32-4.62-10.12a4,4,0,0,0-1.75-1.26c-1.28-.35-2.51.58-3.77,1-2.67.9-3.74-1-6-1.52C1210.74,78.38,1207.4,79.77,1205.58,80.65Z"/><g class="cls-43"><path class="cls-21" d="M1215.46,72.86,1208.92,79a9.77,9.77,0,0,0-2.66,3.38c-1,2.44.16,5.15,1.25,7.52a3.09,3.09,0,0,0,.88,1.27c1,.7,2.32.06,3.16-.78s1.55-1.91,2.67-2.28a2.52,2.52,0,0,1,2.35,4.38c-1.11.88-3.17,1.27-2.93,2.66a1.67,1.67,0,0,0,.38.75c1.46,1.75,4.45,1.29,6.06-.32s2.18-4,2.69-6.18l10.92-3.65c-.85,5-1.83,9.89-2.94,14.79a9.72,9.72,0,0,1-1.6,4.07c-1.75,2.14-4.88,2.41-7.64,2.37a83.36,83.36,0,0,1-21.12-3c-2.1-.58-4.36-1.37-5.54-3.2a9.33,9.33,0,0,1-1.11-3.93,21.18,21.18,0,0,1,0-7.15c.91-4,3.88-7.23,7.17-9.68s7-4.34,10.2-6.88"/><path class="cls-21" d="M1216.46,84a.55.55,0,0,0-.48.89c.42,1.12,1.15,2.45,2.34,2.36a3.13,3.13,0,0,0,1.31-.57,43.34,43.34,0,0,1,6.68-3c1.51-.64,2.31-.47,1-1.92C1224.68,78.75,1219.2,83.28,1216.46,84Z"/></g></g></g></svg>