<svg xmlns="http://www.w3.org/2000/svg" xmlns:xlink="http://www.w3.org/1999/xlink" viewBox="0 0 1300 500"><defs><style>.cls-1{fill:url(#Degradado_sin_nombre_91);}.cls-2{fill:url(#Degradado_sin_nombre_46);}.cls-3{fill:url(#Degradado_sin_nombre_193);}.cls-4{fill:url(#Degradado_sin_nombre_46-2);}.cls-5{fill:url(#Degradado_sin_nombre_183);}.cls-6{isolation:isolate;}.cls-7{fill:#14214e;}.cls-8{fill:#a33b52;}.cls-12,.cls-14,.cls-17,.cls-8{opacity:0.2;}.cls-14,.cls-17,.cls-22,.cls-8{mix-blend-mode:multiply;}.cls-9{fill:#fff;}.cls-10{fill:url(#Degradado_sin_nombre_73);}.cls-11{clip-path:url(#clip-path);}.cls-12{fill:#e79942;}.cls-13{clip-path:url(#clip-path-2);}.cls-14{fill:#b04e77;}.cls-15{clip-path:url(#clip-path-3);}.cls-16{clip-path:url(#clip-path-4);}.cls-17{fill:#3a3b52;}.cls-18{clip-path:url(#clip-path-5);}.cls-19,.cls-22{fill:#3c3047;}.cls-20{fill:url(#Degradado_sin_nombre_192);}.cls-21{fill:url(#Degradado_sin_nombre_46-5);}.cls-22{opacity:0.4;}</style><linearGradient id="Degradado_sin_nombre_91" x1="24.22" y1="-504.83" x2="-43.22" y2="-676.03" gradientTransform="translate(-430.2 88.68) rotate(99.45)" gradientUnits="userSpaceOnUse"><stop offset="0" stop-color="#2d2042"/><stop offset="1" stop-color="#944098"/></linearGradient><linearGradient id="Degradado_sin_nombre_46" x1="1194.54" y1="409.15" x2="1250.81" y2="448.54" gradientUnits="userSpaceOnUse"><stop offset="0" stop-color="#db3339"/><stop offset="1" stop-color="#621b70"/></linearGradient><linearGradient id="Degradado_sin_nombre_193" x1="1054.11" y1="1081.83" x2="1087.46" y2="1105.17" gradientTransform="translate(-118.8 -628.37) rotate(-19.71)" gradientUnits="userSpaceOnUse"><stop offset="0" stop-color="#94ffec"/><stop offset="1" stop-color="#da1a2d"/></linearGradient><linearGradient id="Degradado_sin_nombre_46-2" x1="1135.43" y1="264.89" x2="1078.74" y2="334.53" gradientTransform="translate(1078.93 -842.91) rotate(73.4)" xlink:href="#Degradado_sin_nombre_46"/><linearGradient id="Degradado_sin_nombre_183" x1="686.31" y1="1463.72" x2="536.81" y2="1647.39" gradientTransform="matrix(0.95, -0.32, 0.32, 0.95, -63.13, -1161.03)" gradientUnits="userSpaceOnUse"><stop offset="0" stop-color="#ca9a55"/><stop offset="1" stop-color="#3a67b0"/></linearGradient><radialGradient id="Degradado_sin_nombre_73" cx="-975.47" cy="-1834.79" r="111.71" gradientTransform="translate(-1176.29 1774.74) rotate(67.72)" gradientUnits="userSpaceOnUse"><stop offset="0.64" stop-color="#dc3c4d" stop-opacity="0"/><stop offset="1" stop-color="#ffff3c"/></radialGradient><clipPath id="clip-path"><circle class="cls-1" cx="151.76" cy="176.63" r="79.91" transform="translate(-44.84 301.45) rotate(-81.74)"/></clipPath><clipPath id="clip-path-2"><path class="cls-2" d="M1237.39,412.75a23,23,0,1,1-32-5.6A23,23,0,0,1,1237.39,412.75Z"/></clipPath><clipPath id="clip-path-3"><path class="cls-3" d="M1263.07,28a13.63,13.63,0,1,1-19,3.28A13.64,13.64,0,0,1,1263.07,28Z"/></clipPath><clipPath id="clip-path-4"><circle class="cls-4" cx="1104.94" cy="302.35" r="34.41" transform="translate(499.44 1274.81) rotate(-73.4)"/></clipPath><clipPath id="clip-path-5"><circle class="cls-5" cx="1008.87" cy="127.12" r="90.74" transform="translate(-6.39 183.88) rotate(-10.38)"/></clipPath><linearGradient id="Degradado_sin_nombre_192" x1="-845.84" y1="-1829.67" x2="-845.84" y2="-1889.19" gradientTransform="matrix(0.55, 0.83, -0.83, 0.55, -884.39, 2163.54)" gradientUnits="userSpaceOnUse"><stop offset="0" stop-color="#f1ce4c"/><stop offset="1" stop-color="#da1c4d"/></linearGradient><linearGradient id="Degradado_sin_nombre_46-5" x1="514.84" y1="218.03" x2="224.2" y2="418.11" xlink:href="#Degradado_sin_nombre_46"/></defs><title>Mesa de trabajo 1</title><g class="cls-6"><g id="Capa_1" data-name="Capa 1"><rect class="cls-7" width="1300" height="500"/><path class="cls-8" d="M670.16,190.6a74.41,74.41,0,0,0-23.39-7.38c-20.92-3.22-46.31-.07-64.09,4.74s-31.14,11.17-49.16,15.88c-63.12,16.53-157.7,7.82-227.93-5.36-85.43-16-160.83-37.65-220.33-63.17C43.08,117.22,7.78,95.78,11.48,73.14c1.13-6.88,8.8-14.82,29-17C60.76,53.92,81.48,58.78,97,63.57c90.18,27.9,155.81,65.26,265.4,84.52,45.73,8,105.73,12,147.51,2,50.43-12.12,46.16-36.89,29-56.46C506.5,56.75,445.07,22.79,363.6-5c-5.12,3.08-10.83,4.18-17.07,4.42-23,.89-45.89-.48-68.78-2.13l-2.65.08c-24.92,4.09-51,.51-76.1.15-16.73,1.85-33.46,3.72-50.26,4.88-26.13,1.82-51.82.83-77.39-4.15C48.08-.06,24.8,1.3,1.48,1.56c.1,42.95,1,85.9,1.94,128.83C4,159.81,4.66,189.23,5,218.66c26.8-5.73,58.58-9,90.72-8.85,109.15.54,186,34.9,287.65,47.78,67.26,8.53,146,6.93,209.49-4.24C661.3,241.3,711.12,212.07,670.16,190.6Z"/><path class="cls-8" d="M4.54,321.22q7.05,2.68,14.67,5.21-7.44-6.94-14.46-13.94C4.69,315.4,4.61,318.31,4.54,321.22Z"/><path class="cls-8" d="M1296.65,192.2c-5.33-24-10.84-48.41-13.51-72.8-2.16-19.72-3.07-38.76-.06-58.1-36.13-25.25-90.32-49-159.85-63.79-21.73,0-43.45-.39-65.17-.89l-15.7-.37c-17.43,2.23-35,3.34-52.52,4.69C976.49,2.09,963.3,3.7,950.07,5.88c-26.49,4.36-53.31,8.69-80.23,8.56-19.1-.1-41.15-3.22-58.23-13.53-42.23,10.51-75.16,24.86-90.76,41.4-22,23.27-12,48.68,12.9,71.64s63.76,44,100.94,65.14c14.92,8.48,29.86,17.24,34.46,26.88,12.91,27.13-58.91,51-134.38,63.46-92.73,15.33-198.22,21.1-291.28,36.22-55.85,9.07-106.3,21.37-162.55,30.18S159,349.8,99.69,343.45a389.19,389.19,0,0,1-80.48-17C87.58,390.25,182.4,451.1,300.82,506.69c22.53.51,45.08.36,67.61-.27,115.25-3.21,230.3-17.82,345.69-10.45a29,29,0,0,1,19.52,9.12L938,497.74c-94.08,3.58-172.71-22.48-224.6-48.16-41.09-20.34-77-42.85-80.93-67.12s31.2-50.55,99.56-60.56c35.46-5.19,75.68-5.61,114.57-5.2,106.33,1.11,219.37,7.3,314.16-8.36,63.32-10.45,107.63-29.13,137.36-50.39C1297.32,236.11,1296.65,214.15,1296.65,192.2Z"/><path class="cls-9" d="M230.61,47.45A8.59,8.59,0,1,1,222,38.86,8.59,8.59,0,0,1,230.61,47.45Z"/><path class="cls-9" d="M531.21,363.61a8.59,8.59,0,1,1-8.59-8.59A8.59,8.59,0,0,1,531.21,363.61Z"/><path class="cls-9" d="M770.27,449.68a8.59,8.59,0,1,1-8.59-8.59A8.59,8.59,0,0,1,770.27,449.68Z"/><path class="cls-9" d="M327.7,185.68a8.59,8.59,0,1,1-8.59-8.59A8.59,8.59,0,0,1,327.7,185.68Z"/><path class="cls-9" d="M195.16,407.72a8.59,8.59,0,1,1-8.59-8.59A8.59,8.59,0,0,1,195.16,407.72Z"/><path class="cls-9" d="M394.25,56a8.59,8.59,0,1,1-8.59-8.59A8.58,8.58,0,0,1,394.25,56Z"/><path class="cls-9" d="M726.81,183.92a1.76,1.76,0,1,1-1.76-1.76A1.76,1.76,0,0,1,726.81,183.92Z"/><path class="cls-9" d="M385.66,179.94a1.76,1.76,0,1,1-1.76-1.76A1.76,1.76,0,0,1,385.66,179.94Z"/><path class="cls-9" d="M27.23,458.27a1.77,1.77,0,1,1-1.77-1.76A1.77,1.77,0,0,1,27.23,458.27Z"/><path class="cls-9" d="M81.27,238.86a1.77,1.77,0,1,1-1.77-1.76A1.76,1.76,0,0,1,81.27,238.86Z"/><path class="cls-9" d="M225.5,450.05a1.76,1.76,0,1,1-1.35-2.09A1.76,1.76,0,0,1,225.5,450.05Z"/><path class="cls-9" d="M740.94,252.57a1.76,1.76,0,1,1-1.36-2.09A1.77,1.77,0,0,1,740.94,252.57Z"/><path class="cls-9" d="M534.62,127.15a1.77,1.77,0,1,1-1.76-1.76A1.76,1.76,0,0,1,534.62,127.15Z"/><path class="cls-9" d="M31.21,131.13a4,4,0,1,1-4-4A4,4,0,0,1,31.21,131.13Z"/><path class="cls-9" d="M739.21,416.31a4,4,0,1,1-4-4A4,4,0,0,1,739.21,416.31Z"/><path class="cls-9" d="M658.45,183.92a4,4,0,1,1-4-4A4,4,0,0,1,658.45,183.92Z"/><path class="cls-9" d="M69,369.21a4,4,0,1,1-4-4A4,4,0,0,1,69,369.21Z"/><path class="cls-9" d="M587.46,57.08a4,4,0,1,1-4-4A4,4,0,0,1,587.46,57.08Z"/><path class="cls-9" d="M381.84,213.43a4,4,0,1,1-4-4A4,4,0,0,1,381.84,213.43Z"/><path class="cls-9" d="M433.91,403.74a4,4,0,1,1-4-4A4,4,0,0,1,433.91,403.74Z"/><path class="cls-9" d="M115.13,306.75a4,4,0,1,1-4-4A4,4,0,0,1,115.13,306.75Z"/><path class="cls-9" d="M733,121.41a4,4,0,1,1-4-4A4,4,0,0,1,733,121.41Z"/><path class="cls-9" d="M25.92,187.9a4,4,0,1,1-4-4A4,4,0,0,1,25.92,187.9Z"/><path class="cls-9" d="M236.75,298.79a4,4,0,1,1-4-4A4,4,0,0,1,236.75,298.79Z"/><path class="cls-9" d="M199.14,205.46a4,4,0,1,1-4-4A4,4,0,0,1,199.14,205.46Z"/><path class="cls-9" d="M539.68,252.4h0c0-9.09-7.64-16.46-17.06-16.46h0c9.42,0,17.06-7.37,17.06-16.46h0c0,9.09,7.64,16.46,17.07,16.46h0C547.32,235.94,539.68,243.31,539.68,252.4Z"/><path class="cls-9" d="M620.34,428.76h0a17.06,17.06,0,0,0-17.07-17.06h0a17.06,17.06,0,0,0,17.07-17.06h0A17.06,17.06,0,0,0,637.4,411.7h0A17.06,17.06,0,0,0,620.34,428.76Z"/><path class="cls-9" d="M46.7,302.77h0A17.06,17.06,0,0,0,29.64,285.7h0A17.06,17.06,0,0,0,46.7,268.64h0A17.06,17.06,0,0,0,63.77,285.7h0A17.07,17.07,0,0,0,46.7,302.77Z"/><path class="cls-9" d="M1297.38,279a5.12,5.12,0,1,1-7.1-1.41A5.12,5.12,0,0,1,1297.38,279Z"/><path class="cls-9" d="M1232.34,190.87a5.12,5.12,0,1,1-7.1-1.41A5.13,5.13,0,0,1,1232.34,190.87Z"/><path class="cls-9" d="M925.69,206.89a5.12,5.12,0,1,1-7.1-1.4A5.12,5.12,0,0,1,925.69,206.89Z"/><path class="cls-9" d="M933.69,360.76a5.12,5.12,0,1,1-7.11-1.4A5.13,5.13,0,0,1,933.69,360.76Z"/><path class="cls-9" d="M713.44,233.09a5.12,5.12,0,1,1-7.1-1.4A5.12,5.12,0,0,1,713.44,233.09Z"/><path class="cls-9" d="M1145.73,342a1.05,1.05,0,1,1-1.46-.29A1.06,1.06,0,0,1,1145.73,342Z"/><path class="cls-9" d="M1189.45,303.77a1,1,0,1,1-1.46-.29A1,1,0,0,1,1189.45,303.77Z"/><path class="cls-9" d="M1122.71,73.69a1,1,0,1,1-1.45-.29A1,1,0,0,1,1122.71,73.69Z"/><path class="cls-9" d="M952.48,184.83a1,1,0,1,1-1.45-.29A1,1,0,0,1,952.48,184.83Z"/><circle class="cls-9" cx="1299.19" cy="326.33" r="1.05"/><path class="cls-9" d="M1091.14,396.48a1,1,0,0,1-.28,1.45,1,1,0,1,1-1.17-1.74A1,1,0,0,1,1091.14,396.48Z"/><path class="cls-9" d="M1139.25,287a1.05,1.05,0,1,1-1.46-.29A1.06,1.06,0,0,1,1139.25,287Z"/><path class="cls-9" d="M867.3,441.47a1.05,1.05,0,1,1-1.46-.28A1.06,1.06,0,0,1,867.3,441.47Z"/><path class="cls-9" d="M821.31,314.92a1.05,1.05,0,1,1-1.46-.29A1.06,1.06,0,0,1,821.31,314.92Z"/><path class="cls-9" d="M962.74,371.67a1,1,0,0,1-.58,1.36,1.06,1.06,0,0,1-1.37-.59,1,1,0,0,1,2-.77Z"/><path class="cls-9" d="M1152.47,103a1.05,1.05,0,0,1-2,.78,1.05,1.05,0,0,1,2-.78Z"/><path class="cls-9" d="M672.86,128.41a1,1,0,0,1-2,.77,1,1,0,0,1,.58-1.36A1.05,1.05,0,0,1,672.86,128.41Z"/><path class="cls-9" d="M1008.73,109.31a1,1,0,0,1-1.74,1.17,1,1,0,1,1,1.74-1.17Z"/><path class="cls-9" d="M1180,322.79a2.37,2.37,0,1,1-3.29-.65A2.37,2.37,0,0,1,1180,322.79Z"/><path class="cls-9" d="M1082.58,429a2.37,2.37,0,1,1-3.29-.65A2.37,2.37,0,0,1,1082.58,429Z"/><path class="cls-9" d="M895,453.43a2.37,2.37,0,1,1-3.29-.66A2.37,2.37,0,0,1,895,453.43Z"/><path class="cls-9" d="M760.81,278.18a2.37,2.37,0,1,1-3.29-.65A2.37,2.37,0,0,1,760.81,278.18Z"/><path class="cls-9" d="M1171.42,291.41a2.37,2.37,0,1,1-3.29-.66A2.37,2.37,0,0,1,1171.42,291.41Z"/><path class="cls-9" d="M1205.9,184.64a2.37,2.37,0,1,1-3.29-.65A2.37,2.37,0,0,1,1205.9,184.64Z"/><path class="cls-9" d="M1088.86,96.36a2.37,2.37,0,1,1-3.29-.65A2.37,2.37,0,0,1,1088.86,96.36Z"/><path class="cls-9" d="M858.47,383.52a2.37,2.37,0,1,1-3.29-.66A2.37,2.37,0,0,1,858.47,383.52Z"/><path class="cls-9" d="M1011.66,57.1a2.37,2.37,0,1,1-3.29-.66A2.37,2.37,0,0,1,1011.66,57.1Z"/><path class="cls-9" d="M961.7,202.68a2.38,2.38,0,1,1-3.3-.65A2.38,2.38,0,0,1,961.7,202.68Z"/><path class="cls-9" d="M1050.57,279.64a2.37,2.37,0,1,1-3.29-.65A2.37,2.37,0,0,1,1050.57,279.64Z"/><path class="cls-9" d="M860.58,337.31a2.37,2.37,0,1,1-3.29-.65A2.37,2.37,0,0,1,860.58,337.31Z"/><path class="cls-9" d="M1105.06,40.69a2.38,2.38,0,1,1-3.29-.65A2.38,2.38,0,0,1,1105.06,40.69Z"/><path class="cls-9" d="M933.91,473.62a2.37,2.37,0,1,1-3.29-.65A2.37,2.37,0,0,1,933.91,473.62Z"/><path class="cls-9" d="M744.41,168.09a2.37,2.37,0,1,1-3.29-.65A2.37,2.37,0,0,1,744.41,168.09Z"/><path class="cls-9" d="M867.67,471.71a2.38,2.38,0,1,1-3.29-.65A2.39,2.39,0,0,1,867.67,471.71Z"/><path class="cls-9" d="M777,308a2.37,2.37,0,1,1-3.29-.65A2.37,2.37,0,0,1,777,308Z"/><path class="cls-9" d="M918.16,293a2.37,2.37,0,1,1-3.29-.65A2.37,2.37,0,0,1,918.16,293Z"/><path class="cls-9" d="M868.6,259.31a2.37,2.37,0,1,1-3.29-.65A2.37,2.37,0,0,1,868.6,259.31Z"/><path class="cls-9" d="M1151.17,230.22h0a10.15,10.15,0,0,0-14.1-2.79h0a10.18,10.18,0,0,0,2.79-14.11h0a10.15,10.15,0,0,0,14.1,2.79h0A10.18,10.18,0,0,0,1151.17,230.22Z"/><path class="cls-9" d="M825.38,358h0a10.17,10.17,0,0,0-14.1-2.79h0a10.17,10.17,0,0,0,2.79-14.1h0a10.17,10.17,0,0,0,14.1,2.79h0A10.17,10.17,0,0,0,825.38,358Z"/><path class="cls-9" d="M706.52,134h0a10.18,10.18,0,0,0-14.11-2.79h0a10.17,10.17,0,0,0,2.8-14.11h0a10.16,10.16,0,0,0,14.1,2.8h0A10.17,10.17,0,0,0,706.52,134Z"/><circle class="cls-10" cx="151.76" cy="176.63" r="111.71" transform="translate(-39.31 43.52) rotate(-14.47)"/><circle class="cls-1" cx="151.76" cy="176.63" r="79.91" transform="translate(-44.84 301.45) rotate(-81.74)"/><g class="cls-11"><path class="cls-12" d="M113.58,44.59c-7.83,8.12-1.57,21.69,6.09,30,43.9,47.49,117.55,49.47,174.93,79.29C218.2,157.65,155.23,96,81.83,74.39,106.26,111.44,144,138,184.12,157s83,31.12,125.11,45.2c10.42,3.49,21.43,7.54,28,16.34-5.41,7.41-16.09,9.17-25,6.88s-16.51-7.8-24.24-12.74C232.57,177.2,162.83,166.92,111.28,126c-18.06-14.35-34.16-32.59-56.1-39.73S3.08,90.36,1.83,113.4C.94,130.05,15,143.34,28.17,153.51A621.89,621.89,0,0,0,287.39,270.59c5.13,1,11.73,1.27,14.16-3.34-18.18,11.35-41.76,6.1-62.26-.14C152,240.54,67.51,201.74-3.22,144.16"/><path class="cls-12" d="M308.67,219.53a633.4,633.4,0,0,1-246.3-110C48.57,99.3,34.7,88.3,18.13,83.87c-2.16-.58-4.51-1-6.58-.2C5.3,86.14,7.9,95.58,11.82,101c11.22,15.66,24.9,29.42,39.3,42.23A476.56,476.56,0,0,0,316.83,260.34"/><path class="cls-12" d="M40.07,116c-9.48-6.45-19.79-13.35-32.15-12.29-1.71,10.47,8.19,17.32,17,22,42.7,22.65,85.43,45.3,129.56,65.63,18.23,8.4,103.53,57.29,121.07,36.13C261.79,216.9,235,213.57,217.74,207.2q-31.67-11.7-62.05-25.78A814.8,814.8,0,0,1,40.07,116Z"/></g><path class="cls-2" d="M1237.39,412.75a23,23,0,1,1-32-5.6A23,23,0,0,1,1237.39,412.75Z"/><g class="cls-13"><path class="cls-14" d="M1176.54,427.11a24,24,0,0,1-1.21-14.68,13.65,13.65,0,0,1,4-7.33,7.44,7.44,0,0,1,7.91-1.36c2.63,1.32,3.89,4.34,4.6,7.2,1,4,1.35,8.23,2.25,12.3s2.46,8.15,5.45,11.05c3.55,3.44,8.71,4.8,13.65,4.7a27.79,27.79,0,0,0,26.54-33.82,20.17,20.17,0,0,0-14-15.83,28.71,28.71,0,0,0-22.49,1.88c-2.93,1.58-5.69,3.72-9,4.25,3.92-10.18,14.5-17.27,25.41-17.5a29.45,29.45,0,0,1,23.19,10.78,32.43,32.43,0,0,1,6.9,18.9,41.64,41.64,0,0,1-4.32,19.8c-1.5,3.11-.88,9.14-3.23,11.67-2.6,2.79-5.45,11.28-8.92,12.87-11.28,5.2-33.77,6.3-43.69-1.18s-10-32.38-9.88-44.81"/></g><path class="cls-3" d="M1263.07,28a13.63,13.63,0,1,1-19,3.28A13.64,13.64,0,0,1,1263.07,28Z"/><g class="cls-15"><path class="cls-14" d="M1232,48.13a14.16,14.16,0,0,1-3.61-7.94,8.05,8.05,0,0,1,.78-4.89A4.4,4.4,0,0,1,1233.3,33c1.73.2,3,1.64,4,3.09,1.37,2.06,2.39,4.32,3.71,6.41a12.77,12.77,0,0,0,5.25,5.08,11.21,11.21,0,0,0,8.55-.11,16.46,16.46,0,0,0,8-24.17,12,12,0,0,0-11-6,17,17,0,0,0-12.16,5.54c-1.32,1.47-2.43,3.21-4.16,4.16a16.82,16.82,0,0,1,10.67-14.84,17.49,17.49,0,0,1,15.1,1.38,19.29,19.29,0,0,1,7.62,9.17,24.62,24.62,0,0,1,1.55,11.9c-.21,2,1.34,5.28.53,7.16-.89,2.08-.79,7.38-2.4,9-5.25,5.15-17.58,10.26-24.61,8.07s-12-16.07-14.47-23"/></g><circle class="cls-4" cx="1104.94" cy="302.35" r="34.41" transform="translate(499.44 1274.81) rotate(-73.4)"/><g class="cls-16"><path class="cls-17" d="M1073,274.28c-1.38,14,1.76,28.61,10.18,39.83s22.4,18.52,36.38,17.38c6.55-.54,12.82-2.81,19-5,4.3-1.51,8.8-3,13.32-2.48a2.72,2.72,0,0,1,1.6.59c.86.82.46,2.24-.07,3.31-3.14,6.37-8.66,11.37-14.93,14.71a62,62,0,0,1-20.3,6.14c-12.71,1.86-26.38,1.15-37.34-5.55a38.72,38.72,0,0,1-18-35.31,55.93,55.93,0,0,1,2.62-12.31,107.12,107.12,0,0,1,5.73-14.42"/><path class="cls-17" d="M1067,252.93c12.65,18.62,31.08,32.73,51,43.21,21.63,11.38,46.45,18.9,70.49,14.5-8.13-2.67-16.67-3.77-25.11-5.17-29.82-5-60.7-14.84-80.36-37.81-2.67-3.12-5.17-6.61-5.92-10.65-.25-1.33-.24-2.88.73-3.83,2.08-2,5.3.67,7,3.06,7.89,11.33,18.22,21.1,30.51,27.4s26.57,9,40.16,6.54c-14.93-14.06-37.08-18.12-52.5-31.64a22.66,22.66,0,0,1-6.33-8c-1.31-3.19-1.36-7.06.6-9.89a50.43,50.43,0,0,0-24.72,7.08"/><path class="cls-17" d="M1033.93,307.73c12.65,18.62,31.09,32.73,51,43.21,21.64,11.38,46.45,18.9,70.5,14.51-8.13-2.68-16.67-3.78-25.11-5.18-29.83-4.95-60.71-14.84-80.36-37.81-2.68-3.12-5.18-6.61-5.93-10.65-.25-1.33-.23-2.88.74-3.83,2.07-2,5.29.67,7,3.06,7.89,11.33,18.22,21.1,30.51,27.4s26.57,9,40.16,6.55c-14.93-14.07-37.07-18.12-52.49-31.65a22.57,22.57,0,0,1-6.33-8c-1.32-3.18-1.36-7.05.59-9.89a50.49,50.49,0,0,0-24.72,7.08"/><path class="cls-17" d="M1057.47,282.69c4.08,12.26,13.3,22.29,23.91,29.66s22.67,12.37,34.62,17.28c9,3.69,18.13,7.42,27.79,8.41,5.18.53,10.72.18,15.11-2.64-18.87-2.49-36.5-10.45-54.17-17.54-10.4-4.17-21-8.11-30.45-14.11s-17.87-14.32-21.74-24.84c-.43-1.16-.74-2.64.15-3.51s2.64-.4,3.85.26c7,3.82,12.92,9.32,19,14.44A222,222,0,0,0,1128.39,323c15.59,6.88,33,12,49.55,7.85a170.59,170.59,0,0,1-29.91-8.49c-12.91-5-25.16-11.5-37.37-18-18.3-9.75-37.44-20.26-48.38-37.86,7.58,9.26,36.75,31.52,42.66,29.27,1.8-5.57-26.11-22.76-34-27.72"/></g><circle class="cls-5" cx="1008.87" cy="127.12" r="90.74" transform="translate(-6.39 183.88) rotate(-10.38)"/><g class="cls-18"><path class="cls-17" d="M899.34,103.09C914,137.06,940,166.88,973.7,182s75.33,14.13,106.13-6.36c14.44-9.6,26-22.85,37.53-35.81,8-9,16.44-18.19,27.57-22.73a7.2,7.2,0,0,1,4.44-.68c3,.79,3.92,4.59,4.06,7.7.9,18.72-5.48,37.32-15.68,53s-24.09,28.75-39,40.1c-27,20.5-59.41,36.32-93.24,34.85-36.64-1.59-71.47-25.12-86.63-58.5-4.58-10.09-7.45-20.88-9.66-31.74A281.48,281.48,0,0,1,904,121.3"/><path class="cls-17" d="M858.14,61.56c53,26.8,113.52,35.82,172.87,34.58,64.45-1.35,131.31-15.69,181.19-56.53-22.17,4.21-43.29,12.57-64.55,20.12-75.14,26.66-159,43.25-233.72,15.35-10.15-3.8-20.37-8.64-27.27-17-2.27-2.76-4.22-6.36-3.2-9.79,2.19-7.35,13.08-5.21,20-1.82,32.67,16.08,69,25.44,105.39,24.29s72.79-13.19,101-36.18c-52.41-13.4-108.69,5.52-161.54-6-8.88-1.93-17.78-4.83-24.88-10.49S911.29,3.55,912.17-5.48a133,133,0,0,0-48,47.9"/><path class="cls-17" d="M851.88,230.2c53,26.8,113.52,35.83,172.87,34.58,64.45-1.34,131.31-15.68,181.19-56.53-22.17,4.21-43.29,12.58-64.55,20.12-75.14,26.66-159,43.25-233.72,15.35-10.15-3.79-20.37-8.64-27.27-17-2.28-2.76-4.22-6.36-3.2-9.79,2.19-7.35,13.08-5.21,20-1.82,32.67,16.08,69,25.44,105.39,24.28s72.79-13.19,101-36.17c-52.4-13.4-108.68,5.52-161.53-6-8.88-1.94-17.78-4.83-24.88-10.49S905,172.2,905.91,163.16a133,133,0,0,0-48,47.91"/><path class="cls-17" d="M874.22,142.35c25.08,23.08,59.15,34.47,93.06,37.92s68.09-.41,102-4.33c25.45-2.94,51.29-6,74.86-16.07,12.65-5.39,25-13.28,31.51-25.38-46.73,18.33-97.59,22.48-147.41,28.68-29.32,3.64-58.78,8.07-88.28,6.32S880.38,159.26,858,139.94c-2.48-2.14-5.08-5.16-4.14-8.29,1.06-3.5,5.58-4.32,9.23-4.34,21-.14,41.7,5,62.35,9a585.43,585.43,0,0,0,163.84,8.39c44.76-4,91.54-14.47,124.37-45.16a450.09,450.09,0,0,1-79.88,18.59c-36.14,5-72.73,5.6-109.21,6.19-54.67.87-112.25,1-160-25.62,29.3,11.7,125,25.83,135.81,13.11-2.95-15.17-89.3-19.19-113.85-20.57"/></g><path class="cls-19" d="M290.63,329s-.95-37.11-24.39-48.93-55.74,54.42-55.74,54.42L255,352.56Z"/><path class="cls-19" d="M330.86,389.84s33.77,15.4,35.48,41.6-71.91,30-71.91,30l.78-48Z"/><path class="cls-20" d="M228.8,391.11s-50.75-22.73-64.31,64.83c85.36,24.37,84-34.89,84-34.89C234.38,401.08,228.8,391.11,228.8,391.11Z"/><path class="cls-9" d="M230.25,397.06S195.1,381.32,185.71,442c59.12,16.87,58.18-24.17,58.18-24.17C234.12,404,230.25,397.06,230.25,397.06Z"/><path class="cls-19" d="M434.14,277.83c-13.74-20.77-157.26,53.05-190.39,74.95s12.41,93.66,46.86,70.88S447.07,297.38,434.14,277.83Z"/><path class="cls-19" d="M410.54,293.43c-6.7-10.14-148.54,73.36-178.18,93C214.29,398.34,236,433.71,255.23,421,286.06,400.6,416.85,303,410.54,293.43Z"/><path class="cls-21" d="M453.65,264.93c-15.7-23.75-167.88,52.78-202.8,75.87s17.25,105,53.57,81S468.43,287.28,453.65,264.93Z"/><circle class="cls-9" cx="324.94" cy="350.03" r="32.78" transform="translate(-97.32 126.86) rotate(-19.27)"/><path class="cls-19" d="M338.32,370.27a24.27,24.27,0,1,0-33.63-6.85A24.26,24.26,0,0,0,338.32,370.27Z"/><path class="cls-22" d="M289.05,379.88a5.11,5.11,0,1,0-7.07-1.44A5.11,5.11,0,0,0,289.05,379.88Z"/><path class="cls-22" d="M366.46,328.7a5.11,5.11,0,1,0-7.08-1.44A5.11,5.11,0,0,0,366.46,328.7Z"/><path class="cls-22" d="M382.07,318.38a5.11,5.11,0,1,0-7.07-1.45A5.11,5.11,0,0,0,382.07,318.38Z"/><path class="cls-22" d="M271.79,391.3a5.11,5.11,0,1,0-7.08-1.45A5.12,5.12,0,0,0,271.79,391.3Z"/></g></g></svg>