<svg xmlns="http://www.w3.org/2000/svg" xmlns:xlink="http://www.w3.org/1999/xlink" viewBox="0 0 147.46 200.12"><defs><style>.cls-1{isolation:isolate;}.cls-2{fill:#6e840c;}.cls-3{fill:#6e830c;}.cls-4{fill:#6d850b;}.cls-5{fill:#5a2c69;}.cls-6{fill:#f3b374;}.cls-7{fill:#c8d482;}.cls-8{fill:#a827f5;}.cls-9{fill:#653177;}.cls-10{fill:#5d2d6d;}.cls-11{fill:#542961;}.cls-12{fill:#2ab4fc;}.cls-13{fill:#758912;}.cls-14{fill:#748a19;}.cls-15{fill:#612f72;}.cls-16{fill:#6b850c;}.cls-17{fill:#6e850c;}.cls-18{fill:url(#Áåçûìÿííûé_ãðàäèåíò_13);}.cls-19{fill:url(#Áåçûìÿííûé_ãðàäèåíò_13-2);}.cls-20{fill:url(#Áåçûìÿííûé_ãðàäèåíò_13-3);}.cls-21{fill:#d4ec94;}.cls-22{fill:url(#Áåçûìÿííûé_ãðàäèåíò_13-4);}.cls-23,.cls-25,.cls-71,.cls-80{opacity:0.3;}.cls-23,.cls-25,.cls-67,.cls-71,.cls-81{mix-blend-mode:multiply;}.cls-23{fill:url(#Áåçûìÿííûé_ãðàäèåíò_71);}.cls-24{fill:#d4ec91;}.cls-25{fill:url(#Áåçûìÿííûé_ãðàäèåíò_71-2);}.cls-26{fill:#8db114;}.cls-27{fill:#d0eb84;}.cls-28{fill:#d0ec85;}.cls-29{fill:#168ac5;}.cls-30{fill:#6ed3ff;}.cls-31{fill:#8416c5;}.cls-32{fill:#5a8351;}.cls-33{fill:#6e795a;}.cls-34{fill:#5d8367;}.cls-35{fill:#617c5e;}.cls-36{fill:#48886c;}.cls-37{fill:#5a7b71;}.cls-38{fill:#568186;}.cls-39{fill:#b957ff;}.cls-40{fill:#799474;}.cls-41{fill:#788a80;}.cls-42{fill:#4c8776;}.cls-43{fill:#6c765e;}.cls-44{fill:#597f86;}.cls-45{fill:#5b7b7b;}.cls-46{fill:#697664;}.cls-47{fill:#597f6d;}.cls-48{fill:#69755e;}.cls-49{fill:url(#Áåçûìÿííûé_ãðàäèåíò_13-5);}.cls-50{fill:#718308;}.cls-51{fill:#050d09;}.cls-52{fill:#060f08;}.cls-53{fill:#323d2d;}.cls-54{fill:url(#Áåçûìÿííûé_ãðàäèåíò_35);}.cls-55{fill:#828662;}.cls-56{fill:#7e8e84;}.cls-57{fill:#7b857d;}.cls-58{fill:#699078;}.cls-59{fill:#1f0103;}.cls-60{fill:#700203;}.cls-61{fill:#fcb2b2;}.cls-62{fill:#f29997;}.cls-63{fill:#490201;}.cls-64{fill:#d36b6c;}.cls-65{fill:#8bad19;}.cls-66{fill:url(#Áåçûìÿííûé_ãðàäèåíò_60);}.cls-67,.cls-74,.cls-78,.cls-81{opacity:0.5;}.cls-67{fill:url(#Áåçûìÿííûé_ãðàäèåíò_71-3);}.cls-68{fill:url(#Áåçûìÿííûé_ãðàäèåíò_24);}.cls-69{fill:url(#Áåçûìÿííûé_ãðàäèåíò_24-2);}.cls-70{fill:url(#Áåçûìÿííûé_ãðàäèåíò_13-6);}.cls-71{fill:url(#Áåçûìÿííûé_ãðàäèåíò_71-4);}.cls-72{fill:url(#Áåçûìÿííûé_ãðàäèåíò_43);}.cls-73{fill:url(#Áåçûìÿííûé_ãðàäèåíò_35-2);}.cls-74,.cls-78{mix-blend-mode:screen;}.cls-74{fill:url(#Áåçûìÿííûé_ãðàäèåíò_80);}.cls-75,.cls-82{fill:#fff;}.cls-76{fill:url(#Áåçûìÿííûé_ãðàäèåíò_43-2);}.cls-77{fill:url(#Áåçûìÿííûé_ãðàäèåíò_35-3);}.cls-78{fill:url(#Áåçûìÿííûé_ãðàäèåíò_80-2);}.cls-79{fill:#8d8d8e;}.cls-80{fill:#9ea5a8;}.cls-81{fill:#bfc2c4;}.cls-82{mix-blend-mode:overlay;}.cls-83{fill:#642c7e;}.cls-84{fill:#fe2d2e;}.cls-85{fill:#8852b0;}.cls-86{fill:#2ab3fb;}.cls-87{fill:#8416c4;}.cls-88{fill:#a727f4;}.cls-89{fill:#d61c1d;}.cls-90{fill:#178ac5;}.cls-91{fill:#21a1e2;}.cls-92{fill:#c11e26;}.cls-93{fill:#ff7171;}</style><linearGradient id="Áåçûìÿííûé_ãðàäèåíò_13" x1="49.88" y1="52.6" x2="106.61" y2="52.6" gradientUnits="userSpaceOnUse"><stop offset="0" stop-color="#96c53e"/><stop offset="1" stop-color="#68b886"/></linearGradient><linearGradient id="Áåçûìÿííûé_ãðàäèåíò_13-2" x1="49.46" y1="46.86" x2="92.65" y2="46.86" xlink:href="#Áåçûìÿííûé_ãðàäèåíò_13"/><linearGradient id="Áåçûìÿííûé_ãðàäèåíò_13-3" x1="80.28" y1="55.81" x2="111.57" y2="55.81" xlink:href="#Áåçûìÿííûé_ãðàäèåíò_13"/><linearGradient id="Áåçûìÿííûé_ãðàäèåíò_13-4" x1="7.58" y1="109.47" x2="34.6" y2="109.47" xlink:href="#Áåçûìÿííûé_ãðàäèåíò_13"/><linearGradient id="Áåçûìÿííûé_ãðàäèåíò_71" x1="11.9" y1="110.07" x2="35.02" y2="110.07" gradientUnits="userSpaceOnUse"><stop offset="0" stop-color="#b0cde5"/><stop offset="1" stop-color="#4e5caa"/></linearGradient><linearGradient id="Áåçûìÿííûé_ãðàäèåíò_71-2" x1="7.58" y1="116.18" x2="20.38" y2="116.18" xlink:href="#Áåçûìÿííûé_ãðàäèåíò_71"/><linearGradient id="Áåçûìÿííûé_ãðàäèåíò_13-5" x1="76.53" y1="88.94" x2="81.61" y2="88.94" xlink:href="#Áåçûìÿííûé_ãðàäèåíò_13"/><linearGradient id="Áåçûìÿííûé_ãðàäèåíò_35" x1="68.57" y1="64.24" x2="73.34" y2="64.24" gradientUnits="userSpaceOnUse"><stop offset="0" stop-color="#35334c"/><stop offset="1" stop-color="#111e44"/></linearGradient><linearGradient id="Áåçûìÿííûé_ãðàäèåíò_60" x1="-22.82" y1="33.47" x2="-22.82" y2="10.35" gradientTransform="matrix(-1, 0, 0, 1, 52.98, 0)" gradientUnits="userSpaceOnUse"><stop offset="0" stop-color="#8f2d74"/><stop offset="1" stop-color="#b95c72"/></linearGradient><linearGradient id="Áåçûìÿííûé_ãðàäèåíò_71-3" x1="-25.19" y1="24.73" x2="-25.19" y2="14.1" gradientTransform="matrix(-1, 0, 0, 1, 52.98, 0)" xlink:href="#Áåçûìÿííûé_ãðàäèåíò_71"/><linearGradient id="Áåçûìÿííûé_ãðàäèåíò_24" x1="60.88" y1="57.73" x2="60.88" y2="40.69" gradientUnits="userSpaceOnUse"><stop offset="0" stop-color="#447656"/><stop offset="1" stop-color="#417383"/></linearGradient><linearGradient id="Áåçûìÿííûé_ãðàäèåíò_24-2" x1="86.77" y1="60.14" x2="86.77" y2="43.1" gradientTransform="matrix(-0.98, -0.21, -0.21, 0.98, 185.17, 19.44)" xlink:href="#Áåçûìÿííûé_ãðàäèåíò_24"/><linearGradient id="Áåçûìÿííûé_ãðàäèåíò_13-6" x1="122.41" y1="89.85" x2="153.7" y2="89.85" xlink:href="#Áåçûìÿííûé_ãðàäèåíò_13"/><linearGradient id="Áåçûìÿííûé_ãðàäèåíò_71-4" x1="80.35" y1="55.37" x2="111.63" y2="55.37" xlink:href="#Áåçûìÿííûé_ãðàäèåíò_71"/><linearGradient id="Áåçûìÿííûé_ãðàäèåíò_43" x1="60.88" y1="57.08" x2="60.88" y2="42.39" gradientUnits="userSpaceOnUse"><stop offset="0" stop-color="#4c4961"/><stop offset="1" stop-color="#2b3759"/></linearGradient><linearGradient id="Áåçûìÿííûé_ãðàäèåíò_35-2" x1="62.6" y1="57.08" x2="62.6" y2="42.39" xlink:href="#Áåçûìÿííûé_ãðàäèåíò_35"/><linearGradient id="Áåçûìÿííûé_ãðàäèåíò_80" x1="60.65" y1="52.85" x2="60.65" y2="42.39" gradientUnits="userSpaceOnUse"><stop offset="0" stop-color="#254275"/><stop offset="0.19" stop-color="#203965"/><stop offset="0.56" stop-color="#12213a"/><stop offset="1"/></linearGradient><linearGradient id="Áåçûìÿííûé_ãðàäèåíò_43-2" x1="32.77" y1="58.73" x2="32.77" y2="44.04" gradientTransform="matrix(-1, -0.08, -0.08, 1, 125.64, 2.88)" xlink:href="#Áåçûìÿííûé_ãðàäèåíò_43"/><linearGradient id="Áåçûìÿííûé_ãðàäèåíò_35-3" x1="34.49" y1="58.73" x2="34.49" y2="44.04" gradientTransform="matrix(-1, -0.08, -0.08, 1, 125.64, 2.88)" xlink:href="#Áåçûìÿííûé_ãðàäèåíò_35"/><linearGradient id="Áåçûìÿííûé_ãðàäèåíò_80-2" x1="32.54" y1="54.5" x2="32.54" y2="44.04" gradientTransform="matrix(-1, -0.08, -0.08, 1, 125.64, 2.88)" xlink:href="#Áåçûìÿííûé_ãðàäèåíò_80"/></defs><title>alien</title><g class="cls-1"><g id="Capa_1" data-name="Capa 1"><path class="cls-2" d="M49.43,53.63a35.2,35.2,0,0,1,.78-11.79,35.56,35.56,0,0,1,4.85-10.68,25.93,25.93,0,0,1,7.85-7.86,26.88,26.88,0,0,1,9.24-3.59c1.31-.26,2.65-.26,4-.57h5c.47.2,1,0,1.45.14a36.85,36.85,0,0,1,15.32,4.65,28.91,28.91,0,0,1,12.34,12.91,22.1,22.1,0,0,1,.61,18.25,39.87,39.87,0,0,1-7.47,11.74,66.73,66.73,0,0,1-14,11.81c-1.7,1.09-3.43,2.1-5.21,3a.66.66,0,0,0-.38.84,38.63,38.63,0,0,1,.54,8.59c-.18.22-.35.45-.69.28a1.94,1.94,0,0,1-.13-1.06,39,39,0,0,0-.29-6.75c0-.19,0-.38-.08-.57-.07-.34-.25-.43-.57-.28a5.48,5.48,0,0,0-.74.43,1.4,1.4,0,0,1-1,.23c-.27,0-.57-.12-.59-.44s.27-.35.5-.42a.78.78,0,0,1,.34,0c.16,0,.37.12.47,0,.42-.74,1.23-.88,1.89-1.22a79.21,79.21,0,0,0,8.45-5.17c1.9-1.31,3.67-2.78,5.43-4.26a43.87,43.87,0,0,0,4.8-4.65c1.17-1.33,2.34-2.66,3.4-4.09a30.64,30.64,0,0,0,6-13,20.76,20.76,0,0,0-.08-7.16,24.05,24.05,0,0,0-4.4-10,20.74,20.74,0,0,0-3.8-4.19,30.27,30.27,0,0,0-5.23-4,2.62,2.62,0,0,0-.46-.19,35.59,35.59,0,0,0-10.69-3.95,36.74,36.74,0,0,0-6.28-.73,40.81,40.81,0,0,0-7.81.44A24.35,24.35,0,0,0,59,27.44a32.33,32.33,0,0,0-6.08,9.28c-.56,1.22-1,2.48-1.52,3.73A3.9,3.9,0,0,0,51,42.13a15.19,15.19,0,0,1-.56,2.51c-.06,0-.18,0-.18,0a53.7,53.7,0,0,0,.45,13.46,57.62,57.62,0,0,0,5.07,15.69,29.19,29.19,0,0,0,6,8.54c2,1.91,4.21,3.27,7.07,3.24a8.74,8.74,0,0,0,3.86-.51c.17-.07.27,0,.36.16a.54.54,0,0,1,.08.21.42.42,0,0,1-.26.47,11.89,11.89,0,0,1-7.68-.3,14.63,14.63,0,0,1-5.15-4,41.22,41.22,0,0,1-7.64-13.94A58.08,58.08,0,0,1,49.69,56c-.11-.79-.19-1.58-.26-2.36" transform="translate(-6.99 -6.23)"/><path class="cls-3" d="M7,117.21c.86-1.54,2.43-2.18,3.83-3s2.68-1.48,4-2.21c.24-.14.47-.3.85-.54a27.47,27.47,0,0,0-4.79.93,7.3,7.3,0,0,1-2,.37,1.59,1.59,0,0,1-1.52-.89,1.46,1.46,0,0,1,.48-1.62,5.91,5.91,0,0,1,2.87-1.53c4.27-1.26,8.62-2.18,13-3.15,1.14-.26,2.28-.53,3.43-.73a.73.73,0,0,0,.68-.67,18.2,18.2,0,0,1,1.26-4.25,5.07,5.07,0,0,1,4-3,2.19,2.19,0,0,1,2.51,1.73,2.07,2.07,0,0,1-.55,1.64c-.29.41-.64.78-1,1.16a5.82,5.82,0,0,0-1,6.18c.23.65.45,1.19,1.22,1.26-.06.24-.45.3-.36.64s0,.43,0,.64a5.85,5.85,0,0,1-.32,2.35,4.2,4.2,0,0,0-.36,1c-.26.18-.07.69-.53.72s-.58.53-.9.77a9.21,9.21,0,0,1-4.34,1.74,33.87,33.87,0,0,0-11.2,4.22l-2.9,1.57a1.41,1.41,0,0,1-1.68-.06,1.43,1.43,0,0,1-.33-1.66A6.73,6.73,0,0,1,13.73,118c1.15-1,2.45-1.82,3.79-2.78a8.1,8.1,0,0,0-2.3.81,47.33,47.33,0,0,0-4.66,2.36,4.44,4.44,0,0,1-1.85.73A1.61,1.61,0,0,1,7,118.22Z" transform="translate(-6.99 -6.23)"/><path class="cls-4" d="M135,85.13c1.19.32,2.41.45,3.6.8a63,63,0,0,1,11.64,4.58,5.9,5.9,0,0,1,2.22,2c.87,1.37.46,2.36-1.11,2.73l-.38.13a10.23,10.23,0,0,1,3.47,3.7v1a2,2,0,0,1-2.1.52,11.79,11.79,0,0,1-2.55-.92c0,.07-.06.12,0,.15.77,1.84-.37,2.18-1.79,2a11.68,11.68,0,0,1-3.83-1.35c-1.65-.77-3.33-1.48-4.92-2.36a15.37,15.37,0,0,0-4.32-1.2,10.25,10.25,0,0,1-2.6-.83c-.39-.2-.65-.15-.86.23a.46.46,0,0,1-.18-.23c-.34-.78-1.24-.86-1.75-1.42-.38-.41-.93-.67-1-1.29a.45.45,0,0,1,.38-.35c.28,0,.41.2.59.36a10.24,10.24,0,0,0,4,2.39,16,16,0,0,0,3.94.8,2.67,2.67,0,0,1,1.07.39c2.65,1.29,5.3,2.58,8,3.73a6.65,6.65,0,0,0,2,.45c.64.07.82-.19.68-.86a6.67,6.67,0,0,0-1.9-2A50.81,50.81,0,0,0,142,95.15c-.18-.09-.44-.13-.35-.44a.91.91,0,0,1,.89.09A29.58,29.58,0,0,1,148.37,98a11.66,11.66,0,0,0,4.45,1.93c.73.15.88,0,.77-.8a8.13,8.13,0,0,0-3-3.07,35.79,35.79,0,0,0-5.44-2.88c-.47-.23-1.09-.27-1.3-.88.28-.34.58-.12.85,0A41.08,41.08,0,0,1,149,94a3.89,3.89,0,0,0,2,.53c1.15-.06,1.48-.69.87-1.67a2.38,2.38,0,0,0-.39-.51,12.15,12.15,0,0,0-4.34-2.59A69.72,69.72,0,0,0,135.76,86a5.77,5.77,0,0,0-.72-.16.41.41,0,0,1-.23-.2A.56.56,0,0,1,135,85.13Z" transform="translate(-6.99 -6.23)"/><path class="cls-5" d="M57.39,206.34a9.91,9.91,0,0,1-2.19-.61,1.54,1.54,0,0,1-.64-2.4,9.36,9.36,0,0,1,3.19-2.74,58.55,58.55,0,0,1,10.65-5c.63-.23.77-.43.55-1.13-.94-2.92-1.78-5.86-2.54-8.83-.51-2-1-4-1.37-6.08a.41.41,0,0,1,.56-.1,1.18,1.18,0,0,1,.31.71c.72,3.53,1.66,7,2.62,10.46.34,1.18.73,2.34,1.07,3.52a3.65,3.65,0,0,0,.34,1c.19.46-.09.66-.46.79-.55.21-1.11.41-1.65.65l-.2.08c-4,1.57-8,3.17-11.42,5.87a5.6,5.6,0,0,0-.9.92,1,1,0,0,0-.16,1.26,3.1,3.1,0,0,0,2.47.75,27,27,0,0,0,5.16-.13,29.94,29.94,0,0,1,3.41-.41,6.79,6.79,0,0,0,1.61-.34,23.7,23.7,0,0,0,6-2.18,7,7,0,0,0,1.51-1.21,2.42,2.42,0,0,0,.48-2.61,21.36,21.36,0,0,1-.93-3c0-.37.1-.65.52-.69a36.45,36.45,0,0,0,1.18,3.67c.57,1.46-.11,2.94-1.67,4a14.84,14.84,0,0,1-3.94,1.87,38.75,38.75,0,0,1-9.06,1.7c-.53.15-1.08-.07-1.6.12Z" transform="translate(-6.99 -6.23)"/><path class="cls-6" d="M60.27,206.34a3.61,3.61,0,0,1,1.6-.12s0,.08,0,.12Z" transform="translate(-6.99 -6.23)"/><path class="cls-7" d="M82.6,19.28a2.75,2.75,0,0,1-1.45-.14h1.44A.66.66,0,0,0,82.6,19.28Z" transform="translate(-6.99 -6.23)"/><path class="cls-8" d="M83.89,126a4.4,4.4,0,0,1,1-.46c1-4.19,2-8.39,2.78-12.64a87.85,87.85,0,0,0,1.17-9.68A31.52,31.52,0,0,0,89,98.45,47.44,47.44,0,0,0,88.37,93c-.1-.49.14-.53.52-.46a1.93,1.93,0,0,0,.34.11c1,.15,1.45.77,1.56,1.81a45.75,45.75,0,0,1-.05,9.36c-.38,3.89-1,7.74-1.68,11.58-.56,3.06-1.09,6.12-1.52,9.19,0,.25-.07.5-.1.75a5.39,5.39,0,0,1,.94.25c.18-1.41.31-2.83.61-4.22a4.45,4.45,0,0,0,.28-1.77,2.06,2.06,0,0,1,.2-1.29,37.63,37.63,0,0,0,1-5.38,1.49,1.49,0,0,1,.21-1c0-.94.42-1.82.37-2.77a1.93,1.93,0,0,1,.2-1.25,3.1,3.1,0,0,0,.08-1.09,2,2,0,0,1,.23-1.29,28.3,28.3,0,0,0,.38-4.23c0-1.78,0-3.56,0-5.35a8.44,8.44,0,0,0-.3-2.5c0-.2,0-.41,0-.61a11.6,11.6,0,0,0-4.23-1.36.7.7,0,0,0-.19.58c.22,1.07.42,2.14.68,3.19A6.19,6.19,0,0,1,88,97.58a2.17,2.17,0,0,0,0,.36c.17,2.7-.23,5.37-.3,8.07a2.62,2.62,0,0,1-.09.56c-.22,1.18-.3,2.38-.46,3.56a2,2,0,0,1-.19,1.3,26.88,26.88,0,0,0-.66,3.67,1.44,1.44,0,0,1-.21,1,10.84,10.84,0,0,0-.25,1.13,15.54,15.54,0,0,0-.7,3.37,1.3,1.3,0,0,1-.2,1,29.34,29.34,0,0,0-.94,3.69A1.74,1.74,0,0,1,83.89,126Z" transform="translate(-6.99 -6.23)"/><path class="cls-8" d="M82.1,132.32a4.14,4.14,0,0,1-2,2.78.41.41,0,0,0-.05.34.6.6,0,0,0,.72.35,3.76,3.76,0,0,0,1.95-2.33A4.75,4.75,0,0,1,82.1,132.32Z" transform="translate(-6.99 -6.23)"/><path class="cls-9" d="M95.93,174a122,122,0,0,0-2.36-15.21c-.7-3.46-1.46-6.9-2.24-10.35s-1.61-7-2.42-10.45c-.13-.2,0-.46-.18-.68a5.5,5.5,0,0,1-.61-2,1,1,0,0,0,0-.24,4.73,4.73,0,0,1-1,.2,12.71,12.71,0,0,0,.35,1.48,17.37,17.37,0,0,1,1.07,2.9c.24,1.2.56,2.39.83,3.58.73,3.14,1.49,6.27,2.18,9.42.47,2.13.94,4.27,1.39,6.4s.85,4.33,1.19,6.51a46.57,46.57,0,0,1,.68,5,24.09,24.09,0,0,1,.42,5.23,1.13,1.13,0,0,0,.15.76.39.39,0,0,0,.58,0A13.26,13.26,0,0,0,95.93,174Z" transform="translate(-6.99 -6.23)"/><path class="cls-9" d="M88.91,137.75a5.19,5.19,0,0,1-1-2.54c.31-.67,0-1.36,0-2a31.33,31.33,0,0,1,.84-6.09,95.39,95.39,0,0,1,3-9.65c.52-1.55,1.15-3.07,1.53-4.64a46.27,46.27,0,0,0,1.11-6.22,21.35,21.35,0,0,0-.2-6.08,1.42,1.42,0,0,1,0-.29c0-.16,0-.36.21-.4s.25.13.3.26a4.69,4.69,0,0,1,.44,1.29,1.65,1.65,0,0,0,.85,1.15c1.5,1,3.09,1.94,4.67,2.82,1.76,1,3.44,2.08,5.26,2.94s3.52,1.85,5.34,2.66a30.94,30.94,0,0,0,4.83,1.83,4.26,4.26,0,0,0,4.15-.93,28,28,0,0,0,4.47-5.42c1.68-2.52,3.11-5.18,4.61-7.8a5.61,5.61,0,0,1,.81-1.43c.34-.16.48.08.62.32a115.56,115.56,0,0,1-6.36,10.65,21.23,21.23,0,0,1-3.76,4.32,4.71,4.71,0,0,1-4.48,1.06,38.94,38.94,0,0,1-7.43-3c-4.31-2.14-8.47-4.54-12.57-7.06-.24-.15-.5-.27-.82-.45,0,1.65-.15,3.21-.34,4.77a43.32,43.32,0,0,1-2.17,8.83,101.22,101.22,0,0,0-3.37,10.74,26.15,26.15,0,0,0-.62,9.77A4.56,4.56,0,0,1,88.91,137.75Z" transform="translate(-6.99 -6.23)"/><path class="cls-10" d="M95.85,179.54a69.73,69.73,0,0,1-.65,8.17c-.32,2.54-.57,5.09-1,7.61-.1.49.29.43.52.48,2.17.47,4.34,1,6.47,1.62a28.86,28.86,0,0,1,7.65,3.2,3.7,3.7,0,0,1,1,.84,1.55,1.55,0,0,1-.43,2.54,6.59,6.59,0,0,1-2.57.87,37.52,37.52,0,0,1-11.87.2,17.14,17.14,0,0,1-5.42-1.57c-2-1-2.64-2.17-2-4.24a17.59,17.59,0,0,0,.14-7.33c-.52-3.63-1.11-7.25-.65-10.94a11.89,11.89,0,0,1,.59-2.94c.3.14.76.09.7.62a8.48,8.48,0,0,0-.64,3.72,47.26,47.26,0,0,0,.78,9.49,28.86,28.86,0,0,1,.17,6c-.14.65-.31,1.3-.46,1.95a2.36,2.36,0,0,0,1,2.56,8.24,8.24,0,0,0,3.07,1.36,29.35,29.35,0,0,0,8.45.92,48.23,48.23,0,0,0,6.35-.61,5.9,5.9,0,0,0,2-.75c.46-.29.73-.68.43-1.25a12.6,12.6,0,0,0-4.64-2.66,66.42,66.42,0,0,0-10.1-2.85l-.49-.11c-.7-.17-.83-.35-.74-1.06.28-2.41.68-4.8.95-7.2s.54-5,.74-7.59c0-.62-.43-.57-.64-.85C94.85,179.08,95.36,179.34,95.85,179.54Z" transform="translate(-6.99 -6.23)"/><path class="cls-11" d="M88.2,175.87A78.33,78.33,0,0,1,83.37,164a67.18,67.18,0,0,1-2.9-13.52q0-.47-.06-.93c0-.38,0-.67-.56-.67s-.55.26-.59.66a67.65,67.65,0,0,1-2.28,12,87.09,87.09,0,0,1-4.93,13.15.56.56,0,0,1-.57,0c-.16-.27,0-.51.09-.74a86,86,0,0,0,4.05-10.37A71.83,71.83,0,0,0,78,153.66c.21-1.33.38-2.66.56-4a.69.69,0,0,0-.58-.89,5.19,5.19,0,0,1-1.38-.76,1.88,1.88,0,0,1-.23-.16c-.15-.15-.39-.3-.22-.53s.39-.07.58,0a6.7,6.7,0,0,0,5.1.44,7.75,7.75,0,0,1,.81-.28c.32-.06.56,0,.36.41a5,5,0,0,1-1.46.9.66.66,0,0,0-.4.75,71.81,71.81,0,0,0,2.4,12.31A93.72,93.72,0,0,0,87,171.61c.09.22.2.43.31.64.46.93.86,1.88,1.31,2.81.12.24.33.49.14.8A.48.48,0,0,1,88.2,175.87Z" transform="translate(-6.99 -6.23)"/><path class="cls-10" d="M71.49,174.67l.56.05c-.19.27,0,.43.14.63.29.51.57,1,.86,1.55,0,.23-.25.3-.37.45a6.63,6.63,0,0,1-1.84,1.49,7.82,7.82,0,0,1-4,.92c-.41,0-.84.1-1.22-.18l-.59,0a13.34,13.34,0,0,1-.44-3.2.72.72,0,0,1,.45-.2c.32,0,.65,0,1,0a6.94,6.94,0,0,0,3.33-.52,2.79,2.79,0,0,0,1.49-.75C71,174.76,71.17,174.47,71.49,174.67Z" transform="translate(-6.99 -6.23)"/><path class="cls-10" d="M88.2,175.87l.57-.07.1,0a1.31,1.31,0,0,0,1.2.39c1.44.52,2.93.22,4.39.27.49.15.92-.43,1.42-.1a13.91,13.91,0,0,1,0,3.16c-.41.13-.92-.2-1.26.27a.4.4,0,0,1-.35.21A8.88,8.88,0,0,1,88.51,179c-.16-.1-.35-.18-.34-.42-.18-.22-.56-.16-.67-.48C87.58,177.28,88.2,176.67,88.2,175.87Z" transform="translate(-6.99 -6.23)"/><path class="cls-10" d="M72.66,177.26c0-.3.23-.26.39-.36a22.17,22.17,0,0,1,1.76,6.93,29.38,29.38,0,0,1,.19,3.51c.06.6,0,1.2,0,1.8,0,.41-.11.72-.61.69a.52.52,0,0,1-.11-.4,57.19,57.19,0,0,0-.41-6.8,23.07,23.07,0,0,0-.88-3.76A6.35,6.35,0,0,1,72.66,177.26Z" transform="translate(-6.99 -6.23)"/><path class="cls-9" d="M130.81,97.49c-.25.06-.3-.33-.56-.25-.59,0-.82-.58-1.24-.86-1-.64-1.89-1.51-2.91-2.17-.14-.09-.27-.21-.18-.41l1.44-1.66c.32-.36.47,0,.66.16a.47.47,0,0,1,0,.4c-.11.13-.28.16-.41.28-.65.59-.62,1,.15,1.35.53.28.92.74,1.45,1a1.73,1.73,0,0,1,.38.43,1,1,0,0,0,1.47.27.29.29,0,0,1,.34,0l0,.32A4.39,4.39,0,0,1,130.81,97.49Z" transform="translate(-6.99 -6.23)"/><path class="cls-10" d="M75.25,194.37l-.51.17a36.54,36.54,0,0,1-.29-4.45c.1-.43.25-.8.63-.85Z" transform="translate(-6.99 -6.23)"/><path class="cls-12" d="M95.38,176.38c-.31-.06-.53.45-.85.29,0-.6.28-.59.55-.56h.33Z" transform="translate(-6.99 -6.23)"/><path class="cls-9" d="M70.37,136.1c.12-1.64.41-3.27.38-4.93a34.16,34.16,0,0,0-1-7.53c-.94-3.93-2.36-7.73-3.33-11.66,0-.06-.07-.12-.13-.24-.76,1-1.48,1.9-2.25,2.81a51.07,51.07,0,0,1-6.88,7.22c-.33.27-.7.49-1,.76-1.51,1.18-3.19.87-4.8.41a68.79,68.79,0,0,1-16.37-7.16c-.22-.4-.32-.79.16-1.08,1.4,1.46,3.25,2.18,5,3.07s3.45,1.67,5.22,2.39c1.24.51,2.51,1,3.78,1.39s2.37.58,3.53.92a3.64,3.64,0,0,0,3.42-.78,40.38,40.38,0,0,0,6.12-6.07c1-1.11,1.79-2.32,2.81-3.37a3.25,3.25,0,0,0,.85-3c-.09-.61-.13-1.24-.26-1.85a17.58,17.58,0,0,1,.44-5,1,1,0,0,1,.38,1,36.58,36.58,0,0,0,2,12.71A70.21,70.21,0,0,1,71.16,127a22.62,22.62,0,0,1,.4,4.5,13.48,13.48,0,0,0-.14,2.29,3.36,3.36,0,0,1-.09,1.09c-.15.33-.32.64-.49.95S70.66,136.21,70.37,136.1Z" transform="translate(-6.99 -6.23)"/><path class="cls-9" d="M65.05,176.38l-.45,0a26.87,26.87,0,0,1-.13-7.44,130.68,130.68,0,0,1,1.7-13.08c.73-4.22,1.53-8.42,2.51-12.59a.43.43,0,0,1,.41.27,1.55,1.55,0,0,1,0,1.12,212.16,212.16,0,0,0-3.7,21.69,43.35,43.35,0,0,0-.24,9.25A1,1,0,0,1,65.05,176.38Z" transform="translate(-6.99 -6.23)"/><path class="cls-9" d="M35.19,114.75c-.48.24-.17.69-.28,1a10.14,10.14,0,0,1-2.15-1.45c.3-.15-.07-.68.41-.74a3.12,3.12,0,0,0,1.19.94c.15-.5.28-1,.38-1.49.11-.81.33-1.61.45-2.42.2-.57,0-.83-.61-.93-.28-.06-.63,0-.81-.32-.07-.48.34-.33.55-.44l1.81.37a.84.84,0,0,1,.13.56,1.16,1.16,0,0,1-.09.55,1.34,1.34,0,0,0-.19.92,1.54,1.54,0,0,1-.09.52,1.21,1.21,0,0,0-.2.88,3.71,3.71,0,0,1-.22,1.23C35.4,114.23,35.44,114.54,35.19,114.75Z" transform="translate(-6.99 -6.23)"/><path class="cls-9" d="M68.9,143.51l-.22-.22c.41-2.14,1-4.25,1.51-6.37a3.43,3.43,0,0,1,.57-.8c.13-.14.28-.36.52-.13a.48.48,0,0,1,0,.42c-.8,1.39-.8,3-1.3,4.5-.14.7-.33,1.4-.49,2.1C69.42,143.25,69.45,143.77,68.9,143.51Z" transform="translate(-6.99 -6.23)"/><path class="cls-9" d="M71.21,135.92l-1,1,.18-.82c.49-.25.34-.94.82-1.2.16-.09.2-.41.49-.26.14.41-.1.74-.22,1.1A.35.35,0,0,1,71.21,135.92Z" transform="translate(-6.99 -6.23)"/><path class="cls-9" d="M36.13,109.8v-.5c1.65.23,3.31.45,5,.7a48.78,48.78,0,0,1,7.58,1.56,15.23,15.23,0,0,1,5.26,2.52c.38.31.5.07.67-.22,2.12-3.61,4.3-7.18,6.6-10.68a83.9,83.9,0,0,1,6.49-8.75,5.21,5.21,0,0,1,1.49-1.22c.21.16.17.37.13.59a.66.66,0,0,1-.09.19c-2.77,2.64-4.83,5.84-7,9a16,16,0,0,1-1.27,2.15,29.19,29.19,0,0,0-2.37,3.58c-1.08,1.72-2.09,3.48-3.16,5.21a1.42,1.42,0,0,0-.09,1.65c.19.67.52,1.34,0,2-.25-.13-.28-.39-.33-.61a4.39,4.39,0,0,0-2.26-2.84,20.27,20.27,0,0,0-5.6-2.19,80.32,80.32,0,0,0-8.85-1.56A3.93,3.93,0,0,1,36.13,109.8Z" transform="translate(-6.99 -6.23)"/><path class="cls-8" d="M71.05,92.32a13,13,0,0,1,2.14-.48c.09.39-.14.76,0,1.15-.38,1.26-.53,2.56-.79,3.84a6.71,6.71,0,0,0-.06,1c0,3.08,0,6.16,0,9.23a3.05,3.05,0,0,0,.19,1.69.37.37,0,0,1,0,.14,40.51,40.51,0,0,0,.62,5.27,2.08,2.08,0,0,1,0,.5,2,2,0,0,0,.17,1.25,1.87,1.87,0,0,1,.1.81,1.44,1.44,0,0,0,.21,1,3,3,0,0,1,.08,1,1.43,1.43,0,0,0,.2,1,4.72,4.72,0,0,1,.38,1.93,1.85,1.85,0,0,0,.19,1.2,8.08,8.08,0,0,1,.67,2.82,1.42,1.42,0,0,0,.2,1c.37,1.19.64,2.41,1,3.61,0,.31-.08.65.2.9a10.47,10.47,0,0,1,.83,2,3.53,3.53,0,0,0,2.27,2,3.07,3.07,0,0,1,.31.17c.15.07.38.08.37.28s-.24.25-.42.33a2.53,2.53,0,0,1-2.2-.74c-.39-.3-.67-.73-1.22-.78-.09,0-.11-.14-.12-.24.32-.4.14-.76-.11-1.11a38.83,38.83,0,0,1-1.32-4.63c-.68-2.67-1.28-5.36-1.76-8.07-.61-3.43-1.15-6.86-1.49-10.32a42.63,42.63,0,0,1-.36-5.3c0-1.07-.18-2.14-.14-3.23A42.88,42.88,0,0,1,72,93.57c.16-.72.15-.73-.61-.59C71,92.88,70.71,92.73,71.05,92.32Z" transform="translate(-6.99 -6.23)"/><path class="cls-8" d="M83.75,91.41a.84.84,0,0,1,.61-.3,21.18,21.18,0,0,1,2.38.29c.42.61.15,1.29.21,1.94a.76.76,0,0,1-.11.36.33.33,0,0,1-.32.11.79.79,0,0,1-.46-.87c.08-.85.08-.85-.77-1-.5,0-.92,0-1.16.57A4,4,0,0,1,80.3,95a4.07,4.07,0,0,1-4-2.17,1.07,1.07,0,0,0-1.2-.66c-.47.05-.66.23-.59.75a3.65,3.65,0,0,0,1.7,2.53,6.33,6.33,0,0,0,6.26,1.13,5.28,5.28,0,0,0,3.21-2.38.54.54,0,0,1,.84-.23c.22.55-.09.92-.45,1.28a1,1,0,0,0-.62.63,5.71,5.71,0,0,1-3,1.7,6.35,6.35,0,0,1-2,.32c-2.29-.15-4.42-.7-6-2.61a7.56,7.56,0,0,1-.86-1.64,3.2,3.2,0,0,1-.07-.87c0-.38-.09-.79.21-1.12a9.42,9.42,0,0,1,1.74-.28c.21,0,.49.07.58-.26.31-.2.43.09.61.24a2.71,2.71,0,0,0,1.19,2,3.54,3.54,0,0,0,4.39,0,2.78,2.78,0,0,0,1.08-1.48C83.46,91.68,83.43,91.41,83.75,91.41Z" transform="translate(-6.99 -6.23)"/><path class="cls-8" d="M71.05,92.32a.43.43,0,0,0,.15.58c.26.33,0,.53-.18.76a4.29,4.29,0,0,0-1.35,1.55c-.12-.06-.21-.22-.38-.06a.18.18,0,0,1-.32-.08,2,2,0,0,1,.22-1.17l0,0a.94.94,0,0,1,.47-.47,6.25,6.25,0,0,1,.63-.33c.29-.1.25-.3.16-.51A.89.89,0,0,1,71.05,92.32Z" transform="translate(-6.99 -6.23)"/><path class="cls-13" d="M76.05,88.26c.18,0,.35-.57.53,0a5.23,5.23,0,0,1,.11,3.18l-.5-.28Z" transform="translate(-6.99 -6.23)"/><path class="cls-14" d="M73.11,85.5a.73.73,0,0,0,1-.22c.16-.21.45-.32.66-.51a.58.58,0,0,1,.87,0c.4.33-.09.44-.16.65a11.54,11.54,0,0,1-2.54.57Z" transform="translate(-6.99 -6.23)"/><path class="cls-13" d="M75.8,86.26c.06-.21,0-.55.32-.52s.11.31.16.48a3.22,3.22,0,0,1,.11.62c0,.18.06.43-.15.51s-.23-.29-.4-.38Z" transform="translate(-6.99 -6.23)"/><path class="cls-9" d="M73.81,91.7l0,1.18a5.61,5.61,0,0,1-.82,0,1.36,1.36,0,0,1,.24-1A.76.76,0,0,1,73.81,91.7Z" transform="translate(-6.99 -6.23)"/><path class="cls-15" d="M70.5,92.56c.37.2.61.4,0,.63a7.63,7.63,0,0,0-.75.39.51.51,0,0,1,0-.66Z" transform="translate(-6.99 -6.23)"/><path class="cls-9" d="M69.75,92.92c0,.22,0,.44,0,.66l-.52.29-.06-.66Z" transform="translate(-6.99 -6.23)"/><path class="cls-8" d="M125.92,93.8c1,.75,2,1.51,3,2.26a.38.38,0,0,1,.19.26,8.43,8.43,0,0,0-1.39,2.57,53.69,53.69,0,0,1-3.23,6.15,17.48,17.48,0,0,1-4.19,5.07,5.43,5.43,0,0,1-5.14,1,22.36,22.36,0,0,1-7-3.8,32,32,0,0,1-5.27-5.26,24.9,24.9,0,0,1-2.42-3.74.78.78,0,0,1-.12-.68c.34-.19.6,0,.86.18,4.59,2.59,9.13,5.26,13.58,8.08a1.29,1.29,0,0,1,.74,1.47,3.85,3.85,0,0,0,0,.87,4.21,4.21,0,0,1,.67-2.35,30.11,30.11,0,0,1,3.93-5.39c1.61-1.84,3.41-3.49,5.06-5.29.25-.27.26-.61.43-.89A1.15,1.15,0,0,1,125.92,93.8Z" transform="translate(-6.99 -6.23)"/><path class="cls-9" d="M125.51,94.29a.82.82,0,0,1-.22,1c-1.34,1.36-2.71,2.71-4,4.1a32.82,32.82,0,0,0-5,6.51,4.77,4.77,0,0,0-.73,2.44.59.59,0,0,1-.28.6c0-.68,0-1.32,0-2a.61.61,0,0,0-.31-.69c-3.47-2.19-7-4.34-10.54-6.36-1.37-.78-2.7-1.63-4.14-2.27-1.63-.62-3.14-1.52-4.73-2.24a36.85,36.85,0,0,0-3.48-1.5,1,1,0,0,1-.7-.57c0-.19-.13-.42.18-.5,2.73,1.26,5.52,2.41,8.17,3.84,3.06,1.64,6.08,3.34,9,5.14q3.23,2,6.4,4c.34.21.49.13.65-.17,1.84-3.43,4.58-6.13,7.23-8.89C123.86,95.89,124.69,95.1,125.51,94.29Z" transform="translate(-6.99 -6.23)"/><path class="cls-3" d="M126.21,84.09h.15a10.92,10.92,0,0,1,2.23,4.71.36.36,0,0,1,0,.2c-.57.57-1.26.27-1.91.26a8.09,8.09,0,0,0-1-2.89c-.24-.34-.51-.63-.76-1A1.58,1.58,0,0,1,126.21,84.09Z" transform="translate(-6.99 -6.23)"/><path class="cls-16" d="M129.38,84.81c0-1.77-1.07-3-2.25-4.22.29-.21.51.13.75,0a7,7,0,0,1,2.05,3.5c.12.4.36.38.64.39a29.48,29.48,0,0,1,3.75.43,5.27,5.27,0,0,1,.68.19c0,.17,0,.33-.18.42a.73.73,0,0,1-.68.14c-1.5-.31-3-.34-4.54-.6C129.48,85,129.37,85,129.38,84.81Z" transform="translate(-6.99 -6.23)"/><path class="cls-3" d="M126.21,84.09a4.3,4.3,0,0,0-1.32,1.33,17.32,17.32,0,0,1-2.23-2c.06-.21.13-.39.4-.3.35.53.66.38,1,0s.51-.37.92-.07S125.7,83.82,126.21,84.09Z" transform="translate(-6.99 -6.23)"/><path class="cls-17" d="M123.06,83.07l-.4.3a3.73,3.73,0,0,1-1-2.11,2,2,0,0,1,1.84-2.34,4.57,4.57,0,0,1,3.46,1,2.08,2.08,0,0,1-1.34-.14,2.86,2.86,0,0,0-3,.11,2.65,2.65,0,0,0,.2,2.46,1.23,1.23,0,0,1,.26.58S123.06,83,123.06,83.07Z" transform="translate(-6.99 -6.23)"/><path class="cls-3" d="M126.65,89.26c.17-.1.15-.56.57-.15s.86-.07,1.3-.13.51.48.55.85a.47.47,0,0,1-.14.32,2.18,2.18,0,0,0-.87,2c0,.06-.06.12-.12.17-.22,0-.32-.33-.58-.16,0-.87-.59-1.6-.65-2.46C126.7,89.54,126.67,89.4,126.65,89.26Z" transform="translate(-6.99 -6.23)"/><path class="cls-9" d="M86.77,93.45l0-2,.6.06V92c-.23.27,0,.58-.1.87S87.3,93.58,86.77,93.45Z" transform="translate(-6.99 -6.23)"/><path class="cls-18" d="M60.77,59.88c.36.16.72.31,1.1.44.81.29.8.27,1.21-.49a30,30,0,0,0,3.37-9.3,13.63,13.63,0,0,0-.82-8.17A8.83,8.83,0,0,0,58.25,37c-2.65-.33-7.21,3.91-7.11,3.38.57-.89,1-1.87,1.5-2.79a38.56,38.56,0,0,1,7.15-9.31,26.8,26.8,0,0,1,6.47-4.62,23.37,23.37,0,0,1,5.2-1.86c1.18-.28,2.37-.53,3.59-.7A30.54,30.54,0,0,1,82,21a53.43,53.43,0,0,1,8.22,1.29c2.18.53,4.35,1.1,6.49,1.8.33.11.61.4,1,.36a20.14,20.14,0,0,1,3.45,2.23,10.32,10.32,0,0,1,2.18,1.94,17.65,17.65,0,0,1,1.81,4,28.88,28.88,0,0,1,1.17,5.11,33.09,33.09,0,0,1,.14,7.51,35.66,35.66,0,0,1-1.44,7,37.39,37.39,0,0,1-2.25,5.35c-.58,1.16-1.32,2.22-1.87,3.4a6.84,6.84,0,0,1-1,1.38,82.78,82.78,0,0,1-7.79,8.84A67.25,67.25,0,0,1,85,77.29c-.82.58-1.69,1.1-2.45,1.76a2.33,2.33,0,0,1-.72.32,2.36,2.36,0,0,0-1.15.92c-.15.23-1.62,1.14-1.17.63A18.48,18.48,0,0,1,81.61,77c.12-.19-1.31,4.21-2.09,3.13-.17-.22.11.67,0,.81-.51.53-1.14-1.12-.29-.28,0,0,0,.14,0,.21a.66.66,0,0,1-.5.34,3.7,3.7,0,0,1-1.55.52c-.4.4-1.1.66-1.54,1-3.49,1.43-7,2.19-10.8,1.17a8.14,8.14,0,0,1-3.09-1.49,23.74,23.74,0,0,1-4.5-5.72,50.56,50.56,0,0,1-5.14-12,58.91,58.91,0,0,1-1.92-9.4A59.16,59.16,0,0,1,49.92,47c0-.9.62-1.13.71-.49a16.58,16.58,0,0,0,5.21,10l.56.51a17.56,17.56,0,0,0,4.37,2.94" transform="translate(-6.99 -6.23)"/><path class="cls-19" d="M66.58,43.74C65,39.86,61.33,32,64,27.8A22.27,22.27,0,0,0,49.46,48.88a22.56,22.56,0,0,0,7.66,17,5,5,0,0,1,6.15-1.23c1,.51,2.71.36,4.34.08.49-4.65,1.12-9.5,2-14.14C68.87,48.25,67.56,46.08,66.58,43.74Z" transform="translate(-6.99 -6.23)"/><path class="cls-20" d="M81.34,79.39a12.31,12.31,0,0,0,2.45-1.57,70.93,70.93,0,0,0,8.67-7.48,71.39,71.39,0,0,0,6.15-7.08c.48-.64,1.07-1.23,1.51-1.9s.87-1.48,1.29-2.23a38,38,0,0,0,2.39-4.93,30.54,30.54,0,0,0,1.58-5.33c.31-1.63.44-3.3.61-5a28.54,28.54,0,0,0-.5-7.61,19.3,19.3,0,0,0-1.73-5.56,21.29,21.29,0,0,1-.81-2,7.4,7.4,0,0,1,2,1.89,27.76,27.76,0,0,1,4.15,6.07,22.39,22.39,0,0,1,2.31,7.84,25.37,25.37,0,0,1,0,4.93,21.91,21.91,0,0,1-1.77,6.3,35.23,35.23,0,0,1-4.76,8,54.14,54.14,0,0,1-6.5,7c-1.8,1.64-3.68,3.19-5.61,4.65a37.1,37.1,0,0,1-4.18,2.85c-1.16.66-2.27,1.41-3.43,2.08-1,.57-2,1.09-3,1.6-.32.16-.68.18-.77.63,0,.12-.32.6-.63.12a.68.68,0,0,0-.17-.95c-.48-.38-.36-.75,0-1.13A1.62,1.62,0,0,0,81.34,79.39Z" transform="translate(-6.99 -6.23)"/><path class="cls-21" d="M97.7,24.47a2.71,2.71,0,0,1-1.54-.31A21,21,0,0,0,92.29,23c-2.2-.52-4.42-1-6.67-1.31a49.46,49.46,0,0,0-7.78-.52,29,29,0,0,0-4.91.57,27.72,27.72,0,0,0-6.42,2.09,20.94,20.94,0,0,0-4,2.48,32.66,32.66,0,0,0-4.37,4A36.31,36.31,0,0,0,52.73,38c-.41.8-.94,1.54-1.33,2.35-.06.12-.12.22-.26.11a49.28,49.28,0,0,1,3.26-7.18,25.66,25.66,0,0,1,11.52-11,27.17,27.17,0,0,1,9-2.35,40.94,40.94,0,0,1,12,.55A34.29,34.29,0,0,1,97.7,24.47Z" transform="translate(-6.99 -6.23)"/><path class="cls-3" d="M78.69,81.2l.43-.28a2.44,2.44,0,0,1,1.75,1.71l-.57.28a1,1,0,0,0,1.35.16c.21-.12.39-.28.6-.4,1.08-.57,1.06-.54,1.21.67a58.8,58.8,0,0,1,.29,8.07,3.34,3.34,0,0,1-1.69,2.33,3.57,3.57,0,0,1-4.23-.27c.14-.18.35-.15.53-.15a2.63,2.63,0,0,0,2.73-2,4.68,4.68,0,0,0-.43-4.45,2.47,2.47,0,0,0-1.29-1c-.35-.1-.62-.26-.57-.69a.48.48,0,0,0-.22-.43.36.36,0,0,0-.4-.08c-.18.12,0,.25,0,.37s.2.3.06.46a.36.36,0,0,1-.56,0c-.51-.24-.9-.83-1.6-.5-.08,0-.23-.16-.1-.38.29-.52,0-.93-.55-1a1.43,1.43,0,0,0-1.2.34,9.74,9.74,0,0,0-1.19,1.38c-.3-.39-.35.14-.55.17-2.68.43-5.34.6-7.82-.78a9.27,9.27,0,0,1-3-2.27,15.61,15.61,0,0,0,4.76,1.63A16.39,16.39,0,0,0,71,84a31.74,31.74,0,0,0,4.71-1.36,2.06,2.06,0,0,1,1,.86.84.84,0,0,0,1.24.23A4,4,0,0,1,80,83.08C79,82.67,78.94,81.88,78.69,81.2Z" transform="translate(-6.99 -6.23)"/><path class="cls-22" d="M17.92,111c0-.15.29-.1.16-.29a11.29,11.29,0,0,0-4.77-.11c-1.18.19-2.35.46-3.51.76A2.24,2.24,0,0,1,8,111.31a.76.76,0,0,1,.41-.74,45.66,45.66,0,0,1,6.87-2.07c2.51-.69,5.09-1.13,7.64-1.72,1.49-.34,3-.63,4.51-.88.87-.15,1.07-.35,1.28-1.21a18.57,18.57,0,0,1,1.74-4.93,4.94,4.94,0,0,1,2.32-2.15,1.68,1.68,0,0,1,1.73.3.51.51,0,0,1,0,.67,11.2,11.2,0,0,1-1,1.49,6.79,6.79,0,0,0-2.22,4.54c-.14,1.56-.06,3.11-.12,4.67a6.09,6.09,0,0,1-.76,3.17,5.79,5.79,0,0,1-3.68,2.46,33,33,0,0,0-9.12,3.61c-1,.61-2.07,1.22-3.06,1.9a10.8,10.8,0,0,1-1.78.94c-.3.15-.61.22-.68-.27l.11-.43a77.88,77.88,0,0,1,8.08-6.27.46.46,0,0,0,.19-.2c-.1-.1.54-.2,0-.31A16.56,16.56,0,0,0,14,115.12a31.17,31.17,0,0,0-4.59,2.38,2.77,2.77,0,0,1-1.85.41v-.3a4.54,4.54,0,0,1,2.08-1.7C12.46,114.34,15.22,112.74,17.92,111Z" transform="translate(-6.99 -6.23)"/><path class="cls-23" d="M12,121.09c.15.24.29.25.58.13A28.27,28.27,0,0,0,16.34,119a34.47,34.47,0,0,1,7.52-3.55,32.15,32.15,0,0,0,4-1.18,4.83,4.83,0,0,0,2.8-2.9,7.5,7.5,0,0,0,.27-2.11c0-2.1-.2-4.23.43-6.27a7,7,0,0,1,2.4-3.47,2.16,2.16,0,0,0,.77-1.62,1.47,1.47,0,0,1-.05,2.3,10.56,10.56,0,0,0-1.71,2.24,6.52,6.52,0,0,0,.05,5.87,5.74,5.74,0,0,1-1.37,6.43A7.51,7.51,0,0,1,28,116.19a34,34,0,0,0-7,2,56,56,0,0,0-5,2.5,11,11,0,0,1-3,1.52C12,122.36,11.74,122,12,121.09Z" transform="translate(-6.99 -6.23)"/><path class="cls-24" d="M32.76,97.61c-.4.57-1.11.79-1.54,1.34a10.72,10.72,0,0,0-1.77,3.7q-.35,1.23-.6,2.49c-.17.75-.78.85-1.36,1q-3.3.59-6.57,1.34c-1.11.26-2.24.44-3.35.72-1.68.43-3.36.83-5,1.28a42.24,42.24,0,0,1-4.14,1.14,7.31,7.31,0,0,1,3.68-1.68c4.57-1.22,9.18-2.26,13.81-3.22.63-.13,1.26-.29,1.89-.42.38-.07.47-.3.54-.65a17.31,17.31,0,0,1,1.13-4.13A4.37,4.37,0,0,1,32.76,97.61Z" transform="translate(-6.99 -6.23)"/><path class="cls-25" d="M7.58,117.91c1.85-.34,3.24-1.63,4.91-2.35a18.13,18.13,0,0,1,5.29-1.67,6,6,0,0,1,2.6,0,25.93,25.93,0,0,0-8,2.87c-.9.47-1.75,1-2.67,1.46a7,7,0,0,1-1,.36A.8.8,0,0,1,7.58,117.91Z" transform="translate(-6.99 -6.23)"/><path class="cls-26" d="M8,111.31c1.66.16,3.16-.56,4.75-.81a14.93,14.93,0,0,1,4.37-.19,1.52,1.52,0,0,1,1,.42,24.3,24.3,0,0,0-5.83.72c-.81.19-1.6.43-2.4.65a3.25,3.25,0,0,1-1.28.05C8.13,112.09,7.84,111.83,8,111.31Z" transform="translate(-6.99 -6.23)"/><path class="cls-27" d="M17.92,111a19,19,0,0,1-3.25,2.24c-2,1.23-4.1,2.37-6.15,3.57a8.54,8.54,0,0,0-.93.78A2.53,2.53,0,0,1,9,115.91c2.24-1.37,4.54-2.65,6.86-3.87A13.5,13.5,0,0,1,17.92,111Z" transform="translate(-6.99 -6.23)"/><path class="cls-28" d="M20.38,114.19a3.82,3.82,0,0,1-1.32,1.27,55.22,55.22,0,0,0-6.22,4.78,1.29,1.29,0,0,1-.73.42,7.61,7.61,0,0,1,2.24-2.48A40.88,40.88,0,0,1,20.38,114.19Z" transform="translate(-6.99 -6.23)"/><path class="cls-12" d="M35.35,110.56c0,.9-.36,1.73-.43,2.62-.66.26-1.07-.1-1.43-.58a10.69,10.69,0,0,0,.31-2.46C34.45,109.79,34.91,110.13,35.35,110.56Z" transform="translate(-6.99 -6.23)"/><path class="cls-29" d="M33.49,112.6c.46.22.86.6,1.43.58a2.56,2.56,0,0,1-.21.68c-.2.3.13,1-.29.92s-1.21-.41-1.25-1.19C33.23,113.25,33.11,112.85,33.49,112.6Z" transform="translate(-6.99 -6.23)"/><path class="cls-30" d="M35.35,110.56c-.52-.13-1-.51-1.55-.42l0-.77c.37.07.75.15,1.12.2C35.59,109.66,35.67,110,35.35,110.56Z" transform="translate(-6.99 -6.23)"/><path class="cls-3" d="M130.25,91.85a8.51,8.51,0,0,0,6.44,2.91,9.08,9.08,0,0,1,3.74,1.29c2.13,1.16,4.16,2.48,6.37,3.48.73.33,1.51.56,2.26.85.2.08.19,0,.2-.17.18.26.39.55.13.84a1.1,1.1,0,0,1-.94.34,11.62,11.62,0,0,1-3.77-1.24c-2.3-1.09-4.58-2.23-6.9-3.26a12.27,12.27,0,0,0-2.46-.39A11.31,11.31,0,0,1,129,93.22a.54.54,0,0,0-.19-.07A2.47,2.47,0,0,1,130.25,91.85Z" transform="translate(-6.99 -6.23)"/><path class="cls-3" d="M141.61,94.75a3.74,3.74,0,0,1-1-.45.84.84,0,0,1,.73-.06,49.77,49.77,0,0,1,9.42,4.08,11.09,11.09,0,0,0,2.43,1c.31.08.52.08.56-.3.27.93,0,1.22-.88,1A12.34,12.34,0,0,1,148.08,98a29.17,29.17,0,0,0-5.78-3.09A3.84,3.84,0,0,0,141.61,94.75Z" transform="translate(-6.99 -6.23)"/><path class="cls-3" d="M143.9,92.3a5.8,5.8,0,0,1-1.66-.66,3.61,3.61,0,0,1,1.73.17c1.87.38,3.64,1.08,5.49,1.53a10.89,10.89,0,0,0,1.11.22c.84.12,1.22-.38,1-1.27a.76.76,0,0,1,.17.13c.35.56.93,1.13.48,1.8a1.83,1.83,0,0,1-2,.46,14.36,14.36,0,0,1-2.36-1c-1.2-.52-2.43-1-3.65-1.46C144.1,92.2,144,92.28,143.9,92.3Z" transform="translate(-6.99 -6.23)"/><path class="cls-3" d="M129,89.85h.14a4.84,4.84,0,0,0,1.15,1.87v.13c-.48.43-1,.86-1.43,1.3l-.29.29c-.58.07-.53-.36-.59-.71V92.3C127.58,91.19,128.29,90.53,129,89.85Z" transform="translate(-6.99 -6.23)"/><path class="cls-8" d="M54.94,204.74a1,1,0,0,1,.15-1.24,11.59,11.59,0,0,1,3.31-2.69,40.92,40.92,0,0,1,5-2.54,25.74,25.74,0,0,1,4.23-1.69c.06.29-.14.46-.33.59a8.16,8.16,0,0,0-1,1.08,2.18,2.18,0,0,0,0,2.5c.19.21.4.41.61.61.93.93,1,.95,1.89,0,.71-.72,1.39-1.46,2.12-2.16a.56.56,0,0,0,0-1c-.21-.19-.41-.4-.61-.61-.45-.5-.89-1-1.69-.8a.87.87,0,0,1-.79-.27,6.27,6.27,0,0,1,1.68-.72c.29-.1.55-.19.36-.58.29-.35.58-.26.84,0s.84.77,1.21,1.2.84.89,1.55.62a3.65,3.65,0,0,1-.75,4.13,14.87,14.87,0,0,1-4.71,2.39A36,36,0,0,1,61.12,205a23.32,23.32,0,0,1-5.08,0A2.55,2.55,0,0,1,54.94,204.74Z" transform="translate(-6.99 -6.23)"/><path class="cls-8" d="M72.8,191.93c-.86.12-1.3.81-1.85,1.36-.19.19,0,.37.06.51s.33.1.48-.05l.61-.61c.2-.2.43-.47.73-.26a.66.66,0,0,1,.13.91,2.19,2.19,0,0,0-.32.79,1.76,1.76,0,0,0,.59,1.67.66.66,0,0,1,.09.65c-.27.28-.42,0-.58-.14a10.85,10.85,0,0,1-1.38-1.33,3.46,3.46,0,0,0-1.86-1.18c-.5-1.13-.75-2.33-1.14-3.49a4.52,4.52,0,0,0-.26-1.68c-.57-2.53-.91-5.09-1.36-7.64a3.06,3.06,0,0,1,.09-1.77,14.64,14.64,0,0,0,4.08-1,5.56,5.56,0,0,1,.73,2.36c.23,1.46.62,2.89.81,4.36.23,1.75.44,3.5.55,5.27A1.7,1.7,0,0,1,72.8,191.93Z" transform="translate(-6.99 -6.23)"/><path class="cls-31" d="M73.22,197v-.73c.27.23.51.38.83,0a5.08,5.08,0,0,1,.87-.71c.41.68.33,1.52.7,2.22,1.38,2.54-.2,4.05-2,5a14.62,14.62,0,0,1-3.48,1.44c-.93.23-1.84.54-2.79.73-1.82.36-3.65.54-5.48.73a17.07,17.07,0,0,1-5.29-.1c-.61-.13-1.4.06-1.64-.82a5.38,5.38,0,0,1,1.69.18,28.43,28.43,0,0,0,9.19-.93,16.81,16.81,0,0,0,6.51-2.79A3.34,3.34,0,0,0,73.49,198c0-.27.15-.66-.26-.82,0,0-.06-.06,0-.1S73.21,197,73.22,197Z" transform="translate(-6.99 -6.23)"/><path class="cls-8" d="M66.83,179.67c.08,2.89.9,5.67,1.25,8.53.07.57.22,1.16.33,1.74a.91.91,0,0,1,0,.82c-.78-2.68-1.48-5.38-2.13-8.09a23.1,23.1,0,0,1-.6-3.09A5.35,5.35,0,0,1,66.83,179.67Z" transform="translate(-6.99 -6.23)"/><path class="cls-8" d="M67.75,196.55c.49,0,1,.3,1.48,0,.13-.06.27.06.37.17.53.52,1.06,1,1.58,1.57a.52.52,0,0,1,0,.82c-1,1-1.92,1.92-2.87,2.89a.62.62,0,0,1-1,0,3.67,3.67,0,0,0-.71-.71c-.92-.56-.87-1.52-.87-2.35s.81-1.12,1.26-1.67c.2-.24.5-.43.7-.7A.35.35,0,0,1,67.75,196.55Z" transform="translate(-6.99 -6.23)"/><path class="cls-11" d="M72.92,197v.15c-.43.46-.74.31-1.12-.13-.51-.61-1.12-1.13-1.67-1.71-.23-.25-.44,0-.65,0a1.5,1.5,0,0,1-.3-1,1.64,1.64,0,0,1,1.61.66C71.47,195.63,72.21,196.29,72.92,197Z" transform="translate(-6.99 -6.23)"/><path class="cls-8" d="M86.81,124.77c.3-2.48.77-4.93,1.13-7.4.48-3.22,1.07-6.42,1.5-9.65.16-1.26.1-2.52.33-3.78.16-.87.73-1.8.16-2.74-.05-.09,0-.23.06-.35a6.88,6.88,0,0,0,.15-1.43,26.67,26.67,0,0,0-.37-4.72c-.11-.81.06-1.82-.86-2.39a1.33,1.33,0,0,1-.28,0c-.64-.22-.8,0-.47.55a.35.35,0,0,1,0,.14,44.74,44.74,0,0,1,.53,7.84c-.14,3.06-.41,6.1-.84,9.12-.48,3.43-1.19,6.82-2,10.18q-.55,2.34-1.14,4.68Z" transform="translate(-6.99 -6.23)"/><path class="cls-12" d="M92.86,160.77c-.26-1-.86-2-.43-3.12,0-.11-.05-.24-.14-.32a2.64,2.64,0,0,1-.8-1.64c-.78-3.17-1.8-6.27-2.68-9.41-.76-2.73-1.67-5.41-2.49-8.12A17.18,17.18,0,0,1,86.1,136c-.06-.4-.09-.81-.11-1.22-.85,0-1.7,0-2.56,0-.58,0-1.17,0-1.75-.1a4.3,4.3,0,0,1-1,.84c.11.61.6.93,1,1.34,1.33,1.4,1.62,1.57.14,3.07-1.85,1.88-3.72,3.73-5.59,5.59-.56.56-1.08,1.15-1.69,1.66a1.36,1.36,0,0,1-2-.06c-.23-.2-.44-.43-.66-.65-.51-.51-1-1-1.53-1.52-.14-.13-.29-.3-.5-.24s-.22.3-.22.48a5.88,5.88,0,0,1-.3,1.32c-.21,1.25-.36,2.51-.58,3.76-.37,2.09-.73,4.19-1.06,6.29-.38,2.41-1,4.78-1.23,7.21-.2,2-.61,3.9-.69,5.9a50.63,50.63,0,0,0,.08,6.16c0,.22,0,.44.26.56a5.57,5.57,0,0,0,3.4-.59,8.66,8.66,0,0,0,1.07-2.18c.85-2.18,1.66-4.38,2.39-6.61s1.41-4.77,2-7.19a81.34,81.34,0,0,0,1.73-10c.07-.62.34-1.27,0-1.9-.17-.16-.43-.23-.55-.62a6.94,6.94,0,0,0,3.62,1,6.49,6.49,0,0,0,2.83-.63c.17-.08.46-.29.29.19a2,2,0,0,0-.18,1.05c.14,1.12.17,2.25.32,3.36a123.55,123.55,0,0,0,2.23,13.1,58.67,58.67,0,0,0,2,7,35.57,35.57,0,0,0,1.57,3.44v0a6.89,6.89,0,0,0,1.16.56,11.84,11.84,0,0,0,4.59.29c.15-.41.64-.3.88-.57a26.57,26.57,0,0,0-.44-6C94.42,166.92,93.64,163.85,92.86,160.77Z" transform="translate(-6.99 -6.23)"/><path class="cls-31" d="M91.39,93.31a4.47,4.47,0,0,0,1.74.77c2.26.93,4.39,2.11,6.61,3.12.21.1.46.17.56.42a22.77,22.77,0,0,0,3.5,5.3,29.78,29.78,0,0,0,4.59,4.39,21,21,0,0,0,7,3.68,5.37,5.37,0,0,0,5.37-1.56,18,18,0,0,0,2.72-3.31c.93-1.39,1.76-2.83,2.55-4.29.91-1.69,1.67-3.46,2.43-5.23.16-.36.33-.32.58-.28a3.88,3.88,0,0,1,1.17.92c-1.5,3-3.19,5.85-5,8.67a35.4,35.4,0,0,1-4,5.21,7.29,7.29,0,0,1-2.26,1.72,4.67,4.67,0,0,1-3.13,0,32.93,32.93,0,0,1-6.15-2.43c-1.24-.55-2.4-1.26-3.61-1.87-1.49-.75-2.87-1.71-4.35-2.46s-3.07-1.88-4.7-2.67c-.59-.28-1.05-.81-1.68-1.06-.24-.09-.29-.35-.33-.6a5.13,5.13,0,0,0-.71-1.84c.09.74.14,1.49.29,2.22a17.5,17.5,0,0,1-.06,4.74,39.6,39.6,0,0,1-1,5.82,32.61,32.61,0,0,1-1.15,3.46c-.54,1.62-1.1,3.24-1.66,4.87-.27.8-.39,1.7-.71,2.41A27.71,27.71,0,0,0,88.58,129a9.26,9.26,0,0,0-.37,3.11c.09.88-.18,1.75,0,2.63,0,.2,0,.4-.27.43a16.68,16.68,0,0,1-.27-5.08,26.4,26.4,0,0,1,.48-4.14,20,20,0,0,0,.24-2.32c.15-1.45.62-2.84.71-4.29.27-.35,0-.82.25-1.17.29-1.58.58-3.16.85-4.74a4.35,4.35,0,0,0,0-.72c.24-.25,0-.63.25-.9-.12-1,.37-1.88.33-2.85.28-.34,0-.81.25-1.17l0-1.11c.27-.36,0-.83.24-1.19a68.29,68.29,0,0,0,.34-9.7A21.12,21.12,0,0,0,91.39,93.31Z" transform="translate(-6.99 -6.23)"/><path class="cls-8" d="M86.77,93.45c.47-.11.21-.49.28-.75s-.16-.6.28-.68a16.07,16.07,0,0,1,.6,3.15c.24.41.08.87.13,1.3s-.09.7.13,1c0,1.7.06,3.4-.07,5.08-.1,1.28-.08,2.58-.28,3.84s-.3,2.49-.52,3.73c-.27.35,0,.82-.25,1.18,0,1.26-.55,2.45-.61,3.72-.24.25,0,.63-.26.88a16.27,16.27,0,0,1-.77,3.52c-.09.36-.06.72-.12,1.07-.24.24,0,.63-.26.88-.3,1.24-.59,2.49-.89,3.73-.25.25,0,.63-.26.88,0,.5-.39.91-.32,1.42-.24.25,0,.64-.26.88a24.66,24.66,0,0,0-.76,2.73,8.12,8.12,0,0,1-.7,2.34c-.37.71-.72,1.49-1.69,1.58-.31.1-.48-.11-.66-.3s-.51-.5-.73-.77a2.29,2.29,0,0,0-1.55-.69c-.38-.28-.38-.76-.51-1.14s-.23-.58-.33-.87c-.26-.24,0-.64-.27-.88a28,28,0,0,0-.81-3,2.84,2.84,0,0,1-.07-.78c-.25-.24,0-.63-.27-.88a18.64,18.64,0,0,0-.6-2.86c-.29-.35,0-.83-.26-1.17.08-.7-.33-1.31-.32-2-.24-.25,0-.63-.25-.89l-.05-1.11c-.22-.26,0-.64-.25-.89l0-.84c-.27-.36,0-.83-.24-1.19a44.86,44.86,0,0,1-.63-6c-.28-.51,0-1.11-.24-1.62,0-1.46,0-2.92-.08-4.37-.08-1.73,0-3.45.08-5.17a18.44,18.44,0,0,1,.85-4.7c.12,0,.23-.05.26-.2s.06-.21.09-.32c.36,0,.1.55.47.53l0,.82a60.94,60.94,0,0,0-.52,10.54,76,76,0,0,0,.91,10.44c.23,1.4.32,2.81.66,4.19a41.73,41.73,0,0,0,2.35,8,6.59,6.59,0,0,0,1.24,1.92c.74.74,1.3.72,2-.07a10.76,10.76,0,0,0,1.85-3.55,64.54,64.54,0,0,0,2.29-7.72c.5-2.1.88-4.22,1.23-6.34.38-2.34.63-4.7.87-7,.18-1.72.11-3.45.17-5.17a26.72,26.72,0,0,0-.27-3.22,5.28,5.28,0,0,1,.13-2Z" transform="translate(-6.99 -6.23)"/><path class="cls-29" d="M95,170.06a6.21,6.21,0,0,1-.48-1.77c-.5-1.76-.84-3.55-1.32-5.31-.43-1.58-.88-3.17-1.17-4.78,0-.2-.18-.44.2-.48.23,0,.12-.19,0-.23-.71-.33-.75-1-.9-1.65-.64-2.6-1.45-5.14-2.2-7.7-.57-2-1.17-4-1.76-6a27.17,27.17,0,0,1-1.18-4c-.18-.71,0-1.47-.29-2.16-.33-1.68,0-3.36,0-5,.36-.31.27-.74.28-1.13a13.53,13.53,0,0,1,.2-2.2c0-.25.12-.49.43-.46a.41.41,0,0,1,.36.52c-.12.66,0,1.33-.11,2v1a4.58,4.58,0,0,0-.21,1.83,8.58,8.58,0,0,0,.5,3.51,1.49,1.49,0,0,0,.28.41,16.93,16.93,0,0,1,1.48,4.65c.53,2.06.93,4.15,1.5,6.19.45,1.61.66,3.26,1.08,4.87s.71,3.16,1,4.74c.8,3.76,1.51,7.53,2.09,11.33C94.9,168.86,94.92,169.46,95,170.06Z" transform="translate(-6.99 -6.23)"/><path class="cls-8" d="M87.06,129.75c0-.58,0-1.15,0-1.72,0-.25.09-.62-.25-.66s-.31.4-.37.64a11.19,11.19,0,0,0-.11,1.92c0,.4,0,.86-.42,1.1a12.75,12.75,0,0,0,.22-2.47c.46-2.68.64-5.4,1.14-8.08.44-2.33.71-4.7,1.1-7,.27-1.66.58-3.32.77-5a14.67,14.67,0,0,0,.22-2.56,17.08,17.08,0,0,1,.51-3.63.81.81,0,0,0-.2-.8.24.24,0,0,1,0-.26c.66-1.72.23-3.46.09-5.2-.07-.76-.18-1.51-.29-2.26a5.21,5.21,0,0,0-.5-1.42l.07,0c1.93.66,2,.83,2.12,2.93a48.92,48.92,0,0,1,0,6.52c-.16,2.07-.41,4.13-.67,6.19-.3,2.36-.71,4.71-1.11,7-.22,1.28-.41,2.58-.75,3.85a30.51,30.51,0,0,0-.51,3.45c-.28,2-.56,3.93-.85,5.89C87.13,128.72,87.34,129.26,87.06,129.75Z" transform="translate(-6.99 -6.23)"/><path class="cls-12" d="M80.68,135.65c.65.72,1.3,1.44,2,2.15a1,1,0,0,1,0,1.47,25.23,25.23,0,0,1-2.57,2.7c-1.72,1.75-3.47,3.46-5.19,5.2-1,1-1.81,1-2.8,0l-2.37-2.47c-.09.74,0,1.29-.33,1.72a2.11,2.11,0,0,1-.08-1.77,6.49,6.49,0,0,1,.26-.74c.3-.29.46,0,.63.16.85.78,1.56,1.69,2.46,2.41.33.27.61.66,1.11.47a1.67,1.67,0,0,0,.93-1.47,2.59,2.59,0,0,1,.92-2.49A24.5,24.5,0,0,0,78,140.66a2.76,2.76,0,0,1,2.4-.83,1.22,1.22,0,0,0,1.38-.78,1.08,1.08,0,0,0-.31-1.29,9.73,9.73,0,0,1-1.66-1.85c0-.15.21-.16.37-.25-.28-.07-.55,0-.67-.3a.37.37,0,0,1,.57,0C80.29,135.43,80.43,135.64,80.68,135.65Z" transform="translate(-6.99 -6.23)"/><path class="cls-5" d="M80.13,135.22l-.56,0a2.84,2.84,0,0,1-2.34-2.05,1.3,1.3,0,0,1,1.51.4A8.76,8.76,0,0,0,80.17,135Z" transform="translate(-6.99 -6.23)"/><path class="cls-15" d="M87.62,136.5a2.58,2.58,0,0,1-.9-1.93,4.41,4.41,0,0,0,0-1.2,4.18,4.18,0,0,1,.38-2.62A19.9,19.9,0,0,0,87.62,136.5Z" transform="translate(-6.99 -6.23)"/><path class="cls-8" d="M88.19,97.49c-.32-.09-.24-.36-.25-.57,0-.59,0-1.17,0-1.75.32.08.25.35.25.57C88.19,96.32,88.19,96.91,88.19,97.49Z" transform="translate(-6.99 -6.23)"/><path class="cls-32" d="M91.06,107.83c-.06.4.27.88-.25,1.17C90.85,108.6,90.57,108.14,91.06,107.83Z" transform="translate(-6.99 -6.23)"/><path class="cls-33" d="M91.34,105.53c0,.4.25.87-.24,1.19C91.15,106.31,90.85,105.84,91.34,105.53Z" transform="translate(-6.99 -6.23)"/><path class="cls-34" d="M87.07,111.32c.05-.4-.25-.88.25-1.18C87.27,110.54,87.56,111,87.07,111.32Z" transform="translate(-6.99 -6.23)"/><path class="cls-9" d="M89.34,118.21c0,.4.23.87-.25,1.17C89.14,119,88.85,118.51,89.34,118.21Z" transform="translate(-6.99 -6.23)"/><path class="cls-35" d="M85.05,121.39c0-.31-.22-.71.26-.88C85.26,120.81,85.51,121.21,85.05,121.39Z" transform="translate(-6.99 -6.23)"/><path class="cls-36" d="M83.9,126c0-.31-.2-.7.26-.88C84.13,125.43,84.34,125.82,83.9,126Z" transform="translate(-6.99 -6.23)"/><path class="cls-37" d="M83.32,128.3c0-.31-.2-.7.26-.88C83.55,127.73,83.77,128.12,83.32,128.3Z" transform="translate(-6.99 -6.23)"/><path class="cls-38" d="M90.48,111.85c0,.32.21.71-.25.9C90.26,112.44,90,112.05,90.48,111.85Z" transform="translate(-6.99 -6.23)"/><path class="cls-9" d="M86.2,115.92c0-.31-.19-.69.26-.88C86.41,115.34,86.67,115.74,86.2,115.92Z" transform="translate(-6.99 -6.23)"/><path class="cls-8" d="M88.17,178.53a9.63,9.63,0,0,0,6.42,1.28c.82-.12.8-.11.71.76-.14,1.37-.2,2.76-.34,4.13-.22,2.25-.45,4.51-.8,6.74-.23,1.41-.4,2.83-.61,4.25-.06.39.18.51.48.56a65,65,0,0,1,7.16,1.75,33.82,33.82,0,0,1,5.76,2.15,5.7,5.7,0,0,1,2.56,1.89c.2.35,0,.58-.23.81a3.25,3.25,0,0,1-1.76.76,13.68,13.68,0,0,1-2.22.21,67.71,67.71,0,0,1-7.4-.17A24.13,24.13,0,0,1,90,201.47c-1.41-.7-1.86-1.76-1.63-3.48a52.24,52.24,0,0,0-.78-10.06,25.82,25.82,0,0,1-.1-6.86,5.69,5.69,0,0,1,.31-2C87.88,178.86,87.88,178.6,88.17,178.53Z" transform="translate(-6.99 -6.23)"/><path class="cls-31" d="M88.34,198c.07,2.26.86,3,2.81,3.78a32.43,32.43,0,0,0,6.12,1.6,14.57,14.57,0,0,0,2.55.23c2,0,4,.06,6,0a5.36,5.36,0,0,0,3.32-.85c.25-.19.44-.37.4-.7a1,1,0,0,1-.28,1.43,9.22,9.22,0,0,1-4.08,1.1,46.61,46.61,0,0,1-5.79.33,29.16,29.16,0,0,1-6.43-.79,13.06,13.06,0,0,1-3.44-1.22c-1.56-.93-1.9-1.61-1.57-3.4C88,199,88.2,198.49,88.34,198Z" transform="translate(-6.99 -6.23)"/><path class="cls-29" d="M69.49,175.81c.47-1.24.91-2.49,1.43-3.71.87-2,1.45-4.13,2.17-6.2.66-1.91,1.09-3.89,1.59-5.85.42-1.65.7-3.35,1-5s.46-3.48.78-5.21c.11-.63.13-1.28.19-1.92a4.75,4.75,0,0,0,1.86.87c.27,0,.28.17.24.4-.23,1.48-.4,3-.62,4.45a62.11,62.11,0,0,1-1.42,6.77,65.24,65.24,0,0,1-2.32,7.22c-.89,2.27-1.78,4.53-2.82,6.73,0,.11-.07.23-.11.34a14.82,14.82,0,0,1-1.35,1A1.09,1.09,0,0,1,69.49,175.81Z" transform="translate(-6.99 -6.23)"/><path class="cls-29" d="M82.87,147.88a67.14,67.14,0,0,0,.76,7.49c.44,3,.88,6.07,1.61,9,.45,1.82.88,3.65,1.36,5.46a20.84,20.84,0,0,1,.6,2.48A12.48,12.48,0,0,1,86,169.69a70.44,70.44,0,0,1-3.35-10.11,63.41,63.41,0,0,1-1.53-8.07c-.07-.64-.17-1.28-.25-1.91-.07-.45-.09-.8.52-1A7,7,0,0,0,82.87,147.88Z" transform="translate(-6.99 -6.23)"/><path class="cls-30" d="M69.79,143.69a7.47,7.47,0,0,0-.3,2.61c-.08,1.24-.35,2.45-.49,3.67-.17,1.42-.56,2.79-.69,4.21s-.49,2.57-.65,3.87c-.19,1.59-.62,3.12-.83,4.71a47.35,47.35,0,0,1-.74,4.85,16.6,16.6,0,0,0-.18,2.92,32.93,32.93,0,0,0,.18,5.87,2.8,2.8,0,0,1-1,0,50.42,50.42,0,0,1,.37-11.45c.52-4.44,1.23-8.84,2.06-13.23.46-2.44,1-4.87,1.51-7.29a1.38,1.38,0,0,0-.09-.9c.38.06.34-.31.38-.47.2-.72.34-1.45.51-2.18a.22.22,0,0,1,.27.25A7.5,7.5,0,0,1,69.79,143.69Z" transform="translate(-6.99 -6.23)"/><path class="cls-31" d="M72.8,191.93a50.09,50.09,0,0,0-.67-7c-.33-2.09-.85-4.14-1.22-6.21l1.75-1.44c.06,0,.19.06.19.08,0,.94.65,1.68.68,2.6a8,8,0,0,0,.32,1.43,22.77,22.77,0,0,1,.54,4.5c0,1,.09,2,.13,3.07a1.29,1.29,0,0,1-.14.84l-.87.94c-.16.18-.37.32-.12.6s.45.08.64-.11l.48-.42a25.4,25.4,0,0,0,.34,3.25c0,.14-.11.34-.17.5s-.38.43-.58.63-.27.29-.48.11a.42.42,0,0,1-.17-.5,6.09,6.09,0,0,1,.27-.71A1.38,1.38,0,0,0,72.8,191.93Z" transform="translate(-6.99 -6.23)"/><path class="cls-8" d="M70.5,178.13a6.54,6.54,0,0,1-3.87.86,1.54,1.54,0,0,1-.32-1.86,12.33,12.33,0,0,0,3.18-.6A1.14,1.14,0,0,1,70.5,178.13Z" transform="translate(-6.99 -6.23)"/><path class="cls-31" d="M70.5,178.13c-.09-.69-.2-1.37-1-1.6a7.85,7.85,0,0,0,2.14-1.24c.19.41.37.8.56,1.19.07.15.19.36,0,.46C71.6,177.28,71.26,178,70.5,178.13Z" transform="translate(-6.99 -6.23)"/><path class="cls-39" d="M66.37,177.13a5.17,5.17,0,0,0,.32,1.86c-1,.31-1.15.23-1.31-.74a.22.22,0,0,1,0-.08C65.19,177,65.19,177,66.37,177.13Z" transform="translate(-6.99 -6.23)"/><path class="cls-31" d="M93,179.25a7.5,7.5,0,0,1-4.07-.94c-.79-.46-.85-.81-.31-1.54a.36.36,0,0,1,.53-.15,9.54,9.54,0,0,0,5.66.5c.46-.09.67,0,.66.53,0,1.37,0,1.39-1.33,1.59A8.66,8.66,0,0,1,93,179.25Z" transform="translate(-6.99 -6.23)"/><path class="cls-12" d="M88.78,175.82a1.49,1.49,0,0,1,1.16.56A1,1,0,0,1,88.78,175.82Z" transform="translate(-6.99 -6.23)"/><path class="cls-8" d="M69.19,93.9A2,2,0,0,1,69,95.2a1,1,0,0,1,.08,1,6.57,6.57,0,0,0-.21,1.71c-.2,2.51,0,5,0,7.54a22.71,22.71,0,0,0,.44,3.47,5.51,5.51,0,0,1,.11,1.14,2,2,0,0,0,.17,1.27,2.24,2.24,0,0,1,.11.81,1.37,1.37,0,0,0,.19,1,3.1,3.1,0,0,1,.09,1,1.42,1.42,0,0,0,.21,1c.52,1.25.31,2.62.66,3.9a2.38,2.38,0,0,0,.24,1c.39,2.22.68,4.44.86,6.68a21.5,21.5,0,0,1-.27,6.5c-.06.26-.13.52-.45.58-.06-.79.12-1.57.12-2.36a35,35,0,0,0-1.17-8.27c-.82-3.34-2-6.59-2.88-9.9a35.48,35.48,0,0,1-1-5.41,43,43,0,0,1-.18-5.2,22.18,22.18,0,0,0-.39,4.88c-1.79,2.54-3.6,5.08-5.58,7.48-.79,1-1.61,1.9-2.44,2.83a7.52,7.52,0,0,1-3.31,2.31,2.29,2.29,0,0,1-1,0A40.39,40.39,0,0,1,47.62,119c-1.4-.4-2.78-.9-4.15-1.4s-2.51-.93-3.73-1.48a35.33,35.33,0,0,1-4.35-2.18l.12-1.14c.17-.27.06-.62.25-.89l0-.54c.2-.18.06-.51.3-.67s.7,0,1,.13c2.59.57,5.22,1,7.81,1.52a25.91,25.91,0,0,1,7,2.19,8.71,8.71,0,0,1,3.28,3,2.82,2.82,0,0,0-.13-2,38.93,38.93,0,0,1,2.27-4.28c1.14-2.1,2.29-4.18,3.5-6.24A61.34,61.34,0,0,1,67,96.1,8.93,8.93,0,0,1,69.19,93.9Z" transform="translate(-6.99 -6.23)"/><path class="cls-31" d="M35.39,113.89a2.7,2.7,0,0,1,1.19.48c2.1,1,4.25,2,6.45,2.81,1.4.54,2.81,1,4.24,1.48A53.48,53.48,0,0,0,52.9,120c2.13.41,3.41-.86,4.62-2.15a64.19,64.19,0,0,0,5.41-6.66l2.1-2.9a2.49,2.49,0,0,1,.71-.7A14.56,14.56,0,0,1,66,111a.8.8,0,0,1-.25.55c-1.93,2.3-3.73,4.72-5.84,6.86a21.22,21.22,0,0,1-4.78,4.07,2.88,2.88,0,0,1-1.93.33,41,41,0,0,1-6.69-2c-1.93-.71-3.82-1.53-5.67-2.4a34.64,34.64,0,0,1-5.25-2.85.94.94,0,0,1-.43-.83A1.26,1.26,0,0,1,35.39,113.89Z" transform="translate(-6.99 -6.23)"/><path class="cls-8" d="M69.5,112.16l0-.84c-.27-.35,0-.83-.25-1.18a60.35,60.35,0,0,1-.73-8.27,24.65,24.65,0,0,1,.36-5.75A7,7,0,0,0,69,95.2a2.67,2.67,0,0,0,.36-.22c.36-.33.29,0,.29.19a10.07,10.07,0,0,1-.23,2.63,38.94,38.94,0,0,0-.08,5.61,52,52,0,0,0,.61,6.08c.45,2.91,1,5.81,1.44,8.72a70.42,70.42,0,0,1,1.23,11.21,20.67,20.67,0,0,1-.48,4.5c-.09.27-.14.58-.47.69l-.44.29,0-1.08a5.86,5.86,0,0,0,.5-2.39,37.9,37.9,0,0,0-.28-7.6c-.13-1.29-.45-2.57-.54-3.87-.13-.28-.05-.63-.25-.89l-.6-4c-.24-.26,0-.64-.25-.9l0-1.11C69.57,112.78,69.65,112.44,69.5,112.16Z" transform="translate(-6.99 -6.23)"/><path class="cls-39" d="M55.25,117.5c-.31,0-.37-.22-.5-.4a9.2,9.2,0,0,0-4.55-3.2,69.36,69.36,0,0,0-10.15-2.32,19.62,19.62,0,0,1-3.47-.8,1.64,1.64,0,0,0-.5,0,.26.26,0,0,1,0-.31l.1-.63c3.13.48,6.3.8,9.38,1.48s5.91,1.41,8.34,3.4A4.49,4.49,0,0,1,55.25,117.5Z" transform="translate(-6.99 -6.23)"/><path class="cls-40" d="M36,110.43l0,.31c0,.21.11.53-.28.58C35.86,111,35.61,110.64,36,110.43Z" transform="translate(-6.99 -6.23)"/><path class="cls-41" d="M36,111.83a1,1,0,0,1-.15.75C35.84,112.32,35.72,112,36,111.83Z" transform="translate(-6.99 -6.23)"/><path class="cls-12" d="M69.79,143.69a9.25,9.25,0,0,1,.1-2.1.75.75,0,0,0-.1-.73c.28-1.22.57-2.45.85-3.67.1-.47.62-.74.57-1.27l.17-.15a6.63,6.63,0,0,1,2.08-2.32,1.12,1.12,0,0,1,1.17-.09c.59.26,1.2.43,1.78.71.21.39.8.06,1,.54s.52.54.84.75a2.62,2.62,0,0,0,1.62.44c.66.63,1.33,1.25,2,1.89A1,1,0,0,1,82,139c-.35.53-.67,1.1-1.51.93a2.3,2.3,0,0,0-2.27.68c-.94,1-1.95,1.92-2.9,2.9a2.12,2.12,0,0,0-.33,2c.15.89-.61,1.13-1.05,1.54s-.8,0-1.12-.31Q71.31,145.2,69.79,143.69Z" transform="translate(-6.99 -6.23)"/><path class="cls-10" d="M76.41,134.07a2.51,2.51,0,0,1-1.48-.4,1.34,1.34,0,0,0-1.78.27,23.55,23.55,0,0,0-1.77,1.83c-.07-.42.25-.75.25-1.16l.31-.56a5.51,5.51,0,0,1,1.1-1.11,1.86,1.86,0,0,1,2.48.1,3.62,3.62,0,0,0,.87.17C76.91,133.48,77,133.77,76.41,134.07Z" transform="translate(-6.99 -6.23)"/><path class="cls-39" d="M60.89,104.94a6.37,6.37,0,0,1-1.06,2.23c-1.48,2.72-3.07,5.39-4.48,8.16,0,.07-.15.09-.23.13a1.24,1.24,0,0,1,.07-1.54q2.55-4.28,5.21-8.5C60.52,105.23,60.61,105,60.89,104.94Z" transform="translate(-6.99 -6.23)"/><path class="cls-8" d="M76.39,133.21a.68.68,0,0,1-.86,0c-.47-2.23-1.27-4.36-1.71-6.6-.22-1.12-.65-2.21-.85-3.34a54.2,54.2,0,0,1-1.14-6,20.26,20.26,0,0,0-.61-3.16c-.26-1.2-.28-2.42-.47-3.63a63,63,0,0,1-.59-12,12.76,12.76,0,0,1,.76-4.93c.11-.23.35-.4.28-.7a1.59,1.59,0,0,1,.43-.22c.2,0,.44-.18.62,0s.06.39,0,.6a23.54,23.54,0,0,0-.75,5.15c0,1.26-.22,2.52-.15,3.79.15,3.12.32,6.24.67,9.35a139.61,139.61,0,0,0,2.39,14.07,58.87,58.87,0,0,0,1.82,6.9A5.1,5.1,0,0,1,76.39,133.21Z" transform="translate(-6.99 -6.23)"/><path class="cls-42" d="M72.1,107.11c.45.49.23,1.07.24,1.62C71.85,108.25,72.15,107.66,72.1,107.11Z" transform="translate(-6.99 -6.23)"/><path class="cls-43" d="M74.11,121.66c.49.29.2.77.26,1.17C73.86,122.53,74.16,122.05,74.11,121.66Z" transform="translate(-6.99 -6.23)"/><path class="cls-44" d="M73,114.74c.49.31.19.79.24,1.19C72.72,115.62,73,115.15,73,114.74Z" transform="translate(-6.99 -6.23)"/><path class="cls-45" d="M75,125.69c.44.19.25.57.27.88C74.79,126.39,75,126,75,125.69Z" transform="translate(-6.99 -6.23)"/><path class="cls-46" d="M76.12,130.3c.43.19.23.57.27.88C75.94,131,76.15,130.61,76.12,130.3Z" transform="translate(-6.99 -6.23)"/><path class="cls-47" d="M73.24,116.77c.45.19.23.57.25.89C73.06,117.46,73.26,117.08,73.24,116.77Z" transform="translate(-6.99 -6.23)"/><path class="cls-48" d="M73.54,118.77c.42.2.22.58.25.89C73.34,119.47,73.56,119.09,73.54,118.77Z" transform="translate(-6.99 -6.23)"/><path class="cls-8" d="M86.74,93.74c0,1.65.34,3.28.34,4.92A36.81,36.81,0,0,1,86.8,105c-.17,1-.2,2-.32,3-.18,1.43-.35,2.87-.6,4.28a79.94,79.94,0,0,1-1.71,8,46.08,46.08,0,0,1-2.49,7.14,6.35,6.35,0,0,1-1.33,1.93,1.27,1.27,0,0,1-1.79,0,7,7,0,0,1-1.7-2.61A23.69,23.69,0,0,1,75.34,122c-.42-2.28-1-4.52-1.3-6.83-.26-2.11-.41-4.22-.79-6.31a1.42,1.42,0,0,1,0-.29c0-3.11-.26-6.23-.13-9.34.07-1.64.28-3.28.43-4.92a.9.9,0,0,1,.29-.56A6.39,6.39,0,0,0,76,96.4a7.9,7.9,0,0,0,5.59,1.18,9.17,9.17,0,0,0,3.6-1.52.38.38,0,0,0,.19-.28,2.57,2.57,0,0,0,.56-.58,1.67,1.67,0,0,0,.55-1.2c-.08-.08-.06-.15,0-.22Z" transform="translate(-6.99 -6.23)"/><path class="cls-49" d="M77.7,85.53c.44,0,.7,0,.26-.5-.11-.11-.32-.27-.18-.41s.45-.32.64-.19.81.34.56.89c-.11.24,0,.3.21.34A3.05,3.05,0,0,1,81.5,88.3,5.52,5.52,0,0,1,81,92a2.94,2.94,0,0,1-3.14,1.43,2.09,2.09,0,0,1-1.16-2c.12-1.07-.22-2.12-.12-3.18a2.89,2.89,0,0,1,.67-1.06A1.6,1.6,0,0,0,77.7,85.53Z" transform="translate(-6.99 -6.23)"/><path class="cls-9" d="M76.1,95.61a3.66,3.66,0,0,1-1.83-2.82c-.06-.46.08-.65.51-.75a1.23,1.23,0,0,1,1.63.72,4,4,0,0,0,3.88,2.09,3.7,3.7,0,0,0,3.64-2.41c.29-.79.78-.76,1.39-.71a.91.91,0,0,1,.05,1,5.62,5.62,0,0,1-5,3.64,13.49,13.49,0,0,1-3.4-.38C76.63,95.9,76.43,95.62,76.1,95.61Z" transform="translate(-6.99 -6.23)"/><path class="cls-31" d="M76.1,95.61c.12-.15.22-.07.37,0a9.12,9.12,0,0,0,5.14.42c1.8-.36,4-2.86,3.71-4.29a1.52,1.52,0,0,0,.21,0c.87,0,1.1.41.71,1.18-.19.35.22.54.25.84l0,.22a.68.68,0,0,0-.69.39,5.68,5.68,0,0,1-3.54,2.53c-1.71.6-3.31.08-4.92-.36A2.68,2.68,0,0,1,76.1,95.61Z" transform="translate(-6.99 -6.23)"/><path class="cls-8" d="M85.92,95.2c0,.41-.15.6-.56.58A.61.61,0,0,1,85.92,95.2Z" transform="translate(-6.99 -6.23)"/><path class="cls-8" d="M70.92,93.6a6.45,6.45,0,0,1-.32,2.08,57.5,57.5,0,0,0-.26,6.15,64.05,64.05,0,0,0,.34,6.79c.1,1.58.38,3.16.59,4.74.22,1.74.73,3.43.87,5.21.08,1,.5,2,.68,3,.28,1.66.88,3.25,1.2,4.89.41,2.07,1.12,4,1.6,6.08.07.27-.09.46-.09.7-1.27-.9-2.28-.42-3.19.6-.1.12-.21.27-.4.26a35.78,35.78,0,0,0,.42-5.27,61.31,61.31,0,0,0-.75-7.54c-.5-3.23-1-6.45-1.57-9.66a58.63,58.63,0,0,1-1-12.54,14.52,14.52,0,0,1,.54-3.87A2.23,2.23,0,0,1,70.92,93.6Z" transform="translate(-6.99 -6.23)"/><path class="cls-3" d="M123.3,83.57c-1.21-1.12-1.45-2.61-.59-3.67a2.62,2.62,0,0,0,1.2,2c.75.67.33,1-.15,1.43A1.63,1.63,0,0,1,123.3,83.57Z" transform="translate(-6.99 -6.23)"/><path class="cls-50" d="M60.86,65.1c-.25.09-.45.14-.33.54a13.6,13.6,0,0,0,2.69,5.15,9.07,9.07,0,0,0,5.51,2.93,11,11,0,0,0,4.47-.17,20.92,20.92,0,0,0,7.44-3.14c.74-.52,1.48-1,2.21-1.59.33-.25.84-.5.28-1-.07-.06.1-.11.19-.13.93.4.84,1.22.84,2-.07,0-.13,0-.14-.08-.14-.68-.4-.58-.93-.27a12.67,12.67,0,0,0-3.81,4.07,24,24,0,0,1-5.16,5.52c-1.57,1.18-3.26,2-5.31,1.57a4.9,4.9,0,0,1-3-2.43,18.28,18.28,0,0,1-2.24-5.71,1.78,1.78,0,0,0-.45-.87,13,13,0,0,1-3-5.17c-.08-.24,0-.63-.28-.68s-.43.32-.6.54-.09.22-.24.23c.26-1.45,1.05-1.89,2.6-1.36Z" transform="translate(-6.99 -6.23)"/><path class="cls-51" d="M90.36,37.24c-4.75.22-8,2.69-10.3,6.77A8.93,8.93,0,0,1,90.36,37.24Z" transform="translate(-6.99 -6.23)"/><path class="cls-52" d="M67.85,34.41c.14.25.44.39.5.69s.2.71-.28.87A11.46,11.46,0,0,0,62,31.58,9.39,9.39,0,0,1,67.85,34.41Z" transform="translate(-6.99 -6.23)"/><path class="cls-53" d="M68.07,36a1.69,1.69,0,0,0,.28-.87l.58.75a3,3,0,0,1,1,2.31l.36,2v1A16.73,16.73,0,0,0,68.07,36Z" transform="translate(-6.99 -6.23)"/><path class="cls-54" d="M73.34,64.14a2.42,2.42,0,0,1-2.61,1.12c-1.39-.21-1.8-1.14-2.16-2.07.48.34.63.9,1.16,1.21a2.56,2.56,0,0,0,1.85.47A5.56,5.56,0,0,0,73.34,64.14Z" transform="translate(-6.99 -6.23)"/><path class="cls-8" d="M66.07,199.91a.87.87,0,0,0-.15-.78.37.37,0,0,1,.09-.46A14.54,14.54,0,0,1,67.67,197c.08-.05.19-.15.24-.13.68.32,1.58-.18,2.14.6a7,7,0,0,0,.82.9A.45.45,0,0,1,71,199a.57.57,0,0,1-.51.32,2.51,2.51,0,0,0-2.15,2.06A.7.7,0,0,1,68,202c-.28.13-.44-.11-.6-.27-.36-.35-.72-.71-1.07-1.07A.66.66,0,0,1,66.07,199.91Z" transform="translate(-6.99 -6.23)"/><path class="cls-29" d="M85.9,136.07c.35.05.28.32.29.54v1.62A8.27,8.27,0,0,1,85.9,136.07Z" transform="translate(-6.99 -6.23)"/><path class="cls-55" d="M69.22,110.14c.47.31.23.77.25,1.18C69,111,69.27,110.54,69.22,110.14Z" transform="translate(-6.99 -6.23)"/><path class="cls-56" d="M69.8,114.16c.39.21.23.58.25.9C69.6,114.86,69.83,114.47,69.8,114.16Z" transform="translate(-6.99 -6.23)"/><path class="cls-57" d="M69.5,112.16a.89.89,0,0,1,.25.89C69.33,112.84,69.52,112.47,69.5,112.16Z" transform="translate(-6.99 -6.23)"/><path class="cls-58" d="M70.65,119.07c.43.2.23.58.25.89A.94.94,0,0,1,70.65,119.07Z" transform="translate(-6.99 -6.23)"/><path class="cls-59" d="M70.63,74.43c1.15-.22,2.33-.23,3.47-.5A30.51,30.51,0,0,0,77,73a21.89,21.89,0,0,0,2.81-1.37,11.28,11.28,0,0,1-1.13,1.69,27.19,27.19,0,0,1-2.56,3.1c-.16.16-.31.38-.6.27a1.19,1.19,0,0,1-.91,0,7.13,7.13,0,0,0-3.28,0,3.14,3.14,0,0,1-.92.12c-.58-.17-.59-.63-.46-1.07A3.15,3.15,0,0,1,70.63,74.43Z" transform="translate(-6.99 -6.23)"/><path class="cls-60" d="M66.92,78.49a9,9,0,0,1-2-3.64c-.21-.55-.38-1.12-.56-1.69,0-.15-.11-.35,0-.48s.29.06.41.14a15.91,15.91,0,0,0,3,1.32.85.85,0,0,1,.36,1.09c-.19.73.25,1.42.17,2.15A1.89,1.89,0,0,1,66.92,78.49Z" transform="translate(-6.99 -6.23)"/><path class="cls-61" d="M68.46,79.78A3.26,3.26,0,0,1,67.32,79c-.14-.25,0-.42.19-.54A8.67,8.67,0,0,1,72,76.71c.47,0,.56.34.53.75a3,3,0,0,1-2.76,2.36C69.31,79.84,68.88,79.79,68.46,79.78Z" transform="translate(-6.99 -6.23)"/><path class="cls-62" d="M68.46,79.78c.39-.25.84-.13,1.26-.16,1.12-.07,2.62-1.09,2.63-2.26,0-.35-.09-.49-.42-.48,0-.26.22-.3.4-.31a6.43,6.43,0,0,1,2.54.19c.2,0,.4.15.39.43A9.17,9.17,0,0,1,70.75,80,3,3,0,0,1,68.46,79.78Z" transform="translate(-6.99 -6.23)"/><path class="cls-63" d="M68.2,77.53c0-.85-.64-1.66-.18-2.55.17-.34-.23-.54-.26-.84l2.87.29a2.17,2.17,0,0,1-.41,1.11.86.86,0,0,0,.12,1.07A3.15,3.15,0,0,1,68.2,77.53Z" transform="translate(-6.99 -6.23)"/><path class="cls-64" d="M68.2,77.53l2.14-.92a8.66,8.66,0,0,1,5.21,0,.55.55,0,0,1-.29.55,4.85,4.85,0,0,0-3.33-.31,9,9,0,0,0-4.5,1.89c-.06,0-.08.17-.11.25-.16-.16-.41-.25-.4-.53Z" transform="translate(-6.99 -6.23)"/><path class="cls-65" d="M78.43,82.39c-.19.42-.47.85-.9.9s-.61-.35-.68-.72.72-.9,1-.86S78.33,82.08,78.43,82.39Z" transform="translate(-6.99 -6.23)"/><path class="cls-8" d="M68.13,200c-.54,0-1.08-.46-1-.91a1.05,1.05,0,0,1,1.14-.95c.47.08.93.29.88.89S69,200.13,68.13,200Z" transform="translate(-6.99 -6.23)"/><path class="cls-66" d="M64.69,33.47c.37-9.42,4.78-13.94,4.78-13.94l1,3.17c6.6,5.84,16.56-.69,17-1h0c-3.75-12-17.36-11.36-17.36-11.36C61.62,16.33,64.69,33.47,64.69,33.47Z" transform="translate(-6.99 -6.23)"/><path class="cls-67" d="M69.19,19.15l1,3.17c6.6,5.83,16.56-.69,17-1-.33.15-2.41-3.94-6.25-5.53A33.35,33.35,0,0,0,75.2,14.1,17.76,17.76,0,0,0,69.19,19.15Z" transform="translate(-6.99 -6.23)"/><path class="cls-68" d="M70.45,56.54c-.72,1-12.89,3.83-19.31-5.71,0,0,1.47-7.38,5.87-9.37s8.26,0,10.91,4.29C70.46,49.86,70.94,55.84,70.45,56.54Z" transform="translate(-6.99 -6.23)"/><path class="cls-69" d="M78.53,56.66c.49,1.16,11.79,6.48,20.09-1.49,0,0,.12-7.52-3.76-10.4S86.78,43,83.29,46.65,78.2,55.88,78.53,56.66Z" transform="translate(-6.99 -6.23)"/><path class="cls-70" d="M129.6,85.09s7.1-.55,18.59,5.17a8.64,8.64,0,0,1,2.2,1.21s1.86.9,1.07,1.84c0,0-.21.85-2.59-.13,0,0-5.26-1.56-5.83-1.57h.57l-1.37,0,1.66.66,1.3.86s4.58,1.93,6.27,3.46l.19.18a5.51,5.51,0,0,1,1.93,2.31s.81,1-2-.36c0,0-7.41-3.63-8.62-4l-2-.56-.34.12s1.86.68,2,1.17c0,0,4.83,2.63,4.47,2.72,0,0,2.11,1.24,2,2.19a32.15,32.15,0,0,1-4.46-2s-4.54-2.63-5.33-3a7.35,7.35,0,0,0-3.35-.69s-3.92-.61-5.26-2.48a11.21,11.21,0,0,1-2.82-5.8s-.65-1.09-1.63-2.41L125,83s-.16.6-1.25-1.23c0,0-2.58-1.74-.44-2.2a2.58,2.58,0,0,1,2.73.36,6.18,6.18,0,0,1,3.39,4.91Z" transform="translate(-6.99 -6.23)"/><polygon class="cls-16" points="120 73.7 120.89 74.4 120.15 74.36 119 73.68 120 73.7"/><path class="cls-71" d="M81.4,79a12.31,12.31,0,0,0,2.45-1.57,70.93,70.93,0,0,0,8.67-7.48,71.39,71.39,0,0,0,6.15-7.08c.48-.64,1.07-1.23,1.51-1.9s.87-1.48,1.3-2.23a39.23,39.23,0,0,0,2.38-4.93,30.54,30.54,0,0,0,1.58-5.33c.31-1.63.45-3.3.61-5a28.54,28.54,0,0,0-.5-7.61,19.4,19.4,0,0,0-1.73-5.56c-.33-.66-.54-1.36-.81-2a7.22,7.22,0,0,1,2,1.88,28,28,0,0,1,4.15,6.07,22.39,22.39,0,0,1,2.31,7.84,25.37,25.37,0,0,1,0,4.93,21.91,21.91,0,0,1-1.77,6.3,35.23,35.23,0,0,1-4.76,8,54.17,54.17,0,0,1-6.5,7C96.67,72,94.79,73.53,92.86,75a38.4,38.4,0,0,1-4.18,2.84c-1.16.66-2.27,1.41-3.43,2.08-1,.57-2,1.09-3,1.6-.32.16-.68.18-.77.63,0,.12-.32.6-.63.12a.68.68,0,0,0-.17-1c-.48-.38-.36-.75,0-1.13A1.61,1.61,0,0,0,81.4,79Z" transform="translate(-6.99 -6.23)"/><path class="cls-13" d="M75.63,85.09c.17,0,.34-.57.52,0a5.16,5.16,0,0,1,.11,3.18l-.5-.28Z" transform="translate(-6.99 -6.23)"/><polygon class="cls-8" points="66.24 190.32 65.81 185.21 63.51 185.37 63.92 188.76 66.24 190.32"/><path class="cls-31" d="M72.79,191.44l1.84.93.32,3.86-.49.79-1.23-.47s-.69-4.42-.44-5.22" transform="translate(-6.99 -6.23)"/><polygon class="cls-31" points="67.54 184.22 67.42 183.24 66.25 184.32 66.33 185.48 67.34 185.4 67.54 184.22"/><polygon class="cls-10" points="68.37 188.71 68.26 188 67.82 188.28 67.85 189.4 68.37 188.71"/><path class="cls-72" d="M69.86,56.1c-.41.62-7.18,2.09-12.54-.47a10.64,10.64,0,0,1-5.65-6.25A12.73,12.73,0,0,1,55.62,44h0a7.71,7.71,0,0,1,4.07-1.53C67.43,41.89,71.07,54.27,69.86,56.1Z" transform="translate(-6.99 -6.23)"/><path class="cls-73" d="M69.86,56.1c-.41.62-7.18,2.09-12.54-.47C53.69,51.54,55.62,44,55.62,44h0a7.71,7.71,0,0,1,4.07-1.53C67.43,41.89,71.07,54.27,69.86,56.1Z" transform="translate(-6.99 -6.23)"/><path class="cls-74" d="M53.37,45.58A5.8,5.8,0,0,0,53,49.07c.52,1.42,8.18,3.73,12.85,3.78S67.39,48,67.39,48s-2.06-5.22-7.27-5.58S53.37,45.58,53.37,45.58Z" transform="translate(-6.99 -6.23)"/><path class="cls-75" d="M56.16,50.46c.06-.7,3.55.72,3.54,1.24S56.09,51.17,56.16,50.46Z" transform="translate(-6.99 -6.23)"/><path class="cls-75" d="M60.65,51.94s1.59-.23,1.9.36C62.55,52.3,61.25,52.8,60.65,51.94Z" transform="translate(-6.99 -6.23)"/><path class="cls-76" d="M79.29,57c.35.65,7,2.66,12.54.56A10.67,10.67,0,0,0,98,51.81a12.75,12.75,0,0,0-3.49-5.75h0a7.75,7.75,0,0,0-3.93-1.85C82.88,43,78.23,55.08,79.29,57Z" transform="translate(-6.99 -6.23)"/><path class="cls-77" d="M79.29,57c.35.65,7,2.66,12.54.56,4-3.79,2.65-11.51,2.65-11.51h0a7.75,7.75,0,0,0-3.93-1.85C82.88,43,78.23,55.08,79.29,57Z" transform="translate(-6.99 -6.23)"/><path class="cls-78" d="M96.59,47.88a5.81,5.81,0,0,1,0,3.5c-.64,1.37-8.46,3-13.11,2.71s-1.12-5-1.12-5,2.48-5,7.71-5S96.59,47.88,96.59,47.88Z" transform="translate(-6.99 -6.23)"/><path class="cls-75" d="M93.41,52.5c0-.7-3.6.43-3.63,1s3.64-.23,3.63-1" transform="translate(-6.99 -6.23)"/><path class="cls-75" d="M88.81,53.61s-1.57-.35-1.93.21C86.88,53.82,88.14,54.43,88.81,53.61Z" transform="translate(-6.99 -6.23)"/><ellipse class="cls-3" cx="68.64" cy="77.77" rx="2.92" ry="0.54"/><ellipse class="cls-3" cx="67.9" cy="78.4" rx="1.64" ry="0.63"/><ellipse class="cls-3" cx="66.49" cy="78.95" rx="0.77" ry="0.55"/><ellipse class="cls-3" cx="70.19" cy="77.42" rx="1.63" ry="0.35"/><ellipse class="cls-3" cx="72.69" cy="76.95" rx="0.88" ry="1.21"/><ellipse class="cls-3" cx="70.65" cy="76.69" rx="1.94" ry="0.5"/><ellipse class="cls-3" cx="70.74" cy="77.17" rx="1.34" ry="0.25"/><ellipse class="cls-3" cx="71.22" cy="75.87" rx="1.67" ry="0.39"/><path class="cls-3" d="M75.26,82.78a63.81,63.81,0,0,1,6.06-3.17s1.39,3.15.86,4S75.26,82.78,75.26,82.78Z" transform="translate(-6.99 -6.23)"/><path class="cls-3" d="M76.4,87.84l-.3-3.63,1.63,1s.43,2.81-1.18,3S76.4,87.84,76.4,87.84Z" transform="translate(-6.99 -6.23)"/><polygon class="cls-3" points="70.71 79.3 73.11 79.51 72.86 77.67 70.94 77.51 69.54 78.4 70.71 79.3"/><path class="cls-79" d="M123.21,46.61a43.24,43.24,0,0,1-10.68,30.46,43.93,43.93,0,0,1-29.91,14.7A43.22,43.22,0,0,1,51,80.91,42.47,42.47,0,0,1,37,51.69,43,43,0,0,1,47.67,21.24,43.9,43.9,0,0,1,77.58,6.53a43.22,43.22,0,0,1,31.63,10.86,42.47,42.47,0,0,1,14,29.22c0,.15.48.16.48,0a42.8,42.8,0,0,0-13.12-28.45A43.76,43.76,0,0,0,82,6.26,44.42,44.42,0,0,0,52.1,16.41,43.45,43.45,0,0,0,36.86,43.57a42.57,42.57,0,0,0,7.88,31,43.47,43.47,0,0,0,25.7,16.51C91.3,95.66,114.14,84,121.53,62.4a42.68,42.68,0,0,0,2.16-15.76C123.68,46.49,123.2,46.48,123.21,46.61Z" transform="translate(-6.99 -6.23)"/><path class="cls-80" d="M123.45,46.62c1.23,23.61-17.18,43.88-41.12,45.27S38,75.28,36.75,51.68,53.93,7.8,77.87,6.41,122.22,23,123.45,46.62Z" transform="translate(-6.99 -6.23)"/><path class="cls-81" d="M123.45,46.62C122.22,23,101.81,5,77.87,6.41S35.52,28.07,36.75,51.68,58.39,93.29,82.33,91.89,124.68,70.23,123.45,46.62Zm-45.72,32A35,35,0,0,1,40.47,45.71c-1-19.3,14-35.87,33.62-37a35,35,0,0,1,37.26,32.88C112.35,60.88,97.3,77.45,77.73,78.6Z" transform="translate(-6.99 -6.23)"/><path class="cls-82" d="M42.93,40.89A29.6,29.6,0,0,0,43,50.4a47.19,47.19,0,0,1,2.35-8.79C44.56,41.36,43.74,41.12,42.93,40.89Z" transform="translate(-6.99 -6.23)"/><path class="cls-82" d="M45,32.51A40.09,40.09,0,0,0,43.43,38l3,.9a48,48,0,0,1,2.64-5.19C47.75,33.24,46.35,32.93,45,32.51Z" transform="translate(-6.99 -6.23)"/><path class="cls-82" d="M70.3,11.68S55.52,11.4,47.35,27.09c-.64,1.24-1.19,2.45-1.68,3.63,1.48.48,3,.81,4.49,1.27,4.45-6.74,11.51-13.09,22.62-14.5Z" transform="translate(-6.99 -6.23)"/><path class="cls-83" d="M69.17,135.32a4.81,4.81,0,0,1,1.62-4.74c.24.82,1,1.1,1.85,1.32,4.93,1.29,9.9,1,14.85.14.6-.11,1.69-.2,1.33-1.23-.06-.18.06-.33.31-.28s.62.21.7.54c.18.8.37,1.59.57,2.39.08.31.18.63.26.94.36,1.27-.43,1.87-1.76,2.21a30,30,0,0,1-17.18-.14A23.37,23.37,0,0,1,69.17,135.32Z" transform="translate(-6.99 -6.23)"/><path class="cls-84" d="M69.47,135.17A4,4,0,0,1,71,131c.23.71,1,1,1.81,1.15a37.27,37.27,0,0,0,14.43.12c.58-.09,1.64-.17,1.29-1.07-.06-.16.06-.29.3-.24s.6.18.68.47c.18.69.37,1.39.56,2.08.07.27.17.54.25.82.35,1.11-.41,1.63-1.71,1.93a32.53,32.53,0,0,1-16.71-.13A24.06,24.06,0,0,1,69.47,135.17Z" transform="translate(-6.99 -6.23)"/><path class="cls-9" d="M80.83,136.87a22.29,22.29,0,0,1-4.62-.19c-1-.1-1.41-.46-1.17-1.45.5-2.15.43-2.1,3.07-1.94a27.11,27.11,0,0,0,3.81-.2c.79-.07,1.15.15,1.12.84a6.13,6.13,0,0,0,0,.74C83.24,136.71,83.24,136.71,80.83,136.87Z" transform="translate(-6.99 -6.23)"/><path class="cls-12" d="M80.47,136.61l-3.83-.21c-1.37-.07-1.3-.85-1.17-1.73s.38-1.26,1.59-1.12a21.75,21.75,0,0,0,4.49,0c.77-.07.91.12.93.66a3.07,3.07,0,0,0,.07.6C82.89,136.36,82.8,136.46,80.47,136.61Z" transform="translate(-6.99 -6.23)"/><polygon class="cls-9" points="120.62 86.08 124.4 89.8 124.08 90.2 122.75 90.2 120.15 87.91 119.75 87.22 120.62 86.08"/><path class="cls-12" d="M128.05,93.34c.76.48,1.31,1.17,2,1.69-.06.59-.54.67-1.1.66A12.42,12.42,0,0,0,127,94.17C127,93.54,127.51,93.41,128.05,93.34Z" transform="translate(-6.99 -6.23)"/><path class="cls-29" d="M129,95.69c.39-.2.88-.27,1.1-.66a2.51,2.51,0,0,1,.48.5c.17.3.92.46.65.68a1.24,1.24,0,0,1-1.53.22C129.41,96.21,129,96.08,129,95.69Z" transform="translate(-6.99 -6.23)"/><path class="cls-12" d="M128.05,93.34c-.33.29-.84.39-1,.83l-.67-.39c.22-.22.45-.43.66-.66C127.4,92.7,127.73,92.83,128.05,93.34Z" transform="translate(-6.99 -6.23)"/><path class="cls-83" d="M70.72,130.49s-1-9.82-1.74-10.06c0,0-2.22-8.85-2.61-9.2,0,0-1.14-6.64-.57-8.38a95.5,95.5,0,0,0,29.1,0,38,38,0,0,1-3.06,15.62S88,130.2,88.49,131l-.18.8a29.41,29.41,0,0,1-9.67,1S70,132.44,70.72,130.49Z" transform="translate(-6.99 -6.23)"/><path class="cls-83" d="M79.3,96.06s-4.24,17.76-1.08,36.54a19.29,19.29,0,0,0,2.57.07h.29c1.69-.08-.1,0-.1,0s-2.39-13.38.86-36.76Z" transform="translate(-6.99 -6.23)"/><path class="cls-8" d="M79.59,97.06s-3.08,16.63-1.15,33.12c0,0,1.44,5.69,1.15,0A157.77,157.77,0,0,1,80.79,97S80.45,95.24,79.59,97.06Z" transform="translate(-6.99 -6.23)"/><path class="cls-9" d="M84.53,94.3c.2.51-.4.75-1.1,1.13A7.44,7.44,0,0,1,75.19,95c-.64-.43-.93-3.62-.3-4a2,2,0,0,1,1.67,0,14,14,0,0,0,6.14.29c1.18-.13,2,0,1.79,1.23A10.63,10.63,0,0,0,84.53,94.3Z" transform="translate(-6.99 -6.23)"/><path class="cls-9" d="M70.25,89a4,4,0,0,0,2.89,1.16c1.26.14,1.69.61,1.63,1.57s0,1.8,0,2.72c-5.16-1.71-6.12-2.82-4.81-5.52A.23.23,0,0,1,70.25,89Z" transform="translate(-6.99 -6.23)"/><path class="cls-9" d="M88.8,89.44A3.85,3.85,0,0,1,86,90.56c-1.22.13-1.63.59-1.58,1.52s0,1.74,0,2.63c5-1.65,5.92-2.72,4.66-5.34A.23.23,0,0,0,88.8,89.44Z" transform="translate(-6.99 -6.23)"/><path class="cls-85" d="M84.26,94.25c.19.48-.38.71-1,1.06a7.06,7.06,0,0,1-7.8-.43c-.61-.4-.88-3.41-.29-3.78a1.86,1.86,0,0,1,1.58,0,13.26,13.26,0,0,0,5.81.27c1.11-.12,1.9,0,1.69,1.17A10.39,10.39,0,0,0,84.26,94.25Z" transform="translate(-6.99 -6.23)"/><path class="cls-84" d="M70.47,89.35a3.52,3.52,0,0,0,2.54,1c1.12.12,1.5.54,1.45,1.4s0,1.59,0,2.41c-4.55-1.52-5.4-2.5-4.25-4.9A.21.21,0,0,1,70.47,89.35Z" transform="translate(-6.99 -6.23)"/><path class="cls-12" d="M80.31,93.74a1,1,0,0,1-1.28.82c-.7-.11-1-.55-.87-1.16a1,1,0,0,1,1.2-.77C80.08,92.71,80.38,93.08,80.31,93.74Z" transform="translate(-6.99 -6.23)"/><path class="cls-84" d="M88.7,89.68a3.55,3.55,0,0,1-2.55,1c-1.11.12-1.49.54-1.44,1.39s0,1.6,0,2.41C89.31,93,90.15,92,89,89.62,88.87,89.55,88.77,89.56,88.7,89.68Z" transform="translate(-6.99 -6.23)"/><path class="cls-12" d="M66.11,103.45s.85,10.32,1.76,11.16c0,0,2,7.32,2.3,8.58,0,0,1,5.41,1.16,7.54,0,0,.87,1.43,6.47,1.22,0,0-1.46-22.26,0-27.59Z" transform="translate(-6.99 -6.23)"/><path class="cls-12" d="M77.67,129.77a11.6,11.6,0,0,0,.44,2.2s-1.78.61-5.19-.41" transform="translate(-6.99 -6.23)"/><path class="cls-12" d="M94.59,103.45s-9.83,1.57-13.44,1c0,0-1.35,8.51-1,27.51,0,0,1.66,1,7.9-.79,0,0,.72-2.27,1.64-6.46,0,0,1.16-4,2.66-8.6l.3-.92C94.3,110.25,94.92,106.69,94.59,103.45Z" transform="translate(-6.99 -6.23)"/><path class="cls-29" d="M90.1,123.45c.19-.72.34-1.27.42-1.54.4-1.28,4.88-12.41,4.07-18.46l-2.87.41s.76,5-2.45,15.73a88.59,88.59,0,0,1-2.42,11.59c0,.13-.08.23-.11.34l1.31-.34S89.36,126.17,90.1,123.45Z" transform="translate(-6.99 -6.23)"/><path class="cls-10" d="M87.08,110.36c0-.23-.07-.46,0-.67a2,2,0,0,0,1.78-1.26,2,2,0,0,0-.38-2.16,1.94,1.94,0,0,0-1.1-.6,1.1,1.1,0,0,1-.34-.1c0-.1,0-.2,0-.3,0-.32,0-.32.32-.24a2.69,2.69,0,0,1,1.93,3.31,2.64,2.64,0,0,1-2.07,2s-.1,0-.12,0Z" transform="translate(-6.99 -6.23)"/><path class="cls-9" d="M84.09,107.23A2.75,2.75,0,0,1,86.2,105c.18,0,.23,0,.21.18s0,.25,0,.38a2.57,2.57,0,0,1-.54.16,2,2,0,0,0-1.32,2.63,2.2,2.2,0,0,1,.13.36.31.31,0,0,1-.27.26,1,1,0,0,1-.3-.67,2.11,2.11,0,0,0,0-.35v-.09C84.11,107.66,84,107.44,84.09,107.23Z" transform="translate(-6.99 -6.23)"/><path class="cls-5" d="M88.08,107.74A1.34,1.34,0,0,1,86.93,109a1.37,1.37,0,0,1-1.47-1,1.32,1.32,0,0,1,.67-1.54c.15,0,.08.16.07.24a1.1,1.1,0,0,0,1.64,1.13C87.91,107.79,88,107.71,88.08,107.74Z" transform="translate(-6.99 -6.23)"/><path class="cls-10" d="M88.08,107.74a1.17,1.17,0,0,1-1.92-.54,1.41,1.41,0,0,1,0-.58c0-.06,0-.11,0-.16a1.19,1.19,0,0,1,1.33,0A1.22,1.22,0,0,1,88.08,107.74Z" transform="translate(-6.99 -6.23)"/><path class="cls-15" d="M87.08,105.57a2.08,2.08,0,0,1,.43,4.11c-.12,0-.25.1-.39,0a3,3,0,0,0,1-.51,2.1,2.1,0,0,0,.46-2.42,1.94,1.94,0,0,0-1.28-1.06C87.21,105.67,87.08,105.71,87.08,105.57Z" transform="translate(-6.99 -6.23)"/><path class="cls-9" d="M85.93,109.51c.13.1.29.1.43.18,0,.11-.11.09-.18.08a2.1,2.1,0,0,1-1.5-.91s0-.09,0-.13a2.09,2.09,0,0,1,.26-2.49,2,2,0,0,1,1.17-.63l.33,0c0,.12-.1.1-.16.12a2,2,0,0,0-1.1,3.22A1.69,1.69,0,0,0,85.93,109.51Z" transform="translate(-6.99 -6.23)"/><path class="cls-15" d="M84.64,108.73a2.21,2.21,0,0,0,1.44,1,.34.34,0,0,0,.28,0c.11.18,0,.39,0,.58s-.12,0-.19,0a2.6,2.6,0,0,1-1.22-.63,2.25,2.25,0,0,1-.58-.72A.66.66,0,0,0,84.64,108.73Z" transform="translate(-6.99 -6.23)"/><path class="cls-84" d="M87.07,110.15c0-.21-.07-.43,0-.63a1.89,1.89,0,0,0,1.68-1.18,1.81,1.81,0,0,0-.37-2,1.77,1.77,0,0,0-1-.55.92.92,0,0,1-.32-.1c0-.09,0-.18,0-.27,0-.3,0-.3.3-.23a2.53,2.53,0,0,1-.14,4.94s-.08,0-.11,0Z" transform="translate(-6.99 -6.23)"/><path class="cls-86" d="M84.24,107.22a2.61,2.61,0,0,1,2-2.08c.18,0,.22,0,.2.18s0,.23,0,.35a2.21,2.21,0,0,1-.5.15,1.87,1.87,0,0,0-1.25,2.46,1.85,1.85,0,0,1,.12.33.29.29,0,0,1-.26.25.9.9,0,0,1-.28-.63,1.77,1.77,0,0,0,0-.32v-.09A5.85,5.85,0,0,0,84.24,107.22Z" transform="translate(-6.99 -6.23)"/><path class="cls-87" d="M88,107.7a1.25,1.25,0,0,1-1.08,1.17,1.3,1.3,0,0,1-1.4-.93,1.23,1.23,0,0,1,.64-1.43c.14,0,.07.14.06.22a1,1,0,0,0,.4,1,1,1,0,0,0,1.15.08C87.85,107.75,87.91,107.67,88,107.7Z" transform="translate(-6.99 -6.23)"/><path class="cls-88" d="M88,107.7a1.11,1.11,0,0,1-1.81-.5,1.23,1.23,0,0,1,0-.54c0-.06,0-.11,0-.15a1.13,1.13,0,0,1,1.26,0A1.15,1.15,0,0,1,88,107.7Z" transform="translate(-6.99 -6.23)"/><path class="cls-89" d="M87.07,105.67a1.93,1.93,0,0,1,1.9,1.62,1.91,1.91,0,0,1-1.49,2.22c-.12,0-.25.1-.37,0A2.61,2.61,0,0,0,88,109a2,2,0,0,0,.43-2.26,1.86,1.86,0,0,0-1.2-1C87.19,105.77,87.07,105.8,87.07,105.67Z" transform="translate(-6.99 -6.23)"/><path class="cls-90" d="M86,109.35c.12.1.28.1.4.17s-.1.09-.16.08a2,2,0,0,1-1.42-.86s0-.08,0-.11A1.94,1.94,0,0,1,85,106.3a1.84,1.84,0,0,1,1.1-.59l.31,0c0,.11-.09.1-.15.11a1.9,1.9,0,0,0-1,3A1.56,1.56,0,0,0,86,109.35Z" transform="translate(-6.99 -6.23)"/><path class="cls-91" d="M84.76,108.63a2.11,2.11,0,0,0,1.36.9c.09,0,.18,0,.26,0a.83.83,0,0,1,0,.54c0,.1-.12,0-.18,0a2.43,2.43,0,0,1-1.16-.59,2,2,0,0,1-.54-.67A.73.73,0,0,0,84.76,108.63Z" transform="translate(-6.99 -6.23)"/><polygon class="cls-83" points="79.75 125.3 81.21 125.12 81.33 125.52 80.29 126.08 79.67 125.74 79.75 125.3"/><path class="cls-92" d="M88.82,136.26s1.47-.42,1.54-1a1.36,1.36,0,0,0,0-.91l-.81-2.9a.65.65,0,0,0-.68-.47A9.39,9.39,0,0,1,88.82,136.26Z" transform="translate(-6.99 -6.23)"/><path class="cls-89" d="M88.57,131.24a.66.66,0,0,1-.54.93l-1.41.24a17.56,17.56,0,0,1-.68,4.42l2.88-.57a4.05,4.05,0,0,0,.31-1.73,7.26,7.26,0,0,0-.26-3.53S88.53,130.83,88.57,131.24Z" transform="translate(-6.99 -6.23)"/><path class="cls-93" d="M70.19,135s-.68-2.09.7-3.15A6.29,6.29,0,0,0,70.19,135Z" transform="translate(-6.99 -6.23)"/></g></g></svg>