<svg xmlns="http://www.w3.org/2000/svg" xmlns:xlink="http://www.w3.org/1999/xlink" viewBox="0 0 358.35 405.14"><defs><style>.cls-1{isolation:isolate;}.cls-2{fill:#ff292a;}.cls-3{fill:#d9c375;}.cls-3,.cls-54,.cls-6{opacity:0.5;}.cls-3,.cls-33,.cls-54,.cls-6{mix-blend-mode:multiply;}.cls-4{fill:#2ab4fc;}.cls-5{fill:#168ac5;}.cls-6{fill:#ab94a8;}.cls-7,.cls-8{fill:none;}.cls-15,.cls-16,.cls-17,.cls-18,.cls-19,.cls-20,.cls-24,.cls-25,.cls-26,.cls-27,.cls-28,.cls-29,.cls-7,.cls-8{stroke:#020000;stroke-linecap:round;stroke-linejoin:round;}.cls-15,.cls-16,.cls-17,.cls-18,.cls-19,.cls-20,.cls-24,.cls-25,.cls-26,.cls-27,.cls-28,.cls-29,.cls-7{stroke-width:0.57px;}.cls-8{stroke-width:0.85px;}.cls-9{fill:#a827f5;}.cls-10{fill:url(#Degradado_sin_nombre_8);}.cls-11{fill:#1c8c56;}.cls-12,.cls-33{fill:#503f6e;}.cls-13{fill:#dbb1a1;}.cls-14{fill:url(#Degradado_sin_nombre_8-2);}.cls-15{fill:url(#Degradado_sin_nombre_8-3);}.cls-16{fill:url(#Degradado_sin_nombre_8-4);}.cls-17{fill:url(#Degradado_sin_nombre_8-5);}.cls-18{fill:url(#Degradado_sin_nombre_8-6);}.cls-19{fill:url(#Degradado_sin_nombre_8-7);}.cls-20{fill:url(#Degradado_sin_nombre_8-8);}.cls-21{fill:url(#Degradado_sin_nombre_4);}.cls-22{fill:#12925a;}.cls-23{fill:url(#Degradado_sin_nombre_8-9);}.cls-24{fill:url(#Degradado_sin_nombre_8-10);}.cls-25{fill:url(#Degradado_sin_nombre_8-11);}.cls-26{fill:url(#Degradado_sin_nombre_8-12);}.cls-27{fill:url(#Degradado_sin_nombre_8-13);}.cls-28{fill:url(#Degradado_sin_nombre_8-14);}.cls-29{fill:url(#Degradado_sin_nombre_8-15);}.cls-30{fill:#e5bcad;}.cls-31{fill:url(#Degradado_sin_nombre_4-2);}.cls-32{fill:url(#Degradado_sin_nombre_23);}.cls-33{opacity:0.2;}.cls-34{fill:url(#Degradado_sin_nombre_4-3);}.cls-35{fill:#572965;}.cls-36{fill:#000502;}.cls-37{fill:#8416c5;}.cls-38{fill:#5d2d6d;}.cls-39{fill:#6a296f;}.cls-40{fill:#732d7a;}.cls-41{fill:#66286b;}.cls-42{fill:#6e2b75;}.cls-43{fill:#00b4fd;}.cls-44{fill:#9a0ec8;}.cls-45{fill:#c222f8;}.cls-46{fill:#f81517;}.cls-47{fill:#008ac7;}.cls-48{fill:#00a1e4;}.cls-49{fill:url(#Degradado_sin_nombre_54);}.cls-50{fill:url(#Degradado_sin_nombre_55);}.cls-51{fill:url(#Áåçûìÿííûé_ãðàäèåíò_60);}.cls-52{fill:#8d8d8e;}.cls-53{fill:#9ca6a9;opacity:0.3;}.cls-54{fill:#bec2c4;}.cls-55{fill:#fff;mix-blend-mode:overlay;}.cls-56{fill:#9851b3;}.cls-57{fill:#00b4ff;}</style><linearGradient id="Degradado_sin_nombre_8" x1="224.72" y1="256.01" x2="362.75" y2="256.01" gradientUnits="userSpaceOnUse"><stop offset="0" stop-color="#7ec529"/><stop offset="1" stop-color="#01b883"/></linearGradient><linearGradient id="Degradado_sin_nombre_8-2" x1="331.29" y1="300.36" x2="341.65" y2="300.36" xlink:href="#Degradado_sin_nombre_8"/><linearGradient id="Degradado_sin_nombre_8-3" x1="334.52" y1="300.36" x2="356.78" y2="300.36" xlink:href="#Degradado_sin_nombre_8"/><linearGradient id="Degradado_sin_nombre_8-4" x1="344.06" y1="302.78" x2="354.23" y2="302.78" xlink:href="#Degradado_sin_nombre_8"/><linearGradient id="Degradado_sin_nombre_8-5" x1="339.6" y1="297.27" x2="354.08" y2="297.27" xlink:href="#Degradado_sin_nombre_8"/><linearGradient id="Degradado_sin_nombre_8-6" x1="335.85" y1="294.45" x2="345.77" y2="294.45" xlink:href="#Degradado_sin_nombre_8"/><linearGradient id="Degradado_sin_nombre_8-7" x1="338.35" y1="305.96" x2="340.41" y2="305.96" xlink:href="#Degradado_sin_nombre_8"/><linearGradient id="Degradado_sin_nombre_8-8" x1="350.77" y1="306.44" x2="357.88" y2="306.44" xlink:href="#Degradado_sin_nombre_8"/><linearGradient id="Degradado_sin_nombre_4" x1="4.4" y1="256.01" x2="142.42" y2="256.01" gradientUnits="userSpaceOnUse"><stop offset="0" stop-color="#01b883"/><stop offset="1" stop-color="#7ec529"/></linearGradient><linearGradient id="Degradado_sin_nombre_8-9" x1="25.62" y1="300.36" x2="35.98" y2="300.36" xlink:href="#Degradado_sin_nombre_8"/><linearGradient id="Degradado_sin_nombre_8-10" x1="10.49" y1="300.36" x2="32.75" y2="300.36" xlink:href="#Degradado_sin_nombre_8"/><linearGradient id="Degradado_sin_nombre_8-11" x1="13.04" y1="302.78" x2="23.21" y2="302.78" xlink:href="#Degradado_sin_nombre_8"/><linearGradient id="Degradado_sin_nombre_8-12" x1="13.19" y1="297.27" x2="27.67" y2="297.27" xlink:href="#Degradado_sin_nombre_8"/><linearGradient id="Degradado_sin_nombre_8-13" x1="21.5" y1="294.45" x2="31.42" y2="294.45" xlink:href="#Degradado_sin_nombre_8"/><linearGradient id="Degradado_sin_nombre_8-14" x1="26.86" y1="305.96" x2="28.92" y2="305.96" xlink:href="#Degradado_sin_nombre_8"/><linearGradient id="Degradado_sin_nombre_8-15" x1="9.39" y1="306.44" x2="16.5" y2="306.44" xlink:href="#Degradado_sin_nombre_8"/><linearGradient id="Degradado_sin_nombre_4-2" x1="158.16" y1="170.78" x2="214.74" y2="170.78" xlink:href="#Degradado_sin_nombre_4"/><linearGradient id="Degradado_sin_nombre_23" x1="171.72" y1="159.09" x2="195.23" y2="159.09" gradientUnits="userSpaceOnUse"><stop offset="1" stop-color="#00995d"/><stop offset="1" stop-color="#7ec529"/></linearGradient><linearGradient id="Degradado_sin_nombre_4-3" x1="145.83" y1="110.48" x2="208.56" y2="110.48" gradientTransform="matrix(1.28, -0.01, -0.01, 1.13, -42.08, -8.54)" xlink:href="#Degradado_sin_nombre_4"/><linearGradient id="Degradado_sin_nombre_54" x1="184.2" y1="89.01" x2="184.2" y2="67.13" gradientUnits="userSpaceOnUse"><stop offset="0" stop-color="#d25c73"/><stop offset="0.27" stop-color="#aa2e77"/><stop offset="0.32" stop-color="#a52977"/><stop offset="0.52" stop-color="#a72c77"/></linearGradient><linearGradient id="Degradado_sin_nombre_55" x1="180.65" y1="62.54" x2="180.65" y2="48.39" gradientUnits="userSpaceOnUse"><stop offset="0" stop-color="#d25c73"/><stop offset="0" stop-color="#aa2e77"/><stop offset="0.32" stop-color="#a52977"/><stop offset="0.52" stop-color="#a72c77"/></linearGradient><linearGradient id="Áåçûìÿííûé_ãðàäèåíò_60" x1="184.66" y1="102.54" x2="184.66" y2="48.83" gradientUnits="userSpaceOnUse"><stop offset="0" stop-color="#a52977"/><stop offset="1" stop-color="#d25c73"/></linearGradient></defs><title>filosofia</title><g class="cls-1"><g id="Objects"><path class="cls-2" d="M183.71,11.32a.44.44,0,0,1-.36-.19c-.16-.26-.3-.47-.41-.64-.11.17-.25.38-.4.64a.44.44,0,0,1-.59.13.42.42,0,0,1-.13-.59c.49-.78.77-1.19.77-1.19a.42.42,0,0,1,.35-.19h0a.41.41,0,0,1,.35.19s.28.41.78,1.19a.44.44,0,0,1-.14.59A.46.46,0,0,1,183.71,11.32Z" transform="translate(-4.4 -9.29)"/><path class="cls-2" d="M175,23.7a.35.35,0,0,1-.2-.05.43.43,0,0,1-.23-.37.46.46,0,0,1,0-.2c.91-1.69,1.84-3.38,2.77-5a.44.44,0,0,1,.59-.16.41.41,0,0,1,.19.25.42.42,0,0,1,0,.33c-1,1.7-1.88,3.34-2.77,5A.4.4,0,0,1,175,23.7Zm4.19-7.49a.54.54,0,0,1-.21-.05.44.44,0,0,1-.15-.59h0a.44.44,0,0,1,.57-.14.43.43,0,0,1,.2.26.4.4,0,0,1-.05.32A.41.41,0,0,1,179.2,16.21Z" transform="translate(-4.4 -9.29)"/><path class="cls-2" d="M181.9,198.64a.44.44,0,0,1-.29-.11l0,0,0,0c-1.39-1.33-2.75-2.69-4.06-4.07a.43.43,0,0,1-.12-.31.47.47,0,0,1,.14-.29.43.43,0,0,1,.6,0c1.34,1.4,2.69,2.76,4,4h0l0,0a.42.42,0,0,1,0,.6A.4.4,0,0,1,181.9,198.64Zm-6-6.18a.43.43,0,0,1-.31-.14.45.45,0,0,1-.11-.31.43.43,0,1,1,.71.34A.44.44,0,0,1,175.87,192.46Zm-3.72-4.34a.42.42,0,0,1-.33-.16c-.61-.75-1.22-1.51-1.79-2.25-1.17-1.53-2.31-3.08-3.38-4.63h0a.41.41,0,0,1-.07-.32.39.39,0,0,1,.18-.27.43.43,0,0,1,.59.11c1.05,1.53,2.18,3.08,3.36,4.6.55.72,1.13,1.45,1.77,2.23a.44.44,0,0,1,.09.31.4.4,0,0,1-.15.29A.45.45,0,0,1,172.15,188.12Zm-6.74-9.24a.43.43,0,0,1-.36-.2.44.44,0,0,1-.06-.32.38.38,0,0,1,.19-.26.42.42,0,0,1,.58.12.44.44,0,0,1,.06.32.42.42,0,0,1-.18.27A.48.48,0,0,1,165.41,178.88Zm-3-4.88a.45.45,0,0,1-.37-.22c-.48-.84-1-1.68-1.39-2.51-.9-1.66-1.76-3.39-2.57-5.12h0a.43.43,0,1,1,.77-.36c.8,1.7,1.65,3.4,2.54,5.06l0,0c.44.83.91,1.67,1.38,2.49a.42.42,0,0,1-.16.58A.37.37,0,0,1,162.42,174Zm-5.13-10.23a.43.43,0,0,1-.39-.25.42.42,0,0,1,0-.33.39.39,0,0,1,.22-.23.43.43,0,0,1,.56.22.4.4,0,0,1,0,.32.49.49,0,0,1-.23.24A.47.47,0,0,1,157.29,163.77Zm-2.13-5.31a.42.42,0,0,1-.4-.28c-.32-.87-.64-1.78-.95-2.7-.61-1.8-1.18-3.65-1.7-5.49a.43.43,0,1,1,.82-.23c.51,1.83,1.08,3.66,1.68,5.44.32,1,.63,1.84.95,2.69a.42.42,0,0,1-.25.54Zm-3.37-10.92a.43.43,0,0,1-.41-.33.42.42,0,0,1,.31-.51.42.42,0,1,1,.2.82ZM150.54,142a.42.42,0,0,1-.41-.34c-.19-.94-.36-1.89-.52-2.82-.32-1.86-.59-3.77-.82-5.67h0a.43.43,0,1,1,.85-.1c.23,1.9.5,3.79.82,5.64v0c.16.88.33,1.81.51,2.76a.45.45,0,0,1-.06.32.44.44,0,0,1-.27.17Zm-1.64-11.31a.42.42,0,0,1-.42-.37s0,0,0,0a.43.43,0,0,1,.39-.46.42.42,0,0,1,.46.38v0a.43.43,0,0,1-.38.45Zm-.4-5.71h0a.41.41,0,0,1-.42-.4c-.05-.9-.09-1.83-.12-2.87,0-1.24-.05-2.55-.05-3.88,0-.59,0-1.21,0-1.86a.41.41,0,0,1,.42-.41.42.42,0,0,1,.43.42c0,.6,0,1.22,0,1.85,0,1.3,0,2.6.06,3.86,0,1,.07,1.94.11,2.85a.42.42,0,0,1-.4.44Zm-.11-11.43h0a.43.43,0,0,1-.3-.14.38.38,0,0,1-.11-.3.41.41,0,0,1,.42-.41h0a.41.41,0,0,1,.29.13.39.39,0,0,1,.11.31A.42.42,0,0,1,148.39,113.5Zm.31-5.71h0a.43.43,0,0,1-.39-.46c.07-1,.15-1.93.24-2.86.17-1.85.38-3.77.62-5.69a.43.43,0,0,1,.85.1c-.25,1.91-.46,3.82-.63,5.67v0c-.08.83-.15,1.75-.23,2.79A.43.43,0,0,1,148.7,107.79Zm1.24-11.36h-.06a.43.43,0,1,1,.13-.84.42.42,0,0,1,.35.48A.43.43,0,0,1,149.94,96.43Zm.92-5.65h-.07a.43.43,0,0,1-.28-.18.42.42,0,0,1-.06-.31c.14-.83.31-1.7.52-2.82.37-1.86.77-3.74,1.19-5.6v0a.44.44,0,0,1,.51-.32A.44.44,0,0,1,153,82c-.43,1.85-.83,3.73-1.19,5.59-.19.95-.36,1.89-.53,2.81A.43.43,0,0,1,150.86,90.78Zm2.38-11.2h-.1a.45.45,0,0,1-.27-.2.42.42,0,0,1,.47-.63.42.42,0,0,1,.31.51A.42.42,0,0,1,153.24,79.58ZM154.67,74l-.11,0a.43.43,0,0,1-.26-.2.45.45,0,0,1,0-.32l.78-2.76c.53-1.84,1.09-3.69,1.66-5.49a.43.43,0,0,1,.54-.28.45.45,0,0,1,.24.21.36.36,0,0,1,0,.32c-.56,1.78-1.12,3.62-1.65,5.47-.26.89-.52,1.82-.78,2.75A.43.43,0,0,1,154.67,74Zm3.32-11-.13,0a.43.43,0,1,1,.54-.27A.44.44,0,0,1,158,63.08Zm1.87-5.41a.32.32,0,0,1-.14,0,.4.4,0,0,1-.24-.22.4.4,0,0,1,0-.32c.29-.8.63-1.75,1-2.7.66-1.76,1.35-3.56,2.06-5.35a.43.43,0,0,1,.56-.23.4.4,0,0,1,.23.23.4.4,0,0,1,0,.32c-.71,1.76-1.4,3.55-2.06,5.31v0c-.32.85-.65,1.75-1,2.69A.43.43,0,0,1,159.86,57.67ZM164,47a.29.29,0,0,1-.16,0,.42.42,0,0,1-.24-.54h0a.42.42,0,0,1,.55-.23.37.37,0,0,1,.23.23.36.36,0,0,1,0,.32A.42.42,0,0,1,164,47Zm2.25-5.27a.33.33,0,0,1-.17,0,.41.41,0,0,1-.22-.56c.39-.89.78-1.78,1.16-2.62.82-1.8,1.64-3.54,2.43-5.19a0,0,0,0,1,0,0,.43.43,0,0,1,.56-.19.39.39,0,0,1,.21.24.4.4,0,0,1,0,.32c-.84,1.75-1.65,3.49-2.42,5.19-.35.76-.76,1.67-1.16,2.61A.44.44,0,0,1,166.24,41.72Zm4.84-10.38a.41.41,0,0,1-.19,0,.42.42,0,0,1-.19-.57h0a.43.43,0,0,1,.57-.18.39.39,0,0,1,.21.24.42.42,0,0,1,0,.31h0A.42.42,0,0,1,171.08,31.34Zm2.59-5.1a.49.49,0,0,1-.2,0,.44.44,0,0,1-.18-.58l1.34-2.53s0,0,0,0a.44.44,0,0,1,.57-.16.49.49,0,0,1,.21.26.4.4,0,0,1,0,.32c-.45.85-.9,1.7-1.33,2.53A.44.44,0,0,1,173.67,26.24Z" transform="translate(-4.4 -9.29)"/><path class="cls-2" d="M182.94,199.62a.41.41,0,0,1-.29-.11l-1-1a.42.42,0,1,1,.59-.61l.74.7.74-.7a.42.42,0,0,1,.59.61l-1,1A.39.39,0,0,1,182.94,199.62Z" transform="translate(-4.4 -9.29)"/><path class="cls-2" d="M188,194.6a.42.42,0,0,1-.3-.12.46.46,0,0,1-.13-.29.43.43,0,0,1,.12-.31h0a.43.43,0,0,1,.59,0,.39.39,0,0,1,.13.29.4.4,0,0,1-.11.31A.46.46,0,0,1,188,194.6Zm1.95-2.1a.44.44,0,0,1-.29-.11.42.42,0,0,1,0-.6c1.3-1.44,2.55-2.89,3.72-4.32a.43.43,0,0,1,.6-.06.44.44,0,0,1,.15.32.42.42,0,0,1-.09.27c-1.2,1.47-2.46,2.93-3.75,4.36A.41.41,0,0,1,190,192.5Z" transform="translate(-4.4 -9.29)"/><path class="cls-2" d="M193.69,188.16a.37.37,0,0,1-.26-.1.4.4,0,0,1-.16-.28.46.46,0,0,1,.1-.32c.59-.72,1.19-1.47,1.77-2.23a.44.44,0,0,1,.6-.07.43.43,0,0,1,.07.59c-.55.72-1.15,1.47-1.78,2.24h0A.46.46,0,0,1,193.69,188.16Zm5.16-6.86a.41.41,0,0,1-.24-.08.42.42,0,0,1-.18-.27.46.46,0,0,1,.07-.32h0a.45.45,0,0,1,.58-.1.43.43,0,0,1,.12.58s0,0,0,0A.44.44,0,0,1,198.85,181.3Zm1.59-2.38a.39.39,0,0,1-.23-.07.4.4,0,0,1-.18-.26.44.44,0,0,1,.06-.32c1-1.62,2-3.26,3-4.86.47-.82.94-1.66,1.39-2.5a.44.44,0,0,1,.57-.17.43.43,0,0,1,.18.58c-.45.83-.92,1.68-1.4,2.51-.93,1.63-1.94,3.28-3,4.9A.42.42,0,0,1,200.44,178.92Zm6.95-12.49a.58.58,0,0,1-.18,0,.47.47,0,0,1-.22-.24.42.42,0,0,1,0-.33h0a.43.43,0,0,1,.77.37h0A.44.44,0,0,1,207.39,166.43Zm1.18-2.61a.33.33,0,0,1-.17,0,.4.4,0,0,1-.23-.23.4.4,0,0,1,0-.32c.76-1.76,1.47-3.54,2.12-5.3a.08.08,0,0,1,0,0c.32-.88.63-1.77.93-2.65a.43.43,0,0,1,.54-.26.4.4,0,0,1,.25.21.42.42,0,0,1,0,.33c-.31.91-.63,1.82-1,2.71-.67,1.8-1.39,3.6-2.14,5.33A.43.43,0,0,1,208.57,163.82Zm4.78-13.49h-.12a.45.45,0,0,1-.26-.21.39.39,0,0,1,0-.32.42.42,0,0,1,.52-.29.43.43,0,0,1,.29.52A.41.41,0,0,1,213.35,150.33Zm.73-2.77H214a.46.46,0,0,1-.26-.19.4.4,0,0,1,0-.32c.45-1.82.87-3.69,1.24-5.57.18-.91.35-1.86.52-2.81a.42.42,0,0,1,.49-.35.43.43,0,0,1,.34.5c-.15.92-.33,1.87-.51,2.82-.37,1.88-.8,3.76-1.26,5.6h0A.43.43,0,0,1,214.08,147.56Zm2.59-14.07h0a.43.43,0,0,1-.29-.16.39.39,0,0,1-.08-.31.42.42,0,0,1,.47-.37.4.4,0,0,1,.28.16.39.39,0,0,1,.09.29v0A.43.43,0,0,1,216.67,133.49Zm.3-2.84h0a.45.45,0,0,1-.39-.47c.18-1.85.32-3.77.42-5.69.05-.9.09-1.83.12-2.85a.41.41,0,0,1,.42-.41h0a.43.43,0,0,1,.42.43c0,1-.07,2-.12,2.88-.1,1.92-.24,3.84-.42,5.71h0A.43.43,0,0,1,217,130.65Zm.59-14.3h0a.43.43,0,1,1,0-.85.41.41,0,0,1,.43.4v0A.42.42,0,0,1,217.56,116.35Zm-.06-2.87h0a.43.43,0,0,1-.43-.41c-.06-1.89-.17-3.81-.3-5.71-.07-1-.15-1.91-.24-2.85a.43.43,0,0,1,.39-.46.41.41,0,0,1,.46.38c.09,1,.17,1.93.23,2.86.14,1.9.25,3.84.31,5.75a.41.41,0,0,1-.11.3.49.49,0,0,1-.3.14Zm-1.18-14.27a.43.43,0,0,1-.43-.37.46.46,0,0,1,.09-.32.4.4,0,0,1,.28-.16.43.43,0,0,1,.48.37.43.43,0,0,1-.37.47Zm-.39-2.84a.42.42,0,0,1-.42-.36c-.27-1.82-.58-3.72-.92-5.64-.15-.82-.32-1.71-.53-2.81a.45.45,0,0,1,.06-.32.5.5,0,0,1,.27-.18.43.43,0,0,1,.5.34c.17.84.34,1.74.53,2.82.34,1.87.65,3.77.93,5.66a.44.44,0,0,1-.36.49Zm-2.65-14.06a.42.42,0,0,1-.41-.34h0a.44.44,0,0,1,0-.3.4.4,0,0,1,.27-.19.43.43,0,0,1,.51.32.44.44,0,0,1-.32.51Zm-.65-2.79a.43.43,0,0,1-.42-.32c-.44-1.81-.92-3.66-1.42-5.5,0,0,0,0,0,0-.23-.85-.49-1.75-.77-2.75a.4.4,0,0,1,0-.32.41.41,0,0,1,.26-.2.42.42,0,0,1,.52.29c.25.86.51,1.76.78,2.75h0a.06.06,0,0,1,0,0c.5,1.81,1,3.67,1.43,5.51a.44.44,0,0,1-.31.52Zm-3.88-13.78a.42.42,0,0,1-.13-.83.44.44,0,0,1,.54.28.43.43,0,0,1-.28.53ZM207.87,63a.43.43,0,0,1-.41-.29c-.57-1.74-1.2-3.56-1.87-5.41-.31-.87-.64-1.78-1-2.68a.42.42,0,0,1,0-.33.43.43,0,0,1,.24-.22.44.44,0,0,1,.55.25c.31.83.63,1.71,1,2.68v.06c.67,1.87,1.28,3.63,1.86,5.38h0a.47.47,0,0,1,0,.31A.4.4,0,0,1,208,63,.31.31,0,0,1,207.87,63Zm-4.93-13.45a.41.41,0,0,1-.39-.26s0,0,0,0a.47.47,0,0,1,0-.31.49.49,0,0,1,.24-.23.44.44,0,0,1,.55.24.4.4,0,0,1,0,.32.37.37,0,0,1-.23.23A.41.41,0,0,1,202.94,49.57Zm-1.08-2.65a.42.42,0,0,1-.39-.26c-.73-1.76-1.48-3.52-2.25-5.26v0c-.41-.92-.78-1.76-1.15-2.57a.42.42,0,0,1,.77-.35c.36.78.77,1.69,1.18,2.62.75,1.71,1.51,3.49,2.25,5.27h0a.44.44,0,0,1,0,.32.44.44,0,0,1-.4.26ZM196,33.85a.41.41,0,0,1-.37-.23h0a.42.42,0,0,1,0-.33.4.4,0,0,1,.22-.24.42.42,0,0,1,.56.2.4.4,0,0,1,0,.32.42.42,0,0,1-.22.25A.48.48,0,0,1,196,33.85Zm-1.25-2.58a.42.42,0,0,1-.38-.23c-.84-1.7-1.71-3.41-2.59-5.11l-1.34-2.52a.42.42,0,0,1,0-.33.44.44,0,0,1,.21-.25.44.44,0,0,1,.58.18l1.34,2.53c.91,1.75,1.76,3.42,2.6,5.12a.42.42,0,0,1-.38.61Zm-6.71-12.66a.42.42,0,0,1-.37-.21.43.43,0,1,1,.58.16A.38.38,0,0,1,188.06,18.61Zm-1.43-2.48a.44.44,0,0,1-.37-.21c-1-1.71-2-3.33-2.92-4.8a.4.4,0,0,1-.05-.32.42.42,0,0,1,.18-.27.44.44,0,0,1,.59.13c.95,1.5,1.94,3.13,2.93,4.83a.41.41,0,0,1-.15.58A.39.39,0,0,1,186.63,16.13Z" transform="translate(-4.4 -9.29)"/><path class="cls-2" d="M9.46,185.43a.46.46,0,0,1-.23-.06L8,184.6a.44.44,0,0,1-.19-.36.42.42,0,0,1,.19-.35l1.19-.77a.43.43,0,0,1,.46.72l-.64.4.64.41a.42.42,0,0,1,.13.59A.44.44,0,0,1,9.46,185.43Z" transform="translate(-4.4 -9.29)"/><path class="cls-2" d="M21.84,192.6a.46.46,0,0,1-.2,0c-1.75-.94-3.44-1.88-5-2.77h0a.39.39,0,0,1-.2-.25.39.39,0,0,1,0-.32A.43.43,0,0,1,17,189c1.65.93,3.33,1.86,5,2.76a.42.42,0,0,1,.18.57A.44.44,0,0,1,21.84,192.6Zm-7.49-4.2a.39.39,0,0,1-.21-.06.41.41,0,0,1-.15-.58.43.43,0,0,1,.57-.15h0a.42.42,0,0,1,.15.58A.44.44,0,0,1,14.35,188.4Z" transform="translate(-4.4 -9.29)"/><path class="cls-2" d="M116.35,219.29h-1.86a.43.43,0,0,1-.42-.43.42.42,0,0,1,.43-.42c1.8,0,3.83,0,5.7,0,.91,0,1.84-.06,2.85-.12a.44.44,0,0,1,.45.41.42.42,0,0,1-.41.44c-.87,0-1.8.09-2.86.12C118.92,219.28,117.61,219.29,116.35,219.29Zm-4.71-.08h0a.43.43,0,0,1-.3-.13.49.49,0,0,1-.11-.31.42.42,0,0,1,.42-.41h0a.44.44,0,0,1,.3.14.38.38,0,0,1,.11.3A.43.43,0,0,1,111.64,219.21Zm-5.71-.3h0c-1-.08-1.92-.15-2.84-.24h0c-1.87-.18-3.78-.38-5.66-.63a.43.43,0,0,1-.37-.47.44.44,0,0,1,.48-.37c1.89.24,3.8.45,5.67.63l2.84.23a.42.42,0,0,1,.39.45A.43.43,0,0,1,105.93,218.91Zm22.88-.21h0a.42.42,0,0,1-.42-.38.41.41,0,0,1,.38-.46.42.42,0,0,1,.46.38.42.42,0,0,1-.38.46Zm2.81-.31a.42.42,0,0,1-.42-.37.39.39,0,0,1,.09-.31.4.4,0,0,1,.28-.16c1.88-.23,3.77-.5,5.64-.82l2.8-.51a.41.41,0,0,1,.5.33.42.42,0,0,1-.33.5c-.9.18-1.82.35-2.83.52-1.87.32-3.79.59-5.68.82h0Zm-37.05-.73h-.06a.46.46,0,0,1-.29-.17.42.42,0,0,1-.07-.31.44.44,0,0,1,.48-.37.46.46,0,0,1,.28.17.5.5,0,0,1,.08.32A.43.43,0,0,1,94.57,217.66Zm-5.66-.92h-.07c-.94-.17-1.89-.34-2.82-.53-1.87-.36-3.76-.76-5.61-1.19a.43.43,0,0,1-.32-.51.43.43,0,0,1,.51-.32c1.81.42,3.69.82,5.59,1.19l2.8.53a.43.43,0,0,1,.35.49A.44.44,0,0,1,88.91,216.74Zm56.76-.93a.43.43,0,0,1-.41-.32.44.44,0,0,1,.31-.52.45.45,0,0,1,.52.31.43.43,0,0,1-.31.52h-.11Zm2.77-.73a.43.43,0,0,1-.41-.31.4.4,0,0,1,0-.32.44.44,0,0,1,.25-.21c1.84-.51,3.68-1.08,5.45-1.68.9-.3,1.8-.62,2.68-.94a.43.43,0,0,1,.55.25.42.42,0,0,1-.25.54c-.86.32-1.77.64-2.71,1-1.78.6-3.62,1.17-5.48,1.69h0A.22.22,0,0,1,148.44,215.08Zm-70.72-.71h-.1a.43.43,0,1,1,.2-.83.41.41,0,0,1,.31.51A.44.44,0,0,1,77.72,214.37Zm-5.54-1.44h-.12l-2.75-.78h0c-1.77-.51-3.6-1.07-5.46-1.66h0a.44.44,0,0,1-.28-.54.43.43,0,0,1,.54-.27c1.82.57,3.66,1.13,5.47,1.65l2.75.78a.41.41,0,0,1,.29.52A.41.41,0,0,1,72.18,212.93Zm89.73-2.62a.42.42,0,0,1-.39-.26.44.44,0,0,1,.22-.56h0a.43.43,0,0,1,.32.79h0A.41.41,0,0,1,161.91,210.31Zm-100.69-.7h-.14a.43.43,0,0,1-.27-.54.46.46,0,0,1,.54-.27.44.44,0,0,1,.27.54A.43.43,0,0,1,61.22,209.61Zm103.3-.47a.43.43,0,0,1-.38-.25.42.42,0,0,1,0-.33.41.41,0,0,1,.22-.23c1.71-.8,3.42-1.66,5.07-2.55h0c.8-.43,1.64-.89,2.5-1.38a.42.42,0,0,1,.42.73c-.86.49-1.7,1-2.51,1.4-1.69.9-3.42,1.77-5.14,2.57A.41.41,0,0,1,164.52,209.14ZM55.8,207.74a.36.36,0,0,1-.14,0l-2.69-1c-1.81-.67-3.61-1.37-5.35-2.06a.49.49,0,0,1-.24-.23.47.47,0,0,1,0-.33.44.44,0,0,1,.55-.24c1.82.73,3.61,1.42,5.34,2.07l2.68,1a.43.43,0,0,1,.26.54A.43.43,0,0,1,55.8,207.74Zm-10.68-4.12a.45.45,0,0,1-.16,0,.43.43,0,0,1,.33-.79.43.43,0,0,1,.23.55A.44.44,0,0,1,45.12,203.62ZM177,202.2a.41.41,0,0,1-.36-.2.44.44,0,0,1-.06-.32.42.42,0,0,1,.19-.26.42.42,0,1,1,.47.7h0A.48.48,0,0,1,177,202.2Zm-137.16-.83a.33.33,0,0,1-.17,0c-1-.42-1.91-.85-2.62-1.17-1.73-.78-3.47-1.59-5.2-2.42a.43.43,0,0,1-.2-.57.44.44,0,0,1,.57-.2c1.82.87,3.51,1.67,5.18,2.42l0,0L40,200.55a.45.45,0,0,1,.22.57A.43.43,0,0,1,39.86,201.37Zm139.53-.76a.42.42,0,0,1-.35-.19.4.4,0,0,1-.06-.32.41.41,0,0,1,.17-.27c1.55-1.06,3.1-2.2,4.61-3.36l0,0c.77-.6,1.49-1.17,2.2-1.75a.43.43,0,1,1,.54.66c-.75.61-1.5,1.21-2.25,1.78-1.52,1.17-3.08,2.31-4.64,3.39A.46.46,0,0,1,179.39,200.61ZM29.48,196.53a.45.45,0,0,1-.19-.05.42.42,0,0,1,.37-.76h0a.42.42,0,0,1,.19.57A.44.44,0,0,1,29.48,196.53Zm-5.11-2.59a.41.41,0,0,1-.19-.05l-2.53-1.34h0a.51.51,0,0,1-.21-.25.43.43,0,0,1,.61-.5l2.53,1.33a.43.43,0,0,1-.2.81Zm166.23-2.21a.43.43,0,0,1-.32-.14.44.44,0,0,1,0-.6.43.43,0,0,1,.6,0,.38.38,0,0,1,.11.3.39.39,0,0,1-.14.3A.43.43,0,0,1,190.6,191.73Zm2.1-1.95a.4.4,0,0,1-.31-.13.42.42,0,0,1-.12-.3.42.42,0,0,1,.13-.3c1.36-1.29,2.71-2.63,4-4l0,0,0,0a.45.45,0,0,1,.6,0,.43.43,0,0,1,0,.6s0,0,0,0h0c-1.32,1.38-2.69,2.75-4.06,4.06A.44.44,0,0,1,192.7,189.78Z" transform="translate(-4.4 -9.29)"/><path class="cls-2" d="M196.79,185.7a.4.4,0,0,1-.29-.12.43.43,0,0,1,0-.6c.24-.24.47-.49.7-.74l-.7-.74a.42.42,0,1,1,.62-.58c.32.34.65.68,1,1a.41.41,0,0,1,0,.58l-1,1A.43.43,0,0,1,196.79,185.7Z" transform="translate(-4.4 -9.29)"/><path class="cls-2" d="M192.74,179.59a.38.38,0,0,1-.29-.12.41.41,0,0,1,0-.6.43.43,0,0,1,.6,0,0,0,0,0,0,0,0,.4.4,0,0,1,.12.29.44.44,0,0,1-.11.31A.48.48,0,0,1,192.74,179.59Zm-2.1-2a.44.44,0,0,1-.29-.11c-1.4-1.27-2.85-2.52-4.32-3.71a.44.44,0,0,1-.16-.33.43.43,0,0,1,.1-.27.44.44,0,0,1,.6-.07c1.48,1.22,3,2.48,4.36,3.75h0a.42.42,0,0,1,0,.59A.45.45,0,0,1,190.64,177.64Z" transform="translate(-4.4 -9.29)"/><path class="cls-2" d="M9.46,183.9a.42.42,0,0,1-.36-.19.48.48,0,0,1-.06-.33.42.42,0,0,1,.19-.26c1-.62,2.59-1.62,4.83-2.93a.44.44,0,0,1,.58.15.42.42,0,0,1-.15.58c-2.39,1.4-4,2.43-4.81,2.92A.4.4,0,0,1,9.46,183.9Zm7.3-4.36a.44.44,0,0,1-.38-.21.47.47,0,0,1,0-.33.44.44,0,0,1,.21-.25.43.43,0,0,1,.42.74A.54.54,0,0,1,16.76,179.54Zm5-2.77a.4.4,0,0,1-.37-.22.43.43,0,0,1,.17-.58c.67-.36,1.57-.84,2.53-1.33h0l0,0c1.61-.85,3.32-1.71,5.07-2.58a.44.44,0,0,1,.57.19.42.42,0,0,1-.19.57c-1.67.83-3.33,1.67-5.08,2.58h0c-.91.47-1.75.92-2.54,1.34A.46.46,0,0,1,21.77,176.77Zm164.53-2.86a.44.44,0,0,1-.27-.09c-.73-.6-1.48-1.19-2.23-1.78a.4.4,0,0,1-.16-.28.39.39,0,0,1,.08-.31.44.44,0,0,1,.6-.08c.69.54,1.43,1.12,2.25,1.79a.39.39,0,0,1,.15.28.41.41,0,0,1-.09.31A.42.42,0,0,1,186.3,173.91ZM32,171.58a.42.42,0,0,1-.39-.24.4.4,0,0,1,0-.32.37.37,0,0,1,.2-.24h0a.44.44,0,0,1,.57.2.43.43,0,0,1-.2.57h0A.33.33,0,0,1,32,171.58Zm5.19-2.42a.43.43,0,0,1-.18-.82l2.62-1.17c1.71-.75,3.48-1.5,5.27-2.24,0,0,0,0,0,0a.42.42,0,0,1,.55.23.36.36,0,0,1,0,.32.42.42,0,0,1-.23.24c-1.66.69-3.38,1.42-5.23,2.23h0l-2.62,1.17A.47.47,0,0,1,37.18,169.16Zm142.26-.41a.4.4,0,0,1-.24-.07.42.42,0,0,1-.11-.59.42.42,0,1,1,.7.48A.41.41,0,0,1,179.44,168.75Zm-2.38-1.59a.39.39,0,0,1-.23-.07c-1.56-1-3.18-2-4.83-3h0c-.76-.44-1.58-.89-2.49-1.39a.41.41,0,0,1-.17-.57.44.44,0,0,1,.57-.18c.83.45,1.67.92,2.5,1.39h0l0,0c1.67,1,3.31,2,4.87,3a.44.44,0,0,1,.19.27.45.45,0,0,1-.06.32A.42.42,0,0,1,177.06,167.16Zm-129.35-2.5a.42.42,0,0,1-.39-.27.44.44,0,0,1,0-.32.43.43,0,0,1,.22-.22h0a.43.43,0,0,1,.56.24.42.42,0,0,1-.24.55h0A.32.32,0,0,1,47.71,164.66Zm5.35-2.07a.43.43,0,0,1-.4-.27.42.42,0,0,1,0-.33.43.43,0,0,1,.24-.22l2.69-1c1.9-.68,3.68-1.29,5.42-1.87a.43.43,0,0,1,.54.27.44.44,0,0,1-.27.54c-1.73.57-3.55,1.2-5.4,1.86l-2.69,1Zm111.51-2.38a.34.34,0,0,1-.18,0,.38.38,0,0,1-.22-.24.4.4,0,0,1,0-.32.43.43,0,0,1,.57-.2.42.42,0,0,1-.18.8ZM162,159a.33.33,0,0,1-.17,0c-1.71-.74-3.49-1.45-5.29-2.12-.92-.34-1.83-.66-2.69-.95a.45.45,0,0,1-.25-.22.4.4,0,0,1,0-.32.43.43,0,0,1,.54-.27q1.36.47,2.7,1h0l0,0c1.79.66,3.57,1.37,5.3,2.12h0a.43.43,0,0,1,.21.23.4.4,0,0,1,0,.32A.42.42,0,0,1,162,159Zm-98.08-.19a.43.43,0,0,1-.41-.3.45.45,0,0,1,0-.32.44.44,0,0,1,.25-.21.43.43,0,0,1,.53.28.42.42,0,0,1-.27.53h-.13Zm5.48-1.66a.43.43,0,0,1-.41-.31.4.4,0,0,1,0-.32.39.39,0,0,1,.25-.2c.92-.27,1.85-.53,2.76-.78,1.87-.51,3.73-1,5.56-1.44h0a.42.42,0,0,1,.49.31.41.41,0,0,1-.31.51c-1.83.45-3.69.93-5.53,1.44h0c-.86.23-1.75.48-2.72.76Zm11.09-2.87A.44.44,0,0,1,80,154a.43.43,0,0,1,.06-.33.4.4,0,0,1,.26-.18.43.43,0,0,1,.2.83h-.1Zm68-.06h-.12a.43.43,0,0,1-.29-.52.44.44,0,0,1,.52-.3s0,0,0,0a.41.41,0,0,1,.29.52A.43.43,0,0,1,148.47,154.26Zm-2.76-.73-.11,0c-1.82-.45-3.69-.87-5.55-1.24h0c-.92-.18-1.86-.36-2.8-.52a.43.43,0,0,1-.35-.49.42.42,0,0,1,.49-.34c.92.15,1.87.33,2.83.52,1.89.37,3.78.79,5.61,1.25a.42.42,0,0,1,.26.19.45.45,0,0,1,.05.32A.44.44,0,0,1,145.71,153.53Zm-59.66-.4a.43.43,0,0,1-.42-.34.44.44,0,0,1,.06-.32.41.41,0,0,1,.27-.18c.88-.18,1.79-.35,2.81-.53h.06c1.82-.33,3.71-.64,5.62-.92a.43.43,0,0,1,.48.36.42.42,0,0,1-.36.48c-1.88.28-3.77.59-5.64.92l-2.8.53Zm11.3-1.84a.43.43,0,0,1-.34-.69.4.4,0,0,1,.28-.16.43.43,0,1,1,.11.85Zm34.28-.35h0a.4.4,0,0,1-.28-.16.44.44,0,0,1-.09-.31.43.43,0,0,1,.48-.37h0a.42.42,0,0,1,.27.16.44.44,0,0,1,.09.31A.43.43,0,0,1,131.63,150.94ZM103,150.66a.43.43,0,0,1-.43-.39.43.43,0,0,1,.39-.46c.93-.09,1.9-.16,2.86-.23,1.94-.15,3.87-.25,5.74-.31h0a.43.43,0,0,1,0,.85c-1.84.06-3.76.16-5.71.3l-2.84.24Zm25.75,0h0c-1.84-.17-3.76-.32-5.69-.42l-2.85-.11a.42.42,0,0,1-.3-.13.43.43,0,0,1-.12-.31.42.42,0,0,1,.43-.41h0c1,0,1.94.07,2.87.12,2,.1,3.88.24,5.73.42a.43.43,0,0,1,0,.85Zm-14.3-.58h0a.44.44,0,0,1-.42-.42.42.42,0,0,1,.12-.3.44.44,0,0,1,.73.29.42.42,0,0,1-.42.43Z" transform="translate(-4.4 -9.29)"/><path class="cls-2" d="M41.52,79.57a.41.41,0,0,1-.39-.25L40.57,78a.43.43,0,0,1,0-.4.38.38,0,0,1,.36-.19l1.42,0a.42.42,0,0,1,.41.44.41.41,0,0,1-.42.41h0l-.75,0,.3.7a.44.44,0,0,1-.22.56Z" transform="translate(-4.4 -9.29)"/><path class="cls-2" d="M47.74,92.45a.44.44,0,0,1-.38-.23c-.91-1.74-1.78-3.45-2.59-5.1h0a.4.4,0,0,1,0-.32.42.42,0,0,1,.22-.25.44.44,0,0,1,.57.19c.81,1.65,1.68,3.36,2.59,5.1a.45.45,0,0,1,0,.2.42.42,0,0,1-.22.37A.46.46,0,0,1,47.74,92.45ZM43.9,84.77a.43.43,0,0,1-.39-.24h0a.44.44,0,0,1,.2-.56.44.44,0,0,1,.57.21.42.42,0,0,1-.2.56A.39.39,0,0,1,43.9,84.77Z" transform="translate(-4.4 -9.29)"/><path class="cls-2" d="M173.67,187.54h0a.42.42,0,0,1-.3-.72.43.43,0,0,1,.3-.13c1.89,0,3.81-.08,5.7-.2,1-.06,1.95-.13,2.84-.21a.42.42,0,0,1,.46.39.43.43,0,0,1-.39.46c-1,.08-1.93.16-2.86.21C177.46,187.46,175.53,187.53,173.67,187.54Zm-2.87,0h0a.45.45,0,0,1-.31-.14.46.46,0,0,1-.11-.3.41.41,0,0,1,.42-.41.43.43,0,0,1,.43.43A.44.44,0,0,1,170.8,187.53Zm-5.71-.27h0c-.94-.07-1.9-.16-2.86-.26-1.93-.2-3.84-.45-5.68-.74h0a.43.43,0,0,1-.36-.49.44.44,0,0,1,.49-.36c1.88.3,3.78.55,5.64.75,1,.1,1.93.18,2.84.25a.42.42,0,0,1,.39.45A.43.43,0,0,1,165.09,187.26Zm22.83-.78a.43.43,0,0,1-.42-.37.39.39,0,0,1,.08-.31.43.43,0,0,1,.26-.16h0a.43.43,0,0,1,.48.36.42.42,0,0,1-.36.48Zm2.83-.43a.42.42,0,0,1-.42-.36.42.42,0,0,1,.35-.49c1.82-.3,3.71-.66,5.6-1.06a.43.43,0,0,1,.51.32.45.45,0,0,1-.33.51c-1.9.4-3.79.76-5.63,1.07h-.08Zm-37-.28h-.08a.41.41,0,0,1-.34-.49.41.41,0,0,1,.49-.34h0a.44.44,0,0,1,.27.17.45.45,0,0,1,.06.32A.43.43,0,0,1,153.76,185.77Zm-5.59-1.22h-.11c-.91-.23-1.85-.47-2.77-.73-1.81-.49-3.66-1.06-5.49-1.67a.43.43,0,0,1,.27-.81c1.8.61,3.63,1.17,5.44,1.67,1,.27,1.91.51,2.76.71a.43.43,0,0,1,.31.52A.42.42,0,0,1,148.17,184.55Zm-10.94-3.34-.14,0a.42.42,0,1,1,.28-.8h0a.43.43,0,0,1,.24.22.4.4,0,0,1,0,.32A.42.42,0,0,1,137.23,181.21Zm-5.32-2.1a.51.51,0,0,1-.17,0c-.94-.4-1.8-.78-2.62-1.15-1.72-.78-3.45-1.63-5.17-2.51h0a.4.4,0,0,1-.2-.24.44.44,0,0,1,0-.32.42.42,0,0,1,.57-.19c1.7.88,3.43,1.72,5.13,2.49.95.43,1.8.8,2.61,1.15a.43.43,0,0,1,.23.23.43.43,0,0,1-.4.58Zm-10.29-5a.39.39,0,0,1-.21-.06.39.39,0,0,1-.2-.25.44.44,0,0,1,0-.32.44.44,0,0,1,.58-.17.43.43,0,0,1,.17.58A.43.43,0,0,1,121.62,174.13Zm-5-2.86a.4.4,0,0,1-.22-.06c-.89-.54-1.68-1-2.43-1.51h0l0,0c-1.57-1-3.16-2.06-4.73-3.16a0,0,0,0,1,0,0,.44.44,0,0,1-.17-.27.41.41,0,0,1,.07-.32.44.44,0,0,1,.59-.1c1.53,1.07,3.12,2.13,4.71,3.14l0,0c.79.5,1.6,1,2.42,1.5a.46.46,0,0,1,.19.26.42.42,0,0,1,0,.33A.45.45,0,0,1,116.66,171.27Zm-9.51-6.34a.44.44,0,0,1-.25-.08h0a.4.4,0,0,1-.16-.27.42.42,0,0,1,.07-.31.44.44,0,0,1,.59-.1h0a.43.43,0,0,1,.09.6A.42.42,0,0,1,107.15,164.93Zm-4.56-3.46a.44.44,0,0,1-.27-.09l-2.23-1.8c-1.46-1.2-2.93-2.45-4.37-3.72a.38.38,0,0,1-.14-.29.42.42,0,0,1,.1-.31.44.44,0,0,1,.6,0c1.44,1.27,2.9,2.51,4.35,3.7.85.7,1.56,1.27,2.22,1.79a.43.43,0,0,1-.26.76Zm-8.72-7.42a.41.41,0,0,1-.28-.11.42.42,0,0,1,0-.6.42.42,0,1,1,.63.57A.45.45,0,0,1,93.87,154.05Zm-4.16-3.93a.38.38,0,0,1-.29-.12c-.67-.65-1.33-1.31-2-2-1.34-1.35-2.67-2.74-4-4.14a.38.38,0,0,1-.11-.3.4.4,0,0,1,.13-.3.43.43,0,0,1,.6,0c1.29,1.38,2.62,2.77,4,4.12l2,2a.41.41,0,0,1,.12.3.41.41,0,0,1-.11.3A.48.48,0,0,1,89.71,150.12Zm-7.94-8.26a.41.41,0,0,1-.31-.14.38.38,0,0,1-.11-.3.41.41,0,0,1,.14-.3.44.44,0,0,1,.59,0h0a.43.43,0,0,1,0,.6A.39.39,0,0,1,81.77,141.86ZM78,137.56a.43.43,0,0,1-.32-.14l-1.85-2.2c-1.19-1.43-2.41-2.93-3.61-4.46a.44.44,0,0,1-.09-.31.41.41,0,0,1,.16-.29.45.45,0,0,1,.6.07c1.16,1.49,2.36,3,3.57,4.42l0,0c.56.68,1.16,1.39,1.84,2.19a.43.43,0,0,1,0,.6A.42.42,0,0,1,78,137.56Zm-7.21-8.9a.43.43,0,0,1-.33-.15h0a.41.41,0,0,1,.08-.6.43.43,0,0,1,.59.08h0a.44.44,0,0,1-.09.59A.45.45,0,0,1,70.78,128.66Zm-3.43-4.58a.42.42,0,0,1-.34-.18l-1.68-2.33c-1.08-1.52-2.17-3.1-3.26-4.71h0a.44.44,0,0,1-.06-.32.45.45,0,0,1,.18-.27.44.44,0,0,1,.59.12c1,1.55,2.15,3.14,3.26,4.7l1.66,2.32a.39.39,0,0,1,.08.31.35.35,0,0,1-.17.28A.38.38,0,0,1,67.35,124.08Zm-6.52-9.42a.42.42,0,0,1-.36-.19h0a.42.42,0,0,1-.06-.31.42.42,0,0,1,.18-.27.45.45,0,0,1,.59.11h0a.42.42,0,0,1-.12.59A.39.39,0,0,1,60.83,114.66Zm-3.1-4.82a.41.41,0,0,1-.36-.2c-.51-.81-1-1.63-1.51-2.44-1-1.62-2-3.28-2.94-4.92h0a.42.42,0,0,1,.15-.58.44.44,0,0,1,.58.15c.94,1.61,1.92,3.27,2.93,4.92l1.51,2.43a.4.4,0,0,1,0,.32.43.43,0,0,1-.19.27A.4.4,0,0,1,57.73,109.84ZM51.86,100a.43.43,0,0,1-.41-.54.39.39,0,0,1,.2-.25.42.42,0,0,1,.57.15.43.43,0,0,1,.05.33.4.4,0,0,1-.21.25A.36.36,0,0,1,51.86,100Zm-2.78-5a.41.41,0,0,1-.37-.22c-.53-1-1-1.92-1.35-2.54h0a.42.42,0,0,1,0-.31.44.44,0,0,1,.21-.25.44.44,0,0,1,.58.18c.44.85.89,1.7,1.34,2.52a.43.43,0,0,1-.17.58A.41.41,0,0,1,49.08,95Z" transform="translate(-4.4 -9.29)"/><path class="cls-2" d="M196.38,185a.44.44,0,0,1-.42-.34.43.43,0,0,1,.33-.51l1-.21c-.05-.34-.11-.68-.16-1a.43.43,0,0,1,.35-.49.43.43,0,0,1,.49.35c.08.47.15.94.22,1.41a.42.42,0,0,1-.32.48l-1.39.31Z" transform="translate(-4.4 -9.29)"/><path class="cls-2" d="M196.46,177.64a.43.43,0,0,1-.42-.33v0a.4.4,0,0,1,.06-.3.44.44,0,0,1,.27-.19.43.43,0,0,1,.5.32h0a.42.42,0,0,1-.32.5Zm-.65-2.79a.43.43,0,0,1-.41-.32c-.45-1.84-1-3.7-1.49-5.5a.59.59,0,0,1,0-.13.42.42,0,0,1,.31-.4.43.43,0,0,1,.53.28c.53,1.79,1,3.65,1.5,5.55a.43.43,0,0,1-.32.51Z" transform="translate(-4.4 -9.29)"/><path class="cls-2" d="M194.32,169.33a.42.42,0,0,1-.41-.3c-.27-.91-.56-1.83-.85-2.72a.42.42,0,0,1,0-.33.4.4,0,0,1,.25-.21.44.44,0,0,1,.54.27c.3.91.58,1.83.85,2.73h0a.43.43,0,0,1-.29.53A.25.25,0,0,1,194.32,169.33Zm-2.78-8.11a.41.41,0,0,1-.39-.26,0,0,0,0,1,0,0,.42.42,0,0,1,0-.33.45.45,0,0,1,.23-.22.44.44,0,0,1,.56.24v0a.43.43,0,0,1-.25.53A.4.4,0,0,1,191.54,161.22Zm-1.07-2.65a.44.44,0,0,1-.4-.26c-.74-1.77-1.53-3.51-2.34-5.18l0,0c-.43-.87-.85-1.71-1.27-2.5a.44.44,0,0,1,.18-.57.44.44,0,0,1,.58.18c.48.93.91,1.77,1.29,2.56.84,1.71,1.63,3.47,2.37,5.23h0a.44.44,0,0,1-.23.55A.45.45,0,0,1,190.47,158.57ZM184,145.82a.43.43,0,0,1-.36-.2h0a.4.4,0,0,1,0-.32.38.38,0,0,1,.19-.26.42.42,0,0,1,.58.15h0a.45.45,0,0,1,0,.32.43.43,0,0,1-.2.26A.39.39,0,0,1,184,145.82Zm-1.5-2.44a.41.41,0,0,1-.36-.2c-1-1.58-2.07-3.16-3.18-4.72-.54-.76-1.11-1.53-1.68-2.29a.45.45,0,0,1-.09-.32.46.46,0,0,1,.17-.28.44.44,0,0,1,.59.08c.62.82,1.17,1.57,1.7,2.31h0v0c1.12,1.56,2.19,3.15,3.2,4.75a.42.42,0,0,1,.06.31.41.41,0,0,1-.19.27A.39.39,0,0,1,182.54,143.38Zm-8.46-11.51a.44.44,0,0,1-.32-.15h0a.43.43,0,0,1-.09-.3.4.4,0,0,1,.15-.29.45.45,0,0,1,.6,0,.43.43,0,0,1,0,.6A.48.48,0,0,1,174.08,131.87Zm-1.87-2.16a.43.43,0,0,1-.32-.14c-1.27-1.42-2.58-2.82-3.9-4.16l-2-2a.42.42,0,0,1-.13-.3.42.42,0,0,1,.12-.3.43.43,0,0,1,.6,0c.77.74,1.43,1.4,2,2h0l0,0c1.35,1.37,2.67,2.77,3.9,4.16a.43.43,0,0,1-.31.71Zm-10.18-10a.43.43,0,0,1-.27-.1h0a.42.42,0,0,1-.14-.29.38.38,0,0,1,.11-.3.42.42,0,0,1,.74.24.39.39,0,0,1-.11.31A.39.39,0,0,1,162,119.67Zm-2.18-1.86a.46.46,0,0,1-.27-.09c-1.42-1.18-2.92-2.38-4.47-3.55-.77-.58-1.55-1.15-2.29-1.69a.43.43,0,0,1-.1-.59.44.44,0,0,1,.6-.1c.8.58,1.57,1.15,2.29,1.7h0l0,0c1.5,1.14,3,2.33,4.47,3.54h0a.39.39,0,0,1,.15.28.45.45,0,0,1-.1.31A.41.41,0,0,1,159.85,117.81Zm-11.49-8.5a.48.48,0,0,1-.24-.07.45.45,0,0,1-.18-.27.43.43,0,0,1,.64-.45,0,0,0,0,1,0,0,.43.43,0,0,1-.23.78ZM146,107.76a.41.41,0,0,1-.22-.07c-1.56-1-3.16-2-4.89-3-.87-.5-1.68-1-2.49-1.4a.43.43,0,0,1-.2-.26.4.4,0,0,1,0-.32.43.43,0,0,1,.58-.17l2.49,1.41c1.66,1,3.31,2,4.92,3a.44.44,0,0,1,.19.27.45.45,0,0,1-.06.32A.43.43,0,0,1,146,107.76Zm-12.45-7.05a.39.39,0,0,1-.18,0s0,0,0,0a.41.41,0,0,1-.19-.57.42.42,0,0,1,.57-.18.39.39,0,0,1,.21.24.42.42,0,0,1,0,.33A.44.44,0,0,1,133.5,100.71Zm-2.57-1.27a.53.53,0,0,1-.18,0c-1.68-.82-3.42-1.63-5.18-2.41-.82-.37-1.68-.74-2.62-1.14a.42.42,0,0,1-.23-.24.42.42,0,0,1,.56-.55l2.63,1.15c1.77.79,3.52,1.6,5.21,2.42a.43.43,0,0,1,.2.57A.46.46,0,0,1,130.93,99.44Zm-13.12-5.72a.4.4,0,0,1-.15,0,.43.43,0,0,1-.25-.55.44.44,0,0,1,.56-.24.43.43,0,0,1,.24.55A.45.45,0,0,1,117.81,93.72Zm-2.68-1a.32.32,0,0,1-.14,0c-1.78-.66-3.59-1.31-5.39-1.92l-2.71-.91a.43.43,0,0,1-.27-.54.44.44,0,0,1,.54-.27l2.72.91c1.8.61,3.62,1.26,5.41,1.93a.43.43,0,0,1-.16.83Zm-13.58-4.54-.12,0a.42.42,0,0,1-.28-.53.42.42,0,0,1,.53-.28.41.41,0,0,1,.28.52A.42.42,0,0,1,101.55,88.16Zm-2.75-.8-.11,0c-1.78-.5-3.59-1-5.53-1.49l-2.77-.69a.46.46,0,0,1-.26-.19.4.4,0,0,1,0-.32.43.43,0,0,1,.51-.32l2.79.7c1.88.48,3.75,1,5.54,1.5h0a.4.4,0,0,1,.24.2.4.4,0,0,1,0,.32A.43.43,0,0,1,98.8,87.36ZM84.91,83.88h-.1A.43.43,0,0,1,85,83a.4.4,0,0,1,.26.18.39.39,0,0,1,.06.33A.42.42,0,0,1,84.91,83.88Zm-2.81-.6H82c-1.89-.39-3.78-.76-5.62-1.1l-2.81-.5a.41.41,0,0,1-.28-.17.41.41,0,0,1-.07-.32.42.42,0,0,1,.49-.34l2.83.5c1.86.34,3.75.71,5.62,1.1h0a.42.42,0,0,1-.09.84ZM68,80.77h-.06a.43.43,0,0,1-.36-.48.44.44,0,0,1,.49-.36.44.44,0,0,1,.36.49A.45.45,0,0,1,68,80.77Zm-2.83-.41H65.1c-1.93-.27-3.84-.51-5.68-.73l-2.85-.31a.43.43,0,0,1-.38-.47.45.45,0,0,1,.47-.38l2.85.32c1.86.21,3.78.46,5.71.72a.46.46,0,0,1,.28.17.48.48,0,0,1,.08.31A.43.43,0,0,1,65.16,80.36ZM50.9,78.8h0a.4.4,0,0,1-.29-.14.45.45,0,0,1-.1-.31.42.42,0,0,1,.46-.39.43.43,0,0,1,.29.15.42.42,0,0,1,.1.31A.43.43,0,0,1,50.9,78.8ZM48,78.59h0c-2.79-.19-4.73-.26-5.64-.29a.43.43,0,1,1,0-.85h0c1.77.06,3.68.16,5.66.29h0a.4.4,0,0,1,.29.14.45.45,0,0,1,.11.31A.44.44,0,0,1,48,78.59Z" transform="translate(-4.4 -9.29)"/><path class="cls-2" d="M357.68,185.43a.44.44,0,0,1-.36-.19.44.44,0,0,1,.13-.59l.64-.41-.64-.4a.44.44,0,0,1-.13-.59.42.42,0,0,1,.59-.13l1.19.77a.42.42,0,0,1,.19.35.44.44,0,0,1-.19.36l-1.19.77A.46.46,0,0,1,357.68,185.43Z" transform="translate(-4.4 -9.29)"/><path class="cls-2" d="M345.3,192.6a.43.43,0,0,1-.41-.55.4.4,0,0,1,.21-.25c1.66-.9,3.34-1.82,5-2.76a.43.43,0,0,1,.58.16.44.44,0,0,1-.16.58c-1.7,1-3.34,1.86-5,2.77A.46.46,0,0,1,345.3,192.6Zm7.49-4.2a.44.44,0,0,1-.37-.21.42.42,0,0,1,.15-.58h0a.44.44,0,0,1,.58.15.43.43,0,0,1-.14.57h0A.43.43,0,0,1,352.79,188.4Z" transform="translate(-4.4 -9.29)"/><path class="cls-2" d="M250.79,219.29c-1.32,0-2.62,0-3.88,0-1,0-1.92-.07-2.86-.12a.39.39,0,0,1-.3-.14.46.46,0,0,1-.11-.3.44.44,0,0,1,.43-.41h0l2.85.12c1.88.05,4,.07,5.7,0a.43.43,0,0,1,0,.85Zm4.73-.08h0a.42.42,0,0,1-.43-.41.38.38,0,0,1,.11-.3.44.44,0,0,1,.3-.14h0a.42.42,0,0,1,.42.41.43.43,0,0,1-.41.44Zm5.69-.3a.43.43,0,0,1-.42-.4.45.45,0,0,1,.1-.31.47.47,0,0,1,.3-.14c1-.07,1.93-.15,2.83-.24,1.87-.17,3.77-.38,5.67-.62a.44.44,0,0,1,.48.37.44.44,0,0,1-.09.31.4.4,0,0,1-.28.16c-1.91.25-3.82.46-5.66.63h0c-.93.09-1.89.16-2.85.23Zm-22.85-.21h0a.41.41,0,0,1-.29-.15.44.44,0,0,1-.09-.31.42.42,0,0,1,.46-.38h0a.39.39,0,0,1,.27.15.38.38,0,0,1,.09.31A.42.42,0,0,1,238.36,218.7Zm-2.84-.31h-.05c-1.95-.23-3.85-.51-5.67-.82v0c-1-.17-1.92-.34-2.82-.52a.43.43,0,0,1-.34-.5.42.42,0,0,1,.5-.33c1,.19,1.92.36,2.8.51h0c1.8.31,3.69.58,5.62.82a.42.42,0,0,1,0,.84Zm37.06-.73a.43.43,0,0,1-.35-.68.46.46,0,0,1,.28-.17.42.42,0,0,1,.48.36.42.42,0,0,1-.35.48h-.06Zm5.64-.92a.42.42,0,0,1-.41-.35.41.41,0,0,1,.07-.32.41.41,0,0,1,.27-.17l2.8-.53c1.86-.37,3.74-.76,5.58-1.18h0a.43.43,0,0,1,.51.32.43.43,0,0,1-.32.51c-1.87.43-3.75.83-5.61,1.19l-2.82.54Zm-56.76-.93h-.1a0,0,0,0,1,0,0,.43.43,0,0,1-.25-.19.42.42,0,0,1,.46-.63h0a.43.43,0,0,1,.26.2.4.4,0,0,1,0,.32A.43.43,0,0,1,221.46,215.81Zm-2.75-.73h-.12c-1.87-.53-3.72-1.1-5.49-1.7-.89-.3-1.8-.62-2.71-1a.43.43,0,0,1-.24-.22.43.43,0,0,1,.54-.57c.9.33,1.8.65,2.68.95,1.76.59,3.59,1.16,5.45,1.68a.42.42,0,0,1-.11.83Zm70.71-.72A.42.42,0,0,1,289,214a.41.41,0,0,1,.31-.51.43.43,0,1,1,.2.83h-.1Zm5.55-1.43a.42.42,0,0,1-.41-.31.41.41,0,0,1,.29-.52c1-.28,1.91-.53,2.75-.78,1.78-.51,3.62-1.07,5.47-1.66a.44.44,0,0,1,.54.28.47.47,0,0,1,0,.33.44.44,0,0,1-.25.21c-1.87.59-3.71,1.15-5.49,1.66h0l-2.74.77Zm-89.74-2.62a.45.45,0,0,1-.16,0h0a.42.42,0,0,1-.23-.24.4.4,0,0,1,0-.32.43.43,0,0,1,.56-.22.42.42,0,0,1-.17.81Zm100.69-.7a.43.43,0,0,1-.4-.29.42.42,0,0,1,.25-.53h0a.45.45,0,0,1,.54.27.47.47,0,0,1,0,.33.45.45,0,0,1-.24.21h0Zm-103.3-.47a.58.58,0,0,1-.18,0c-1.7-.79-3.43-1.66-5.14-2.58l0,0c-.78-.42-1.59-.87-2.48-1.37a.43.43,0,0,1-.2-.26.4.4,0,0,1,0-.32.42.42,0,0,1,.58-.16c.87.5,1.68,1,2.49,1.38,1.66.9,3.38,1.76,5.09,2.56a.43.43,0,0,1,.21.56A.45.45,0,0,1,202.62,209.14Zm108.72-1.4a.44.44,0,0,1-.41-.28.42.42,0,0,1,.26-.54c.81-.29,1.68-.61,2.68-1,1.73-.64,3.52-1.33,5.33-2.05h0a.43.43,0,0,1,.55.24.42.42,0,0,1,0,.33.39.39,0,0,1-.23.22c-1.75.71-3.55,1.4-5.35,2.07-.92.35-1.83.68-2.69,1A.36.36,0,0,1,311.34,207.74ZM322,203.62a.44.44,0,0,1-.4-.27.44.44,0,0,1,0-.32.4.4,0,0,1,.23-.23.43.43,0,0,1,.56.23.44.44,0,0,1,0,.32.37.37,0,0,1-.23.23A.32.32,0,0,1,322,203.62Zm-131.9-1.42a.48.48,0,0,1-.23-.07.42.42,0,0,1-.18-.27.37.37,0,0,1,.06-.32.43.43,0,0,1,.71.47A.42.42,0,0,1,190.12,202.2Zm137.16-.83a.43.43,0,0,1-.39-.25.45.45,0,0,1,.22-.57c.79-.34,1.62-.71,2.61-1.16,1.75-.79,3.49-1.6,5.18-2.42a.44.44,0,0,1,.57.2.42.42,0,0,1,0,.33.43.43,0,0,1-.22.24c-1.7.82-3.44,1.63-5.18,2.41h0l-2.62,1.17A.39.39,0,0,1,327.28,201.37Zm-139.54-.76a.43.43,0,0,1-.24-.08c-1.57-1.08-3.13-2.22-4.64-3.38-.76-.59-1.51-1.19-2.24-1.79a.41.41,0,0,1-.16-.29.44.44,0,0,1,.09-.31.45.45,0,0,1,.6-.06c.73.6,1.48,1.19,2.23,1.77,1.48,1.14,3,2.27,4.6,3.36h0a.43.43,0,0,1-.25.78Zm149.92-4.08a.43.43,0,0,1-.4-.57.45.45,0,0,1,.21-.24.44.44,0,0,1,.57.19.42.42,0,0,1,0,.33.39.39,0,0,1-.21.24A.41.41,0,0,1,337.66,196.53Zm5.11-2.59a.43.43,0,0,1-.38-.23.47.47,0,0,1,0-.33.46.46,0,0,1,.21-.25l2.53-1.33s0,0,0,0a.43.43,0,0,1,.39.76L343,193.89A.41.41,0,0,1,342.77,193.94Zm-166.23-2.21a.43.43,0,0,1-.28-.11.39.39,0,0,1-.14-.3.38.38,0,0,1,.11-.3.43.43,0,0,1,.6,0,.43.43,0,0,1-.29.74Zm-2.1-1.95a.44.44,0,0,1-.29-.11c-1.35-1.29-2.72-2.65-4.06-4.06l0-.05,0,0s0,0,0,0a.42.42,0,0,1-.12-.3.43.43,0,0,1,.13-.3.46.46,0,0,1,.61,0s0,0,0,0h0c1.32,1.39,2.68,2.74,4,4a.43.43,0,0,1,0,.6A.4.4,0,0,1,174.44,189.78Z" transform="translate(-4.4 -9.29)"/><path class="cls-2" d="M170.35,185.7a.39.39,0,0,1-.3-.13c-.33-.34-.66-.69-1-1a.43.43,0,0,1,0-.58c.32-.35.65-.69,1-1a.42.42,0,1,1,.61.58l-.7.74.7.74a.43.43,0,0,1,0,.6A.44.44,0,0,1,170.35,185.7Z" transform="translate(-4.4 -9.29)"/><path class="cls-2" d="M174.4,179.59a.48.48,0,0,1-.31-.13.44.44,0,0,1,0-.61h0a.43.43,0,0,1,.59,0,.43.43,0,0,1-.31.72Zm2.1-2a.41.41,0,0,1-.31-.14.42.42,0,0,1,0-.6c1.41-1.28,2.88-2.54,4.35-3.74a.44.44,0,0,1,.6.06.42.42,0,0,1-.06.59c-1.45,1.19-2.91,2.44-4.32,3.72A.44.44,0,0,1,176.5,177.64Z" transform="translate(-4.4 -9.29)"/><path class="cls-2" d="M357.68,183.9a.4.4,0,0,1-.22-.06c-1-.61-2.57-1.61-4.81-2.92a.38.38,0,0,1-.19-.26.44.44,0,0,1,0-.32.43.43,0,0,1,.58-.15c2.18,1.27,3.83,2.29,4.83,2.93a.42.42,0,0,1,.13.59A.41.41,0,0,1,357.68,183.9Zm-7.29-4.36a.36.36,0,0,1-.21,0,.49.49,0,0,1-.21-.26.45.45,0,0,1,0-.32.42.42,0,0,1,.58-.16.41.41,0,0,1,.19.25.39.39,0,0,1,0,.33A.41.41,0,0,1,350.39,179.54Zm-5-2.77a.35.35,0,0,1-.2-.05l-2.53-1.34c-1.67-.87-3.38-1.74-5.1-2.59a.39.39,0,0,1-.21-.24.42.42,0,0,1,0-.33.44.44,0,0,1,.57-.19c1.77.88,3.48,1.75,5.08,2.59h0l2.54,1.34a.43.43,0,0,1,.17.58A.4.4,0,0,1,345.37,176.77Zm-164.53-2.86a.42.42,0,0,1-.33-.16.42.42,0,0,1,.06-.59c.72-.59,1.47-1.19,2.25-1.79a.43.43,0,0,1,.6.08.42.42,0,0,1-.08.59c-.71.56-1.47,1.15-2.23,1.78A.44.44,0,0,1,180.84,173.91Zm154.31-2.33a.39.39,0,0,1-.18,0h0a.43.43,0,0,1-.21-.23.42.42,0,0,1,0-.33.44.44,0,0,1,.57-.2.43.43,0,0,1,.2.57A.42.42,0,0,1,335.15,171.58ZM330,169.16a.33.33,0,0,1-.17,0L327.18,168c-1.75-.77-3.53-1.52-5.26-2.24a.49.49,0,0,1-.24-.23.43.43,0,0,1,.56-.56c1.74.72,3.52,1.48,5.28,2.26.88.38,1.76.78,2.62,1.17a.42.42,0,0,1,.21.56A.43.43,0,0,1,330,169.16Zm-142.26-.41a.41.41,0,0,1-.35-.18.44.44,0,0,1-.07-.32.41.41,0,0,1,.17-.26,0,0,0,0,1,0,0,.42.42,0,0,1,.48.7h0A.39.39,0,0,1,187.7,168.75Zm2.38-1.59a.42.42,0,0,1-.36-.19.43.43,0,0,1,.12-.59c1.61-1,3.26-2,4.91-3,.77-.45,1.59-.9,2.51-1.4a.43.43,0,0,1,.57.18.41.41,0,0,1-.17.57c-.83.45-1.66.91-2.49,1.39-1.64.94-3.28,1.94-4.85,3h0A.39.39,0,0,1,190.08,167.16Zm129.34-2.5a.4.4,0,0,1-.15,0,.42.42,0,0,1-.24-.55.44.44,0,0,1,.56-.24.43.43,0,0,1-.17.82Zm-5.34-2.06a.32.32,0,0,1-.14,0l-2.69-1c-1.8-.64-3.62-1.27-5.4-1.86a.44.44,0,0,1-.27-.54.43.43,0,0,1,.54-.27c1.79.59,3.61,1.22,5.42,1.88l2.69,1a.43.43,0,0,1,.25.55A.42.42,0,0,1,314.08,162.6Zm-111.51-2.39a.42.42,0,0,1-.38-.24.43.43,0,1,1,.77-.36.4.4,0,0,1,0,.32.38.38,0,0,1-.22.24A.37.37,0,0,1,202.57,160.21Zm2.61-1.17a.43.43,0,0,1-.39-.25.45.45,0,0,1,.22-.57c1.76-.76,3.55-1.48,5.34-2.14.83-.31,1.72-.62,2.71-1a.43.43,0,0,1,.27.81c-.91.31-1.82.63-2.69.95-1.81.67-3.59,1.39-5.29,2.12A.33.33,0,0,1,205.18,159Zm98.08-.19a.3.3,0,0,1-.13,0,.37.37,0,0,1-.25-.21.42.42,0,0,1,.51-.6h0a.43.43,0,0,1,.27.53A.44.44,0,0,1,303.26,158.85Zm-5.48-1.66-.12,0-2.73-.77h-.06c-1.79-.49-3.64-1-5.49-1.42a.43.43,0,0,1-.31-.52.43.43,0,0,1,.51-.31c1.85.45,3.71.93,5.56,1.44h0l2.74.77a.42.42,0,0,1-.12.83Zm-11.09-2.87h-.09a.42.42,0,0,1-.32-.51.43.43,0,0,1,.51-.32s0,0,0,0a.38.38,0,0,1,.25.18.44.44,0,0,1,.06.32A.43.43,0,0,1,286.69,154.32Zm-68-.06a.43.43,0,0,1-.37-.64.37.37,0,0,1,.25-.19.42.42,0,0,1,.52.29.41.41,0,0,1-.29.52A.23.23,0,0,1,218.67,154.26Zm2.77-.73a.44.44,0,0,1-.42-.33.4.4,0,0,1,0-.32.42.42,0,0,1,.26-.19c1.83-.46,3.72-.88,5.61-1.25.85-.17,1.75-.34,2.83-.53a.43.43,0,0,1,.49.35.42.42,0,0,1-.35.49c-1,.17-1.91.34-2.81.52-1.9.37-3.77.79-5.56,1.24Zm59.65-.4H281l-2.81-.53c-1.9-.34-3.79-.65-5.63-.92h0a.43.43,0,0,1,.13-.84c1.85.27,3.76.58,5.67.93.86.15,1.79.32,2.82.53a.41.41,0,0,1,.27.18.42.42,0,0,1,.06.31A.43.43,0,0,1,281.09,153.13Zm-11.3-1.84h-.05a.43.43,0,1,1,.48-.37A.43.43,0,0,1,269.79,151.29Zm-34.29-.36a.43.43,0,0,1-.42-.37.43.43,0,0,1,.37-.47.44.44,0,0,1,.48.37.43.43,0,0,1-.37.47h-.06Zm28.6-.27h0l-2.84-.24c-1.9-.13-3.82-.24-5.71-.3a.43.43,0,0,1-.41-.44.42.42,0,0,1,.42-.41h0c1.87.06,3.8.16,5.74.31l2.86.23a.43.43,0,0,1,0,.85Zm-25.71,0h0a.42.42,0,0,1-.42-.38.41.41,0,0,1,.38-.46c1.9-.18,3.83-.33,5.73-.42.94-.05,1.9-.09,2.87-.12h0a.43.43,0,0,1,.42.41.43.43,0,0,1-.42.44l-2.84.11h0c-1.94.1-3.85.25-5.69.42Zm14.26-.57h0a.42.42,0,0,1-.42-.43.42.42,0,0,1,.42-.42h0a.4.4,0,0,1,.29.12.46.46,0,0,1,.13.31A.43.43,0,0,1,252.65,150.05Z" transform="translate(-4.4 -9.29)"/><path class="cls-2" d="M325.62,79.57l-.17,0a.44.44,0,0,1-.22-.56l.3-.7-.75,0h0a.43.43,0,0,1,0-.85l1.42,0a.37.37,0,0,1,.36.19.43.43,0,0,1,0,.4L326,79.32A.41.41,0,0,1,325.62,79.57Z" transform="translate(-4.4 -9.29)"/><path class="cls-2" d="M319.4,92.45A.43.43,0,0,1,319,92a.29.29,0,0,1,0-.2c.9-1.72,1.77-3.44,2.58-5.1a.44.44,0,0,1,.57-.19.43.43,0,0,1,.2.57c-.87,1.75-1.72,3.43-2.6,5.11A.44.44,0,0,1,319.4,92.45Zm3.84-7.68a.39.39,0,0,1-.18,0,.42.42,0,0,1-.2-.56s0,0,0,0a.43.43,0,0,1,.56-.18.36.36,0,0,1,.21.24.37.37,0,0,1,0,.31h0A.42.42,0,0,1,323.24,84.77Z" transform="translate(-4.4 -9.29)"/><path class="cls-2" d="M193.47,187.54h0c-1.9,0-3.83-.08-5.74-.2-1-.06-1.94-.13-2.86-.21a.43.43,0,0,1-.29-.15.46.46,0,0,1-.1-.32.41.41,0,0,1,.46-.38c.94.08,1.89.15,2.83.21h.06c1.88.11,3.79.18,5.65.19a.43.43,0,1,1,0,.85Zm2.88,0h0a.41.41,0,0,1-.42-.41.43.43,0,0,1,.42-.44.43.43,0,0,1,0,.86Zm5.7-.27a.43.43,0,0,1-.42-.4.37.37,0,0,1,.1-.3.4.4,0,0,1,.29-.15c.95-.07,1.9-.16,2.84-.25,1.84-.19,3.73-.44,5.63-.74h0a.45.45,0,0,1,.49.36.39.39,0,0,1-.08.31.38.38,0,0,1-.28.17c-1.87.3-3.79.56-5.69.75-.92.1-1.88.18-2.86.26Zm-22.83-.78h-.06a.46.46,0,0,1-.28-.17.4.4,0,0,1-.08-.32.42.42,0,1,1,.84.12A.43.43,0,0,1,179.22,186.48Zm-2.83-.43h-.07c-1.86-.31-3.76-.67-5.64-1.07a.43.43,0,0,1,.18-.84c1.84.4,3.72.76,5.6,1.07a.43.43,0,0,1,.35.49A.42.42,0,0,1,176.39,186.05Zm37-.28a.43.43,0,0,1-.41-.35.41.41,0,0,1,.34-.49.41.41,0,0,1,.49.33.42.42,0,0,1-.34.5Zm5.59-1.22a.43.43,0,0,1-.41-.32.4.4,0,0,1,.05-.32.43.43,0,0,1,.26-.2c.89-.22,1.79-.45,2.76-.72,1.78-.49,3.6-1,5.43-1.66h0a.43.43,0,0,1,.54.27.4.4,0,0,1,0,.32.45.45,0,0,1-.25.22c-1.81.6-3.65,1.17-5.46,1.67h0c-1,.27-1.92.51-2.78.72Zm10.94-3.34a.42.42,0,0,1-.4-.28.4.4,0,0,1,0-.32.43.43,0,0,1,.24-.22.43.43,0,1,1,.29.8Zm5.32-2.1a.41.41,0,0,1-.39-.26.42.42,0,0,1,.22-.55c.86-.37,1.74-.75,2.61-1.15,1.69-.77,3.41-1.6,5.13-2.49a.44.44,0,0,1,.57.19.44.44,0,0,1,0,.32.4.4,0,0,1-.21.25c-1.67.86-3.41,1.7-5.17,2.5-.88.41-1.77.8-2.63,1.16A.41.41,0,0,1,235.23,179.11Zm10.29-5a.41.41,0,0,1-.37-.22.4.4,0,0,1,0-.32.39.39,0,0,1,.2-.25.44.44,0,0,1,.58.17.43.43,0,0,1-.17.57A.41.41,0,0,1,245.52,174.12Zm5-2.85a.43.43,0,0,1-.22-.79c.89-.54,1.69-1,2.43-1.5,1.59-1,3.18-2.08,4.72-3.15a0,0,0,0,1,0,0,.44.44,0,0,1,.59.1.46.46,0,0,1,.07.32.43.43,0,0,1-.18.28c-1.59,1.11-3.19,2.18-4.76,3.17-.79.51-1.61,1-2.44,1.52A.4.4,0,0,1,250.48,171.27Zm9.51-6.34h0a.42.42,0,0,1-.34-.17.41.41,0,0,1-.08-.32.46.46,0,0,1,.17-.28h0a.42.42,0,0,1,.49.68h0A.38.38,0,0,1,260,164.93Zm4.56-3.46a.43.43,0,0,1-.26-.76c.71-.56,1.46-1.17,2.22-1.79,1.48-1.21,2.94-2.46,4.35-3.7a.44.44,0,0,1,.6,0,.43.43,0,0,1,0,.6c-1.44,1.27-2.91,2.52-4.37,3.72-.87.71-1.58,1.29-2.24,1.8A.39.39,0,0,1,264.55,161.47Zm8.72-7.42a.45.45,0,0,1-.32-.14.43.43,0,0,1,0-.59h0a.44.44,0,0,1,.6,0,.38.38,0,0,1,.11.3.43.43,0,0,1-.42.41Zm4.16-3.93a.4.4,0,0,1-.3-.13.43.43,0,0,1-.13-.3.46.46,0,0,1,.13-.3l2-2c1.34-1.35,2.67-2.74,4-4.12a.42.42,0,0,1,.62.58c-1.27,1.36-2.6,2.74-4,4.11a0,0,0,0,1,0,0h0l-2,2A.42.42,0,0,1,277.43,150.12Zm7.94-8.26a.44.44,0,0,1-.29-.11.41.41,0,0,1,0-.59h0a.44.44,0,0,1,.6,0,.43.43,0,0,1-.28.74Zm3.78-4.3a.42.42,0,0,1-.28-.1.41.41,0,0,1-.15-.29.44.44,0,0,1,.11-.31c.6-.7,1.21-1.43,1.83-2.17h0s0,0,0,0c1.23-1.48,2.43-3,3.57-4.42a.45.45,0,0,1,.6-.07.42.42,0,0,1,.07.6c-1.15,1.46-2.35,3-3.59,4.44l0,0c-.65.79-1.26,1.51-1.85,2.19A.41.41,0,0,1,289.15,137.56Zm7.21-8.9a.45.45,0,0,1-.26-.08.46.46,0,0,1-.17-.29.43.43,0,0,1,.69-.39.43.43,0,0,1,.07.6A.42.42,0,0,1,296.36,128.66Zm3.43-4.59a.38.38,0,0,1-.25-.08.35.35,0,0,1-.17-.28.42.42,0,0,1,.07-.31l1.67-2.31h0l0,0c1.07-1.52,2.16-3.09,3.23-4.67a.44.44,0,0,1,.59-.12.42.42,0,0,1,.11.59c-1.05,1.56-2.15,3.15-3.26,4.72-.52.73-1.07,1.5-1.68,2.33A.42.42,0,0,1,299.79,124.07Zm6.52-9.41a.48.48,0,0,1-.23-.07.44.44,0,0,1-.19-.27A.41.41,0,0,1,306,114a.43.43,0,0,1,.59-.12.42.42,0,0,1,.18.27.45.45,0,0,1-.06.32A.42.42,0,0,1,306.31,114.66Zm3.1-4.82a.41.41,0,0,1-.41-.33.4.4,0,0,1,.05-.32c.46-.73.95-1.53,1.5-2.42h0s0,0,0,0c1-1.6,2-3.24,2.92-4.88h0a.44.44,0,0,1,.58-.15.43.43,0,0,1,.2.26.4.4,0,0,1,0,.32c-.94,1.63-1.93,3.28-2.92,4.9,0,0,0,0,0,0-.47.77-1,1.61-1.51,2.44A.41.41,0,0,1,309.41,109.84Zm5.87-9.84a.54.54,0,0,1-.21,0,.43.43,0,0,1-.15-.59.42.42,0,0,1,.57-.15.42.42,0,0,1,.17.57A.44.44,0,0,1,315.28,100Zm2.78-5a.54.54,0,0,1-.21,0,.42.42,0,0,1-.2-.25.44.44,0,0,1,0-.32c.46-.85.91-1.71,1.35-2.53a.42.42,0,0,1,.57-.18.44.44,0,0,1,.21.25.44.44,0,0,1,0,.32c-.5,1-.93,1.76-1.35,2.54A.41.41,0,0,1,318.06,95Z" transform="translate(-4.4 -9.29)"/><path class="cls-2" d="M170.77,185h-.09l-1.4-.31a.42.42,0,0,1-.32-.48c.07-.47.15-.94.23-1.41a.42.42,0,1,1,.83.14c-.05.33-.11.67-.16,1l1,.21a.43.43,0,0,1-.09.85Z" transform="translate(-4.4 -9.29)"/><path class="cls-2" d="M170.68,177.64h-.09a.43.43,0,0,1-.32-.5v0a.44.44,0,0,1,.5-.31.47.47,0,0,1,.27.18.44.44,0,0,1,.06.31v0A.43.43,0,0,1,170.68,177.64Zm.65-2.79h-.1a.43.43,0,0,1-.32-.51c.45-1.85,1-3.72,1.51-5.55a.42.42,0,0,1,.83.12.3.3,0,0,1,0,.13c-.54,1.79-1,3.65-1.49,5.5A.43.43,0,0,1,171.33,174.85Z" transform="translate(-4.4 -9.29)"/><path class="cls-2" d="M172.82,169.33l-.12,0a.42.42,0,0,1-.28-.53c.27-.91.56-1.83.85-2.74a.44.44,0,0,1,.54-.27.43.43,0,0,1,.27.54c-.28.87-.57,1.78-.84,2.7,0,0,0,0,0,0A.42.42,0,0,1,172.82,169.33Zm2.78-8.11a.4.4,0,0,1-.15,0,.43.43,0,0,1-.24-.22.47.47,0,0,1,0-.33.42.42,0,1,1,.79.31A.43.43,0,0,1,175.6,161.22Zm1.07-2.65a.45.45,0,0,1-.16,0,.43.43,0,0,1-.23-.56c.74-1.76,1.53-3.5,2.35-5.19l0,0c.4-.83.82-1.66,1.29-2.56a.44.44,0,0,1,.58-.18.42.42,0,0,1,.17.57c-.42.82-.85,1.67-1.27,2.53h0l0,0c-.83,1.7-1.61,3.43-2.32,5.13h0A.43.43,0,0,1,176.67,158.57Zm6.43-12.75a.46.46,0,0,1-.22-.06.45.45,0,0,1-.19-.27.4.4,0,0,1,.05-.32h0a.42.42,0,0,1,.57-.14.41.41,0,0,1,.15.57h0A.44.44,0,0,1,183.1,145.82Zm1.5-2.44a.46.46,0,0,1-.23-.06.45.45,0,0,1-.18-.27.4.4,0,0,1,.05-.32c1-1.57,2.06-3.16,3.19-4.73v0c.54-.75,1.1-1.51,1.71-2.32a.43.43,0,0,1,.59-.08.46.46,0,0,1,.17.28.51.51,0,0,1-.08.32c-.58.76-1.15,1.53-1.68,2.28a0,0,0,0,0,0,0l0,0C187,140,186,141.6,185,143.18h0A.42.42,0,0,1,184.6,143.38Zm8.46-11.51a.43.43,0,0,1-.43-.39.53.53,0,0,1,.09-.3,0,0,0,0,0,0,0,.43.43,0,1,1,.65.55h0A.41.41,0,0,1,193.06,131.87Zm1.87-2.16a.43.43,0,0,1-.28-.11.43.43,0,0,1,0-.6c1.21-1.36,2.53-2.77,3.93-4.18l0,0c.77-.78,1.42-1.41,2-2a.45.45,0,0,1,.6,0,.43.43,0,0,1,0,.6l-2,2c-1.33,1.35-2.64,2.75-3.9,4.16h0A.44.44,0,0,1,194.93,129.71Zm10.18-10a.42.42,0,0,1-.32-.14.46.46,0,0,1-.11-.32.42.42,0,0,1,.14-.27v0a.44.44,0,0,1,.6,0,.45.45,0,0,1,.1.31.47.47,0,0,1-.14.3h0A.45.45,0,0,1,205.11,119.67Zm2.18-1.86a.41.41,0,0,1-.33-.15.43.43,0,0,1,0-.6c1.43-1.18,2.94-2.38,4.5-3.57l0,0c.8-.6,1.54-1.15,2.27-1.68a.44.44,0,0,1,.6.1.43.43,0,0,1-.1.59c-.77.55-1.54,1.12-2.29,1.69-1.51,1.15-3,2.34-4.47,3.55A.46.46,0,0,1,207.29,117.81Zm11.49-8.5a.42.42,0,0,1-.35-.19.39.39,0,0,1-.06-.33.44.44,0,0,1,.17-.26h0a.43.43,0,0,1,.59.12.44.44,0,0,1,.06.32.42.42,0,0,1-.18.27A.51.51,0,0,1,218.78,109.31Zm2.41-1.55a.43.43,0,0,1-.36-.2.45.45,0,0,1-.06-.32A.48.48,0,0,1,221,107c1.59-1,3.25-2,4.92-3,.74-.43,1.56-.89,2.5-1.41a.43.43,0,0,1,.41.75c-.94.51-1.75,1-2.49,1.4-1.64,1-3.29,1.94-4.88,3A.48.48,0,0,1,221.19,107.76Zm12.45-7.05a.44.44,0,0,1-.38-.23.42.42,0,0,1,0-.33.43.43,0,0,1,.21-.25.44.44,0,0,1,.57.19.47.47,0,0,1,0,.33.45.45,0,0,1-.21.24h0A.38.38,0,0,1,233.64,100.71Zm2.57-1.27a.41.41,0,0,1-.38-.24.42.42,0,0,1,.19-.57c1.7-.82,3.45-1.64,5.21-2.42.84-.38,1.7-.75,2.63-1.15a.44.44,0,0,1,.56.23.43.43,0,0,1-.23.56L241.57,97c-1.72.76-3.46,1.57-5.18,2.4A.41.41,0,0,1,236.21,99.44Zm13.12-5.72a.42.42,0,0,1-.39-.27.38.38,0,0,1,0-.33.43.43,0,0,1,.24-.22.42.42,0,0,1,.54.56.43.43,0,0,1-.23.23A.45.45,0,0,1,249.33,93.72Zm2.68-1a.43.43,0,0,1-.39-.61.43.43,0,0,1,.24-.22c1.79-.67,3.61-1.32,5.4-1.93L260,89a.44.44,0,0,1,.54.28.42.42,0,0,1-.27.53c-.79.26-1.65.54-2.71.91-1.77.6-3.58,1.25-5.39,1.92A.32.32,0,0,1,252,92.7Zm13.58-4.54a.42.42,0,0,1-.41-.31.41.41,0,0,1,.29-.52.43.43,0,0,1,.53.28.44.44,0,0,1-.29.53h0Zm2.75-.8a.43.43,0,0,1-.41-.31.4.4,0,0,1,0-.32.39.39,0,0,1,.25-.2c1.82-.52,3.67-1,5.52-1.49h0l2.78-.7a.43.43,0,0,1,.2.83l-2.76.69h-.06c-1.92.5-3.72,1-5.48,1.48Zm13.9-3.48a.42.42,0,0,1-.42-.34.37.37,0,0,1,.06-.32.39.39,0,0,1,.25-.18h0a.43.43,0,0,1,.51.32.44.44,0,0,1-.06.32.42.42,0,0,1-.26.19h-.09Zm2.8-.6a.43.43,0,0,1-.42-.34.42.42,0,0,1,.33-.5c1.94-.4,3.83-.77,5.62-1.1l0,0v0c1-.18,1.91-.35,2.82-.5a.42.42,0,1,1,.15.83l-2.81.5h0c-1.86.34-3.74.71-5.59,1.09H285Zm14.11-2.51a.43.43,0,0,1-.42-.36.4.4,0,0,1,.08-.32.44.44,0,0,1,.27-.17.44.44,0,0,1,.49.36.43.43,0,0,1-.36.48Zm2.83-.41a.42.42,0,0,1-.42-.37.43.43,0,0,1,.36-.48c1.87-.25,3.78-.5,5.67-.72h0c.95-.11,1.91-.22,2.85-.31a.42.42,0,1,1,.09.84l-2.84.31c-1.9.22-3.81.47-5.69.72Zm14.27-1.56a.43.43,0,0,1-.43-.39.43.43,0,0,1,.39-.46.44.44,0,0,1,.46.39.43.43,0,0,1-.39.46Zm2.86-.21a.43.43,0,0,1-.42-.4.45.45,0,0,1,.1-.31.47.47,0,0,1,.29-.14c2.56-.17,4.5-.25,5.68-.29h0a.43.43,0,0,1,0,.85c-1.17,0-3.1.12-5.65.29Z" transform="translate(-4.4 -9.29)"/><ellipse class="cls-3" cx="179.18" cy="395.19" rx="136.53" ry="9.96"/><path class="cls-4" d="M340.5,351c-7.4-25-21.39-21-65.82-26.83s-51.61-25.75-51.61-25.75H145.43s-7.18,19.95-51.61,25.75S35.4,326,28,351s66.65,35.63,106.14,31.16c33.26-3.77,46.7-4.13,50.11-4.15s16.86.38,50.11,4.15C273.86,386.66,347.91,376.07,340.5,351Z" transform="translate(-4.4 -9.29)"/><path class="cls-5" d="M90.57,332.12s6.33-3.68,22.18.54,24.44,6.89,35.09,7,16.09,8.19,27.73,11.26,13.41,1.53,35.32,0,31-2.84,44.43,7.28c0,0-21.68-6.75-44-1.08s-38.08-2.83-49.57-6.89-27-16.95-58.68-13.88l-12,1.52A13.29,13.29,0,0,1,90.57,332.12Z" transform="translate(-4.4 -9.29)"/><path class="cls-5" d="M28,351c-7.41,25,66.65,35.63,106.14,31.16,33.26-3.77,46.7-4.13,50.11-4.15s16.86.38,50.11,4.15c39.5,4.47,113.55-6.12,106.14-31.16-1.69-5.73-3.73-9.92-6.4-13.07-2.57,5.63-9.81,13.28-28.36,21.67-38,17.18-48.52,1.85-48.52,1.85s1.62,18.49-15,12.43-62.61-4.73-83.93-8.29-62.64,5-98.75,0C35.34,362.3,34.06,346.5,35.85,336.4,32.46,339.69,30,344.3,28,351Z" transform="translate(-4.4 -9.29)"/><path class="cls-4" d="M91.07,337.92c-1-5.85-.24-7-.24-7,2.72-8.5,21.42-2.8,21.42-2.8,19.43,6,31.77,3.12,31.77,3.12,21.43-4.69,24.44,7.76,24.44,7.76,22,4.3,46.09.09,46.09.09,8.71-2.39,20.38-4.13,20.38-4.13,24.78-5.27,49.67,2.89,49.67,2.89a17.14,17.14,0,0,1,7.5-11.68c-5.22-.54-11-1.17-17.42-2-44.43-5.8-51.61-25.75-51.61-25.75H145.43s-7.18,19.95-51.61,25.75c-11.25,1.47-20.54,2.31-28.27,3.15a155.3,155.3,0,0,1,19.16,11.91A43,43,0,0,1,91.07,337.92Z" transform="translate(-4.4 -9.29)"/><path class="cls-6" d="M283.65,331.91c-.14-.51-.73-.75-1.26-.86l-.25-.05c-5-.9-10.33,2.86-15,.88-.31-.64.29-1.31.81-1.79s1-1.27.6-1.82a1.31,1.31,0,0,0-.83-.4c-4.71-.85-8.88,3.72-13.66,3.71-.5,0-1.1-.11-1.3-.57a1.27,1.27,0,0,1,.42-1.27c1.49-1.58,3.84-1.93,5.73-3,.69-.39,1.4-1,1.26-1.82-.19-1.09-1.7-1.21-2.79-1.06L246,325.45c-3.22.45-6.33,1.1-9.41-.43-1.85-.91-3.34-2.87-3-4.9a25.16,25.16,0,0,1-7.23-11.59,108.7,108.7,0,0,1-51.4,4.44c-11.61-1.81-23.18-5.51-34.85-4.18-1.35.16-2.87.49-3.58,1.65a6.12,6.12,0,0,0-.4,3.33c.11,6.45-5.45,11.85-11.57,13.91a33,33,0,0,1-8.66,1.51c17.36,4.66,28.21,2.09,28.21,2.09,21.43-4.69,24.44,7.76,24.44,7.76,22,4.3,46.09.09,46.09.09,8.71-2.39,20.38-4.13,20.38-4.13,16-3.41,32.13-1.19,41.48.79a35.77,35.77,0,0,0,6.15-2.3C283.17,333.16,283.84,332.58,283.65,331.91Z" transform="translate(-4.4 -9.29)"/><path class="cls-7" d="M255.83,383.19c5.56-16.13,1.24-22.13,0-24.44S233,353.65,220,355.5s-29.54,9.88-66.56-9.25S80,340.82,80,340.82" transform="translate(-4.4 -9.29)"/><path class="cls-7" d="M292.24,340.82S264.11,326,215.1,339c0,0-31,5.13-46.64,0,0,0-3.43-11.88-22.43-8.12s-34.39-4.09-42.09-4.42S88.27,325.94,91,337.93" transform="translate(-4.4 -9.29)"/><path class="cls-8" d="M137.37,312.35a52.56,52.56,0,0,0,7.92,13.23" transform="translate(-4.4 -9.29)"/><path class="cls-8" d="M135,316.61q2.79,4,5.73,7.93a9.65,9.65,0,0,0,2.38,2.47" transform="translate(-4.4 -9.29)"/><path class="cls-9" d="M225,336.86a61.67,61.67,0,0,1,15-9.22" transform="translate(-4.4 -9.29)"/><path class="cls-8" d="M230.66,335a92.81,92.81,0,0,1,23-7.72" transform="translate(-4.4 -9.29)"/><path class="cls-8" d="M241.32,333.82l4.77-1.4" transform="translate(-4.4 -9.29)"/><path class="cls-8" d="M236.56,313.57a28.8,28.8,0,0,1-5.48,9.72" transform="translate(-4.4 -9.29)"/><path class="cls-10" d="M233.61,189.92s12.83-2.54,22.18,30.6c4.85,17.18,8,34.71,11.11,52.27.56,3.14.65,7.07,2.46,9.78a5.58,5.58,0,0,0,2.87,1.71c18.54,6.42,37.3,12.29,55.27,20.19,1.69.74,4.66,2.67,6.55,2.06s3.68-2.81,5-4a1,1,0,0,0,.4-.57c.05-.36-.3-.64-.6-.86a14.83,14.83,0,0,1-3.49-3.4,4.87,4.87,0,0,1-1.18-3.1c.14-2.13,2.51-3.33,3.84-4.69A22.73,22.73,0,0,1,343.9,286c2.62-1.35,8.25-4.23,11.06-1.86,3.47,2.94,8.28,13.9,7.75,20.32s-7.22,15-10.69,17.1-18.71-2.14-21.92-3.2c0,0-48.74-4.44-68.89-7a8.58,8.58,0,0,1-6.08-3.76c-5.82-8.69-21.07-33.79-24.73-63C225.86,208.23,218.91,193.8,233.61,189.92Z" transform="translate(-4.4 -9.29)"/><path class="cls-11" d="M261.21,311.37c20.15,2.54,68.89,7,68.89,7,3.21,1.06,18.44,5.34,21.92,3.2a24.41,24.41,0,0,0,5.83-6.08c-10.63,2.67-21.25.26-24.46-.36-5.44-1.05-45.53-.82-59.83-9.15s-19.87-40.8-19.87-40.8c-2.43-3.54-10.68-3-19.19-1.26a167,167,0,0,0,20.63,43.71A8.58,8.58,0,0,0,261.21,311.37Z" transform="translate(-4.4 -9.29)"/><path class="cls-12" d="M233.18,189.21s13.36-2.64,23.1,31.88c3.23,11.42,5.73,23,8,34.63-3.45,4.84-13.69,17.94-26.27,22a135.83,135.83,0,0,1-8.15-31.56C225.1,208.28,217.86,193.25,233.18,189.21Z" transform="translate(-4.4 -9.29)"/><path class="cls-8" d="M249.13,230.51a249.44,249.44,0,0,1-10.66,34.65" transform="translate(-4.4 -9.29)"/><path class="cls-13" d="M333.32,298.35a9.84,9.84,0,0,0-.9-5.64c-.16-.32-.33-.75-.07-1a.7.7,0,0,1,.32-.13,5.07,5.07,0,0,1,4.23,1.16,12.4,12.4,0,0,1,2.79,3.55c1.32,2.28,2.46,5,1.73,7.49a8.17,8.17,0,0,1-2.47,3.62c-1.93,1.76-5.81,3-7.35,0C330.4,305,333.05,300.86,333.32,298.35Z" transform="translate(-4.4 -9.29)"/><path class="cls-7" d="M335.68,292s-2.81,2.35.3,6.45,8.07,8.91,10.11,10.06,9.33-2.42,10.69-7.34" transform="translate(-4.4 -9.29)"/><path class="cls-7" d="M344.06,306.94a47.05,47.05,0,0,1,10.17-8.32" transform="translate(-4.4 -9.29)"/><path class="cls-7" d="M339.6,302.84a11.87,11.87,0,0,1,3.71-4.18,65,65,0,0,1,10.77-7" transform="translate(-4.4 -9.29)"/><path class="cls-7" d="M335.85,298.06a37,37,0,0,1,9.92-7.21" transform="translate(-4.4 -9.29)"/><path class="cls-7" d="M338.35,301.38a14.2,14.2,0,0,1,1.95,9.15" transform="translate(-4.4 -9.29)"/><path class="cls-7" d="M357.88,300.94a55.25,55.25,0,0,0-7.11,11" transform="translate(-4.4 -9.29)"/><path class="cls-14" d="M333.32,298.35a9.84,9.84,0,0,0-.9-5.64c-.16-.32-.33-.75-.07-1a.7.7,0,0,1,.32-.13,5.07,5.07,0,0,1,4.23,1.16,12.4,12.4,0,0,1,2.79,3.55c1.32,2.28,2.46,5,1.73,7.49a8.17,8.17,0,0,1-2.47,3.62c-1.93,1.76-5.81,3-7.35,0C330.4,305,333.05,300.86,333.32,298.35Z" transform="translate(-4.4 -9.29)"/><path class="cls-15" d="M335.68,292s-2.81,2.35.3,6.45,8.07,8.91,10.11,10.06,9.33-2.42,10.69-7.34" transform="translate(-4.4 -9.29)"/><path class="cls-16" d="M344.06,306.94a47.05,47.05,0,0,1,10.17-8.32" transform="translate(-4.4 -9.29)"/><path class="cls-17" d="M339.6,302.84a11.87,11.87,0,0,1,3.71-4.18,65,65,0,0,1,10.77-7" transform="translate(-4.4 -9.29)"/><path class="cls-18" d="M335.85,298.06a37,37,0,0,1,9.92-7.21" transform="translate(-4.4 -9.29)"/><path class="cls-19" d="M338.35,301.38a14.2,14.2,0,0,1,1.95,9.15" transform="translate(-4.4 -9.29)"/><path class="cls-20" d="M357.88,300.94a55.25,55.25,0,0,0-7.11,11" transform="translate(-4.4 -9.29)"/><path class="cls-21" d="M133.53,189.92s-12.83-2.54-22.18,30.6c-4.85,17.18-8,34.71-11.11,52.27-.55,3.14-.65,7.07-2.46,9.78a5.59,5.59,0,0,1-2.86,1.71c-18.54,6.42-37.31,12.29-55.27,20.19-1.69.74-4.67,2.67-6.56,2.06s-3.68-2.81-5-4a1,1,0,0,1-.4-.57c0-.36.3-.64.6-.86a15.06,15.06,0,0,0,3.5-3.4,4.93,4.93,0,0,0,1.18-3.1c-.14-2.13-2.52-3.33-3.85-4.69A22.56,22.56,0,0,0,23.24,286c-2.62-1.35-8.25-4.23-11-1.86C8.71,287.07,3.9,298,4.44,304.45s7.21,15,10.69,17.1,18.71-2.14,21.91-3.2c0,0,48.74-4.44,68.89-7a8.58,8.58,0,0,0,6.08-3.76c5.82-8.69,21.07-33.79,24.73-63C141.28,208.23,148.23,193.8,133.53,189.92Z" transform="translate(-4.4 -9.29)"/><path class="cls-22" d="M106,311.37c-20.15,2.54-68.88,7-68.88,7-3.21,1.06-18.45,5.34-21.92,3.2a24.23,24.23,0,0,1-5.83-6.08c10.62,2.67,21.24.26,24.46-.36,5.43-1.05,45.53-.82,59.83-9.15s19.86-40.8,19.86-40.8c2.44-3.54,10.69-3,19.19-1.26a167.07,167.07,0,0,1-20.62,43.71A8.62,8.62,0,0,1,106,311.37Z" transform="translate(-4.4 -9.29)"/><path class="cls-12" d="M134,189.21s-13.36-2.64-23.11,31.88c-3.22,11.42-5.73,23-8,34.63,3.44,4.84,13.68,17.94,26.27,22a136.33,136.33,0,0,0,8.14-31.56C142,208.28,149.28,193.25,134,189.21Z" transform="translate(-4.4 -9.29)"/><path class="cls-8" d="M115.58,227.44q3.84,11.81,8.64,23.24" transform="translate(-4.4 -9.29)"/><path class="cls-23" d="M34,298.35a9.84,9.84,0,0,1,.9-5.64c.16-.32.33-.75.07-1a.75.75,0,0,0-.32-.13,5.07,5.07,0,0,0-4.23,1.16,12.4,12.4,0,0,0-2.79,3.55c-1.32,2.28-2.46,5-1.73,7.49a8.17,8.17,0,0,0,2.47,3.62c1.93,1.76,5.81,3,7.35,0C36.87,305,34.22,300.86,34,298.35Z" transform="translate(-4.4 -9.29)"/><path class="cls-24" d="M31.58,292s2.82,2.35-.29,6.45-8.07,8.91-10.11,10.06-9.33-2.42-10.69-7.34" transform="translate(-4.4 -9.29)"/><path class="cls-25" d="M23.21,306.94A47.29,47.29,0,0,0,13,298.62" transform="translate(-4.4 -9.29)"/><path class="cls-26" d="M27.67,302.84A11.87,11.87,0,0,0,24,298.66a65,65,0,0,0-10.77-7" transform="translate(-4.4 -9.29)"/><path class="cls-27" d="M31.42,298.06a37.11,37.11,0,0,0-9.92-7.21" transform="translate(-4.4 -9.29)"/><path class="cls-28" d="M28.92,301.38a14.2,14.2,0,0,0-2,9.15" transform="translate(-4.4 -9.29)"/><path class="cls-29" d="M9.39,300.94a55.25,55.25,0,0,1,7.11,11" transform="translate(-4.4 -9.29)"/><path class="cls-8" d="M171.88,329.14a24.46,24.46,0,0,0,10.67,1.16" transform="translate(-4.4 -9.29)"/><path class="cls-30" d="M200.43,179.91c-3.21-4.44-6.07-12.46-5.61-27,0,0-13.08-2.91-23,0,0,0,1,18.81-3.13,25.39a19.34,19.34,0,0,1-1.21,1.69c-.63.64-2.76,2.3-9.28,4.15.35,8.64,4,26.93,28.24,26.93,21.29,0,26.93-15.49,28.34-25.73C203.61,182.91,201,180.54,200.43,179.91Z" transform="translate(-4.4 -9.29)"/><path class="cls-31" d="M178.54,186.9s4.54,6.95,10.38-.23l25.64-.15c.07-.39.13-.77.18-1.15-11.13-2.46-13.78-4.83-14.31-5.46-3.21-4.44-6.07-12.46-5.61-27,0,0-13.08-2.91-23,0,0,0,1,18.81-3.13,25.39a19.34,19.34,0,0,1-1.21,1.69c-.63.64-2.76,2.3-9.28,4.15,0,.73.09,1.53.18,2.38C166.69,186.38,176.33,186.33,178.54,186.9Z" transform="translate(-4.4 -9.29)"/><path class="cls-32" d="M195.23,164.28a76.55,76.55,0,0,1-.41-11.34s-13.08-2.91-23,0c0,0,.27,5.15-.06,11C176.05,166.19,183.85,168.29,195.23,164.28Z" transform="translate(-4.4 -9.29)"/><path class="cls-8" d="M131.84,270.27s-8.82-35.11-12.29-54" transform="translate(-4.4 -9.29)"/><path class="cls-8" d="M137,282.47a46,46,0,0,1,19.36-3.37" transform="translate(-4.4 -9.29)"/><path class="cls-8" d="M139.45,298.33a53.39,53.39,0,0,0,22.65,7.89,114.58,114.58,0,0,0,24.14,0,75.53,75.53,0,0,0,14.2-2.23" transform="translate(-4.4 -9.29)"/><path class="cls-8" d="M146.65,306c3.46,5,9.14,8,14.87,10.15a73.43,73.43,0,0,0,27.93,4.47" transform="translate(-4.4 -9.29)"/><path class="cls-8" d="M228.41,302.41A56.67,56.67,0,0,1,191,327.8" transform="translate(-4.4 -9.29)"/><path class="cls-8" d="M230.35,284.28a60.46,60.46,0,0,1-21,9.3" transform="translate(-4.4 -9.29)"/><path class="cls-8" d="M154.37,187.94s-1,27,33.11,27,31-27,31-27" transform="translate(-4.4 -9.29)"/><path class="cls-8" d="M234.71,274.88s9.18-37.26,13.32-57.72" transform="translate(-4.4 -9.29)"/><path class="cls-33" d="M129.17,277.7c.9-2.35,1.76-4.79,2.58-7.29-.11-.65-.25-1.39-.43-2.25-1.37-6.46-7.1-32.79-7.1-32.79s-1.5,18.27-18.5,24.06C110.5,265.4,119.07,274.46,129.17,277.7Z" transform="translate(-4.4 -9.29)"/><path class="cls-34" d="M165,153.65c4.37,4.42,9.84,8.53,16.47,9.24,8.25.89,16.09-3.69,21.82-9.06,13.27-12.44,19.51-29.65,21.18-46.6,1-9.8.14-20.62-7.35-27.83-3.66-3.52-8.58-5.82-13.61-7.57-12.59-4.38-27.25-5.57-39.56-.44C130.13,85.46,146.48,135,165,153.65Z" transform="translate(-4.4 -9.29)"/><path d="M173.38,152.11A119.45,119.45,0,0,0,197,151" transform="translate(-4.4 -9.29)"/><path class="cls-35" d="M102.9,255.72l-4.2,25s-.19,2.28-3.78,3.52L36,306l1.16,12.39s69.24-6.73,70.69-7.41c0,0,2.68-1,5.27-5l16.07-28.26,2.58-7.29,3.72,12.29,5.05,23.74s29.23,8.35,86.1-3.6l8.09-28,.95-3.66L238,277.7l18,31a11.3,11.3,0,0,0,5.18,2.65l68.89,7L331.29,306,270.78,283.7s-2.21-.47-3.46-8l-5.24-30.74s-7.56-37.65-16.64-49.26c0,0-2.08-4-8.27-5.81,0,0,1.12-.37-10.22-2.34,0,0-8.37-1.23-12.21-2.16l-56.58-1.2s-14.29,2.92-18.65,3.55c0,0-10.53.92-15,5.44,0,0-4.39,3.77-9.6,16C114.92,209.14,105.35,237.25,102.9,255.72Z" transform="translate(-4.4 -9.29)"/><path d="M191.47,134c-1.37,2.37-3.71,3.61-7.12,3.6-4,0-5.46-2.11-6.76-4.25,1.48.67,2.06,2,3.68,2.53a8.28,8.28,0,0,0,5.39.5A18.77,18.77,0,0,0,191.47,134Z" transform="translate(-4.4 -9.29)"/><polygon points="152.46 110.69 167.88 110.69 167.67 108.38 152.51 108.39 152.46 110.69"/><polygon points="189.2 110.39 204.62 110.39 204.41 108.08 189.25 108.09 189.2 110.39"/><path class="cls-36" d="M174.08,116c-5.7-4.4-12.5-4.09-20.18-.54C159.41,111,168.57,109.06,174.08,116Z" transform="translate(-4.4 -9.29)"/><path class="cls-36" d="M174.08,116c-5.7-4.4-12.5-4.09-20.18-.54C159.41,111,168.57,109.06,174.08,116Z" transform="translate(-4.4 -9.29)"/><path class="cls-36" d="M174.08,116c-5.7-4.4-12.5-4.09-20.18-.54C159.41,111,168.57,109.06,174.08,116Z" transform="translate(-4.4 -9.29)"/><path class="cls-36" d="M211.4,116c-5.71-4.4-12.5-4.09-20.18-.54C196.73,111,205.89,109.06,211.4,116Z" transform="translate(-4.4 -9.29)"/><path class="cls-35" d="M130.5,311.3c-2.29-4.27,1.81-11.37,7.91-13.48,1.17,2.34,5,3.14,9.08,3.76,24.12,3.68,48.4,2.83,72.62.39,2.93-.29,8.26-.56,6.5-3.48-.3-.51.31-.94,1.51-.8,1.66.2,3,.61,3.42,1.54.91,2.26,1.85,4.53,2.81,6.79.38.89.86,1.78,1.29,2.67,1.74,3.62-2.1,5.32-8.63,6.29-28.13,4.2-56.18,4.91-84.06-.4C138.59,313.75,134.64,312.4,130.5,311.3Z" transform="translate(-4.4 -9.29)"/><path class="cls-35" d="M116.79,222.61s13.64,36.62,14.75,47.13c0,0,7.7,27,6.66,27.41,0,0,3.49,6.23,41.61,6.24,0,0,42.8-1.49,45.5-3l1.13-.72,0-1.87,1.5-.79,6.59-22.82,1-3.65s12.77-43.63,10.43-47.94C245.89,222.61,214.83,220.57,116.79,222.61Z" transform="translate(-4.4 -9.29)"/><path class="cls-4" d="M122,233.84s17,46.2,17.72,60.56c0,0,2.8,8,38.72,4.43,0,0,2.48-54.47-3.12-74.72L118.7,223Z" transform="translate(-4.4 -9.29)"/><path class="cls-4" d="M192.13,298.83s22.21,2.51,33.45-1.87c0,0,20.81-70.22,17.47-73.94l-50.92,1.26S186,253.33,192.13,298.83Z" transform="translate(-4.4 -9.29)"/><path class="cls-37" d="M36.81,314.79S87.07,312.5,93.68,306c0,0,14.16-3.82,18.18-17.16l11.2-32.26,2.64-7.91s6.73,20.23,5.49,20.16-1,7.42-7.65,16.1c0,0-5,9.94-9.86,17.72L111.54,306s-2.11,3.47-5.82,3.9l-3.72.43-15.86,2.06-49.07,5.3Z" transform="translate(-4.4 -9.29)"/><path class="cls-37" d="M330.6,315s-50.26-2.3-56.87-8.84c0,0-14.17-3.81-18.18-17.15l-11.21-32.27-2.63-7.91S235,269,236.21,269s1,7.43,7.66,16.11c0,0,5,9.93,9.85,17.71l2.15,3.35s2.1,3.47,5.82,3.9l3.71.43,15.86,2.06,49.07,5.3Z" transform="translate(-4.4 -9.29)"/><polygon class="cls-38" points="86.42 276.5 59.64 285.61 48.22 289.84 39.56 293.33 35.25 295.18 34.58 295.43 40.77 293.56 53.78 289.16 84.24 278.31 86.42 276.5"/><path class="cls-9" d="M36.81,314.79,36,306.57l24.63-9.49,16.07-5.87,9.8-3.37L95.3,285s4.1-1.69,4.66-5.39,2.58-17.44,2.58-17.44,4.71-23,5.67-26.75c0,0,3.74-14.55,3.85-14.44l.12.11,1.89-7.09,2.72,8.66,8.91,26-13.1,38.05s-2.32,7.48-5.3,10.46c0,0-4.59,7-17.37,10.86,0,0-6,2.58-21.56,4.2C68.37,312.2,37.18,315.77,36.81,314.79Z" transform="translate(-4.4 -9.29)"/><polygon class="cls-38" points="323.1 295.18 302.01 286.8 291.78 283.06 279.85 279.14 274.92 277.55 276.64 279.46 286.93 283.54 306.53 290.26 319.71 295.64 323.1 295.64 323.1 295.18"/><path class="cls-9" d="M245.89,222.61l4.17-16.25s4.55,11.35,5.87,17.14c0,0,6.36,22.85,7.86,37.78l2.46,14.18s.64,10.61,7.82,10.83l15.43,4.82,5.57,1.71,10.13,3.86,7.39,2.86,9,3.3,9.64,3.76L330.6,315s-17.63-1.15-21.71-1.55c0,0-10-.8-20.77-2.64a51,51,0,0,1-20.3-7.21s-9.53-4.46-12.27-14.59l-8.74-25.18-5.34-15.31Z" transform="translate(-4.4 -9.29)"/><path class="cls-9" d="M245.89,222.61l4.17-16.25s-5.13-13.72-14.12-16.28l-21.38-3.56-57.92-1.11-20.27,3.76s-10.85.35-16.4,12.18l-5.9,12.6,2.72,8.66H138.7l36.17.41h17.4Z" transform="translate(-4.4 -9.29)"/><path class="cls-35" d="M177.59,197.61l2.57,94.74s5.63,23,8.68,0l.35-95.26S183.26,190.83,177.59,197.61Z" transform="translate(-4.4 -9.29)"/><path class="cls-9" d="M180.64,290.25s5.15,23.25,7.5,0V205.07s-4.55-13.82-9.35,0Z" transform="translate(-4.4 -9.29)"/><polyline class="cls-9" points="177.09 294.04 176.25 280.96 183.75 280.96 183.75 293.78"/><path class="cls-35" d="M95,382.39s.29-42.68,6.38-45.88c0,0,11.9-1.28,15.52-.3,0,0-9.24,34.47-2.8,47C114.09,383.18,95,383.07,95,382.39Z" transform="translate(-4.4 -9.29)"/><path class="cls-35" d="M262.71,334.44s6.39,41.36,2.77,48.46l-9.34.28,1.22-4,.59-2.4.22-1.12.2-1.09.23-1.6.23-2.29a20.67,20.67,0,0,0,0-2.49,15.73,15.73,0,0,0-.23-2.53c-.15-.15,0-.11,0-.11a13.33,13.33,0,0,0-1.18-4.29s-1.05-2.25-1.28-2.57a4.05,4.05,0,0,0-1.92-1.23s-4.54-1.23-4.73-1.15l.14-22.42S258.6,332.66,262.71,334.44Z" transform="translate(-4.4 -9.29)"/><path class="cls-9" d="M176.54,379.35a108.16,108.16,0,0,1,25.07-.41L225,381.13s21.34,2.17,27.89,2.06h2.66s2.64-6.75,2.81-11.69a21.24,21.24,0,0,0-2.67-13,34.39,34.39,0,0,0-11.41-2.6s-10.58-1-15.61-.88a98.32,98.32,0,0,0-15.3,1.78s-15.65,3.51-24.72,1.38c0,0-8.71-.86-13.34-3L165,351.39s-10.25-4.39-12.51-6c0,0-10-4.33-13.31-5.28,0,0-9.59-2.52-13.16-3,0,0-8.87-1.16-9.23-.93,0,0-12,50.71,0,47l10.28-.32,11.44-1.06Z" transform="translate(-4.4 -9.29)"/><path class="cls-9" d="M96,381.29l16.39,1a11.71,11.71,0,0,1-1.45-5.22s-2.22-13,4.92-40.38c0,0-12.18-.42-14.24.92C101.57,337.66,95.62,348.59,96,381.29Z" transform="translate(-4.4 -9.29)"/><path class="cls-37" d="M96.23,367l14.47-.45s-.66,13,1.64,15.75l-16.39-1Z" transform="translate(-4.4 -9.29)"/><path class="cls-37" d="M111.72,366.31s39.41-2.14,46.53-.69c0,0,56.2,6.63,66.7,4.93,0,0,25.45,5.4,28.74,2.65,0,0,4.74-6.06,3.53-11.72l1.21,5.66s1.14,4.53-3.09,16.05a277.52,277.52,0,0,1-28.41-1.81l-28.77-2.66a113.9,113.9,0,0,0-11.41-.22s-11.08.91-13.57,1.07l-16.4,1.06S137.41,382,136.05,382c0,0-10.69,1.27-12.78,1l-5.31.21h-1.18a3,3,0,0,1-3.37-.84S110.25,378.05,111.72,366.31Z" transform="translate(-4.4 -9.29)"/><path class="cls-9" d="M250.59,356.49s.13-21.85-.25-22.26c0,0,10.76-.89,11.73.75l1.5,10.26,1.13,10,.75,7.18.26,4s-6.36-1.64-8.19-4.89l-.66-1.4-.13-.3-.36-.72-.59-.87-.3-.08Z" transform="translate(-4.4 -9.29)"/><path class="cls-37" d="M265.71,366.37s1.16,9.86-.69,16l-8.69.19,1-3.22.67-2.74.4-2.12.3-2.26.18-2.43,0-1.92-.26-2.78s-.46-1.92-.48-2-.54-1.48-.54-1.48a11.36,11.36,0,0,0,3,2.71A35.27,35.27,0,0,0,265.71,366.37Z" transform="translate(-4.4 -9.29)"/><path class="cls-37" d="M249.49,354.41s-6.82-5.92-28.35-4.23c0,0-33.59,3.88-41.24,1.8,0,0-13-1.25-22.21-9.71,0,0-1.55-3.3-20.32-3.55,0,0-14.89-3-26.23-6.47,0,0-12.28-3.73-20.57-.13,0,0,.15,5,.64,5.14l0,.32.89-.16,1.79-.3,1.66-.29,1.93-.15,2.06-.28,1.45-.11,2.36-.11,1.95-.11h1.58l2,.11h2.17l6.72.22s14.59,1.21,20.26,3.44c0,0,11.33,3.6,13.08,5,0,0,9,4.6,16,7.34,0,0,10.33,4.35,16.4,4.92,0,0,13,3.05,23.35.48l5.54-.88,3-.65,2.81-.72,2.65-.24,3.89-.16,2.35-.22,3-.08,6.75.19,6.16.48,6.41,1Z" transform="translate(-4.4 -9.29)"/><path class="cls-9" d="M90.57,332.12s6.78-3.09,17.4-.65l.19,0c10.73,2.52,13.31,3.55,13.31,3.55s14.11,3.73,15.69,3.6l5.56.22s11.31.92,14.23,2.72a37.72,37.72,0,0,0,20.71,10l2.24.34a14.84,14.84,0,0,0,3.35.48,83.72,83.72,0,0,0,9.33,0l11.08-.65L213,351s10.21-1.24,13.75-1c0,0,9.26-.29,11.1.5a27.2,27.2,0,0,1,11.62,3.91l.14-20.55-2.13.13-3.29.13-1,.21-1.2.12h-.68l-2.14.24-1,.12-.84.17h-1.53l-2.21.43-1.18.2-2.08.12-.44.16-.56.18-1.41.11-2.21.68-2.21.4-.92.08-2.13.64L214,339.37l-3.8.54-2.2.32-6.26.59-1.95.15-2.66.07-2.89.28H183.11s-2.09-.18-2.25-.18-2-.17-2-.17-10.3-.72-10.43-1.93c0,0-1.07-3.3-5.29-6.3,0,0-5.34-3.5-15-2.19,0,0-10.81,3-26.09.09L108,327.27a38.12,38.12,0,0,0-10.18-.77S91.49,326.05,90.57,332.12Z" transform="translate(-4.4 -9.29)"/><path class="cls-38" d="M37.07,317.65l-1-11.08,8.18-3.16s-1.54,11.8.77,13.38l-7.74.86Z" transform="translate(-4.4 -9.29)"/><path class="cls-4" d="M37.67,317.47l-1-11.19,7-2.69s-1.43,10.55.23,13.24Z" transform="translate(-4.4 -9.29)"/><path class="cls-5" d="M37.43,314.67a57.74,57.74,0,0,0,5.87,0,9.13,9.13,0,0,0,.63,2.16l-6.26.64Z" transform="translate(-4.4 -9.29)"/><path class="cls-38" d="M330.24,317.82l1.05-11.35L323,303.24s1.56,12.09-.77,13.71l7.83.87Z" transform="translate(-4.4 -9.29)"/><path class="cls-4" d="M329.64,317.64l1-11.47-7.06-2.75s1.44,10.81-.23,13.57Z" transform="translate(-4.4 -9.29)"/><path class="cls-5" d="M329.88,314.78a59.09,59.09,0,0,1-5.94,0,9.12,9.12,0,0,1-.63,2.21l6.33.65Z" transform="translate(-4.4 -9.29)"/><path class="cls-39" d="M216.35,254.48c.08-1.12-.36-2.29.22-3.38,4.16-.46,7.35-2.35,9-6.33a9.9,9.9,0,0,0-2-10.89,9.48,9.48,0,0,0-5.5-3,4.69,4.69,0,0,1-1.71-.54c0-.49-.06-1-.06-1.48,0-1.61,0-1.61,1.62-1.23a13.57,13.57,0,0,1,9.71,16.69c-1.46,5.42-5.07,8.62-10.45,9.93-.21,0-.47,0-.61.21Z" transform="translate(-4.4 -9.29)"/><path class="cls-40" d="M201.29,238.73a13.86,13.86,0,0,1,10.62-11.2c.93-.19,1.15.07,1.07.92-.06.63,0,1.27-.07,1.91a10.94,10.94,0,0,1-2.69.79,10.15,10.15,0,0,0-6.66,13.27,9.43,9.43,0,0,1,.65,1.8,1.54,1.54,0,0,1-1.35,1.32c-1.13-.84-1.28-2.14-1.51-3.37a14.74,14.74,0,0,0-.25-1.75V242C201.41,240.9,201.05,239.8,201.29,238.73Z" transform="translate(-4.4 -9.29)"/><path class="cls-41" d="M221.37,241.28a6.72,6.72,0,0,1-5.76,6.32,6.89,6.89,0,0,1-7.44-5,6.7,6.7,0,0,1,3.39-7.76c.76.21.39.79.34,1.2a5.56,5.56,0,0,0,8.26,5.7C220.54,241.55,220.84,241.13,221.37,241.28Z" transform="translate(-4.4 -9.29)"/><path class="cls-39" d="M221.37,241.28a5.89,5.89,0,0,1-9.66-2.68,7.55,7.55,0,0,1-.05-2.92c0-.3.2-.58-.1-.82a6.06,6.06,0,0,1,6.73.19A6.19,6.19,0,0,1,221.37,241.28Z" transform="translate(-4.4 -9.29)"/><path class="cls-42" d="M216.37,230.36c5.36.38,9.12,3.47,10.1,8.74a10.23,10.23,0,0,1-7.94,12c-.62.15-1.29.54-2,0a13.94,13.94,0,0,0,4.9-2.56,10.56,10.56,0,0,0,2.32-12.2c-1.27-2.92-3.62-4.33-6.42-5.33C217,230.88,216.38,231.06,216.37,230.36Z" transform="translate(-4.4 -9.29)"/><path class="cls-40" d="M210.57,250.2c.62.51,1.46.51,2.13.9-.07.57-.54.49-.87.44a10.62,10.62,0,0,1-7.57-4.61c-.13-.2-.1-.44-.2-.64-2.29-4.47-1.9-8.7,1.33-12.52a9.64,9.64,0,0,1,5.85-3.18c.55-.1,1.12-.15,1.67-.23,0,.6-.5.53-.79.6-7.83,2-9.55,10.93-5.56,16.22A8.36,8.36,0,0,0,210.57,250.2Z" transform="translate(-4.4 -9.29)"/><path class="cls-42" d="M204.06,246.29a11,11,0,0,0,7.25,4.88c.48.1.94.26,1.39-.07.56,1,.25,2,.2,2.94,0,.49-.63.25-1,.18a12.8,12.8,0,0,1-6.19-3.17,11.53,11.53,0,0,1-2.89-3.61A3.16,3.16,0,0,0,204.06,246.29Z" transform="translate(-4.4 -9.29)"/><path class="cls-2" d="M216.29,253.42c.07-1.06-.35-2.14.21-3.16,3.92-.43,6.94-2.2,8.47-5.92a9.15,9.15,0,0,0-1.85-10.17,9,9,0,0,0-5.2-2.79,4.64,4.64,0,0,1-1.62-.51c0-.45-.05-.91-.05-1.37,0-1.51,0-1.51,1.53-1.15,5.31,1.24,11.42,7.35,9.18,15.59-1.38,5.06-4.79,8.05-9.88,9.28-.2,0-.44,0-.58.2Z" transform="translate(-4.4 -9.29)"/><path class="cls-43" d="M202.05,238.7a13,13,0,0,1,10-10.47c.88-.18,1.09.06,1,.86,0,.59,0,1.19-.06,1.79a10.8,10.8,0,0,1-2.55.74A9.44,9.44,0,0,0,204.2,244a9.22,9.22,0,0,1,.61,1.69,1.44,1.44,0,0,1-1.28,1.23c-1.07-.79-1.21-2-1.42-3.15a13.23,13.23,0,0,0-.24-1.64v-.42C202.16,240.73,201.83,239.7,202.05,238.7Z" transform="translate(-4.4 -9.29)"/><path class="cls-44" d="M221,241.08a6.3,6.3,0,0,1-5.45,5.9,6.5,6.5,0,0,1-7-4.65,6.23,6.23,0,0,1,3.19-7.25c.73.2.37.74.33,1.12a5,5,0,0,0,2,5,5.06,5.06,0,0,0,5.82.38C220.24,241.33,220.53,240.94,221,241.08Z" transform="translate(-4.4 -9.29)"/><path class="cls-45" d="M221,241.08a5.59,5.59,0,0,1-9.13-2.5,7,7,0,0,1-.05-2.73c0-.28.19-.54-.1-.77a6.27,6.27,0,0,1,9.28,6Z" transform="translate(-4.4 -9.29)"/><path class="cls-46" d="M216.3,230.87c5.07.37,8.62,3.25,9.55,8.18a9.56,9.56,0,0,1-7.5,11.16c-.59.14-1.23.5-1.85,0a13.16,13.16,0,0,0,4.62-2.4,9.79,9.79,0,0,0,2.2-11.4c-1.2-2.72-3.43-4.05-6.07-5C216.91,231.37,216.31,231.53,216.3,230.87Z" transform="translate(-4.4 -9.29)"/><path class="cls-47" d="M210.82,249.42c.59.47,1.38.47,2,.84-.08.53-.52.45-.83.4a10,10,0,0,1-7.15-4.3c-.13-.19-.1-.41-.19-.6-2.17-4.17-1.79-8.12,1.26-11.7a9.21,9.21,0,0,1,5.53-3c.52-.1,1-.14,1.58-.21,0,.56-.47.49-.76.56-7.4,1.85-9,10.21-5.25,15.16A8,8,0,0,0,210.82,249.42Z" transform="translate(-4.4 -9.29)"/><path class="cls-48" d="M204.67,245.76a10.47,10.47,0,0,0,6.85,4.57c.45.08.89.24,1.32-.07.53.88.23,1.84.18,2.75,0,.45-.59.22-.9.16a11.94,11.94,0,0,1-5.85-3,10.69,10.69,0,0,1-2.73-3.36A3.16,3.16,0,0,0,204.67,245.76Z" transform="translate(-4.4 -9.29)"/><path class="cls-49" d="M167.71,89h32.45a27.84,27.84,0,0,0,3.3-17.18,45.05,45.05,0,0,0-36.83-1.46S161.63,81.17,167.71,89Z" transform="translate(-4.4 -9.29)"/><polygon class="cls-50" points="162.24 61.09 166.68 48.38 193.51 48.38 199.06 62.54 162.24 61.09"/><path class="cls-51" d="M171.08,57.67s9.82-19.9,26.83,0c0,0,3.25,21-10.87,44.87C187,102.54,185.3,64.34,171.08,57.67Z" transform="translate(-4.4 -9.29)"/><path class="cls-52" d="M254.12,108.65a67,67,0,0,1-17.24,48,71.44,71.44,0,0,1-99.32,6,66.18,66.18,0,0,1-22.6-46c-1-17.72,5.63-35,17.24-48a71.44,71.44,0,0,1,99.32-6.05,66.18,66.18,0,0,1,22.6,46c0,.25.79.26.77,0a66.64,66.64,0,0,0-21.17-44.8,71.6,71.6,0,0,0-46.08-18.78,73,73,0,0,0-48.3,16,68.05,68.05,0,0,0-24.59,42.77,65.77,65.77,0,0,0,12.71,48.82,70.35,70.35,0,0,0,41.49,26c33.67,7.21,70.53-11.13,82.46-45.16a65.51,65.51,0,0,0,3.48-24.82C254.88,108.46,254.11,108.44,254.12,108.65Z" transform="translate(-4.4 -9.29)"/><path class="cls-53" d="M254.87,108.77c2,37.17-27.73,69.08-66.37,71.27s-71.58-26.15-73.57-63.32,27.73-69.08,66.38-71.28S252.88,71.6,254.87,108.77Z" transform="translate(-4.4 -9.29)"/><path class="cls-54" d="M254.51,108.68c-2-37.17-34.92-65.52-73.57-63.33s-68.35,34.11-66.37,71.28,34.92,65.52,73.57,63.33S256.49,145.85,254.51,108.68ZM180.71,159c-31.59,1.79-58.52-21.39-60.14-51.78S143.24,50.76,174.83,49,233.35,70.35,235,100.74,212.31,157.22,180.71,159Z" transform="translate(-4.4 -9.29)"/><path class="cls-55" d="M124.54,99.64a45.59,45.59,0,0,0,.14,15,72.29,72.29,0,0,1,3.81-13.85Z" transform="translate(-4.4 -9.29)"/><path class="cls-55" d="M127.84,86.46A62.64,62.64,0,0,0,125.35,95l4.91,1.42a73.11,73.11,0,0,1,4.27-8.17C132.32,87.6,130.06,87.11,127.84,86.46Z" transform="translate(-4.4 -9.29)"/><path class="cls-55" d="M168.72,53.65s-23.86-.43-37,24.27c-1,2-1.93,3.85-2.72,5.72,2.39.75,4.86,1.26,7.26,2C143.39,75,154.79,65,172.72,62.8Z" transform="translate(-4.4 -9.29)"/><path class="cls-40" d="M201.31,188.13c.64,2-1.29,2.89-3.53,4.34-9.45,6.08-18.12,4.88-26.55-1.74-2.06-1.62-3-13.84-1-15.36,1.69-1.27,3.82-.67,5.38,0,6.51,2.63,13.13,1.95,19.78,1.08,3.78-.49,6.46-.06,5.76,4.75C200.9,183.1,201.24,185.13,201.31,188.13Z" transform="translate(-4.4 -9.29)"/><path class="cls-40" d="M155.35,168c2.16,3.3,5.88,4,9.29,4.46,4.06.53,5.45,2.32,5.26,6-.18,3.44-.12,6.88-.16,10.4-16.63-6.54-19.71-10.78-15.51-21.12A.69.69,0,0,1,155.35,168Z" transform="translate(-4.4 -9.29)"/><path class="cls-40" d="M215.07,169.53c-2.09,3.19-5.69,3.88-9,4.31-3.93.51-5.27,2.24-5.09,5.81.17,3.32.11,6.65.15,10,16.08-6.32,19.07-10.42,15-20.42A.67.67,0,0,0,215.07,169.53Z" transform="translate(-4.4 -9.29)"/><path class="cls-56" d="M200.23,187.71c.61,1.82-1.22,2.67-3.36,4-9,5.59-17.23,4.47-25.27-1.63-2-1.49-2.84-12.75-.92-14.15,1.6-1.17,3.63-.61,5.11,0,6.2,2.43,12.5,1.81,18.83,1,3.6-.45,6.15-.06,5.48,4.37C199.83,183.08,200.15,185,200.23,187.71Z" transform="translate(-4.4 -9.29)"/><path class="cls-2" d="M155.55,169.39c1.91,2.86,5.21,3.48,8.24,3.87,3.6.45,4.83,2,4.67,5.21-.16,3-.11,6-.15,9-14.75-5.67-17.49-9.35-13.76-18.32A.62.62,0,0,1,155.55,169.39Z" transform="translate(-4.4 -9.29)"/><path class="cls-57" d="M187.44,185.82c-.49,2.38-1.88,3.45-4.16,3.05s-3.26-2-2.83-4.34a3.26,3.26,0,0,1,3.91-2.86C186.67,182,187.67,183.34,187.44,185.82Z" transform="translate(-4.4 -9.29)"/><path class="cls-2" d="M214.6,170.61c-1.92,2.86-5.22,3.48-8.25,3.87-3.6.45-4.83,2-4.67,5.21.16,3,.11,6,.15,9,14.75-5.67,17.49-9.35,13.76-18.32A.61.61,0,0,0,214.6,170.61Z" transform="translate(-4.4 -9.29)"/><path class="cls-2" d="M230,310.86c-.34-1.31-.6-2.64-1-3.93a6.94,6.94,0,0,0-.32-.68c-1.65-.62-6.88-3.16-8.41-3-24.07,1.94-48.21,2.62-72.18-.31-4-.49-7.86-1.12-9-3-6.06,1.67-10.14,7.31-7.86,10.7,4.12.88,8,1.94,12.37,2.6,27.71,4.22,55.59,3.66,83.55.33,1.51-.18,2.87-.4,4.06-.65A4.77,4.77,0,0,1,230,310.86Z" transform="translate(-4.4 -9.29)"/><path class="cls-2" d="M227.43,301.18s-2.18,1.65-7.22,2l10.92,9.69s4-.95,3.94-2.35c0,0,.74-1.08-.57-2.55l-3.42-8.46a4.09,4.09,0,0,0-3.34-1.47s-1.4-.21-.38.91Z" transform="translate(-4.4 -9.29)"/><path class="cls-40" d="M189.05,315.44c-4.21.45-8.33-.11-12.47-.51-2.79-.27-3.81-1.27-3.18-3.93,1.37-5.8,1.18-5.67,8.31-5.25a69.52,69.52,0,0,0,10.27-.53c2.14-.2,3.1.42,3,2.28a16.46,16.46,0,0,0,.13,2C195.54,315,195.54,315,189.05,315.44Z" transform="translate(-4.4 -9.29)"/><path class="cls-57" d="M188.07,314.72l-10.34-.55c-3.71-.19-3.5-2.3-3.17-4.67s1.05-3.42,4.3-3a59.27,59.27,0,0,0,12.13-.08c2.08-.19,2.45.33,2.49,1.78a9.11,9.11,0,0,0,.22,1.64C194.59,314.05,194.37,314.31,188.07,314.72Z" transform="translate(-4.4 -9.29)"/></g></g></svg>