<svg id="Objects" xmlns="http://www.w3.org/2000/svg" viewBox="0 0 324.04 300.41"><defs><style>.cls-1{fill:#e7e7e7;}.cls-2{fill:#e84c3d;}.cls-3{fill:#addfff;}.cls-4,.cls-5{fill:#d6efff;}.cls-5{opacity:0.5;}.cls-6,.cls-8{opacity:0.1;}.cls-7{opacity:0.2;}.cls-8{fill:#fff;}.cls-9{fill:#33aeff;}.cls-10{fill:#0d68be;}.cls-11{fill:#a827f5;}</style></defs><title>Imagen a usar</title><path class="cls-1" d="M81.93,237.1H55.71a16.59,16.59,0,0,0,0,33.17H81.93a16.59,16.59,0,0,0,0-33.17Z" transform="translate(-2.27 -7.95)"/><path class="cls-1" d="M292.59,78.15H241.17a7.35,7.35,0,0,1-.85-14.65h14.45a23.28,23.28,0,1,0,0-46.55h-133a23.28,23.28,0,0,0,0,46.55h25.35a7.35,7.35,0,0,1-.84,14.65H36A33.72,33.72,0,0,0,2.27,111.87h0A33.71,33.71,0,0,0,36,145.58H137.56a11.9,11.9,0,0,1-.29,23.61H84.82a25.08,25.08,0,0,0-25.08,25.08h0a25.07,25.07,0,0,0,25.08,25.07h61.11a8.88,8.88,0,0,1,0,17.76H130.88a16.59,16.59,0,0,0,0,33.17H278.11a16.59,16.59,0,0,0,0-33.17H243.35a8.88,8.88,0,0,1,0-17.76H274.9A25.07,25.07,0,0,0,300,194.27h0a25.08,25.08,0,0,0-25.08-25.08H232.22a11.9,11.9,0,0,1-.29-23.61h60.66a33.71,33.71,0,0,0,33.71-33.71h0A33.72,33.72,0,0,0,292.59,78.15ZM206,228.22a8.88,8.88,0,0,1-8.88,8.88h-7.84a8.88,8.88,0,0,1,0-17.76h7.84A8.89,8.89,0,0,1,206,228.22ZM188,70.8a7.36,7.36,0,0,1,6.51-7.3h12a7.35,7.35,0,0,1-.84,14.65H195.34A7.35,7.35,0,0,1,188,70.8Z" transform="translate(-2.27 -7.95)"/><path class="cls-2" d="M288.68,108.45a1.94,1.94,0,1,1-1.33-2.4A1.93,1.93,0,0,1,288.68,108.45Z" transform="translate(-2.27 -7.95)"/><path class="cls-3" d="M221,185.81l4,13.52,17-3.6-1.72,21.16,17.57-6.4-30.8,45.91a22.15,22.15,0,0,1-30.73,6.06h0a22.15,22.15,0,0,1-6.06-30.74Z" transform="translate(-2.27 -7.95)"/><path class="cls-4" d="M240.17,216.89l1.72-21.16-17,3.6-.78-2.66L198,235.61a13.45,13.45,0,0,0,22.34,15l23.52-35.06Z" transform="translate(-2.27 -7.95)"/><polygon class="cls-3" points="252.43 145.74 238.59 143.1 234.05 159.84 216.01 148.65 213.68 167.21 189.53 123.63 228.29 102.16 252.43 145.74"/><polygon class="cls-4" points="216.01 148.65 234.05 159.84 238.59 143.1 241.31 143.62 220.68 106.38 197.15 119.41 215.51 152.56 216.01 148.65"/><path class="cls-3" d="M229.92,111.77l-36.36,20.15a7.77,7.77,0,0,1-10.56-3h0a7.77,7.77,0,0,1,3-10.56l36.36-20.15a7.78,7.78,0,0,1,10.56,3h0A7.77,7.77,0,0,1,229.92,111.77Z" transform="translate(-2.27 -7.95)"/><path class="cls-5" d="M227.81,107.4l-19.73,10.93a4.21,4.21,0,0,1-5.73-1.64h0A4.21,4.21,0,0,1,204,111L223.73,100a4.22,4.22,0,0,1,5.73,1.64h0A4.21,4.21,0,0,1,227.81,107.4Z" transform="translate(-2.27 -7.95)"/><path class="cls-2" d="M288.61,175.77c-5.73.15-12.79,3.36-12.79,3.36s4-3.42,7.86-12.78,5.66-18.95,1-18.21-7.92,9.83-11,15.63c-5.44,10.26-10.18,13.54-10.18,13.54s1.94-3.63-.19-6.64-7.74-2.22-11.7,7.42a102.28,102.28,0,0,1-10,17.79l-.3.43-1,1.4-.19.26c-.36.49-.72,1-1.08,1.43l-.23.31-1.14,1.44-.23.28c-.39.48-.79.95-1.19,1.41a1.34,1.34,0,0,0-.11.14c-.85,1-1.7,1.88-2.55,2.72a28.54,28.54,0,0,1-4.12,3.46c-5.34,3.56-12.21,4-16.32,3.86L198,235.61a13.45,13.45,0,0,0,22.34,15l23.52-35.06h0s16.16-20.81,36.81-29.4c11.33-4.71,19.13-2.51,20-5.55S294.34,175.62,288.61,175.77Z" transform="translate(-2.27 -7.95)"/><path class="cls-2" d="M275.05,150.08a3.86,3.86,0,1,1-2.64-4.77A3.85,3.85,0,0,1,275.05,150.08Z" transform="translate(-2.27 -7.95)"/><path class="cls-2" d="M265.68,126.59a2.26,2.26,0,1,1-1.55-2.8A2.25,2.25,0,0,1,265.68,126.59Z" transform="translate(-2.27 -7.95)"/><polygon class="cls-3" points="186.29 161.97 196.28 159.54 193.39 169.4 186.29 161.97"/><polygon class="cls-3" points="271.43 207.78 273.12 197.64 281.06 204.17 271.43 207.78"/><polygon class="cls-3" points="200.17 175.28 202.46 170.33 205.61 174.79 200.17 175.28"/><path class="cls-6" d="M245,215.12l-18.36,27.37a22.12,22.12,0,0,1-39.26-5,22.15,22.15,0,0,0,39.55,18.89l30.8-45.91Z" transform="translate(-2.27 -7.95)"/><path class="cls-6" d="M236.31,167.79l-.39-.41c-13.85-9-22.13-26.82-29.81-42.42h0l-13.75,7.62,23.58,42.57,2.33-18.55Z" transform="translate(-2.27 -7.95)"/><path class="cls-7" d="M263.2,191.39s-17.29,12.7-26.68,25.63-16.74,25.87-21.88,29.34c-6.1,4.12-12.49,0-12.94-5.05s5.92-13.37,16.44-17,25.27-16.66,30.11-24,5.06-15.39,9.89-15.72,1.66,4.63,1.66,4.63,6-3.43,11.11-11.5,6-11.68,8.34-9.25S271.17,185,263.2,191.39Z" transform="translate(-2.27 -7.95)"/><path class="cls-7" d="M269.53,189.46S275.44,186,280.2,184,291,182.16,292,180.65s-7-1.15-13.26,2A27.74,27.74,0,0,0,269.53,189.46Z" transform="translate(-2.27 -7.95)"/><path class="cls-7" d="M240,207a60.3,60.3,0,0,1-13.46,10c-7.33,3.77-10.49,3.88-10.08,1.46C216.94,215.85,230,215.1,240,207Z" transform="translate(-2.27 -7.95)"/><path class="cls-8" d="M258.48,175.53a1.33,1.33,0,1,1-.91-1.64A1.33,1.33,0,0,1,258.48,175.53Z" transform="translate(-2.27 -7.95)"/><path class="cls-8" d="M280.17,179.54a25.84,25.84,0,0,1,9.86-2.43c5.29-.12,9,.87,8.89,2.2s-3.1-.9-8.69-1.15A29,29,0,0,0,280.17,179.54Z" transform="translate(-2.27 -7.95)"/><path class="cls-8" d="M250.59,185.82s-4.42,10.1-9.7,16a45,45,0,0,1-10.35,8.68,25.92,25.92,0,0,0,12.66-8.81A40.27,40.27,0,0,0,250.59,185.82Z" transform="translate(-2.27 -7.95)"/><path class="cls-8" d="M283,151.5s-1.74,1.44-3.86,5.86S275,166.69,271.7,171a51.23,51.23,0,0,1-5.88,6.6s4.54-2,9.51-10S279,156.93,283,151.5Z" transform="translate(-2.27 -7.95)"/><path class="cls-8" d="M272.24,148.37a1.6,1.6,0,0,1-3.07-.88,1.6,1.6,0,0,1,3.07.88Z" transform="translate(-2.27 -7.95)"/><path class="cls-8" d="M264.16,125.55a1,1,0,0,1-2-.58,1,1,0,1,1,2,.58Z" transform="translate(-2.27 -7.95)"/><path class="cls-8" d="M287.53,107.5a.77.77,0,1,1-.53-1A.77.77,0,0,1,287.53,107.5Z" transform="translate(-2.27 -7.95)"/><polygon class="cls-8" points="241.61 207.59 237.9 208.94 239.63 187.78 222.66 191.38 221.88 188.72 218.68 177.86 208.27 193.39 236.3 231.13 255.48 202.54 241.61 207.59 241.61 207.59"/><path class="cls-8" d="M202.14,213.85l-12,17.87c-.32.48-.6,1-.87,1.46l24.11,32.47a22,22,0,0,0,13.55-9.25l3.23-4.81Z" transform="translate(-2.27 -7.95)"/><path class="cls-9" d="M185.42,48.67s7.8-8.23,15.32-9.49c12.19-2,14.24,9.46,9.71,12.93S196.64,46.51,185.42,48.67Z" transform="translate(-2.27 -7.95)"/><path class="cls-9" d="M184,39.52S183.7,33.45,186,30c3.69-5.51,8.94-2.07,8.62,1S187.33,34.35,184,39.52Z" transform="translate(-2.27 -7.95)"/><circle class="cls-3" cx="112.48" cy="134.52" r="56.53" transform="translate(-62.38 157.53) rotate(-60.27)"/><rect class="cls-3" x="120.05" y="52.12" width="44.3" height="71.35" transform="translate(67.07 -70.55) rotate(32.46)"/><path class="cls-3" d="M178.27,69.82,143.19,47.51a7.77,7.77,0,0,1-2.38-10.73h0a7.76,7.76,0,0,1,10.72-2.38l35.08,22.31A7.77,7.77,0,0,1,189,67.43h0A7.77,7.77,0,0,1,178.27,69.82Z" transform="translate(-2.27 -7.95)"/><path class="cls-5" d="M163.6,53.42l-17.46-11.1A3.87,3.87,0,0,1,145,37h0a3.86,3.86,0,0,1,5.33-1.19L167.74,46.9a3.85,3.85,0,0,1,1.19,5.33h0A3.86,3.86,0,0,1,163.6,53.42Z" transform="translate(-2.27 -7.95)"/><path class="cls-4" d="M172.69,64.91,150,50.47l-26.33,41.4a44.1,44.1,0,1,0,22.69,14.44Z" transform="translate(-2.27 -7.95)"/><path class="cls-10" d="M68.39,134.44s14.16-10.18,30.75-6c15.85,3.95,24.86,4.52,35.5,1.38s2,22.46-25.46,21.31S68.21,138.48,68.39,134.44Z" transform="translate(-2.27 -7.95)"/><path class="cls-9" d="M146.36,106.31s-5.39-7.8-12.29-7.15.64,9.06.64,9.06-11.73-11.91-16-8.63c-3.35,2.59,1.51,5.83,6,11.22.16.2.33.4.49.62a16.82,16.82,0,0,1-3.74,23.85c-3.81,2.74-8.92,5-16,6.32-10,1.92-25.61,0-37.2-7.16a44.09,44.09,0,1,0,78-28.13Z" transform="translate(-2.27 -7.95)"/><path class="cls-9" d="M112.34,111.38a3.16,3.16,0,1,1-3.16-3.16A3.16,3.16,0,0,1,112.34,111.38Z" transform="translate(-2.27 -7.95)"/><path class="cls-9" d="M175.85,27.12A3.16,3.16,0,1,1,172.69,24,3.15,3.15,0,0,1,175.85,27.12Z" transform="translate(-2.27 -7.95)"/><path class="cls-9" d="M98.25,113a1.62,1.62,0,1,1-1.62-1.62A1.62,1.62,0,0,1,98.25,113Z" transform="translate(-2.27 -7.95)"/><path class="cls-9" d="M158.85,9.56A1.62,1.62,0,1,1,157.23,8,1.62,1.62,0,0,1,158.85,9.56Z" transform="translate(-2.27 -7.95)"/><path class="cls-3" d="M76.7,125A2.19,2.19,0,0,1,75,121.51l6.91-8.94L76.75,99a2.19,2.19,0,0,1,4.09-1.54l5.55,14.68a2.19,2.19,0,0,1-.31,2.11l-7.65,9.9A2.16,2.16,0,0,1,76.7,125Z" transform="translate(-2.27 -7.95)"/><path class="cls-3" d="M88.72,123.39a2.21,2.21,0,0,1-1.2-.36l-7.14-4.67a2.19,2.19,0,0,1,2.4-3.66l7.14,4.68a2.18,2.18,0,0,1-1.2,4Z" transform="translate(-2.27 -7.95)"/><path class="cls-6" d="M94.58,160.7A56.56,56.56,0,0,1,71,96.17a55.82,55.82,0,0,0-6.17,8,56.53,56.53,0,1,0,101.66,47.17A56.54,56.54,0,0,1,94.58,160.7Z" transform="translate(-2.27 -7.95)"/><path class="cls-6" d="M150.36,136.32s-2.1,27.49-29.82,35.32-41.92-10-40-17.21,12.52-6.75,29.68,3.27C126.3,167.09,147.44,149.43,150.36,136.32Z" transform="translate(-2.27 -7.95)"/><path class="cls-6" d="M120,143.61s12.38-3.8,13.84-13.83-4-13.71,0-15.24S148.9,139.62,120,143.61Z" transform="translate(-2.27 -7.95)"/><path class="cls-8" d="M152.91,130.57a52.14,52.14,0,0,0-4.51-15.95c-3.82-8-7.52-12-9.84-11.5s2.19,6.41,6.29,11.22S152.91,130.57,152.91,130.57Z" transform="translate(-2.27 -7.95)"/><path class="cls-8" d="M143.07,141.83s-5.77,8.52-14.78,11.94c0,0-11.44,3.93-12.93-.61-1.62-4.9,6-4.2,12-4.7S143.07,141.83,143.07,141.83Z" transform="translate(-2.27 -7.95)"/><circle class="cls-8" cx="120.14" cy="94.73" r="1.87"/><path class="cls-8" d="M105.45,146.71a1.27,1.27,0,1,1-1.26-1.26A1.26,1.26,0,0,1,105.45,146.71Z" transform="translate(-2.27 -7.95)"/><path class="cls-8" d="M210.43,44.61a3.05,3.05,0,1,1-3.05-3A3,3,0,0,1,210.43,44.61Z" transform="translate(-2.27 -7.95)"/><path class="cls-8" d="M192,30.16a1.73,1.73,0,1,1-1.73-1.73A1.74,1.74,0,0,1,192,30.16Z" transform="translate(-2.27 -7.95)"/><circle class="cls-8" cx="106.38" cy="102.71" r="1.6"/><path class="cls-8" d="M96.73,112.69a.61.61,0,0,1-.61.62.62.62,0,0,1-.62-.62.61.61,0,0,1,.62-.61A.61.61,0,0,1,96.73,112.69Z" transform="translate(-2.27 -7.95)"/><path class="cls-8" d="M96.51,80.3a56.25,56.25,0,0,0-30.52,22l89.72,68.57a55.33,55.33,0,0,0,4.46-6.06A56.18,56.18,0,0,0,169,135.69Z" transform="translate(-2.27 -7.95)"/><path class="cls-8" d="M145.1,180.68,59.37,115.16a56.28,56.28,0,0,0-3.12,25.12l65.43,50A56.68,56.68,0,0,0,145.1,180.68Z" transform="translate(-2.27 -7.95)"/><path class="cls-8" d="M186.61,56.71,151.53,34.4a7.76,7.76,0,0,0-11.15,9.94L177.87,73l1.62-2.55a7.76,7.76,0,0,0,7.12-13.73Z" transform="translate(-2.27 -7.95)"/><path class="cls-8" d="M159.09,102.51,170.22,85,134.89,58l-11.78,18.5L161,105.44C160.36,104.45,159.74,103.47,159.09,102.51Z" transform="translate(-2.27 -7.95)"/><path class="cls-11" d="M207.7,78h-1.09v-1.1a2.28,2.28,0,0,0-4.55,0V78H201a2.27,2.27,0,0,0,0,4.54h1.1v1.1a2.28,2.28,0,0,0,4.55,0v-1.1h1.09a2.27,2.27,0,1,0,0-4.54Z" transform="translate(-2.27 -7.95)"/><path class="cls-11" d="M75.33,53h-1.1v-1.1a2.27,2.27,0,0,0-4.54,0V53h-1.1a2.27,2.27,0,0,0,0,4.54h1.1v1.1a2.27,2.27,0,1,0,4.54,0v-1.1h1.1a2.27,2.27,0,1,0,0-4.54Z" transform="translate(-2.27 -7.95)"/><path class="cls-11" d="M284.49,236.81h-1.1v-1.1a2.27,2.27,0,1,0-4.54,0v1.1h-1.1a2.27,2.27,0,0,0,0,4.54h1.1v1.1a2.27,2.27,0,0,0,4.54,0v-1.1h1.1a2.27,2.27,0,0,0,0-4.54Z" transform="translate(-2.27 -7.95)"/><path class="cls-11" d="M71.76,205.61H70.67v-1.1a2.28,2.28,0,0,0-4.55,0v1.1H65a2.28,2.28,0,1,0,0,4.55h1.09v1.09a2.28,2.28,0,0,0,4.55,0v-1.09h1.09a2.28,2.28,0,1,0,0-4.55Z" transform="translate(-2.27 -7.95)"/><path class="cls-3" d="M111.53,52.91a2.35,2.35,0,1,1-2.35-2.35A2.35,2.35,0,0,1,111.53,52.91Z" transform="translate(-2.27 -7.95)"/><circle class="cls-3" cx="140.81" cy="236.77" r="5.24"/><path class="cls-3" d="M236.25,86.48A3.3,3.3,0,1,1,233,83.19,3.29,3.29,0,0,1,236.25,86.48Z" transform="translate(-2.27 -7.95)"/><circle class="cls-3" cx="28.83" cy="108.88" r="3.29"/><circle class="cls-3" cx="251.36" cy="253.19" r="3.45"/><path class="cls-11" d="M175.64,185.91a3,3,0,0,0-2.15-4.67l-8.3-.94a3,3,0,1,0-.67,6l8.29,1A3,3,0,0,0,175.64,185.91Z" transform="translate(-2.27 -7.95)"/><path class="cls-11" d="M178.36,197.79a3,3,0,0,0-3.44-4.52l-16.44,5.53a3,3,0,0,0,1.92,5.69L176.84,199A3,3,0,0,0,178.36,197.79Z" transform="translate(-2.27 -7.95)"/><path class="cls-11" d="M184.34,206.92a3,3,0,0,0-4.71-3.69l-7,7.77a3,3,0,1,0,4.46,4l7-7.78A2.51,2.51,0,0,0,184.34,206.92Z" transform="translate(-2.27 -7.95)"/><text x="-2.27" y="-7.95"/></svg>