<svg xmlns="http://www.w3.org/2000/svg" xmlns:xlink="http://www.w3.org/1999/xlink" viewBox="0 0 670.29 214.64"><defs><style>.cls-1{fill:none;}.cls-2{isolation:isolate;}.cls-3{clip-path:url(#clip-path);}.cls-215,.cls-216,.cls-4{opacity:0.85;}.cls-174,.cls-176,.cls-192,.cls-193,.cls-194,.cls-195,.cls-199,.cls-200,.cls-201,.cls-202,.cls-203,.cls-204,.cls-205,.cls-207,.cls-208,.cls-210,.cls-211,.cls-212,.cls-213,.cls-214,.cls-215,.cls-216,.cls-24,.cls-25,.cls-27,.cls-36,.cls-4{mix-blend-mode:screen;}.cls-4{fill:url(#Áåçûìÿííûé_ãðàäèåíò_307);}.cls-5{fill:url(#Áåçûìÿííûé_ãðàäèåíò_232);}.cls-184,.cls-196,.cls-201,.cls-206,.cls-207,.cls-208,.cls-23,.cls-24,.cls-25,.cls-29,.cls-35,.cls-40,.cls-43,.cls-6{opacity:0.5;}.cls-184,.cls-196,.cls-206,.cls-22,.cls-23,.cls-29,.cls-35,.cls-40,.cls-41,.cls-43,.cls-6{mix-blend-mode:multiply;}.cls-6{fill:url(#Áåçûìÿííûé_ãðàäèåíò_237);}.cls-7{fill:url(#Áåçûìÿííûé_ãðàäèåíò_54);}.cls-8{fill:url(#Áåçûìÿííûé_ãðàäèåíò_37);}.cls-9{fill:url(#Áåçûìÿííûé_ãðàäèåíò_272);}.cls-10{fill:url(#Áåçûìÿííûé_ãðàäèåíò_24);}.cls-11{fill:url(#Áåçûìÿííûé_ãðàäèåíò_13);}.cls-12{fill:url(#Áåçûìÿííûé_ãðàäèåíò_24-2);}.cls-13{fill:url(#Áåçûìÿííûé_ãðàäèåíò_43);}.cls-14{fill:url(#Áåçûìÿííûé_ãðàäèåíò_24-3);}.cls-15{fill:url(#Áåçûìÿííûé_ãðàäèåíò_43-2);}.cls-16{fill:url(#Áåçûìÿííûé_ãðàäèåíò_35);}.cls-17{fill:url(#Áåçûìÿííûé_ãðàäèåíò_35-2);}.cls-18{fill:#00b369;}.cls-19{fill:url(#Áåçûìÿííûé_ãðàäèåíò_35-3);}.cls-20{fill:url(#Áåçûìÿííûé_ãðàäèåíò_35-4);}.cls-21{fill:#006a69;}.cls-202,.cls-22,.cls-27{opacity:0.3;}.cls-22{fill:url(#Áåçûìÿííûé_ãðàäèåíò_71);}.cls-23{fill:url(#Áåçûìÿííûé_ãðàäèåíò_70);}.cls-24{fill:url(#Áåçûìÿííûé_ãðàäèåíò_80);}.cls-25{fill:url(#Áåçûìÿííûé_ãðàäèåíò_80-2);}.cls-26{fill:#fff;}.cls-27{fill:url(#Áåçûìÿííûé_ãðàäèåíò_105);}.cls-28{fill:url(#Áåçûìÿííûé_ãðàäèåíò_60);}.cls-29{fill:url(#Áåçûìÿííûé_ãðàäèåíò_71-2);}.cls-30{fill:#5b254e;}.cls-31{fill:url(#Áåçûìÿííûé_ãðàäèåíò_18);}.cls-32{fill:url(#Áåçûìÿííûé_ãðàäèåíò_18-2);}.cls-33{fill:url(#Áåçûìÿííûé_ãðàäèåíò_18-3);}.cls-34{fill:#985965;}.cls-35{fill:url(#Áåçûìÿííûé_ãðàäèåíò_71-3);}.cls-36{fill:url(#Áåçûìÿííûé_ãðàäèåíò_182);}.cls-37{fill:url(#Áåçûìÿííûé_ãðàäèåíò_138);}.cls-38{fill:url(#Áåçûìÿííûé_ãðàäèåíò_214);}.cls-39{fill:url(#Áåçûìÿííûé_ãðàäèåíò_127);}.cls-40{fill:url(#Áåçûìÿííûé_ãðàäèåíò_108);}.cls-199,.cls-203,.cls-204,.cls-41{opacity:0.2;}.cls-41{fill:url(#Áåçûìÿííûé_ãðàäèåíò_108-2);}.cls-42{fill:url(#Áåçûìÿííûé_ãðàäèåíò_127-2);}.cls-43{fill:url(#Áåçûìÿííûé_ãðàäèåíò_108-3);}.cls-44{clip-path:url(#clip-path-2);}.cls-45{fill:#270579;}.cls-46{fill:#27067a;}.cls-47{fill:#27077b;}.cls-48{fill:#27087b;}.cls-49{fill:#27097c;}.cls-50{fill:#270a7d;}.cls-51{fill:#270b7e;}.cls-52{fill:#270c7e;}.cls-53{fill:#270d7f;}.cls-54{fill:#270e80;}.cls-55{fill:#270f81;}.cls-56{fill:#271082;}.cls-57{fill:#271182;}.cls-58{fill:#271283;}.cls-59{fill:#271384;}.cls-60{fill:#271485;}.cls-61{fill:#271585;}.cls-62{fill:#271686;}.cls-63{fill:#271887;}.cls-64{fill:#271988;}.cls-65{fill:#271a89;}.cls-66{fill:#271b89;}.cls-67{fill:#271c8a;}.cls-68{fill:#271d8b;}.cls-69{fill:#271e8c;}.cls-70{fill:#271f8c;}.cls-71{fill:#27208d;}.cls-72{fill:#27218e;}.cls-73{fill:#27228f;}.cls-74{fill:#272390;}.cls-75{fill:#272490;}.cls-76{fill:#272591;}.cls-77{fill:#272692;}.cls-78{fill:#272793;}.cls-79{fill:#272893;}.cls-80{fill:#272994;}.cls-81{fill:#272a95;}.cls-82{fill:#282a95;}.cls-83{fill:#292b96;}.cls-84{fill:#2a2b96;}.cls-85{fill:#2b2b97;}.cls-86{fill:#2c2b97;}.cls-87{fill:#2d2c98;}.cls-88{fill:#2e2c98;}.cls-89{fill:#2f2c98;}.cls-90{fill:#302d99;}.cls-91{fill:#312d99;}.cls-92{fill:#322d9a;}.cls-93{fill:#332d9a;}.cls-94{fill:#342e9a;}.cls-95{fill:#352e9b;}.cls-96{fill:#362e9b;}.cls-97{fill:#372f9c;}.cls-98{fill:#382f9c;}.cls-99{fill:#392f9d;}.cls-100{fill:#3a2f9d;}.cls-101{fill:#3b309d;}.cls-102{fill:#3c309e;}.cls-103{fill:#3d309e;}.cls-104{fill:#3e319f;}.cls-105{fill:#3f319f;}.cls-106{fill:#40319f;}.cls-107{fill:#4131a0;}.cls-108{fill:#4232a0;}.cls-109{fill:#4332a1;}.cls-110{fill:#4432a1;}.cls-111{fill:#4533a2;}.cls-112{fill:#4633a2;}.cls-113{fill:#4733a2;}.cls-114{fill:#4833a3;}.cls-115{fill:#4934a3;}.cls-116{fill:#4a34a4;}.cls-117{fill:#4b34a4;}.cls-118{fill:#4c35a4;}.cls-119{fill:#4d35a5;}.cls-120{fill:#4e35a5;}.cls-121{fill:#4f35a6;}.cls-122{fill:#5036a6;}.cls-123{fill:#5236a7;}.cls-124{fill:#5336a7;}.cls-125{fill:#5437a7;}.cls-126{fill:#5537a8;}.cls-127{fill:#5637a8;}.cls-128{fill:#5737a9;}.cls-129{fill:#5838a9;}.cls-130{fill:#5938a9;}.cls-131{fill:#5a38aa;}.cls-132{fill:#5b39aa;}.cls-133{fill:#5c39ab;}.cls-134{fill:#5d39ab;}.cls-135{fill:#5e39ac;}.cls-136{fill:#5f3aac;}.cls-137{fill:#603aac;}.cls-138{fill:#613aad;}.cls-139{fill:#623bad;}.cls-140{fill:#633bae;}.cls-141{fill:#643bae;}.cls-142{fill:#653bae;}.cls-143{fill:#663caf;}.cls-144{fill:#673caf;}.cls-145{fill:#683cb0;}.cls-146{fill:#693db0;}.cls-147{fill:#6a3db1;}.cls-148{fill:#6b3db1;}.cls-149{fill:#6c3db1;}.cls-150{fill:#6d3eb2;}.cls-151{fill:#6e3eb2;}.cls-152{fill:#6f3eb3;}.cls-153{fill:#703fb3;}.cls-154{fill:#713fb3;}.cls-155{fill:#723fb4;}.cls-156{fill:#733fb4;}.cls-157{fill:#7440b5;}.cls-158{fill:#7540b5;}.cls-159{fill:#7640b6;}.cls-160{fill:#7741b6;}.cls-161{fill:#7841b6;}.cls-162{fill:#7941b7;}.cls-163{fill:#7a41b7;}.cls-164{fill:#7b42b8;}.cls-165{fill:#7c42b8;}.cls-166{fill:url(#Áåçûìÿííûé_ãðàäèåíò_111);}.cls-167{fill:url(#Áåçûìÿííûé_ãðàäèåíò_8);}.cls-168{fill:url(#Áåçûìÿííûé_ãðàäèåíò_152);}.cls-169{fill:url(#Áåçûìÿííûé_ãðàäèåíò_2);}.cls-170{fill:url(#Áåçûìÿííûé_ãðàäèåíò_111-2);}.cls-171{fill:url(#Áåçûìÿííûé_ãðàäèåíò_8-2);}.cls-172{fill:url(#Áåçûìÿííûé_ãðàäèåíò_152-2);}.cls-173{fill:url(#Áåçûìÿííûé_ãðàäèåíò_2-2);}.cls-174{fill:url(#Áåçûìÿííûé_ãðàäèåíò_343);}.cls-175{fill:url(#Áåçûìÿííûé_ãðàäèåíò_291);}.cls-176{fill:url(#Áåçûìÿííûé_ãðàäèåíò_343-2);}.cls-177{fill:url(#Áåçûìÿííûé_ãðàäèåíò_111-3);}.cls-178{fill:url(#Áåçûìÿííûé_ãðàäèåíò_115);}.cls-179{fill:url(#Áåçûìÿííûé_ãðàäèåíò_2-3);}.cls-180{fill:url(#Áåçûìÿííûé_ãðàäèåíò_115-2);}.cls-181{fill:url(#Áåçûìÿííûé_ãðàäèåíò_2-4);}.cls-182{fill:url(#Áåçûìÿííûé_ãðàäèåíò_147);}.cls-183{fill:url(#Áåçûìÿííûé_ãðàäèåíò_196);}.cls-185{fill:url(#Áåçûìÿííûé_ãðàäèåíò_127-3);}.cls-186{fill:url(#Áåçûìÿííûé_ãðàäèåíò_74);}.cls-187{fill:url(#Áåçûìÿííûé_ãðàäèåíò_74-2);}.cls-188{fill:url(#Áåçûìÿííûé_ãðàäèåíò_74-3);}.cls-189{fill:url(#Áåçûìÿííûé_ãðàäèåíò_74-4);}.cls-190{fill:url(#Áåçûìÿííûé_ãðàäèåíò_74-5);}.cls-191{fill:url(#Áåçûìÿííûé_ãðàäèåíò_74-6);}.cls-192{fill:url(#Áåçûìÿííûé_ãðàäèåíò_99);}.cls-193{fill:url(#Áåçûìÿííûé_ãðàäèåíò_99-2);}.cls-194{fill:url(#Áåçûìÿííûé_ãðàäèåíò_99-3);}.cls-195{fill:url(#Áåçûìÿííûé_ãðàäèåíò_343-3);}.cls-196{fill:url(#Áåçûìÿííûé_ãðàäèåíò_108-4);}.cls-197{fill:url(#Áåçûìÿííûé_ãðàäèåíò_127-4);}.cls-198{fill:url(#Áåçûìÿííûé_ãðàäèåíò_127-5);}.cls-199{fill:url(#Áåçûìÿííûé_ãðàäèåíò_116);}.cls-200{fill:url(#Áåçûìÿííûé_ãðàäèåíò_99-4);}.cls-201{fill:url(#Áåçûìÿííûé_ãðàäèåíò_117);}.cls-202{fill:url(#Áåçûìÿííûé_ãðàäèåíò_117-2);}.cls-203{fill:url(#Áåçûìÿííûé_ãðàäèåíò_116-2);}.cls-204{fill:url(#Áåçûìÿííûé_ãðàäèåíò_116-3);}.cls-205{fill:url(#Áåçûìÿííûé_ãðàäèåíò_99-5);}.cls-206{fill:url(#Áåçûìÿííûé_ãðàäèåíò_108-5);}.cls-207{fill:url(#Áåçûìÿííûé_ãðàäèåíò_116-4);}.cls-208{fill:url(#Áåçûìÿííûé_ãðàäèåíò_120);}.cls-209{fill:url(#Áåçûìÿííûé_ãðàäèåíò_257);}.cls-210{fill:url(#Áåçûìÿííûé_ãðàäèåíò_243);}.cls-211{fill:url(#Áåçûìÿííûé_ãðàäèåíò_344);}.cls-212{fill:url(#Áåçûìÿííûé_ãðàäèåíò_346);}.cls-213{opacity:0.83;fill:url(#Áåçûìÿííûé_ãðàäèåíò_117-3);}.cls-214{fill:url(#Áåçûìÿííûé_ãðàäèåíò_99-6);}.cls-215{fill:url(#Áåçûìÿííûé_ãðàäèåíò_312);}.cls-216{fill:url(#Áåçûìÿííûé_ãðàäèåíò_312-2);}</style><clipPath id="clip-path" transform="translate(-2.24 -5.21)"/><linearGradient id="Áåçûìÿííûé_ãðàäèåíò_307" x1="13.07" y1="199.75" x2="280.55" y2="199.75" gradientTransform="matrix(0.99, 0.16, -0.16, 0.99, 30.57, -56.62)" gradientUnits="userSpaceOnUse"><stop offset="0"/><stop offset="0.11" stop-color="#050506"/><stop offset="0.27" stop-color="#141418"/><stop offset="0.44" stop-color="#2c2d35"/><stop offset="0.64" stop-color="#4d4f5e"/><stop offset="0.85" stop-color="#777a91"/><stop offset="1" stop-color="#9a9dbb"/></linearGradient><linearGradient id="Áåçûìÿííûé_ãðàäèåíò_232" x1="369.4" y1="133.33" x2="369.4" y2="45.02" gradientUnits="userSpaceOnUse"><stop offset="0" stop-color="orange"/><stop offset="1" stop-color="#ffba56"/></linearGradient><linearGradient id="Áåçûìÿííûé_ãðàäèåíò_237" x1="356.83" y1="126.2" x2="356.83" y2="85.39" gradientUnits="userSpaceOnUse"><stop offset="0" stop-color="#c228a9"/><stop offset="1" stop-color="#e5dcf4"/></linearGradient><linearGradient id="Áåçûìÿííûé_ãðàäèåíò_54" x1="353.4" y1="131.67" x2="353.4" y2="86.17" gradientUnits="userSpaceOnUse"><stop offset="0" stop-color="#791e44"/><stop offset="1" stop-color="#9d547c"/></linearGradient><linearGradient id="Áåçûìÿííûé_ãðàäèåíò_37" x1="373.71" y1="131.67" x2="373.71" y2="84.94" gradientUnits="userSpaceOnUse"><stop offset="0" stop-color="#8b3164"/><stop offset="1" stop-color="#f77554"/></linearGradient><radialGradient id="Áåçûìÿííûé_ãðàäèåíò_272" cx="265.72" cy="83.16" r="76.57" gradientUnits="userSpaceOnUse"><stop offset="0" stop-color="#a26d9f"/><stop offset="0.65" stop-color="#4436a4"/><stop offset="1" stop-color="#401e90"/></radialGradient><linearGradient id="Áåçûìÿííûé_ãðàäèåíò_24" x1="391.28" y1="125.63" x2="391.28" y2="103.05" gradientUnits="userSpaceOnUse"><stop offset="0" stop-color="#0c7754"/><stop offset="1" stop-color="#007486"/></linearGradient><linearGradient id="Áåçûìÿííûé_ãðàäèåíò_13" x1="392.26" y1="105.55" x2="392.26" y2="65.24" gradientUnits="userSpaceOnUse"><stop offset="0" stop-color="#7fc729"/><stop offset="1" stop-color="#00ba86"/></linearGradient><linearGradient id="Áåçûìÿííûé_ãðàäèåíò_24-2" x1="410.78" y1="94.49" x2="410.78" y2="79.75" xlink:href="#Áåçûìÿííûé_ãðàäèåíò_24"/><linearGradient id="Áåçûìÿííûé_ãðàäèåíò_43" x1="411.51" y1="93.96" x2="411.51" y2="81.01" gradientUnits="userSpaceOnUse"><stop offset="0" stop-color="#4c4862"/><stop offset="1" stop-color="#1f345a"/></linearGradient><linearGradient id="Áåçûìÿííûé_ãðàäèåíò_24-3" x1="388.33" y1="95.14" x2="388.33" y2="78.1" xlink:href="#Áåçûìÿííûé_ãðàäèåíò_24"/><linearGradient id="Áåçûìÿííûé_ãðàäèåíò_43-2" x1="388.69" y1="94.63" x2="388.69" y2="79.94" xlink:href="#Áåçûìÿííûé_ãðàäèåíò_43"/><linearGradient id="Áåçûìÿííûé_ãðàäèåíò_35" x1="390.41" y1="94.63" x2="390.41" y2="79.94" gradientUnits="userSpaceOnUse"><stop offset="0" stop-color="#332f4c"/><stop offset="1" stop-color="#001843"/></linearGradient><linearGradient id="Áåçûìÿííûé_ãðàäèåíò_35-2" x1="411.62" y1="93.95" x2="411.62" y2="81.01" xlink:href="#Áåçûìÿííûé_ãðàäèåíò_35"/><linearGradient id="Áåçûìÿííûé_ãðàäèåíò_35-3" x1="403.66" y1="98.26" x2="403.66" y2="97.05" xlink:href="#Áåçûìÿííûé_ãðàäèåíò_35"/><linearGradient id="Áåçûìÿííûé_ãðàäèåíò_35-4" x1="407.65" y1="98.26" x2="407.65" y2="96.87" xlink:href="#Áåçûìÿííûé_ãðàäèåíò_35"/><linearGradient id="Áåçûìÿííûé_ãðàäèåíò_71" x1="388.47" y1="105.55" x2="388.47" y2="65.52" gradientUnits="userSpaceOnUse"><stop offset="0" stop-color="#a6cfe8"/><stop offset="1" stop-color="#455caf"/></linearGradient><linearGradient id="Áåçûìÿííûé_ãðàäèåíò_70" x1="389.05" y1="109.8" x2="389.05" y2="103.46" gradientUnits="userSpaceOnUse"><stop offset="0" stop-color="#a6cfe8"/><stop offset="1" stop-color="#454f8b"/></linearGradient><linearGradient id="Áåçûìÿííûé_ãðàäèåíò_80" x1="388.99" y1="90.39" x2="388.99" y2="79.93" gradientUnits="userSpaceOnUse"><stop offset="0" stop-color="#004077"/><stop offset="0.19" stop-color="#003767"/><stop offset="0.55" stop-color="#00203c"/><stop offset="1"/></linearGradient><linearGradient id="Áåçûìÿííûé_ãðàäèåíò_80-2" x1="411.63" y1="90.13" x2="411.63" y2="81.01" xlink:href="#Áåçûìÿííûé_ãðàäèåíò_80"/><linearGradient id="Áåçûìÿííûé_ãðàäèåíò_105" x1="394.78" y1="75.89" x2="394.78" y2="65.3" gradientUnits="userSpaceOnUse"><stop offset="0" stop-color="#2f5448"/><stop offset="0.25" stop-color="#26443a"/><stop offset="0.74" stop-color="#0e1a16"/><stop offset="1"/></linearGradient><linearGradient id="Áåçûìÿííûé_ãðàäèåíò_60" x1="397.87" y1="72.19" x2="397.87" y2="58.5" gradientUnits="userSpaceOnUse"><stop offset="0" stop-color="#a82977"/><stop offset="1" stop-color="#d45c74"/></linearGradient><linearGradient id="Áåçûìÿííûé_ãðàäèåíò_71-2" x1="391.38" y1="125.63" x2="391.38" y2="118.25" xlink:href="#Áåçûìÿííûé_ãðàäèåíò_71"/><linearGradient id="Áåçûìÿííûé_ãðàäèåíò_18" x1="404.49" y1="127.89" x2="404.49" y2="111.84" gradientUnits="userSpaceOnUse"><stop offset="0" stop-color="#33a94c"/><stop offset="1" stop-color="#009d95"/></linearGradient><linearGradient id="Áåçûìÿííûé_ãðàäèåíò_18-2" x1="434.65" y1="118.25" x2="434.65" y2="109.95" xlink:href="#Áåçûìÿííûé_ãðàäèåíò_18"/><linearGradient id="Áåçûìÿííûé_ãðàäèåíò_18-3" x1="439.1" y1="123.08" x2="439.1" y2="114.72" xlink:href="#Áåçûìÿííûé_ãðàäèåíò_18"/><linearGradient id="Áåçûìÿííûé_ãðàäèåíò_71-3" x1="396.17" y1="67.25" x2="396.17" y2="60.95" xlink:href="#Áåçûìÿííûé_ãðàäèåíò_71"/><radialGradient id="Áåçûìÿííûé_ãðàäèåíò_182" cx="388.69" cy="87.99" r="69.59" gradientUnits="userSpaceOnUse"><stop offset="0"/><stop offset="0.13" stop-color="#000206"/><stop offset="0.3" stop-color="#000815"/><stop offset="0.5" stop-color="#001230"/><stop offset="0.7" stop-color="#002054"/><stop offset="0.92" stop-color="#003183"/><stop offset="1" stop-color="#003997"/></radialGradient><linearGradient id="Áåçûìÿííûé_ãðàäèåíò_138" x1="389.71" y1="126.33" x2="475.87" y2="126.33" gradientUnits="userSpaceOnUse"><stop offset="0" stop-color="#a16bc7"/><stop offset="1" stop-color="#e87cc2"/></linearGradient><radialGradient id="Áåçûìÿííûé_ãðàäèåíò_214" cx="433.76" cy="151.3" r="50.58" gradientUnits="userSpaceOnUse"><stop offset="0" stop-color="#5c28b8"/><stop offset="0.63" stop-color="#1f30bb"/><stop offset="0.98" stop-color="#7021c5"/></radialGradient><linearGradient id="Áåçûìÿííûé_ãðàäèåíò_127" x1="440.73" y1="171.34" x2="440.73" y2="158.3" gradientUnits="userSpaceOnUse"><stop offset="0" stop-color="#2939c7"/><stop offset="1" stop-color="#7448c2"/></linearGradient><linearGradient id="Áåçûìÿííûé_ãðàäèåíò_108" x1="386.87" y1="178.5" x2="386.87" y2="124.49" gradientUnits="userSpaceOnUse"><stop offset="0" stop-color="#2128a9"/><stop offset="1" stop-color="#e5dcf4"/></linearGradient><linearGradient id="Áåçûìÿííûé_ãðàäèåíò_108-2" x1="452.55" y1="170.84" x2="452.55" y2="123.68" xlink:href="#Áåçûìÿííûé_ãðàäèåíò_108"/><linearGradient id="Áåçûìÿííûé_ãðàäèåíò_127-2" x1="433.73" y1="158.48" x2="433.73" y2="125.4" xlink:href="#Áåçûìÿííûé_ãðàäèåíò_127"/><linearGradient id="Áåçûìÿííûé_ãðàäèåíò_108-3" x1="433.73" y1="158.48" x2="433.73" y2="125.42" xlink:href="#Áåçûìÿííûé_ãðàäèåíò_108"/><clipPath id="clip-path-2" transform="translate(-2.24 -5.21)"><path class="cls-1" d="M180.31,174.72s-5.24-3.78-3.15-9.65c0,0,54.85-41.61,205.62-46.17,0,0-4.32,42.81-16.91,60.12C365.87,179,209.78,178,180.31,174.72Z"/></clipPath><linearGradient id="Áåçûìÿííûé_ãðàäèåíò_111" x1="393.03" y1="-16.36" x2="393.03" y2="-72.77" gradientTransform="matrix(0.98, -0.21, 0.21, 0.98, 0.21, 274.94)" gradientUnits="userSpaceOnUse"><stop offset="0" stop-color="#4755e1"/><stop offset="1" stop-color="#855eca"/></linearGradient><linearGradient id="Áåçûìÿííûé_ãðàäèåíò_8" x1="393.03" y1="-17.65" x2="393.03" y2="-71.47" gradientTransform="matrix(0.98, -0.21, 0.21, 0.98, 0.21, 274.94)" gradientUnits="userSpaceOnUse"><stop offset="0" stop-color="#5966e4"/><stop offset="1" stop-color="#9574d1"/></linearGradient><linearGradient id="Áåçûìÿííûé_ãðàäèåíò_152" x1="393.04" y1="-23.16" x2="393.04" y2="-65.64" gradientTransform="matrix(0.98, -0.21, 0.21, 0.98, 0.21, 274.94)" gradientUnits="userSpaceOnUse"><stop offset="0" stop-color="#00a1ff"/><stop offset="1" stop-color="#7784ff"/></linearGradient><linearGradient id="Áåçûìÿííûé_ãðàäèåíò_2" x1="390.32" y1="-24.76" x2="390.32" y2="-60.88" gradientTransform="matrix(0.98, -0.21, 0.21, 0.98, 0.21, 274.94)" gradientUnits="userSpaceOnUse"><stop offset="0" stop-color="#00fef4"/><stop offset="1" stop-color="#30a7fb"/></linearGradient><linearGradient id="Áåçûìÿííûé_ãðàäèåíò_111-2" x1="492.42" y1="170.5" x2="492.42" y2="123.96" gradientTransform="matrix(1, 0, 0, 1, 0, 0)" xlink:href="#Áåçûìÿííûé_ãðàäèåíò_111"/><linearGradient id="Áåçûìÿííûé_ãðàäèåíò_8-2" x1="492.42" y1="169.58" x2="492.42" y2="124.88" gradientTransform="matrix(1, 0, 0, 1, 0, 0)" xlink:href="#Áåçûìÿííûé_ãðàäèåíò_8"/><linearGradient id="Áåçûìÿííûé_ãðàäèåíò_152-2" x1="492.57" y1="163.27" x2="492.57" y2="131.4" gradientTransform="matrix(1, 0, 0, 1, 0, 0)" xlink:href="#Áåçûìÿííûé_ãðàäèåíò_152"/><linearGradient id="Áåçûìÿííûé_ãðàäèåíò_2-2" x1="490.38" y1="162.11" x2="490.38" y2="134.97" gradientTransform="matrix(1, 0, 0, 1, 0, 0)" xlink:href="#Áåçûìÿííûé_ãðàäèåíò_2"/><radialGradient id="Áåçûìÿííûé_ãðàäèåíò_343" cx="240.76" cy="110.74" r="20.92" gradientUnits="userSpaceOnUse"><stop offset="0" stop-color="#6d639c"/><stop offset="0.15" stop-color="#62598c"/><stop offset="0.43" stop-color="#443e62"/><stop offset="0.83" stop-color="#15141f"/><stop offset="1"/></radialGradient><linearGradient id="Áåçûìÿííûé_ãðàäèåíò_291" x1="180.99" y1="167.89" x2="340.36" y2="167.89" gradientUnits="userSpaceOnUse"><stop offset="0" stop-color="#5a25b7"/><stop offset="1" stop-color="#0f1768"/></linearGradient><radialGradient id="Áåçûìÿííûé_ãðàäèåíò_343-2" cx="281.31" cy="93.78" r="47.59" xlink:href="#Áåçûìÿííûé_ãðàäèåíò_343"/><linearGradient id="Áåçûìÿííûé_ãðàäèåíò_111-3" x1="298.42" y1="85.01" x2="378.59" y2="85.01" gradientTransform="matrix(1, 0, 0, 1, 0, 0)" xlink:href="#Áåçûìÿííûé_ãðàäèåíò_111"/><linearGradient id="Áåçûìÿííûé_ãðàäèåíò_115" x1="411.82" y1="318.67" x2="411.82" y2="297.3" gradientTransform="matrix(0.99, 0.16, -0.16, 0.99, 41.51, -206.26)" gradientUnits="userSpaceOnUse"><stop offset="0.03" stop-color="#00f1ff"/><stop offset="0.23" stop-color="#00a1ff"/><stop offset="1" stop-color="#7784ff"/></linearGradient><linearGradient id="Áåçûìÿííûé_ãðàäèåíò_2-3" x1="411" y1="317.8" x2="411" y2="299.91" gradientTransform="translate(707.74 -247.68) rotate(90)" xlink:href="#Áåçûìÿííûé_ãðàäèåíò_2"/><linearGradient id="Áåçûìÿííûé_ãðàäèåíò_115-2" x1="475.27" y1="305.09" x2="475.27" y2="286.31" xlink:href="#Áåçûìÿííûé_ãðàäèåíò_115"/><linearGradient id="Áåçûìÿííûé_ãðàäèåíò_2-4" x1="474.82" y1="304.39" x2="474.82" y2="288.05" gradientTransform="matrix(0.99, 0.16, -0.16, 0.99, 41.51, -206.26)" xlink:href="#Áåçûìÿííûé_ãðàäèåíò_2"/><radialGradient id="Áåçûìÿííûé_ãðàäèåíò_147" cx="232.33" cy="180.15" r="97.59" gradientUnits="userSpaceOnUse"><stop offset="0" stop-color="#a26d9f"/><stop offset="1" stop-color="#4034c9"/></radialGradient><radialGradient id="Áåçûìÿííûé_ãðàäèåíò_196" cx="232.33" cy="180.49" r="74.43" gradientUnits="userSpaceOnUse"><stop offset="0" stop-color="#5822b6"/><stop offset="0.63" stop-color="#593290"/><stop offset="0.98" stop-color="#31199a"/></radialGradient><linearGradient id="Áåçûìÿííûé_ãðàäèåíò_127-3" x1="282.55" y1="137.85" x2="282.55" y2="48.59" xlink:href="#Áåçûìÿííûé_ãðàäèåíò_127"/><linearGradient id="Áåçûìÿííûé_ãðàäèåíò_74" x1="319.37" y1="137.27" x2="319.37" y2="135.19" gradientUnits="userSpaceOnUse"><stop offset="0" stop-color="#634bde"/><stop offset="1" stop-color="#cc84c2"/></linearGradient><linearGradient id="Áåçûìÿííûé_ãðàäèåíò_74-2" x1="292.6" y1="80.77" x2="292.6" y2="78.68" xlink:href="#Áåçûìÿííûé_ãðàäèåíò_74"/><linearGradient id="Áåçûìÿííûé_ãðàäèåíò_74-3" x1="202.08" y1="183.74" x2="202.08" y2="181.66" xlink:href="#Áåçûìÿííûé_ãðàäèåíò_74"/><linearGradient id="Áåçûìÿííûé_ãðàäèåíò_74-4" x1="224.42" y1="172.33" x2="224.42" y2="170.25" xlink:href="#Áåçûìÿííûé_ãðàäèåíò_74"/><linearGradient id="Áåçûìÿííûé_ãðàäèåíò_74-5" x1="282.87" y1="101.38" x2="282.87" y2="99.29" xlink:href="#Áåçûìÿííûé_ãðàäèåíò_74"/><linearGradient id="Áåçûìÿííûé_ãðàäèåíò_74-6" x1="313.84" y1="144.76" x2="313.84" y2="142.67" xlink:href="#Áåçûìÿííûé_ãðàäèåíò_74"/><radialGradient id="Áåçûìÿííûé_ãðàäèåíò_99" cx="360.64" cy="146.36" r="15.33" gradientUnits="userSpaceOnUse"><stop offset="0" stop-color="#a183be"/><stop offset="0.12" stop-color="#9378ae"/><stop offset="0.37" stop-color="#705b84"/><stop offset="0.7" stop-color="#372d41"/><stop offset="1"/></radialGradient><radialGradient id="Áåçûìÿííûé_ãðàäèåíò_99-2" cx="479.45" cy="146.14" r="10.96" xlink:href="#Áåçûìÿííûé_ãðàäèåíò_99"/><radialGradient id="Áåçûìÿííûé_ãðàäèåíò_99-3" cx="316.98" cy="141.32" r="12.84" xlink:href="#Áåçûìÿííûé_ãðàäèåíò_99"/><radialGradient id="Áåçûìÿííûé_ãðàäèåíò_343-3" cx="218.06" cy="181.4" r="29.36" xlink:href="#Áåçûìÿííûé_ãðàäèåíò_343"/><linearGradient id="Áåçûìÿííûé_ãðàäèåíò_108-4" x1="347.29" y1="179.03" x2="347.29" y2="160.87" xlink:href="#Áåçûìÿííûé_ãðàäèåíò_108"/><linearGradient id="Áåçûìÿííûé_ãðàäèåíò_127-4" x1="317.27" y1="160.22" x2="317.27" y2="122.92" xlink:href="#Áåçûìÿííûé_ãðàäèåíò_127"/><linearGradient id="Áåçûìÿííûé_ãðàäèåíò_127-5" x1="219.33" y1="200.1" x2="219.33" y2="161.83" xlink:href="#Áåçûìÿííûé_ãðàäèåíò_127"/><linearGradient id="Áåçûìÿííûé_ãðàäèåíò_116" x1="142.35" y1="174.33" x2="329.87" y2="174.33" xlink:href="#Áåçûìÿííûé_ãðàäèåíò_99"/><radialGradient id="Áåçûìÿííûé_ãðàäèåíò_99-4" cx="242.56" cy="179.51" r="63.13" xlink:href="#Áåçûìÿííûé_ãðàäèåíò_99"/><linearGradient id="Áåçûìÿííûé_ãðàäèåíò_117" x1="242.24" y1="198.2" x2="242.24" y2="188.95" gradientUnits="userSpaceOnUse"><stop offset="0"/><stop offset="0.3" stop-color="#372d41"/><stop offset="0.63" stop-color="#705b84"/><stop offset="0.88" stop-color="#9378ae"/><stop offset="1" stop-color="#a183be"/></linearGradient><linearGradient id="Áåçûìÿííûé_ãðàäèåíò_117-2" x1="266.43" y1="188.86" x2="266.43" y2="178.36" xlink:href="#Áåçûìÿííûé_ãðàäèåíò_117"/><linearGradient id="Áåçûìÿííûé_ãðàäèåíò_116-2" x1="270.73" y1="163.21" x2="270.73" y2="122.98" xlink:href="#Áåçûìÿííûé_ãðàäèåíò_99"/><linearGradient id="Áåçûìÿííûé_ãðàäèåíò_116-3" x1="273.5" y1="145.05" x2="273.5" y2="48.79" xlink:href="#Áåçûìÿííûé_ãðàäèåíò_99"/><radialGradient id="Áåçûìÿííûé_ãðàäèåíò_99-5" cx="280.62" cy="139.79" r="69.55" xlink:href="#Áåçûìÿííûé_ãðàäèåíò_99"/><linearGradient id="Áåçûìÿííûé_ãðàäèåíò_108-5" x1="426.42" y1="177.8" x2="426.42" y2="168.89" xlink:href="#Áåçûìÿííûé_ãðàäèåíò_108"/><linearGradient id="Áåçûìÿííûé_ãðàäèåíò_116-4" x1="325.3" y1="124.65" x2="325.3" y2="55.57" xlink:href="#Áåçûìÿííûé_ãðàäèåíò_99"/><linearGradient id="Áåçûìÿííûé_ãðàäèåíò_120" x1="423.04" y1="99.88" x2="423.04" y2="47.3" xlink:href="#Áåçûìÿííûé_ãðàäèåíò_117"/><radialGradient id="Áåçûìÿííûé_ãðàäèåíò_257" cx="446.12" cy="60.49" r="46.46" gradientUnits="userSpaceOnUse"><stop offset="0.01" stop-color="#fbca59"/><stop offset="1" stop-color="#9f54ff"/></radialGradient><radialGradient id="Áåçûìÿííûé_ãðàäèåíò_243" cx="453.68" cy="77.61" r="20.1" gradientTransform="translate(-2287.54 -236.15) scale(5.88 4.11)" gradientUnits="userSpaceOnUse"><stop offset="0" stop-color="#ff5c13"/><stop offset="0.12" stop-color="#d14b10"/><stop offset="0.3" stop-color="#92350b"/><stop offset="0.48" stop-color="#5e2207"/><stop offset="0.64" stop-color="#351304"/><stop offset="0.78" stop-color="#180902"/><stop offset="0.91" stop-color="#060200"/><stop offset="1"/></radialGradient><radialGradient id="Áåçûìÿííûé_ãðàäèåíò_344" cx="480.72" cy="-103.78" r="27.14" gradientTransform="matrix(-2.09, 0, 0, -1.96, 1378.8, -55.87)" gradientUnits="userSpaceOnUse"><stop offset="0" stop-color="#006bff"/><stop offset="0.06" stop-color="#0063ed"/><stop offset="0.33" stop-color="#00409a"/><stop offset="0.56" stop-color="#002558"/><stop offset="0.76" stop-color="#001128"/><stop offset="0.91" stop-color="#00050b"/><stop offset="1"/></radialGradient><radialGradient id="Áåçûìÿííûé_ãðàäèåíò_346" cx="470.91" cy="-162.43" r="27.78" gradientTransform="matrix(-2.09, 0, 0, -1.96, 1475.17, -176.98)" gradientUnits="userSpaceOnUse"><stop offset="0" stop-color="#006bff"/><stop offset="0.26" stop-color="#004ab0"/><stop offset="0.53" stop-color="#002a65"/><stop offset="0.75" stop-color="#00132e"/><stop offset="0.91" stop-color="#00050d"/><stop offset="1"/></radialGradient><linearGradient id="Áåçûìÿííûé_ãðàäèåíò_117-3" x1="467.86" y1="126.38" x2="467.86" y2="90.39" xlink:href="#Áåçûìÿííûé_ãðàäèåíò_117"/><radialGradient id="Áåçûìÿííûé_ãðàäèåíò_99-6" cx="285.83" cy="86.71" r="60.94" xlink:href="#Áåçûìÿííûé_ãðàäèåíò_99"/><linearGradient id="Áåçûìÿííûé_ãðàäèåíò_312" x1="372.64" y1="118.99" x2="591.39" y2="154.46" gradientUnits="userSpaceOnUse"><stop offset="0" stop-color="#026bbb"/><stop offset="0.15" stop-color="#025391"/><stop offset="0.36" stop-color="#01365e"/><stop offset="0.56" stop-color="#011e35"/><stop offset="0.73" stop-color="#000e18"/><stop offset="0.89" stop-color="#000406"/><stop offset="1"/></linearGradient><linearGradient id="Áåçûìÿííûé_ãðàäèåíò_312-2" x1="490.83" y1="122.72" x2="671.43" y2="151.99" xlink:href="#Áåçûìÿííûé_ãðàäèåíò_312"/></defs><title>Mision</title><g class="cls-2"><g id="space"><g class="cls-3"><path class="cls-4" d="M237.41,120.59S110.55,151.21,2.24,199.8c0,0,130.08-15.24,274.71-23Z" transform="translate(-2.24 -5.21)"/><path class="cls-5" d="M299.7,133.33s1.85-45.73,25.77-68,47.94-24,70.27-15.86c32.42,11.86,40.77,56.78,43.36,77.61Z" transform="translate(-2.24 -5.21)"/><path class="cls-6" d="M311.34,85.39a53.47,53.47,0,0,0,18.53,22.21s19.46-21.71,36.32-22,25.09,30.66,25.09,30.66l24,7.34L298.42,126.2S299.57,98.19,311.34,85.39Z" transform="translate(-2.24 -5.21)"/><path class="cls-7" d="M355.63,131l-10.91.72s-1.89-36.08,17.41-45.5Z" transform="translate(-2.24 -5.21)"/><path class="cls-8" d="M355.63,131s-6-4.35-5.24-19.11c.83-17.21,7.13-23.38,11.74-25.67A13.06,13.06,0,0,1,378,90c4,5.44,19.06,39.59,19.06,39.59S363.67,133.15,355.63,131Z" transform="translate(-2.24 -5.21)"/><path class="cls-9" d="M378.59,45.38S353,45,333.23,61.94c-17.6,15.07-30.42,44-31.67,65.09a4.59,4.59,0,0,0,.6,1.51h0a9.4,9.4,0,0,0,4.59,3.74s-56.9,7.68-113,24.38c0,0,19.65-42,52.45-67.53C273.29,68,308.16,50.36,366,44.51c2.52-.26,5.09-.49,7.69-.7Z" transform="translate(-2.24 -5.21)"/><path class="cls-10" d="M386.28,103.05a83.8,83.8,0,0,0,.65,9.37s-5,4.82-5.77,6.82a36.24,36.24,0,0,0-1.15,6.39l22.55-1.36a51.14,51.14,0,0,0-10.3-10.91,22.08,22.08,0,0,1-.35-9Z" transform="translate(-2.24 -5.21)"/><path class="cls-11" d="M415.25,95.22c-.05.58-1,4.09-5.67,7.13a19.09,19.09,0,0,1-1.92,1.1h0a19.57,19.57,0,0,1-7.92,2.1c-16.26-.53-22.35-6.66-22.35-6.66-6.61-3.15-8.7-9-8-11.33a6.09,6.09,0,0,1,2-3.15c.32-4.3,1.42-11.44,4.41-14,3.5-2.93,8.26-4.38,13-4.94,7.9-.93,15.84.59,18.2,1.88,1.73.94,6.3,5.19,6.61,10.85a129.12,129.12,0,0,1-.45,14.34S415.29,94.64,415.25,95.22Z" transform="translate(-2.24 -5.21)"/><path class="cls-12" d="M407.79,94.18c.1.45,3.7.55,6.27-.69a1.94,1.94,0,0,0-.61-1.47c-.67-.59.52-9.72.52-9.72a5.85,5.85,0,0,0-1.11-2.55S406,86,407.79,94.18Z" transform="translate(-2.24 -5.21)"/><path class="cls-13" d="M415,87.11h0a15.68,15.68,0,0,1-1.61,5.71,12,12,0,0,1-3.9,1.12c-.81.06-1.42,0-1.47-.44a13.54,13.54,0,0,1,.12-4.1s0,0,0,0a9.76,9.76,0,0,1,.3-1.24c0-.18.09-.33.13-.44a2,2,0,0,1,.07-.23h0A15.68,15.68,0,0,1,412.94,81,7.53,7.53,0,0,1,415,87.11Z" transform="translate(-2.24 -5.21)"/><path class="cls-14" d="M397.9,94c-.72,1-12.88,3.83-19.31-5.71,0,0,1.47-7.38,5.87-9.37s8.26,0,10.91,4.29C397.92,87.27,398.39,93.25,397.9,94Z" transform="translate(-2.24 -5.21)"/><path class="cls-15" d="M397.68,93.65c-.41.62-7.19,2.08-12.55-.48a10.68,10.68,0,0,1-5.65-6.24,12.7,12.7,0,0,1,4-5.44h0A7.67,7.67,0,0,1,387.5,80C395.24,79.43,398.89,91.81,397.68,93.65Z" transform="translate(-2.24 -5.21)"/><path class="cls-16" d="M397.68,93.65c-.41.62-7.19,2.08-12.55-.48-3.63-4.09-1.69-11.68-1.69-11.68h0A7.67,7.67,0,0,1,387.5,80C395.24,79.43,398.89,91.81,397.68,93.65Z" transform="translate(-2.24 -5.21)"/><path class="cls-17" d="M413.43,92.83a12,12,0,0,1-3.9,1.12,11,11,0,0,1-1.35-4.54s0,0,0,0A15.64,15.64,0,0,1,412.94,81C417.42,85.41,413.43,92.83,413.43,92.83Z" transform="translate(-2.24 -5.21)"/><path class="cls-18" d="M402.76,97.07a8.56,8.56,0,0,0,3.07.49c1.83,0,2.35-.69,2.35-.69A5.08,5.08,0,0,0,402.76,97.07Z" transform="translate(-2.24 -5.21)"/><path class="cls-19" d="M402.56,97.11a1.84,1.84,0,0,1,2.2,1.15Z" transform="translate(-2.24 -5.21)"/><path class="cls-20" d="M407.12,98.26s-.1-1.39,1.06-1.39Z" transform="translate(-2.24 -5.21)"/><path class="cls-21" d="M401.24,100.24a9.06,9.06,0,0,0,3.52.9,6.73,6.73,0,0,0,3.81-.9,4.48,4.48,0,0,1-3.81,1.79A4.67,4.67,0,0,1,401.24,100.24Z" transform="translate(-2.24 -5.21)"/><path class="cls-22" d="M407.65,103.45a19.57,19.57,0,0,1-7.92,2.1c-16.26-.53-22.35-6.66-22.35-6.66-6.61-3.15-8.68-9.18-7.95-11.49a5.17,5.17,0,0,1,2-3c.32-4.3,1.42-11.44,4.41-14,3.5-2.93,8.26-4.38,13-4.94-2.81.61-8.74,2.35-12.06,6.67-4.47,5.81,1.5,21.24,9.94,27.54C395.56,106.34,405.76,103.88,407.65,103.45Z" transform="translate(-2.24 -5.21)"/><path class="cls-23" d="M391.59,107.17a8.53,8.53,0,0,0-5,2.63s-.39-4.34-.32-6.34c0,0,3.61,1,5.54,1.31C391.83,104.77,391.61,106.7,391.59,107.17Z" transform="translate(-2.24 -5.21)"/><path class="cls-24" d="M381.71,83.13a5.87,5.87,0,0,0-.34,3.49c.52,1.41,8.18,3.72,12.85,3.77s1.52-4.86,1.52-4.86-2.06-5.22-7.28-5.57S381.71,83.13,381.71,83.13Z" transform="translate(-2.24 -5.21)"/><path class="cls-25" d="M415,87.11h0c-1.46,1.7-6.48,3.41-6.77,2.93a3.76,3.76,0,0,1,.21-1.89c0-.18.09-.33.13-.44s.06-.19.07-.23h0A15.68,15.68,0,0,1,412.94,81,7.53,7.53,0,0,1,415,87.11Z" transform="translate(-2.24 -5.21)"/><path class="cls-26" d="M384,88c.06-.7,3.56.72,3.54,1.24S383.91,88.71,384,88Z" transform="translate(-2.24 -5.21)"/><path class="cls-26" d="M388.46,89.48s1.6-.22,1.91.36C390.37,89.84,389.06,90.35,388.46,89.48Z" transform="translate(-2.24 -5.21)"/><path class="cls-26" d="M409.58,90s1.63-.93,2.13-.5A3.2,3.2,0,0,1,409.58,90Z" transform="translate(-2.24 -5.21)"/><path class="cls-27" d="M377.38,72.2s3.09,2.28,14.88,3.46,19.91-2.53,19.91-2.53-2.19-6.46-10.86-7.31C401.31,65.82,384.23,62.6,377.38,72.2Z" transform="translate(-2.24 -5.21)"/><path class="cls-28" d="M405,72.19c-.23-5.58-3.06-8.25-3.06-8.25l-.62,1.87c-4.22,3.46-10.61-.4-10.89-.57h0c2.41-7.12,11.13-6.72,11.13-6.72C407,62.05,405,72.19,405,72.19Z" transform="translate(-2.24 -5.21)"/><path class="cls-29" d="M381.7,118.25s.46,4.6,2.34,5.65,13.14,0,14.91-1,.16-3,.16-3,3.51,4.13,3.65,4.49L380,125.63S380.82,119.43,381.7,118.25Z" transform="translate(-2.24 -5.21)"/><path class="cls-30" d="M402,114.1s4.07,9.23,8.75,13h19.78s8.7-6.11,11.12-12.76a11.53,11.53,0,0,0-4.1-7.17s-4,11.33-10.17,15.63-11,2.06-12.16.77a64.79,64.79,0,0,1-8.13-15s-1.05-.7-3.78,1.41S402,114.1,402,114.1Z" transform="translate(-2.24 -5.21)"/><path class="cls-31" d="M394.49,124.76s6.86-2.75,7.33-3.43-.84-4.19-.58-5.08a5.61,5.61,0,0,1,1-1.73L403.7,117s3.84-.41,5.25-3l-.48-2.15s2,.21,2.53.79.51,4.13.51,4.13,0,.77.27.77,1-1.57,1.32-1.62a1.49,1.49,0,0,1,1.31.65,6.37,6.37,0,0,1-.71,3.86,12.4,12.4,0,0,1-6.05,3.65,16,16,0,0,1-3.6.08c-.87.08-5.7,3.74-5.7,3.74A5.48,5.48,0,0,1,394.49,124.76Z" transform="translate(-2.24 -5.21)"/><path class="cls-32" d="M431.74,118.25a7.68,7.68,0,0,1,.31-3c.48-.9,1.69-2.16,2.09-3.1s.59-1.73,1.14-2a1.48,1.48,0,0,1,1.89.51c.59.71.63,3.3-.4,3.48s-1.77-1.24-1.77-1.24a25,25,0,0,1-3.26,5.39Z" transform="translate(-2.24 -5.21)"/><path class="cls-33" d="M440.31,119.35a2.59,2.59,0,0,1,1.14-1.1c.79-.35,1.66-1.34,1.34-2.28a2.13,2.13,0,0,0-1.41-1.22s-3.54-.2-4.1.47.08,1.58,1,2a4.25,4.25,0,0,0,1.53.51l-1.08,1.65s-2.23-2-3.13-1.18,1.09,3.8,2,4.55,2.26-.18,2.54-.93S440,120.15,440.31,119.35Z" transform="translate(-2.24 -5.21)"/><path class="cls-34" d="M401.76,113.47c.6.61,5.32-2.14,5.36-4.93,0,0-1.18-.73-3.78,1.41S401.76,113.47,401.76,113.47Z" transform="translate(-2.24 -5.21)"/><path class="cls-35" d="M401.93,63.94l-.62,1.87c-4.22,3.46-10.61-.4-10.89-.57.21.09,1.54-2.33,4-3.27a23.47,23.47,0,0,1,3.64-1A11.33,11.33,0,0,1,401.93,63.94Z" transform="translate(-2.24 -5.21)"/><path class="cls-36" d="M476.22,126.1S381.71,124,305.76,133l-4.59-3.76s6.65-74.44,68.59-84.67c0,0,1.71-.3,4.66-.64h0c9.77-1.1,33-2.62,52.36,4.87C455.71,60,474.41,83.51,476.22,126.1Z" transform="translate(-2.24 -5.21)"/><path class="cls-37" d="M389.71,124.53s45.25-1.28,61.3-1.45,24.86,2.34,24.86,2.34-24.62,2.58-40.52,3.86-43.27-1.92-43.27-1.92Z" transform="translate(-2.24 -5.21)"/><path class="cls-38" d="M393.24,138.54s25.7,20.13,49.62,15.94,32.38-24,33-29.06c0,0,16.55-2.34,23.91-1.46l-17.3,46.88s-47.13-2.43-114.74,8A136.35,136.35,0,0,0,393.24,138.54Z" transform="translate(-2.24 -5.21)"/><path class="cls-39" d="M441.87,171.34l-.4-.1c2.24-8.43-2.45-12.58-2.5-12.62l.27-.32C439.29,158.35,444.18,162.65,441.87,171.34Z" transform="translate(-2.24 -5.21)"/><path class="cls-40" d="M391.28,124.49s6.35,17.77,13.06,25.76c0,0-3.27.5-11.42,11.25s-6.64,14.72-6.64,14.72L369.4,178.5Z" transform="translate(-2.24 -5.21)"/><path class="cls-41" d="M406.1,151.3s16.7,10.24,36.76,9.57c20.26-.67,25.47-8.42,25.47-8.42s-.36,13.16,6.34,18.05l7.81.34L499,123.76a104.15,104.15,0,0,0-23.12,1.66C464.38,127.73,406.1,151.3,406.1,151.3Z" transform="translate(-2.24 -5.21)"/><path class="cls-42" d="M475.87,125.42s-5.27,34-39.54,33c-36.09-1-43.09-19.92-43.09-19.92l-1.65-12.2s3.18.25,8.24.57h0c10.23.62,28.14,1.49,43,1C465.9,127.1,469,125.18,475.87,125.42Z" transform="translate(-2.24 -5.21)"/><path class="cls-43" d="M475.87,125.42s-5.27,34-39.54,33c-36.09-1-43.09-19.92-43.09-19.92l-1.65-12.2s3.18.25,8.24.57h0s2,14.32,11.68,22.64,36.12,10.38,46.53,1.95,10.21-25.3,10.21-25.3Z" transform="translate(-2.24 -5.21)"/><g class="cls-44"><rect class="cls-45" x="172.82" y="113.69" width="207.72" height="60.12"/><path class="cls-45" d="M383.78,123.83V141.6h2.76c-5,5.87-12.71,11.6-22.44,16.86C344.63,169,316.93,177.67,285.6,182v-2H203.66v.64c-10.79-2.43-19.73-5.85-26.18-10.14a30.68,30.68,0,0,1-7.71-7.06h4.3v-26h-1.16c5-5.88,12.71-11.6,22.44-16.87a162.11,162.11,0,0,1,16.07-7.51v4.84H383.78Z" transform="translate(-2.24 -5.21)"/><path class="cls-46" d="M383.78,124v17.6h1.73c-5,5.82-12.58,11.49-22.22,16.7-19.28,10.43-46.72,19-77.74,23.32V180H204.4v.24c-21.39-4.8-35.42-13.58-37-25.2h6.7v-17.6h-.13c5-5.82,12.59-11.49,22.23-16.7a157.85,157.85,0,0,1,15.91-7.44v4.58h171.7Z" transform="translate(-2.24 -5.21)"/><path class="cls-47" d="M383.78,124.13v17.43h.71c-4.94,5.76-12.47,11.38-22,16.54-19.09,10.33-46.26,18.84-77,23.09s-59.18,3.43-80.36-1.32-35.07-13.45-36.66-25c-.8-5.75,1.55-11.66,6.5-17.43s12.46-11.38,22-16.54a159.17,159.17,0,0,1,15.76-7.37v4.33h171Z" transform="translate(-2.24 -5.21)"/><path class="cls-48" d="M389.89,124.28c.79,5.7-1.54,11.55-6.43,17.26s-12.35,11.27-21.8,16.38c-18.9,10.22-45.8,18.65-76.23,22.86s-58.6,3.4-79.57-1.31-34.73-13.32-36.3-24.71,9.33-23.42,28.23-33.64a155,155,0,0,1,15.61-7.29v4.07H383.78v6.38Z" transform="translate(-2.24 -5.21)"/><path class="cls-49" d="M388.8,124.43c1.56,11.28-9.23,23.18-27.95,33.31s-45.35,18.46-75.47,22.63-58,3.37-78.79-1.3-34.38-13.18-35.94-24.46,9.24-23.18,27.95-33.31a155.06,155.06,0,0,1,15.45-7.22v3.82H383.78v6.53Z" transform="translate(-2.24 -5.21)"/><path class="cls-50" d="M387.71,124.58c1.55,11.17-9.14,23-27.67,33s-44.9,18.29-74.72,22.41-57.44,3.33-78-1.28-34-13.06-35.59-24.22,9.14-23,27.67-33a151.93,151.93,0,0,1,15.3-7.15v3.56H383.78v6.68Z" transform="translate(-2.24 -5.21)"/><path class="cls-51" d="M386.62,124.73c3.06,22.11-42.32,46.65-101.36,54.82-29.51,4.08-56.86,3.3-77.2-1.27s-33.7-12.92-35.23-24,9-22.72,27.4-32.64a152.12,152.12,0,0,1,15.14-7.08v3.31h168V117A16.8,16.8,0,0,1,386.62,124.73Z" transform="translate(-2.24 -5.21)"/><path class="cls-52" d="M385.53,124.88c3,21.89-41.89,46.18-100.32,54.26-29.22,4-56.28,3.27-76.42-1.25s-33.35-12.79-34.86-23.74,8.95-22.48,27.11-32.3a148,148,0,0,1,15-7v3.05H382.27v-.71A16.72,16.72,0,0,1,385.53,124.88Z" transform="translate(-2.24 -5.21)"/><path class="cls-53" d="M384.43,125c3,21.66-41.45,45.7-99.28,53.7S178,175.66,175,154c-1.5-10.83,8.86-22.25,26.83-32a149.06,149.06,0,0,1,14.83-6.93v2.8H374.09v-7C380,114.87,383.69,119.62,384.43,125Z" transform="translate(-2.24 -5.21)"/><path class="cls-54" d="M383.34,125.19c3,21.43-41,45.22-98.25,53.13s-106-3-109-24.47c-1.48-10.71,8.77-22,26.55-31.64a149.37,149.37,0,0,1,14.68-6.86v2.55H373.11v-6.69C379,115.12,382.6,119.83,383.34,125.19Z" transform="translate(-2.24 -5.21)"/><path class="cls-55" d="M382.25,125.34c2.93,21.2-40.59,44.74-97.21,52.58s-104.91-3-107.84-24.22c-1.47-10.6,8.68-21.79,26.27-31.3A145.15,145.15,0,0,1,218,115.61v2.29H372.13v-6.39C378,115.38,381.52,120,382.25,125.34Z" transform="translate(-2.24 -5.21)"/><path class="cls-56" d="M381.16,125.49c2.9,21-40.16,44.27-96.18,52s-103.78-3-106.69-24c-1.45-10.49,8.59-21.56,26-31a146.44,146.44,0,0,1,14.37-6.72v2H371.14v-6.1C376.9,115.64,380.43,120.24,381.16,125.49Z" transform="translate(-2.24 -5.21)"/><path class="cls-57" d="M380.07,125.64c2.87,20.75-39.73,43.79-95.15,51.46s-102.66-2.95-105.54-23.7c-1.43-10.38,8.5-21.33,25.72-30.64a142,142,0,0,1,14.21-6.64v1.78H370.16v-5.8C375.86,115.9,379.35,120.45,380.07,125.64Z" transform="translate(-2.24 -5.21)"/><path class="cls-58" d="M379,125.79c2.83,20.53-39.3,43.32-94.11,50.9s-101.55-2.91-104.39-23.44c-1.42-10.27,8.4-21.1,25.43-30.31A143.39,143.39,0,0,1,220,116.37v1.53h149.2v-5.5C374.81,116.15,378.27,120.66,379,125.79Z" transform="translate(-2.24 -5.21)"/><path class="cls-59" d="M377.88,125.94c2.81,20.3-38.86,42.84-93.07,50.34S184.38,173.4,181.57,153.1c-1.41-10.15,8.31-20.86,25.15-30a164.22,164.22,0,0,1,30.11-12.2v7H368.19v-5.2C373.77,116.41,377.18,120.86,377.88,125.94Z" transform="translate(-2.24 -5.21)"/><path class="cls-60" d="M376.79,126.09c2.78,20.08-38.43,42.37-92,49.78S185.44,173,182.66,153c-1.39-10,8.22-20.63,24.87-29.64a162.21,162.21,0,0,1,29.78-12.06v6.65h129.9V113C372.72,116.67,376.1,121.07,376.79,126.09Z" transform="translate(-2.24 -5.21)"/><path class="cls-61" d="M375.7,126.24c2.75,19.85-38,41.89-91,49.22s-98.2-2.81-100.95-22.66c-1.37-9.93,8.13-20.4,24.6-29.31a160.78,160.78,0,0,1,29.44-11.92v6.33H366.22v-4.6C371.67,116.92,375,121.28,375.7,126.24Z" transform="translate(-2.24 -5.21)"/><path class="cls-62" d="M374.61,126.39c2.71,19.63-37.57,41.41-90,48.66s-97.08-2.78-99.8-22.41c-1.35-9.81,8-20.16,24.32-29a158.24,158.24,0,0,1,29.1-11.78v6h127v-4.31C370.63,117.18,373.93,121.49,374.61,126.39Z" transform="translate(-2.24 -5.21)"/><path class="cls-63" d="M373.52,126.54c2.68,19.4-37.14,40.94-88.94,48.1s-96-2.75-98.64-22.15c-1.35-9.7,7.94-19.93,24-28.63a156.49,156.49,0,0,1,28.77-11.66v5.7H364.25v-4C369.58,117.44,372.84,121.69,373.52,126.54Z" transform="translate(-2.24 -5.21)"/><path class="cls-64" d="M372.42,126.7c2.66,19.17-36.7,40.45-87.89,47.54s-94.85-2.72-97.5-21.9c-1.33-9.58,7.85-19.7,23.75-28.3a155.18,155.18,0,0,1,28.44-11.52v5.38h124v-3.71C368.54,117.69,371.76,121.9,372.42,126.7Z" transform="translate(-2.24 -5.21)"/><path class="cls-65" d="M371.33,126.85c2.62,18.94-36.27,40-86.86,47s-93.73-2.69-96.35-21.64c-1.31-9.47,7.76-19.47,23.47-28a153.16,153.16,0,0,1,28.11-11.38v5.06H362.29v-3.41C367.49,118,370.68,122.11,371.33,126.85Z" transform="translate(-2.24 -5.21)"/><path class="cls-66" d="M370.24,127c2.59,18.72-35.84,39.5-85.82,46.42S191.8,170.76,189.21,152c-1.29-9.36,7.67-19.24,23.2-27.64a150.92,150.92,0,0,1,27.76-11.24v4.74H361.3v-3.11C366.44,118.21,369.59,122.32,370.24,127Z" transform="translate(-2.24 -5.21)"/><path class="cls-67" d="M369.15,127.15c2.56,18.49-35.4,39-84.79,45.86s-91.5-2.63-94.06-21.12c-1.28-9.25,7.58-19,22.92-27.3a149.18,149.18,0,0,1,27.43-11.11v4.42H360.32v-2.81C365.4,118.47,368.51,122.52,369.15,127.15Z" transform="translate(-2.24 -5.21)"/><path class="cls-68" d="M368.06,127.3c2.52,18.27-35,38.55-83.76,45.3s-90.38-2.59-92.9-20.86c-1.27-9.14,7.47-18.77,22.63-27a147.85,147.85,0,0,1,27.1-11v4.11h118.2v-2.52C364.35,118.72,367.42,122.73,368.06,127.3Z" transform="translate(-2.24 -5.21)"/><path class="cls-69" d="M367,127.45c2.5,18-34.53,38.08-82.71,44.74s-89.27-2.56-91.76-20.6c-1.25-9,7.38-18.54,22.35-26.64a146.3,146.3,0,0,1,26.76-10.84v3.79H358.35v-2.22C363.3,119,366.34,122.94,367,127.45Z" transform="translate(-2.24 -5.21)"/><path class="cls-70" d="M365.87,127.6c2.47,17.82-34.1,37.6-81.68,44.18s-88.15-2.53-90.61-20.34c-1.23-8.91,7.29-18.31,22.08-26.31a143.88,143.88,0,0,1,26.42-10.7v3.47H357.37V116C362.26,119.24,365.26,123.15,365.87,127.6Z" transform="translate(-2.24 -5.21)"/><path class="cls-71" d="M364.78,127.75c2.43,17.6-33.67,37.12-80.65,43.62s-87-2.49-89.46-20.09c-1.22-8.79,7.2-18.07,21.8-26a142.57,142.57,0,0,1,26.09-10.56v3.15H356.38v-1.62C361.21,119.49,364.17,123.35,364.78,127.75Z" transform="translate(-2.24 -5.21)"/><path class="cls-72" d="M363.69,127.9c2.4,17.37-33.24,36.65-79.61,43.06s-85.91-2.46-88.32-19.83c-1.2-8.68,7.11-17.84,21.52-25.63A139.84,139.84,0,0,1,243,115.07v2.83H355.4v-1.32C360.17,119.75,363.09,123.56,363.69,127.9Z" transform="translate(-2.24 -5.21)"/><path class="cls-73" d="M362.6,128.06C365,145.2,329.79,164.22,284,170.55s-84.79-2.43-87.16-19.57c-1.19-8.57,7-17.61,21.23-25.3a139,139,0,0,1,25.42-10.3v2.52h110.9v-1C359.12,120,362,123.77,362.6,128.06Z" transform="translate(-2.24 -5.21)"/><path class="cls-74" d="M361.5,128.21c2.34,16.91-32.37,35.69-77.54,41.94s-83.67-2.4-86-19.32c-1.17-8.46,6.92-17.38,21-25A137.67,137.67,0,0,1,244,115.7v2.2H353.43v-.73C358.07,120.27,360.92,124,361.5,128.21Z" transform="translate(-2.24 -5.21)"/><path class="cls-75" d="M360.41,128.36c2.31,16.69-31.94,35.21-76.5,41.38s-82.56-2.37-84.87-19.06c-1.16-8.34,6.83-17.15,20.68-24.64a134.83,134.83,0,0,1,24.75-10v1.88h108v-.43C357,120.52,359.84,124.18,360.41,128.36Z" transform="translate(-2.24 -5.21)"/><path class="cls-76" d="M359.32,128.51c2.28,16.46-31.51,34.74-75.47,40.82s-81.44-2.34-83.72-18.8c-1.14-8.23,6.74-16.92,20.4-24.3a132.28,132.28,0,0,1,24.41-9.89v1.56H351.46v-.13C356,120.78,358.75,124.39,359.32,128.51Z" transform="translate(-2.24 -5.21)"/><path class="cls-77" d="M358.23,128.66c2.25,16.24-31.08,34.26-74.44,40.26s-80.32-2.3-82.57-18.54c-1.12-8.12,6.65-16.69,20.12-24a131.25,131.25,0,0,1,24.08-9.75v1.24h86.94v-6.85C347.3,114.41,357.11,120.54,358.23,128.66Z" transform="translate(-2.24 -5.21)"/><path class="cls-78" d="M357.14,128.81c2.21,16-30.65,33.79-73.4,39.7s-79.21-2.27-81.43-18.28c-1.1-8,6.56-16.45,19.84-23.64A129.64,129.64,0,0,1,245.9,117v.93h85.73v-6.45C346.36,114.76,356,120.8,357.14,128.81Z" transform="translate(-2.24 -5.21)"/><path class="cls-79" d="M356.05,129c2.18,15.79-30.22,33.31-72.37,39.14s-78.09-2.24-80.27-18,30.21-33.31,72.36-39.14v7H330.9v-6.06C345.42,115.1,355,121.07,356.05,129Z" transform="translate(-2.24 -5.21)"/><path class="cls-80" d="M355,129.11c2.16,15.56-29.78,32.84-71.33,38.58s-77-2.2-79.12-17.76,29.78-32.84,71.33-38.58v6.55h54.33v-5.66C344.48,115.45,353.88,121.33,355,129.11Z" transform="translate(-2.24 -5.21)"/><path class="cls-81" d="M353.86,129.26c2.12,15.34-29.35,32.36-70.29,38s-75.86-2.17-78-17.51,29.35-32.35,70.3-38v6.15h53.54v-5.27C343.54,115.8,352.8,121.6,353.86,129.26Z" transform="translate(-2.24 -5.21)"/><path class="cls-81" d="M352.77,129.41c2.09,15.11-28.92,31.88-69.26,37.46s-74.74-2.14-76.83-17.25,28.92-31.88,69.26-37.46v5.74H328.7V113C342.6,116.15,351.72,121.86,352.77,129.41Z" transform="translate(-2.24 -5.21)"/><path class="cls-82" d="M351.91,129.53c2.07,14.93-28.58,31.51-68.44,37s-73.86-2.12-75.93-17.05,28.58-31.5,68.45-37v5.42h52.13v-4.56C341.86,116.43,350.88,122.07,351.91,129.53Z" transform="translate(-2.24 -5.21)"/><path class="cls-83" d="M351.05,129.65c2,14.75-28.24,31.13-67.63,36.58s-73-2.09-75-16.84,28.24-31.13,67.63-36.58v5.09h51.52v-4.25C341.12,116.7,350,122.28,351.05,129.65Z" transform="translate(-2.24 -5.21)"/><path class="cls-84" d="M350.19,129.77c2,14.58-27.9,30.76-66.81,36.14s-72.1-2.07-74.12-16.64,27.9-30.76,66.82-36.14v4.77H327V114C340.38,117,349.18,122.48,350.19,129.77Z" transform="translate(-2.24 -5.21)"/><path class="cls-85" d="M349.33,129.89c2,14.4-27.56,30.38-66,35.7s-71.22-2.05-73.21-16.44,27.56-30.38,66-35.7v4.45H326.4v-3.62C339.64,117.25,348.34,122.69,349.33,129.89Z" transform="translate(-2.24 -5.21)"/><path class="cls-86" d="M348.47,130c2,14.22-27.21,30-65.18,35.26S213,163.25,211,149s27.22-30,65.18-35.26v4.13h49.66v-3.31C338.9,117.53,347.49,122.9,348.47,130Z" transform="translate(-2.24 -5.21)"/><path class="cls-87" d="M347.61,130.13c1.95,14-26.87,29.63-64.37,34.81s-69.46-2-71.4-16,26.88-29.63,64.37-34.82v3.81h49v-3C338.16,117.8,346.64,123.11,347.61,130.13Z" transform="translate(-2.24 -5.21)"/><path class="cls-88" d="M346.75,130.25c1.92,13.86-26.53,29.25-63.55,34.37s-68.58-2-70.5-15.83,26.53-29.25,63.55-34.37v3.48h48.42v-2.69C337.42,118.08,345.8,123.31,346.75,130.25Z" transform="translate(-2.24 -5.21)"/><path class="cls-89" d="M345.89,130.37c1.9,13.68-26.19,28.87-62.74,33.93s-67.7-1.94-69.59-15.63,26.19-28.88,62.74-33.93v3.16h47.79v-2.38C336.69,118.35,345,123.52,345.89,130.37Z" transform="translate(-2.24 -5.21)"/><path class="cls-90" d="M345,130.48C346.9,144,319.18,159,283.11,164s-66.83-1.92-68.69-15.43,25.85-28.5,61.92-33.49v2.84h47.17v-2.06C336,118.63,344.1,123.73,345,130.48Z" transform="translate(-2.24 -5.21)"/><path class="cls-91" d="M344.18,130.6c1.84,13.33-25.52,28.13-61.12,33.06s-65.94-1.89-67.78-15.23,25.51-28.12,61.11-33.05v2.52h46.55v-1.75C335.21,118.9,343.25,123.94,344.18,130.6Z" transform="translate(-2.24 -5.21)"/><path class="cls-92" d="M343.32,130.72c1.82,13.16-25.18,27.76-60.3,32.61s-65.07-1.86-66.89-15,25.18-27.76,60.3-32.62v2.2h45.93v-1.44C334.47,119.18,342.41,124.15,343.32,130.72Z" transform="translate(-2.24 -5.21)"/><ellipse class="cls-93" cx="279.73" cy="139.52" rx="63.33" ry="23.72" transform="translate(-18.72 34.43) rotate(-7.88)"/><ellipse class="cls-94" cx="279.73" cy="139.52" rx="62.46" ry="23.39" transform="translate(-18.72 34.44) rotate(-7.88)"/><ellipse class="cls-95" cx="279.73" cy="139.52" rx="61.59" ry="23.07" transform="translate(-18.72 34.44) rotate(-7.88)"/><ellipse class="cls-96" cx="279.73" cy="139.52" rx="60.73" ry="22.74" transform="translate(-18.72 34.43) rotate(-7.88)"/><ellipse class="cls-97" cx="279.73" cy="139.52" rx="59.86" ry="22.42" transform="translate(-18.72 34.43) rotate(-7.88)"/><ellipse class="cls-98" cx="279.73" cy="139.52" rx="58.99" ry="22.09" transform="translate(-18.72 34.44) rotate(-7.88)"/><ellipse class="cls-99" cx="279.73" cy="139.52" rx="58.12" ry="21.77" transform="translate(-18.72 34.44) rotate(-7.88)"/><ellipse class="cls-100" cx="279.73" cy="139.52" rx="57.26" ry="21.44" transform="translate(-18.72 34.43) rotate(-7.88)"/><ellipse class="cls-101" cx="279.73" cy="139.52" rx="56.39" ry="21.12" transform="translate(-18.72 34.43) rotate(-7.88)"/><ellipse class="cls-102" cx="279.73" cy="139.52" rx="55.52" ry="20.79" transform="translate(-18.72 34.44) rotate(-7.88)"/><ellipse class="cls-103" cx="279.73" cy="139.52" rx="54.65" ry="20.47" transform="translate(-18.72 34.43) rotate(-7.88)"/><ellipse class="cls-104" cx="279.73" cy="139.52" rx="53.79" ry="20.14" transform="translate(-18.72 34.43) rotate(-7.88)"/><ellipse class="cls-105" cx="279.73" cy="139.52" rx="52.92" ry="19.82" transform="translate(-18.72 34.43) rotate(-7.88)"/><ellipse class="cls-106" cx="279.73" cy="139.52" rx="52.05" ry="19.49" transform="translate(-18.72 34.44) rotate(-7.88)"/><ellipse class="cls-107" cx="279.73" cy="139.52" rx="51.18" ry="19.17" transform="translate(-18.72 34.43) rotate(-7.88)"/><ellipse class="cls-108" cx="279.73" cy="139.52" rx="50.32" ry="18.84" transform="translate(-18.72 34.43) rotate(-7.88)"/><path class="cls-109" d="M328.71,132.74c1.4,10.13-19.39,21.38-46.45,25.12s-50.11-1.43-51.52-11.57,19.4-21.37,46.45-25.12S327.31,122.61,328.71,132.74Z" transform="translate(-2.24 -5.21)"/><ellipse class="cls-110" cx="279.73" cy="139.52" rx="48.58" ry="18.19" transform="translate(-18.72 34.44) rotate(-7.88)"/><ellipse class="cls-111" cx="279.73" cy="139.52" rx="47.71" ry="17.87" transform="translate(-18.72 34.43) rotate(-7.88)"/><ellipse class="cls-112" cx="279.73" cy="139.52" rx="46.85" ry="17.54" transform="matrix(0.99, -0.14, 0.14, 0.99, -18.72, 34.43)"/><ellipse class="cls-113" cx="279.73" cy="139.52" rx="45.98" ry="17.22" transform="translate(-18.72 34.44) rotate(-7.88)"/><ellipse class="cls-114" cx="279.73" cy="139.52" rx="45.11" ry="16.89" transform="translate(-18.72 34.44) rotate(-7.88)"/><ellipse class="cls-115" cx="279.73" cy="139.52" rx="44.24" ry="16.57" transform="translate(-18.72 34.44) rotate(-7.88)"/><ellipse class="cls-116" cx="279.73" cy="139.52" rx="43.38" ry="16.24" transform="translate(-18.72 34.43) rotate(-7.88)"/><ellipse class="cls-117" cx="279.73" cy="139.52" rx="42.51" ry="15.92" transform="matrix(0.99, -0.14, 0.14, 0.99, -18.72, 34.44)"/><ellipse class="cls-118" cx="279.73" cy="139.52" rx="41.64" ry="15.6" transform="translate(-18.72 34.44) rotate(-7.88)"/><ellipse class="cls-119" cx="279.73" cy="139.52" rx="40.77" ry="15.27" transform="translate(-18.72 34.43) rotate(-7.88)"/><ellipse class="cls-120" cx="279.73" cy="139.52" rx="39.91" ry="14.95" transform="translate(-18.72 34.43) rotate(-7.88)"/><path class="cls-121" d="M318.4,134.17c1.1,8-15.31,16.88-36.67,19.83s-39.57-1.13-40.67-9.13S256.37,128,277.72,125,317.29,126.17,318.4,134.17Z" transform="translate(-2.24 -5.21)"/><ellipse class="cls-122" cx="279.73" cy="139.52" rx="38.17" ry="14.3" transform="translate(-18.72 34.44) rotate(-7.88)"/><ellipse class="cls-123" cx="279.73" cy="139.52" rx="37.3" ry="13.97" transform="translate(-18.72 34.43) rotate(-7.88)"/><path class="cls-124" d="M315.82,134.53c1,7.46-14.29,15.75-34.22,18.51s-36.93-1.06-38-8.53,14.29-15.75,34.23-18.51S314.79,127.06,315.82,134.53Z" transform="translate(-2.24 -5.21)"/><ellipse class="cls-125" cx="279.73" cy="139.52" rx="35.57" ry="13.32" transform="translate(-18.72 34.44) rotate(-7.88)"/><ellipse class="cls-126" cx="279.73" cy="139.52" rx="34.7" ry="13" transform="translate(-18.72 34.44) rotate(-7.88)"/><ellipse class="cls-127" cx="279.73" cy="139.52" rx="33.83" ry="12.67" transform="translate(-18.72 34.43) rotate(-7.88)"/><ellipse class="cls-128" cx="279.73" cy="139.52" rx="32.97" ry="12.35" transform="translate(-18.72 34.43) rotate(-7.88)"/><ellipse class="cls-129" cx="279.73" cy="139.52" rx="32.1" ry="12.02" transform="translate(-18.72 34.44) rotate(-7.88)"/><ellipse class="cls-130" cx="279.73" cy="139.52" rx="31.23" ry="11.7" transform="translate(-18.72 34.44) rotate(-7.88)"/><ellipse class="cls-131" cx="279.73" cy="139.52" rx="30.36" ry="11.37" transform="translate(-18.72 34.43) rotate(-7.88)"/><ellipse class="cls-132" cx="279.73" cy="139.52" rx="29.5" ry="11.05" transform="translate(-18.72 34.43) rotate(-7.88)"/><ellipse class="cls-133" cx="279.73" cy="139.52" rx="28.63" ry="10.72" transform="translate(-18.72 34.44) rotate(-7.88)"/><ellipse class="cls-134" cx="279.73" cy="139.52" rx="27.76" ry="10.4" transform="translate(-18.72 34.44) rotate(-7.88)"/><ellipse class="cls-135" cx="279.73" cy="139.52" rx="26.89" ry="10.07" transform="translate(-18.72 34.43) rotate(-7.88)"/><path class="cls-136" d="M305.51,136c.73,5.33-10.21,11.25-24.45,13.22s-26.38-.75-27.11-6.08,10.2-11.26,24.44-13.23S304.77,130.62,305.51,136Z" transform="translate(-2.24 -5.21)"/><ellipse class="cls-137" cx="279.73" cy="139.52" rx="25.16" ry="9.42" transform="translate(-18.72 34.44) rotate(-7.88)"/><ellipse class="cls-138" cx="279.73" cy="139.52" rx="24.29" ry="9.1" transform="translate(-18.72 34.44) rotate(-7.88)"/><path class="cls-139" d="M302.93,136.31c.66,4.8-9.19,10.13-22,11.9s-23.74-.68-24.41-5.48,9.19-10.13,22-11.9S302.26,131.51,302.93,136.31Z" transform="translate(-2.24 -5.21)"/><ellipse class="cls-140" cx="279.73" cy="139.52" rx="22.56" ry="8.45" transform="translate(-18.72 34.43) rotate(-7.88)"/><path class="cls-141" d="M301.21,136.55c.61,4.44-8.51,9.37-20.37,11s-22-.63-22.6-5.07,8.51-9.38,20.37-11S300.59,132.1,301.21,136.55Z" transform="translate(-2.24 -5.21)"/><ellipse class="cls-142" cx="279.73" cy="139.52" rx="20.82" ry="7.8" transform="translate(-18.72 34.44) rotate(-7.88)"/><path class="cls-143" d="M299.49,136.78c.57,4.09-7.82,8.63-18.74,10.14s-20.22-.58-20.79-4.67,7.83-8.62,18.74-10.13S298.93,132.7,299.49,136.78Z" transform="translate(-2.24 -5.21)"/><path class="cls-144" d="M298.63,136.9c.54,3.91-7.48,8.25-17.92,9.7s-19.35-.56-19.89-4.47,7.49-8.25,17.93-9.69S298.09,133,298.63,136.9Z" transform="translate(-2.24 -5.21)"/><path class="cls-145" d="M297.77,137c.52,3.74-7.14,7.88-17.11,9.26s-18.46-.53-19-4.26,7.14-7.88,17.11-9.26S297.26,133.29,297.77,137Z" transform="translate(-2.24 -5.21)"/><path class="cls-146" d="M296.91,137.14c.49,3.56-6.8,7.5-16.29,8.82s-17.59-.51-18.08-4.06,6.8-7.5,16.3-8.82S296.42,133.59,296.91,137.14Z" transform="translate(-2.24 -5.21)"/><ellipse class="cls-147" cx="279.73" cy="139.52" rx="16.48" ry="6.17" transform="translate(-18.72 34.43) rotate(-7.88)"/><path class="cls-148" d="M295.19,137.38c.45,3.2-6.12,6.75-14.66,7.93s-15.83-.45-16.27-3.65,6.12-6.75,14.66-7.93S294.75,134.18,295.19,137.38Z" transform="translate(-2.24 -5.21)"/><path class="cls-149" d="M294.33,137.5c.42,3-5.78,6.37-13.85,7.49s-14.94-.43-15.36-3.45,5.78-6.38,13.85-7.49S293.92,134.48,294.33,137.5Z" transform="translate(-2.24 -5.21)"/><ellipse class="cls-150" cx="279.73" cy="139.52" rx="13.88" ry="5.2" transform="matrix(0.99, -0.14, 0.14, 0.99, -18.72, 34.44)"/><ellipse class="cls-151" cx="279.73" cy="139.52" rx="13.01" ry="4.87" transform="matrix(0.99, -0.14, 0.14, 0.99, -18.72, 34.43)"/><ellipse class="cls-152" cx="279.73" cy="139.52" rx="12.15" ry="4.55" transform="matrix(0.99, -0.14, 0.14, 0.99, -18.72, 34.43)"/><path class="cls-153" d="M290.9,138c.32,2.31-4.43,4.88-10.6,5.73s-11.43-.33-11.75-2.64,4.43-4.87,10.6-5.72S290.58,135.66,290.9,138Z" transform="translate(-2.24 -5.21)"/><path class="cls-154" d="M290,138.09c.29,2.14-4.08,4.5-9.78,5.29s-10.55-.3-10.85-2.43,4.09-4.51,9.78-5.29S289.74,136,290,138.09Z" transform="translate(-2.24 -5.21)"/><path class="cls-155" d="M289.18,138.21c.27,2-3.74,4.13-9,4.85s-9.68-.28-10-2.23,3.75-4.13,9-4.85S288.91,136.26,289.18,138.21Z" transform="translate(-2.24 -5.21)"/><path class="cls-156" d="M288.32,138.33c.25,1.78-3.4,3.75-8.15,4.41s-8.79-.25-9-2,3.4-3.75,8.15-4.41S288.07,136.55,288.32,138.33Z" transform="translate(-2.24 -5.21)"/><path class="cls-157" d="M287.46,138.45c.22,1.6-3.06,3.37-7.33,4s-7.92-.23-8.14-1.83,3.06-3.38,7.34-4S287.24,136.85,287.46,138.45Z" transform="translate(-2.24 -5.21)"/><path class="cls-158" d="M286.6,138.57c.2,1.42-2.72,3-6.52,3.52s-7-.2-7.23-1.62,2.72-3,6.52-3.53S286.4,137.15,286.6,138.57Z" transform="translate(-2.24 -5.21)"/><path class="cls-159" d="M285.74,138.69c.17,1.24-2.38,2.62-5.7,3.08s-6.16-.17-6.33-1.42,2.38-2.62,5.7-3.08S285.57,137.44,285.74,138.69Z" transform="translate(-2.24 -5.21)"/><path class="cls-160" d="M284.88,138.81c.15,1.06-2,2.25-4.89,2.64s-5.27-.15-5.42-1.22,2-2.25,4.89-2.64S284.73,137.74,284.88,138.81Z" transform="translate(-2.24 -5.21)"/><path class="cls-161" d="M284,138.92c.13.89-1.7,1.88-4.07,2.21s-4.4-.13-4.52-1,1.7-1.87,4.07-2.2S283.9,138,284,138.92Z" transform="translate(-2.24 -5.21)"/><path class="cls-162" d="M283.16,139c.1.71-1.36,1.5-3.26,1.77s-3.51-.1-3.61-.82,1.36-1.5,3.26-1.76S283.06,138.33,283.16,139Z" transform="translate(-2.24 -5.21)"/><path class="cls-163" d="M282.3,139.16c.08.54-1,1.13-2.44,1.32s-2.64-.07-2.71-.6,1-1.13,2.44-1.33S282.23,138.63,282.3,139.16Z" transform="translate(-2.24 -5.21)"/><path class="cls-164" d="M281.44,139.28c.05.36-.68.75-1.63.88s-1.75,0-1.8-.4.68-.75,1.63-.88S281.4,138.93,281.44,139.28Z" transform="translate(-2.24 -5.21)"/><path class="cls-165" d="M280.59,139.4c0,.18-.35.38-.82.44s-.88,0-.9-.2.34-.38.81-.44S280.56,139.22,280.59,139.4Z" transform="translate(-2.24 -5.21)"/></g><path class="cls-166" d="M365.87,179c7.78-.29,19.23-6.73,26-24.92s-.06-36.66-12.42-35.34-22.58,14.46-24,32.09C354.14,167.35,361,179.19,365.87,179Z" transform="translate(-2.24 -5.21)"/><path class="cls-167" d="M366.29,177.61c7.42-.27,18.34-6.41,24.77-23.77s-.05-35-11.84-33.72-21.54,13.8-22.88,30.62C355.1,166.48,361.68,177.78,366.29,177.61Z" transform="translate(-2.24 -5.21)"/><path class="cls-168" d="M368.18,171.29c6.73.65,14.36-5,19.4-18.62s-.05-27.39-9.28-26.41-16.87,10.81-17.91,24C359.41,162.57,364.58,170.94,368.18,171.29Z" transform="translate(-2.24 -5.21)"/><path class="cls-169" d="M363,139.35a17.25,17.25,0,0,1,6.65-6.1c5.54-2.61,11.68-1,14.54,7.09S381,165.56,372.91,169s-11.13-4.9-11.73-7.65C360.43,157.81,358.75,148.7,363,139.35Z" transform="translate(-2.24 -5.21)"/><path class="cls-170" d="M479.74,170.3c6.32,1.12,16.67-2.08,25.28-15.58s6.33-29.58-3.86-30.67-20.73,7.73-24.93,21.71C472.3,158.84,475.8,169.6,479.74,170.3Z" transform="translate(-2.24 -5.21)"/><path class="cls-171" d="M480.24,169.38c6.07,1.09,16-2,24.28-15S510.6,126,500.81,125s-19.91,7.43-23.94,20.85C473.1,158.38,476.46,168.71,480.24,169.38Z" transform="translate(-2.24 -5.21)"/><path class="cls-172" d="M484.22,162.81c4.65,1.63,11.9-.88,17.37-10.3,5.66-9.76,3.71-20.31-3.23-21s-14.1,5.26-16.95,14.77C478.73,155.13,481,161.7,484.22,162.81Z" transform="translate(-2.24 -5.21)"/><path class="cls-173" d="M485.06,138.65a12.94,12.94,0,0,1,5.85-3.43c4.49-1,8.74,1.1,9.56,7.51s-6.35,18-12.84,19.23-7.39-5.36-7.39-7.48C480.23,151.8,480.45,144.84,485.06,138.65Z" transform="translate(-2.24 -5.21)"/><path class="cls-174" d="M228.56,137.59s.81-34.29,24.63-53.7l-5.88,4.67S225.88,109.06,228.56,137.59Z" transform="translate(-2.24 -5.21)"/><path class="cls-175" d="M340.36,178.79a47.65,47.65,0,0,1-8-21.49s-59.88-6.07-151.4,16.16C181,173.46,285.08,181.09,340.36,178.79Z" transform="translate(-2.24 -5.21)"/><path class="cls-176" d="M229.94,137.27s26.27-3,49.17-9.54c0,0,.62-49.63,53.56-77.44,0,0-48.59,17.89-56.92,75.91Z" transform="translate(-2.24 -5.21)"/><path class="cls-177" d="M378.59,45.38S353,45,333.23,61.94c-17.6,15.07-30.32,42.63-31.58,63.78l-3.23.48c9.63-65.57,50.42-79,67.6-81.69a47.77,47.77,0,0,1,7.69-.7Z" transform="translate(-2.24 -5.21)"/><path class="cls-178" d="M406.75,163.7c-.93,5.83-4.77,10.06-8.59,9.45s-6.16-5.82-5.24-11.65,4.78-10.06,8.6-9.45S407.68,157.88,406.75,163.7Z" transform="translate(-2.24 -5.21)"/><ellipse class="cls-179" cx="398.89" cy="163.34" rx="8.95" ry="5.86" transform="matrix(0.16, -0.99, 0.99, 0.16, 172.66, 526.4)"/><path class="cls-180" d="M470.51,161.4c-.81,5.13-4.19,8.84-7.55,8.31s-5.41-5.12-4.6-10.24,4.2-8.84,7.55-8.3S471.33,156.28,470.51,161.4Z" transform="translate(-2.24 -5.21)"/><path class="cls-181" d="M469.2,161.72c-.71,4.46-3.65,7.69-6.57,7.23s-4.71-4.45-4-8.91,3.65-7.69,6.57-7.23S469.91,157.27,469.2,161.72Z" transform="translate(-2.24 -5.21)"/><path class="cls-182" d="M335.74,178.83S297.15,191.91,234,197.59s-105.09,0-105.09,0c17.41-17.21,57.47-25.39,57.47-25.39,75.52-16.15,143.48-11.33,143.48-11.33C330.82,168.26,335.74,178.83,335.74,178.83Z" transform="translate(-2.24 -5.21)"/><path class="cls-183" d="M335.74,178.83S297.15,191.91,234,197.59s-105.09,0-105.09,0,69.11,2.35,106.56-3.78,85-31.26,94.39-32.94A86.64,86.64,0,0,0,335.74,178.83Z" transform="translate(-2.24 -5.21)"/><g class="cls-184"><path class="cls-185" d="M228.37,137.85l0-.25c-2.08-29.75,19.88-50.27,20.1-50.47l.28.31c-.22.2-21.91,20.48-20,49.89,2.52-.57,24.71-5.61,46.82-11.29a111,111,0,0,1,10.33-31.9c7.8-15.64,23-36.24,50.86-45.55l.13.4C309.12,58.25,294,78.76,286.27,94.33A109.76,109.76,0,0,0,276,126.23l0,.14-.13,0c-23.42,6-47,11.34-47.21,11.39Z" transform="translate(-2.24 -5.21)"/></g><path class="cls-186" d="M320.41,136.23a1,1,0,1,1-2.08,0,1,1,0,0,1,2.08,0Z" transform="translate(-2.24 -5.21)"/><circle class="cls-187" cx="292.6" cy="79.73" r="1.04"/><circle class="cls-188" cx="202.08" cy="182.7" r="1.04"/><circle class="cls-189" cx="224.42" cy="171.29" r="1.04"/><circle class="cls-190" cx="282.87" cy="100.33" r="1.04"/><circle class="cls-191" cx="313.84" cy="143.72" r="1.04"/><path class="cls-192" d="M357,167.32s-8.06-22.95,9.22-41.92C366.19,125.4,354.31,140.53,357,167.32Z" transform="translate(-2.24 -5.21)"/><path class="cls-193" d="M474.75,160.88s-1.58-19,9.47-29.48C484.22,131.4,476.15,141.17,474.75,160.88Z" transform="translate(-2.24 -5.21)"/><path class="cls-194" d="M312.72,158.88s-1.32-22.65,8.9-35.12C321.62,123.76,310.15,134.44,312.72,158.88Z" transform="translate(-2.24 -5.21)"/><path class="cls-195" d="M181.57,200.1l.21-2.31s34-24.54,73.35-35.08c0,0-48,12.56-74.14,35.1Z" transform="translate(-2.24 -5.21)"/><path class="cls-196" d="M329.87,160.87s17.75,14.95,34.84,18c0,0-14.13.44-29,0C335.74,178.83,331.29,166.79,329.87,160.87Z" transform="translate(-2.24 -5.21)"/><g class="cls-184"><path class="cls-197" d="M312.68,160.22c-3.34-25,9.32-37.18,9.45-37.3l.28.31c-.12.12-12.62,12.13-9.32,36.94Z" transform="translate(-2.24 -5.21)"/></g><g class="cls-184"><path class="cls-198" d="M181.2,200.1h-.41v-2.39l.07-.06c.29-.25,29.74-24.29,76.91-35.82l.1.4c-45.9,11.22-75,34.31-76.67,35.67Z" transform="translate(-2.24 -5.21)"/></g><path class="cls-199" d="M142.35,187.91S185.1,175.15,286.16,173l43.71-12.17S191.76,157.47,142.35,187.91Z" transform="translate(-2.24 -5.21)"/><path class="cls-200" d="M155.24,198s40-.28,74.42-4.53,100.21-32.62,100.21-32.62-61.08,28.87-98.66,33.58S155.24,198,155.24,198Z" transform="translate(-2.24 -5.21)"/><path class="cls-201" d="M226.67,198.2V195A189.56,189.56,0,0,0,256.61,189l1.21,6S232.64,197.76,226.67,198.2Z" transform="translate(-2.24 -5.21)"/><polygon class="cls-202" points="262.31 188.86 261.37 181.66 271.49 178.36 271.49 187.5 262.31 188.86"/><path class="cls-203" d="M191.65,156.67s-6.38,4.09-6.36,6c0,3,47.67-8,107.77-17.36s66.33-18.32,62-21.59S254.8,126.77,191.65,156.67Z" transform="translate(-2.24 -5.21)"/><path class="cls-204" d="M199.92,145.05s17-27.83,112.4-68.93c0,0,14.2-18.8,34.75-27.33C347.07,48.79,253.93,49.93,199.92,145.05Z" transform="translate(-2.24 -5.21)"/><path class="cls-205" d="M184.47,160.48S248.69,127,376.78,119.1C376.78,119.1,273.23,117.14,184.47,160.48Z" transform="translate(-2.24 -5.21)"/><path class="cls-206" d="M371.63,177.8s79.22-9,109.59-7C481.22,170.84,432.79,163.34,371.63,177.8Z" transform="translate(-2.24 -5.21)"/><path class="cls-207" d="M303.27,124.65s8.06-51,42.09-69.08c0,0,2.71,3,1.78,8.46S326,88,322.7,122.33Z" transform="translate(-2.24 -5.21)"/><path class="cls-208" d="M413.33,97s-27.07-12.33-34.74-25.46,9.34-21,16.23-23.13C398.7,47.24,421.75,44,441.6,59a78.61,78.61,0,0,1,27.83,40.86S457.51,74.68,446.22,75,436.86,94.63,413.33,97Z" transform="translate(-2.24 -5.21)"/><path class="cls-209" d="M475.86,126.1l-1.35-.7s-.51-43-31.65-65.86c-28.08-20.63-64.27-14.16-64.27-14.16l-4.52-1.46c9.77-1.1,33-2.62,52.36,4.87C455.35,60,474.05,83.51,475.86,126.1Z" transform="translate(-2.24 -5.21)"/><ellipse class="cls-210" cx="379.19" cy="82.55" rx="118.17" ry="82.55"/><ellipse class="cls-211" cx="375.74" cy="147.88" rx="56.63" ry="53.3" transform="translate(179.88 497.02) rotate(-82.83)"/><ellipse class="cls-212" cx="492.57" cy="141.95" rx="57.97" ry="54.56" transform="translate(288.02 607.75) rotate(-82.83)"/><path class="cls-213" d="M461.21,126.38s1.7-19.68.83-36c0,0,2.47,1.39,4.88,7.17,3.12,7.5,7.59,27.84,7.59,27.84Z" transform="translate(-2.24 -5.21)"/><path class="cls-214" d="M210.41,128.4S253.58,57.76,361.26,45C361.26,45,260.18,50.88,210.41,128.4Z" transform="translate(-2.24 -5.21)"/><path class="cls-215" d="M375.5,132.09,577.9,85.16l2.89,134.69L367.92,169.58S363.25,144.36,375.5,132.09Z" transform="translate(-2.24 -5.21)"/><path class="cls-216" d="M494.84,135.19l177.7-49.9L660.86,217.17,484.93,162.91S484.56,144.89,494.84,135.19Z" transform="translate(-2.24 -5.21)"/></g></g></g></svg>