<svg xmlns="http://www.w3.org/2000/svg" xmlns:xlink="http://www.w3.org/1999/xlink" viewBox="0 0 459.65 416.08"><defs><style>.cls-1{isolation:isolate;}.cls-2{fill:#d61c1d;}.cls-3{fill:#e8505b;}.cls-4{fill:#263238;}.cls-10,.cls-5,.cls-58,.cls-6,.cls-9{fill:#fff;}.cls-5{opacity:0.9;}.cls-6{opacity:0.8;}.cls-7{fill:#e0e0e0;}.cls-10,.cls-48,.cls-56,.cls-8{opacity:0.3;}.cls-11{opacity:0.2;}.cls-12{fill:#a827f5;}.cls-13{fill:#b957ff;}.cls-14{fill:#653177;}.cls-15{fill:#b78876;}.cls-16{fill:#6ed3ff;}.cls-17{fill:url(#Áåçûìÿííûé_ãðàäèåíò_13);}.cls-18{fill:#005616;}.cls-19{fill:url(#Áåçûìÿííûé_ãðàäèåíò_13-2);}.cls-20{fill:#995037;}.cls-21{fill:#455a64;}.cls-22{fill:#6e840c;}.cls-23{fill:#c8d482;}.cls-24{fill:#758912;}.cls-25{fill:#748a19;}.cls-26{fill:url(#Áåçûìÿííûé_ãðàäèåíò_13-3);}.cls-27{fill:url(#Áåçûìÿííûé_ãðàäèåíò_13-4);}.cls-28{fill:url(#Áåçûìÿííûé_ãðàäèåíò_13-5);}.cls-29{fill:#d4ec94;}.cls-30{fill:#6e830c;}.cls-31{fill:url(#Áåçûìÿííûé_ãðàäèåíò_13-6);}.cls-32{fill:#718308;}.cls-33{fill:#050d09;}.cls-34{fill:#060f08;}.cls-35{fill:#323d2d;}.cls-36{fill:url(#Áåçûìÿííûé_ãðàäèåíò_35);}.cls-37{fill:#1f0103;}.cls-38{fill:#700203;}.cls-39{fill:#fcb2b2;}.cls-40{fill:#f29997;}.cls-41{fill:#490201;}.cls-42{fill:#d36b6c;}.cls-43{fill:#8bad19;}.cls-44{fill:url(#Áåçûìÿííûé_ãðàäèåíò_60);}.cls-45,.cls-51,.cls-54,.cls-57{opacity:0.5;}.cls-45,.cls-48,.cls-57{mix-blend-mode:multiply;}.cls-45{fill:url(#Áåçûìÿííûé_ãðàäèåíò_71);}.cls-46{fill:url(#Áåçûìÿííûé_ãðàäèåíò_24);}.cls-47{fill:url(#Áåçûìÿííûé_ãðàäèåíò_24-2);}.cls-48{fill:url(#Áåçûìÿííûé_ãðàäèåíò_71-2);}.cls-49{fill:url(#Áåçûìÿííûé_ãðàäèåíò_43);}.cls-50{fill:url(#Áåçûìÿííûé_ãðàäèåíò_35-2);}.cls-51,.cls-54{mix-blend-mode:screen;}.cls-51{fill:url(#Áåçûìÿííûé_ãðàäèåíò_80);}.cls-52{fill:url(#Áåçûìÿííûé_ãðàäèåíò_43-2);}.cls-53{fill:url(#Áåçûìÿííûé_ãðàäèåíò_35-3);}.cls-54{fill:url(#Áåçûìÿííûé_ãðàäèåíò_80-2);}.cls-55{fill:#8d8d8e;}.cls-56{fill:#9ea5a8;}.cls-57{fill:#bfc2c4;}.cls-58{mix-blend-mode:overlay;}.cls-59{fill:#8852b0;}.cls-60{fill:#fe2d2e;}.cls-61{fill:#2ab4fc;}.cls-62{fill:#168ac5;}.cls-63{fill:#8416c5;}.cls-64{fill:#4cb3ed;}.cls-65{fill:#c11e26;}</style><linearGradient id="Áåçûìÿííûé_ãðàäèåíò_13" x1="167.42" y1="122.86" x2="208.29" y2="122.86" gradientUnits="userSpaceOnUse"><stop offset="0" stop-color="#96c53e"/><stop offset="1" stop-color="#68b886"/></linearGradient><linearGradient id="Áåçûìÿííûé_ãðàäèåíò_13-2" x1="229.27" y1="284.82" x2="275.4" y2="284.82" xlink:href="#Áåçûìÿííûé_ãðàäèåíò_13"/><linearGradient id="Áåçûìÿííûé_ãðàäèåíò_13-3" x1="261.89" y1="84.79" x2="364.47" y2="84.79" gradientTransform="matrix(0.97, -0.23, 0.23, 0.97, -22.72, 80.59)" xlink:href="#Áåçûìÿííûé_ãðàäèåíò_13"/><linearGradient id="Áåçûìÿííûé_ãðàäèåíò_13-4" x1="261.15" y1="74.4" x2="339.24" y2="74.4" gradientTransform="matrix(0.97, -0.23, 0.23, 0.97, -22.72, 80.59)" xlink:href="#Áåçûìÿííûé_ãðàäèåíò_13"/><linearGradient id="Áåçûìÿííûé_ãðàäèåíò_13-5" x1="316.87" y1="90.58" x2="373.45" y2="90.58" gradientTransform="matrix(0.97, -0.23, 0.23, 0.97, -22.72, 80.59)" xlink:href="#Áåçûìÿííûé_ãðàäèåíò_13"/><linearGradient id="Áåçûìÿííûé_ãðàäèåíò_13-6" x1="310.09" y1="150.49" x2="319.27" y2="150.49" gradientTransform="matrix(0.97, -0.23, 0.23, 0.97, -22.72, 80.59)" xlink:href="#Áåçûìÿííûé_ãðàäèåíò_13"/><linearGradient id="Áåçûìÿííûé_ãðàäèåíò_35" x1="295.69" y1="105.84" x2="304.32" y2="105.84" gradientTransform="matrix(0.97, -0.23, 0.23, 0.97, -22.72, 80.59)" gradientUnits="userSpaceOnUse"><stop offset="0" stop-color="#35334c"/><stop offset="1" stop-color="#111e44"/></linearGradient><linearGradient id="Áåçûìÿííûé_ãðàäèåíò_60" x1="35.45" y1="50.2" x2="35.45" y2="8.39" gradientTransform="matrix(-0.97, 0.23, 0.23, 0.97, 312.28, 1.52)" gradientUnits="userSpaceOnUse"><stop offset="0" stop-color="#8f2d74"/><stop offset="1" stop-color="#b95c72"/></linearGradient><linearGradient id="Áåçûìÿííûé_ãðàäèåíò_71" x1="31.16" y1="34.4" x2="31.16" y2="15.16" gradientTransform="matrix(-0.97, 0.23, 0.23, 0.97, 312.28, 1.52)" gradientUnits="userSpaceOnUse"><stop offset="0" stop-color="#b0cde5"/><stop offset="1" stop-color="#4e5caa"/></linearGradient><linearGradient id="Áåçûìÿííûé_ãðàäèåíò_24" x1="281.79" y1="94.06" x2="281.79" y2="63.25" gradientTransform="matrix(0.97, -0.23, 0.23, 0.97, -22.72, 80.59)" gradientUnits="userSpaceOnUse"><stop offset="0" stop-color="#447656"/><stop offset="1" stop-color="#417383"/></linearGradient><linearGradient id="Áåçûìÿííûé_ãðàäèåíò_24-2" x1="145.94" y1="78.56" x2="145.94" y2="47.75" gradientTransform="matrix(-1, 0.02, 0.02, 1, 465.56, 18.76)" xlink:href="#Áåçûìÿííûé_ãðàäèåíò_24"/><linearGradient id="Áåçûìÿííûé_ãðàäèåíò_71-2" x1="316.98" y1="89.79" x2="373.56" y2="89.79" gradientTransform="matrix(0.97, -0.23, 0.23, 0.97, -22.72, 80.59)" xlink:href="#Áåçûìÿííûé_ãðàäèåíò_71"/><linearGradient id="Áåçûìÿííûé_ãðàäèåíò_43" x1="281.79" y1="92.89" x2="281.79" y2="66.33" gradientTransform="matrix(0.97, -0.23, 0.23, 0.97, -22.72, 80.59)" gradientUnits="userSpaceOnUse"><stop offset="0" stop-color="#4c4961"/><stop offset="1" stop-color="#2b3759"/></linearGradient><linearGradient id="Áåçûìÿííûé_ãðàäèåíò_35-2" x1="284.89" y1="92.89" x2="284.89" y2="66.33" xlink:href="#Áåçûìÿííûé_ãðàäèåíò_35"/><linearGradient id="Áåçûìÿííûé_ãðàäèåíò_80" x1="281.36" y1="85.23" x2="281.36" y2="66.32" gradientTransform="matrix(0.97, -0.23, 0.23, 0.97, -22.72, 80.59)" gradientUnits="userSpaceOnUse"><stop offset="0" stop-color="#254275"/><stop offset="0.19" stop-color="#203965"/><stop offset="0.56" stop-color="#12213a"/><stop offset="1"/></linearGradient><linearGradient id="Áåçûìÿííûé_ãðàäèåíò_43-2" x1="84.65" y1="88.01" x2="84.65" y2="61.45" gradientTransform="matrix(-0.99, 0.15, 0.15, 0.99, 392.15, -1.83)" xlink:href="#Áåçûìÿííûé_ãðàäèåíò_43"/><linearGradient id="Áåçûìÿííûé_ãðàäèåíò_35-3" x1="87.76" y1="88.01" x2="87.76" y2="61.45" gradientTransform="matrix(-0.99, 0.15, 0.15, 0.99, 392.15, -1.83)" xlink:href="#Áåçûìÿííûé_ãðàäèåíò_35"/><linearGradient id="Áåçûìÿííûé_ãðàäèåíò_80-2" x1="84.23" y1="80.35" x2="84.23" y2="61.44" gradientTransform="matrix(-0.99, 0.15, 0.15, 0.99, 392.15, -1.83)" xlink:href="#Áåçûìÿííûé_ãðàäèåíò_80"/></defs><title>valores</title><g class="cls-1"><g id="Background_Complete" data-name="Background Complete"><path class="cls-2" d="M394.08,302.63s3.61,14.54-6.27,18h0a32,32,0,0,1-11.55-.8c-6-1.62-.31-.05-.31-.05s5.92-9.08,6.44-13.64h0" transform="translate(0 -6.54)"/></g><g id="Plant"><path class="cls-3" d="M25,357.83A10.34,10.34,0,0,1,32,362a18.26,18.26,0,0,1,3.19,7.65c1,5.29-.22,11.37-2,16.45-5.5-2.39-8.57-8.62-9.93-11.88-2.14-5.16-2.9-15.78,1.82-16.4" transform="translate(0 -6.54)"/><path class="cls-3" d="M40.79,393a8.86,8.86,0,0,1,.18-8.9,11.8,11.8,0,0,1,7.45-5.21,5,5,0,0,1,4.15.48A3.78,3.78,0,0,1,53.78,383a7.65,7.65,0,0,1-1.86,3.53c-3,3.52-6.52,6.39-11.13,6.46" transform="translate(0 -6.54)"/><path class="cls-4" d="M40.25,410.37a5.78,5.78,0,0,1-.18-1.1c-.1-.78-.23-1.79-.38-3a30.94,30.94,0,0,1,.05-10,19,19,0,0,1,4.3-9,13,13,0,0,1,2.28-2c.29-.21.54-.34.7-.44a1,1,0,0,1,.26-.12,20.38,20.38,0,0,0-3,2.76,19.67,19.67,0,0,0-4.13,8.87,33.51,33.51,0,0,0-.16,9.89c.12,1.27.22,2.3.26,3A5.32,5.32,0,0,1,40.25,410.37Z" transform="translate(0 -6.54)"/><path class="cls-4" d="M26.28,365.86a2.09,2.09,0,0,1,.2.44c.13.34.3.76.5,1.29.42,1.13,1,2.76,1.73,4.79,1.44,4.05,3.34,9.67,5.3,15.93s3.6,12,4.73,16.11c.57,2.07,1,3.76,1.31,4.92q.2.82.33,1.35a1.51,1.51,0,0,1,.08.47,3.68,3.68,0,0,1-.16-.45c-.1-.35-.24-.79-.4-1.33l-1.42-4.88c-1.2-4.13-2.89-9.82-4.84-16.07s-3.82-11.89-5.19-16c-.67-2-1.22-3.64-1.61-4.82-.18-.54-.32-1-.43-1.32A2.15,2.15,0,0,1,26.28,365.86Z" transform="translate(0 -6.54)"/><path class="cls-3" d="M34.33,398.42a20.74,20.74,0,0,0-15.38-11c-1.66-.23-3.68-.08-4.52,1.36s0,3.29,1.08,4.59a17.73,17.73,0,0,0,18.86,5.55" transform="translate(0 -6.54)"/><path class="cls-4" d="M21.18,392a6.92,6.92,0,0,1,1,.11c.34.05.75.11,1.21.22s1,.21,1.57.41a19.14,19.14,0,0,1,1.87.65c.66.25,1.34.59,2.06.95a22.85,22.85,0,0,1,4.27,2.94,22.24,22.24,0,0,1,3.44,3.89,18.66,18.66,0,0,1,1.18,1.94,16.68,16.68,0,0,1,.85,1.78,13.91,13.91,0,0,1,.56,1.52,9.38,9.38,0,0,1,.34,1.18,5.36,5.36,0,0,1,.2,1c-.08,0-.39-1.44-1.36-3.62a15.83,15.83,0,0,0-.88-1.74,19.26,19.26,0,0,0-1.18-1.89,24.08,24.08,0,0,0-3.4-3.8,24,24,0,0,0-4.19-2.91,21.59,21.59,0,0,0-2-1c-.63-.29-1.26-.49-1.82-.69C22.65,392.27,21.17,392.09,21.18,392Z" transform="translate(0 -6.54)"/></g><g id="Treasure"><polygon class="cls-3" points="164.87 267.4 182.22 184.01 168.28 268.03 214.58 196.55 171.23 269.86 240.23 219.93 173.32 272.63 255.7 251 174.27 275.97 246.06 284.63 173.95 279.42 247.86 318.6 172.41 282.53 228.49 346.63 169.84 284.87 198.98 364.89 166.61 286.12 164.87 371.27 163.14 286.12 130.76 364.89 159.9 284.87 101.25 346.63 157.34 282.53 80.34 318.93 155.79 279.42 75.5 285.02 155.47 275.97 74.04 251 156.42 272.63 89.51 219.93 158.51 269.86 115.16 196.55 161.46 268.03 147.52 184.01 164.87 267.4"/><polygon class="cls-5" points="164.87 267.4 182.22 184.01 168.28 268.03 214.58 196.55 171.23 269.86 240.23 219.93 173.32 272.63 255.7 251 174.27 275.97 244.28 283.9 173.95 279.42 248.21 318.66 172.41 282.53 228.49 346.63 169.84 284.87 198.98 364.89 166.61 286.12 164.87 371.27 163.14 286.12 130.76 364.89 159.9 284.87 101.25 346.63 157.34 282.53 80.34 318.93 155.79 279.42 75.5 285.02 155.47 275.97 74.04 251 156.42 272.63 89.51 219.93 158.51 269.86 115.16 196.55 161.46 268.03 147.52 184.01 164.87 267.4"/><polygon class="cls-3" points="160.39 252.59 165.87 205.54 169.92 252.74 192.03 210.84 178.76 256.32 214.51 225.23 185.7 262.84 230.27 246.78 189.82 271.44 237.18 272.56 190.56 280.94 234.32 299.09 187.81 290.07 222.06 322.8 181.95 297.59 202.06 340.48 173.77 302.49 177.03 349.75 164.38 304.1 150.34 349.34 155.03 302.2 125.6 339.32 147.01 297.06 106.15 321.05 141.38 289.37 94.62 296.98 138.91 280.16 92.56 270.36 139.93 270.69 100.25 244.81 144.31 262.22 116.66 223.75 151.45 255.9 139.56 210.05 160.39 252.59"/><polygon class="cls-6" points="160.39 252.59 165.87 205.54 169.92 252.74 192.03 210.84 178.76 256.32 214.51 225.23 185.7 262.84 230.27 246.78 189.82 271.44 237.18 272.56 190.56 280.94 234.32 299.09 187.81 290.07 222.06 322.8 181.95 297.59 202.06 340.48 173.77 302.49 177.03 349.75 164.38 304.1 150.34 349.34 155.03 302.2 125.6 339.32 147.01 297.06 106.15 321.05 141.38 289.37 94.62 296.98 138.91 280.16 92.56 270.36 139.93 270.69 100.25 244.81 144.31 262.22 116.66 223.75 151.45 255.9 139.56 210.05 160.39 252.59"/><rect class="cls-3" x="76.21" y="261.5" width="172.39" height="143.04"/><path class="cls-7" d="M243,275.27a2.38,2.38,0,1,1-3.36-.17A2.38,2.38,0,0,1,243,275.27Z" transform="translate(0 -6.54)"/><path class="cls-4" d="M243,275.27s-.19-.11-.5-.29a2.38,2.38,0,0,0-1.45-.3,2.17,2.17,0,0,0-1.39,3.6,2.14,2.14,0,0,0,2.37.56,2.18,2.18,0,0,0,1.35-1.57,2.4,2.4,0,0,0-.14-1.47c-.14-.33-.28-.5-.24-.53s.2.11.42.44a2.31,2.31,0,0,1,.32,1.63,2.54,2.54,0,0,1-1.53,2,2.61,2.61,0,0,1-3.29-3.66,2.59,2.59,0,0,1,2.1-1.32,2.35,2.35,0,0,1,1.59.5C243,275.06,243.05,275.26,243,275.27Z" transform="translate(0 -6.54)"/><rect class="cls-8" x="93.54" y="278.67" width="137.69" height="108.29"/><path class="cls-9" d="M195.41,287c0,.14-13.47.26-30.09.26s-30.1-.12-30.1-.26,13.47-.26,30.1-.26S195.41,286.85,195.41,287Z" transform="translate(0 -6.54)"/><path class="cls-4" d="M231.23,393.49s0-.68,0-2,0-3.26,0-5.78c0-5.06,0-12.48-.06-21.94,0-18.89-.06-45.94-.11-78.58l.22.22-137.68,0h0l.26-.26c0,39.07,0,76,0,108.29l-.23-.23,99.44.12,28.18.06,7.48,0h2.59l-.64,0h-1.9l-7.43,0-28.13.06-99.59.12H93.3v-.24c0-32.29,0-69.22,0-108.29v-.26h.27l137.68.05h.21v.21c0,32.7-.08,59.79-.11,78.72,0,9.43,0,16.83-.06,21.88,0,2.51,0,4.44,0,5.74S231.23,393.49,231.23,393.49Z" transform="translate(0 -6.54)"/><path class="cls-4" d="M231.23,378.38c0,.14-30.84.26-68.86.26s-68.86-.12-68.86-.26,30.82-.26,68.86-.26S231.23,378.23,231.23,378.38Z" transform="translate(0 -6.54)"/><path class="cls-4" d="M231.23,362.15c0,.14-30.84.26-68.86.26s-68.86-.12-68.86-.26,30.82-.26,68.86-.26S231.23,362,231.23,362.15Z" transform="translate(0 -6.54)"/><path class="cls-4" d="M231.23,345.92c0,.15-30.84.26-68.86.26s-68.86-.11-68.86-.26,30.82-.26,68.86-.26S231.23,345.78,231.23,345.92Z" transform="translate(0 -6.54)"/><path class="cls-4" d="M231.23,329.69c0,.15-30.84.27-68.86.27s-68.86-.12-68.86-.27,30.82-.26,68.86-.26S231.23,329.55,231.23,329.69Z" transform="translate(0 -6.54)"/><path class="cls-4" d="M231.23,313.47c0,.14-30.84.26-68.86.26s-68.86-.12-68.86-.26,30.82-.26,68.86-.26S231.23,313.32,231.23,313.47Z" transform="translate(0 -6.54)"/><path class="cls-4" d="M231.23,297.24c0,.14-30.84.26-68.86.26s-68.86-.12-68.86-.26,30.82-.26,68.86-.26S231.23,297.1,231.23,297.24Z" transform="translate(0 -6.54)"/><path class="cls-9" d="M159.4,298.67c0,.14-7.85.26-17.53.26s-17.52-.12-17.52-.26,7.84-.27,17.52-.27S159.4,298.52,159.4,298.67Z" transform="translate(0 -6.54)"/><path class="cls-9" d="M176.93,298.67a22.43,22.43,0,0,1-6.81,0,21.61,21.61,0,0,1,6.81,0Z" transform="translate(0 -6.54)"/><path class="cls-9" d="M193.14,315.67c0,.14-7.14.26-15.95.26s-16-.12-16-.26,7.14-.26,16-.26S193.14,315.52,193.14,315.67Z" transform="translate(0 -6.54)"/><path class="cls-9" d="M164.63,331.63c0,.14-4.92.26-11,.26s-11-.12-11-.26,4.92-.27,11-.27S164.63,331.48,164.63,331.63Z" transform="translate(0 -6.54)"/><path class="cls-9" d="M174.31,347.32a35.46,35.46,0,0,1-6,.26,35.39,35.39,0,0,1-6-.26,35.39,35.39,0,0,1,6-.26A35.46,35.46,0,0,1,174.31,347.32Z" transform="translate(0 -6.54)"/><path class="cls-7" d="M85.66,371.61a2.38,2.38,0,1,1,.18-3.36A2.38,2.38,0,0,1,85.66,371.61Z" transform="translate(0 -6.54)"/><path class="cls-4" d="M85.66,371.61s.12-.19.3-.5a2.38,2.38,0,0,0,.29-1.45A2.15,2.15,0,1,0,83.66,372a2.39,2.39,0,0,0,1.47-.14c.33-.14.5-.28.53-.24s-.1.2-.43.42a2.35,2.35,0,0,1-1.64.32,2.5,2.5,0,0,1-1.94-1.53,2.6,2.6,0,0,1,3.65-3.29,2.54,2.54,0,0,1,1.32,2.1,2.4,2.4,0,0,1-.49,1.59C85.88,371.53,85.68,371.63,85.66,371.61Z" transform="translate(0 -6.54)"/><path class="cls-7" d="M85.66,401.46a2.38,2.38,0,1,1,.18-3.36A2.38,2.38,0,0,1,85.66,401.46Z" transform="translate(0 -6.54)"/><path class="cls-4" d="M85.66,401.46s.12-.18.3-.5a2.38,2.38,0,0,0,.29-1.45,2.2,2.2,0,0,0-1.18-1.7,2.14,2.14,0,0,0-3,2.69,2.22,2.22,0,0,0,1.57,1.35,2.31,2.31,0,0,0,1.47-.15c.33-.14.5-.27.53-.24s-.1.21-.43.42a2.35,2.35,0,0,1-1.64.33,2.55,2.55,0,0,1-1.94-1.53,2.6,2.6,0,0,1,3.65-3.29,2.53,2.53,0,0,1,1.32,2.09,2.4,2.4,0,0,1-.49,1.59C85.88,401.38,85.68,401.48,85.66,401.46Z" transform="translate(0 -6.54)"/><path class="cls-7" d="M86.41,336.26a2.38,2.38,0,1,1,.18-3.36A2.38,2.38,0,0,1,86.41,336.26Z" transform="translate(0 -6.54)"/><path class="cls-4" d="M86.41,336.26s.12-.19.3-.5a2.4,2.4,0,0,0,.29-1.45,2.2,2.2,0,0,0-1.18-1.71,2.15,2.15,0,0,0-3,2.69,2.2,2.2,0,0,0,1.57,1.35,2.4,2.4,0,0,0,1.47-.14c.33-.15.5-.28.53-.24s-.1.2-.44.42a2.36,2.36,0,0,1-1.63.32,2.55,2.55,0,0,1-2-1.53,2.61,2.61,0,0,1,3.66-3.29,2.54,2.54,0,0,1,1.32,2.1,2.36,2.36,0,0,1-.5,1.59C86.62,336.18,86.43,336.28,86.41,336.26Z" transform="translate(0 -6.54)"/><path class="cls-7" d="M86.41,306.17a2.38,2.38,0,1,1,.18-3.36A2.38,2.38,0,0,1,86.41,306.17Z" transform="translate(0 -6.54)"/><path class="cls-4" d="M86.41,306.17s.12-.19.3-.5a2.38,2.38,0,0,0,.29-1.45,2.2,2.2,0,0,0-1.18-1.7,2.14,2.14,0,0,0-3,2.68,2.2,2.2,0,0,0,1.57,1.35,2.4,2.4,0,0,0,1.47-.14c.33-.14.5-.27.53-.24s-.1.2-.44.42a2.36,2.36,0,0,1-1.63.33,2.57,2.57,0,0,1-2-1.54,2.61,2.61,0,0,1,3.66-3.29,2.54,2.54,0,0,1,1.32,2.1,2.35,2.35,0,0,1-.5,1.59C86.62,306.09,86.43,306.19,86.41,306.17Z" transform="translate(0 -6.54)"/><path class="cls-7" d="M86.41,279.93a2.38,2.38,0,1,1,.18-3.35A2.38,2.38,0,0,1,86.41,279.93Z" transform="translate(0 -6.54)"/><path class="cls-4" d="M86.41,279.93s.12-.18.3-.5A2.37,2.37,0,0,0,87,278a2.2,2.2,0,0,0-1.18-1.71,2.14,2.14,0,0,0-3,2.69,2.22,2.22,0,0,0,1.57,1.35,2.4,2.4,0,0,0,1.47-.14c.33-.15.5-.28.53-.25s-.1.21-.44.43a2.36,2.36,0,0,1-1.63.32,2.58,2.58,0,0,1-2-1.53,2.6,2.6,0,0,1,3.66-3.29,2.54,2.54,0,0,1,1.32,2.1,2.38,2.38,0,0,1-.5,1.59C86.62,279.85,86.43,280,86.41,279.93Z" transform="translate(0 -6.54)"/><path class="cls-7" d="M204.29,401.84a2.38,2.38,0,1,1-3.36-.18A2.38,2.38,0,0,1,204.29,401.84Z" transform="translate(0 -6.54)"/><path class="cls-4" d="M204.29,401.84s-.18-.12-.5-.3a2.38,2.38,0,0,0-1.45-.3,2.25,2.25,0,0,0-1.7,1.18,2.15,2.15,0,0,0,2.69,3,2.22,2.22,0,0,0,1.35-1.57,2.3,2.3,0,0,0-.15-1.47c-.14-.34-.27-.5-.24-.53s.21.1.42.43a2.39,2.39,0,0,1,.33,1.63,2.54,2.54,0,0,1-1.53,2,2.62,2.62,0,0,1-2.95-.66,2.59,2.59,0,0,1-.34-3,2.53,2.53,0,0,1,2.09-1.32,2.35,2.35,0,0,1,1.59.49C204.21,401.62,204.31,401.82,204.29,401.84Z" transform="translate(0 -6.54)"/><path class="cls-7" d="M241.33,401.84a2.38,2.38,0,1,1-3.36-.18A2.38,2.38,0,0,1,241.33,401.84Z" transform="translate(0 -6.54)"/><path class="cls-4" d="M241.33,401.84s-.19-.12-.5-.3a2.38,2.38,0,0,0-1.45-.3,2.25,2.25,0,0,0-1.7,1.18,2.15,2.15,0,0,0,2.68,3,2.2,2.2,0,0,0,1.35-1.57,2.38,2.38,0,0,0-.14-1.47c-.14-.34-.27-.5-.24-.53s.2.1.42.43a2.39,2.39,0,0,1,.33,1.63,2.54,2.54,0,0,1-1.54,2,2.6,2.6,0,0,1-3.29-3.65,2.54,2.54,0,0,1,2.1-1.32,2.35,2.35,0,0,1,1.59.49C241.25,401.62,241.35,401.82,241.33,401.84Z" transform="translate(0 -6.54)"/><path class="cls-7" d="M241.33,369.84a2.38,2.38,0,1,1-3.36-.18A2.38,2.38,0,0,1,241.33,369.84Z" transform="translate(0 -6.54)"/><path class="cls-4" d="M241.33,369.84s-.19-.12-.5-.3a2.38,2.38,0,0,0-1.45-.29,2.2,2.2,0,0,0-1.7,1.18,2.14,2.14,0,0,0,2.68,3,2.2,2.2,0,0,0,1.35-1.57,2.39,2.39,0,0,0-.14-1.47c-.14-.33-.27-.5-.24-.53s.2.1.42.43a2.4,2.4,0,0,1,.33,1.64,2.54,2.54,0,0,1-1.54,1.94,2.6,2.6,0,0,1-3.29-3.65,2.54,2.54,0,0,1,2.1-1.32,2.4,2.4,0,0,1,1.59.49C241.25,369.62,241.35,369.82,241.33,369.84Z" transform="translate(0 -6.54)"/><path class="cls-7" d="M241.33,337.84a2.38,2.38,0,1,1-3.36-.17A2.38,2.38,0,0,1,241.33,337.84Z" transform="translate(0 -6.54)"/><path class="cls-4" d="M241.33,337.84s-.19-.12-.5-.29a2.38,2.38,0,0,0-1.45-.3,2.2,2.2,0,0,0-1.7,1.18,2.15,2.15,0,1,0,4,1.41,2.4,2.4,0,0,0-.14-1.47c-.14-.33-.27-.5-.24-.53s.2.1.42.44a2.36,2.36,0,0,1,.33,1.63,2.57,2.57,0,0,1-1.54,1.95,2.61,2.61,0,0,1-3.29-3.66,2.57,2.57,0,0,1,2.1-1.32,2.35,2.35,0,0,1,1.59.5C241.25,337.63,241.35,337.83,241.33,337.84Z" transform="translate(0 -6.54)"/><path class="cls-7" d="M241.33,305.85a2.38,2.38,0,1,1-3.36-.18A2.36,2.36,0,0,1,241.33,305.85Z" transform="translate(0 -6.54)"/><path class="cls-4" d="M241.33,305.85s-.19-.12-.5-.3a2.38,2.38,0,0,0-1.45-.3,2.2,2.2,0,0,0-1.7,1.18,2.15,2.15,0,0,0,2.68,3,2.21,2.21,0,0,0,1.35-1.58,2.4,2.4,0,0,0-.14-1.47c-.14-.33-.27-.5-.24-.52s.2.1.42.43a2.36,2.36,0,0,1,.33,1.63,2.54,2.54,0,0,1-1.54,1.95,2.61,2.61,0,0,1-3.29-3.66,2.55,2.55,0,0,1,2.1-1.31,2.35,2.35,0,0,1,1.59.49C241.25,305.63,241.35,305.83,241.33,305.85Z" transform="translate(0 -6.54)"/><path class="cls-7" d="M213.91,275.48a2.38,2.38,0,1,1-3.35-.18A2.38,2.38,0,0,1,213.91,275.48Z" transform="translate(0 -6.54)"/><path class="cls-4" d="M213.91,275.48s-.18-.12-.5-.3a2.37,2.37,0,0,0-1.44-.29,2.2,2.2,0,0,0-1.71,1.18,2.14,2.14,0,0,0,2.69,3,2.22,2.22,0,0,0,1.35-1.57,2.4,2.4,0,0,0-.14-1.47c-.15-.33-.28-.5-.25-.53s.21.1.43.43a2.41,2.41,0,0,1,.32,1.64,2.55,2.55,0,0,1-1.53,1.95,2.61,2.61,0,0,1-3.29-3.66,2.54,2.54,0,0,1,2.1-1.32,2.36,2.36,0,0,1,1.59.5C213.83,275.27,213.94,275.46,213.91,275.48Z" transform="translate(0 -6.54)"/><path class="cls-7" d="M183.25,275.48a2.38,2.38,0,1,1-3.36-.18A2.38,2.38,0,0,1,183.25,275.48Z" transform="translate(0 -6.54)"/><path class="cls-4" d="M183.25,275.48s-.18-.12-.5-.3a2.38,2.38,0,0,0-1.45-.29,2.2,2.2,0,0,0-1.7,1.18,2.14,2.14,0,0,0,2.68,3,2.21,2.21,0,0,0,1.36-1.57,2.39,2.39,0,0,0-.15-1.47c-.14-.33-.27-.5-.24-.53s.21.1.42.43a2.4,2.4,0,0,1,.33,1.64,2.57,2.57,0,0,1-1.54,1.95,2.6,2.6,0,0,1-3.28-3.66,2.52,2.52,0,0,1,2.09-1.32,2.35,2.35,0,0,1,1.59.5C183.17,275.27,183.27,275.46,183.25,275.48Z" transform="translate(0 -6.54)"/><path class="cls-7" d="M151,275.48a2.38,2.38,0,1,1-3.36-.18A2.38,2.38,0,0,1,151,275.48Z" transform="translate(0 -6.54)"/><path class="cls-4" d="M151,275.48s-.18-.12-.5-.3a2.38,2.38,0,0,0-1.45-.29,2.2,2.2,0,0,0-1.7,1.18,2.14,2.14,0,0,0,2.68,3,2.2,2.2,0,0,0,1.35-1.57,2.33,2.33,0,0,0-.14-1.47c-.14-.33-.27-.5-.24-.53s.21.1.42.43a2.4,2.4,0,0,1,.33,1.64,2.57,2.57,0,0,1-1.54,1.95,2.61,2.61,0,0,1-3.29-3.66,2.54,2.54,0,0,1,2.1-1.32,2.35,2.35,0,0,1,1.59.5C150.91,275.27,151,275.46,151,275.48Z" transform="translate(0 -6.54)"/><path class="cls-7" d="M117,275.48a2.38,2.38,0,1,1-3.36-.18A2.38,2.38,0,0,1,117,275.48Z" transform="translate(0 -6.54)"/><path class="cls-4" d="M117,275.48s-.18-.12-.5-.3a2.38,2.38,0,0,0-1.45-.29,2.2,2.2,0,0,0-1.7,1.18,2.14,2.14,0,0,0,2.68,3,2.2,2.2,0,0,0,1.35-1.57,2.33,2.33,0,0,0-.14-1.47c-.14-.33-.27-.5-.24-.53s.21.1.42.43a2.4,2.4,0,0,1,.33,1.64,2.57,2.57,0,0,1-1.54,1.95,2.61,2.61,0,0,1-3.29-3.66,2.54,2.54,0,0,1,2.1-1.32,2.35,2.35,0,0,1,1.59.5C116.87,275.27,117,275.46,117,275.48Z" transform="translate(0 -6.54)"/><path class="cls-7" d="M169.83,401.84a2.38,2.38,0,1,1-3.36-.18A2.38,2.38,0,0,1,169.83,401.84Z" transform="translate(0 -6.54)"/><path class="cls-4" d="M169.83,401.84s-.19-.12-.5-.3a2.38,2.38,0,0,0-1.45-.3,2.25,2.25,0,0,0-1.7,1.18,2.15,2.15,0,0,0,2.68,3,2.2,2.2,0,0,0,1.35-1.57,2.38,2.38,0,0,0-.14-1.47c-.14-.34-.27-.5-.24-.53s.2.1.42.43a2.39,2.39,0,0,1,.33,1.63,2.54,2.54,0,0,1-1.54,2,2.6,2.6,0,0,1-3.29-3.65,2.54,2.54,0,0,1,2.1-1.32,2.35,2.35,0,0,1,1.59.49C169.75,401.62,169.85,401.82,169.83,401.84Z" transform="translate(0 -6.54)"/><path class="cls-7" d="M139.29,401.84a2.38,2.38,0,1,1-3.36-.18A2.38,2.38,0,0,1,139.29,401.84Z" transform="translate(0 -6.54)"/><path class="cls-4" d="M139.29,401.84s-.19-.12-.5-.3a2.38,2.38,0,0,0-1.45-.3,2.25,2.25,0,0,0-1.7,1.18,2.15,2.15,0,0,0,2.68,3,2.2,2.2,0,0,0,1.35-1.57,2.38,2.38,0,0,0-.14-1.47c-.14-.34-.27-.5-.24-.53s.2.1.42.43a2.39,2.39,0,0,1,.33,1.63,2.54,2.54,0,0,1-1.54,2,2.6,2.6,0,0,1-3.29-3.65,2.54,2.54,0,0,1,2.1-1.32,2.35,2.35,0,0,1,1.59.49C139.21,401.62,139.31,401.82,139.29,401.84Z" transform="translate(0 -6.54)"/><path class="cls-7" d="M111.13,401.09a2.38,2.38,0,1,1-3.36-.18A2.38,2.38,0,0,1,111.13,401.09Z" transform="translate(0 -6.54)"/><path class="cls-4" d="M111.13,401.09s-.19-.12-.5-.3a2.38,2.38,0,0,0-1.45-.29,2.17,2.17,0,0,0-1.39,3.6,2.16,2.16,0,0,0,2.37.56,2.2,2.2,0,0,0,1.35-1.57,2.39,2.39,0,0,0-.14-1.47c-.14-.33-.28-.5-.24-.53s.2.1.42.43a2.35,2.35,0,0,1,.32,1.64,2.53,2.53,0,0,1-1.53,1.94,2.6,2.6,0,0,1-3.29-3.65,2.54,2.54,0,0,1,2.1-1.32,2.4,2.4,0,0,1,1.59.49C111.05,400.87,111.15,401.07,111.13,401.09Z" transform="translate(0 -6.54)"/><path class="cls-9" d="M241.26,269.05c0,.15-35,.26-78.22.26s-78.22-.11-78.22-.26,35-.26,78.22-.26S241.26,268.91,241.26,269.05Z" transform="translate(0 -6.54)"/><path class="cls-3" d="M167.49,111.22c-1.91,2-109,143-109,143L76.21,268,184.94,120.86Z" transform="translate(0 -6.54)"/><path class="cls-3" d="M58.62,254.24s-11.57-56.81,20.32-97.47c39.54-50.42,88.71-45.42,88.71-45.42l.69,9.69Z" transform="translate(0 -6.54)"/><path class="cls-8" d="M71.5,247.69l94.7-123.85s-44.47,1.87-72.66,38.75C61.89,204,71.5,247.69,71.5,247.69Z" transform="translate(0 -6.54)"/><path class="cls-9" d="M181.48,124a3.84,3.84,0,0,1-.24.39l-.74,1.11-2.92,4.24c-2.53,3.69-6.24,9-10.85,15.52-9.22,13.06-22.12,31-36.67,50.57s-28,37.1-37.89,49.69c-4.93,6.29-8.94,11.37-11.74,14.85l-3.22,4-.85,1c-.2.23-.31.34-.31.34l.27-.37.8-1.07,3.15-4.07,11.61-15c9.78-12.64,23.2-30.19,37.76-49.77s27.5-37.47,36.79-50.47l11-15.42,3-4.19.79-1.08A4.53,4.53,0,0,1,181.48,124Z" transform="translate(0 -6.54)"/><path class="cls-4" d="M71.5,247.69a.94.94,0,0,1-.06-.21l-.13-.63c-.11-.55-.26-1.38-.41-2.47a86.72,86.72,0,0,1-.82-9.61,112.63,112.63,0,0,1,13.79-57.72,114,114,0,0,1,7.27-11.57,95,95,0,0,1,9.22-11.16,97.61,97.61,0,0,1,24.82-18.59,111,111,0,0,1,31.46-10.91,82.65,82.65,0,0,1,9.54-1.24l.57,0-.35.45c-52.9,69-93.22,121.5-94.9,123.7l94.49-124,.22.42a79.86,79.86,0,0,0-9.47,1.23,110.94,110.94,0,0,0-31.32,10.85,97.27,97.27,0,0,0-24.71,18.47,93.49,93.49,0,0,0-9.2,11.1,114,114,0,0,0-7.27,11.51,112.71,112.71,0,0,0-9.38,22.52,114.4,114.4,0,0,0-4.58,35,94.57,94.57,0,0,0,.72,9.6c.14,1.1.27,1.93.36,2.48l.11.63Z" transform="translate(0 -6.54)"/><path class="cls-4" d="M152,126.05c.12.09-18.12,23.48-40.73,52.23s-41,52-41.15,51.92S88.25,206.73,110.86,178,151.89,126,152,126.05Z" transform="translate(0 -6.54)"/><path class="cls-4" d="M129.5,133.84c.12.09-12.21,15.67-27.52,34.79S74.16,203.2,74,203.11s12.21-15.67,27.53-34.8S129.39,133.75,129.5,133.84Z" transform="translate(0 -6.54)"/><path class="cls-7" d="M65.33,227.8A2.38,2.38,0,1,1,63,225.43,2.37,2.37,0,0,1,65.33,227.8Z" transform="translate(0 -6.54)"/><path class="cls-4" d="M65.33,227.8s-.06-.21-.17-.55a2.32,2.32,0,0,0-.88-1.19,2.19,2.19,0,0,0-2.05-.26,2.14,2.14,0,0,0,0,4,2.22,2.22,0,0,0,2.05-.26,2.36,2.36,0,0,0,.88-1.19c.11-.34.13-.56.17-.56s.09.22,0,.61a2.42,2.42,0,0,1-.85,1.43,2.55,2.55,0,0,1-2.45.42,2.6,2.6,0,0,1,0-4.91,2.53,2.53,0,0,1,2.45.42,2.4,2.4,0,0,1,.85,1.43C65.42,227.59,65.36,227.81,65.33,227.8Z" transform="translate(0 -6.54)"/><path class="cls-7" d="M69.71,194.88a2.38,2.38,0,1,1-2.37-2.38A2.38,2.38,0,0,1,69.71,194.88Z" transform="translate(0 -6.54)"/><path class="cls-4" d="M69.71,194.88s0-.21-.17-.56a2.34,2.34,0,0,0-.88-1.18,2.19,2.19,0,0,0-2-.27,2.15,2.15,0,0,0,0,4,2.19,2.19,0,0,0,2-.27,2.34,2.34,0,0,0,.88-1.18c.12-.35.13-.56.17-.56s.09.21,0,.61a2.37,2.37,0,0,1-.85,1.43,2.58,2.58,0,0,1-2.45.42,2.61,2.61,0,0,1,0-4.92,2.58,2.58,0,0,1,2.45.42,2.37,2.37,0,0,1,.85,1.43C69.8,194.67,69.74,194.88,69.71,194.88Z" transform="translate(0 -6.54)"/><path class="cls-7" d="M82.17,167.44a2.38,2.38,0,1,1,.18-3.36A2.38,2.38,0,0,1,82.17,167.44Z" transform="translate(0 -6.54)"/><path class="cls-4" d="M82.17,167.44s.12-.18.3-.5a2.37,2.37,0,0,0,.29-1.44,2.21,2.21,0,0,0-1.17-1.71,2.15,2.15,0,0,0-3,2.69,2.22,2.22,0,0,0,1.57,1.35,2.38,2.38,0,0,0,1.47-.14c.34-.15.5-.28.53-.25s-.1.21-.43.43a2.41,2.41,0,0,1-1.64.32,2.55,2.55,0,0,1-1.94-1.53,2.6,2.6,0,0,1,3.65-3.29,2.54,2.54,0,0,1,1.32,2.1,2.39,2.39,0,0,1-.49,1.59C82.39,167.36,82.19,167.46,82.17,167.44Z" transform="translate(0 -6.54)"/><path class="cls-7" d="M106.18,142.94a2.38,2.38,0,1,1,.17-3.36A2.38,2.38,0,0,1,106.18,142.94Z" transform="translate(0 -6.54)"/><path class="cls-4" d="M106.18,142.94s.11-.18.29-.5a2.38,2.38,0,0,0,.3-1.45,2.2,2.2,0,0,0-1.18-1.7,2.14,2.14,0,0,0-3,2.69,2.2,2.2,0,0,0,1.57,1.35,2.32,2.32,0,0,0,1.47-.15c.33-.14.5-.27.53-.24s-.11.21-.44.42a2.36,2.36,0,0,1-1.63.33,2.58,2.58,0,0,1-2-1.53,2.64,2.64,0,0,1,.66-2.95,2.61,2.61,0,0,1,3-.34,2.55,2.55,0,0,1,1.32,2.09,2.35,2.35,0,0,1-.5,1.59C106.39,142.86,106.19,143,106.18,142.94Z" transform="translate(0 -6.54)"/><path class="cls-7" d="M131.09,127.82a2.38,2.38,0,1,1,.18-3.36A2.36,2.36,0,0,1,131.09,127.82Z" transform="translate(0 -6.54)"/><path class="cls-4" d="M131.09,127.82s.12-.19.3-.5a2.4,2.4,0,0,0,.3-1.45,2.18,2.18,0,0,0-1.18-1.7,2.15,2.15,0,0,0-3,2.68,2.21,2.21,0,0,0,1.58,1.35,2.4,2.4,0,0,0,1.47-.14c.33-.15.5-.28.52-.24s-.1.2-.43.42a2.36,2.36,0,0,1-1.63.32,2.52,2.52,0,0,1-2-1.53,2.6,2.6,0,0,1,3.65-3.29,2.54,2.54,0,0,1,1.32,2.1,2.37,2.37,0,0,1-.49,1.59C131.31,127.74,131.11,127.84,131.09,127.82Z" transform="translate(0 -6.54)"/><path class="cls-7" d="M158.88,119.4a2.38,2.38,0,1,1,.17-3.35A2.38,2.38,0,0,1,158.88,119.4Z" transform="translate(0 -6.54)"/><path class="cls-4" d="M158.88,119.4s.12-.18.29-.5a2.36,2.36,0,0,0,.3-1.44,2.2,2.2,0,0,0-1.18-1.71,2.14,2.14,0,0,0-3,2.69,2.2,2.2,0,0,0,1.57,1.35,2.4,2.4,0,0,0,1.47-.14c.33-.15.5-.28.53-.25s-.1.21-.44.43a2.36,2.36,0,0,1-1.63.32,2.58,2.58,0,0,1-1.95-1.53,2.61,2.61,0,0,1,3.66-3.29,2.57,2.57,0,0,1,1.32,2.1,2.38,2.38,0,0,1-.5,1.59C159.09,119.32,158.89,119.43,158.88,119.4Z" transform="translate(0 -6.54)"/><path class="cls-7" d="M167.79,135.61a2.38,2.38,0,1,1,.17-3.36A2.38,2.38,0,0,1,167.79,135.61Z" transform="translate(0 -6.54)"/><path class="cls-4" d="M167.79,135.61s.11-.19.29-.5a2.38,2.38,0,0,0,.3-1.45,2.2,2.2,0,0,0-1.18-1.7,2.15,2.15,0,1,0-1.41,4,2.4,2.4,0,0,0,1.47-.14c.33-.14.5-.27.53-.24s-.1.2-.44.42a2.36,2.36,0,0,1-1.63.33,2.57,2.57,0,0,1-1.95-1.54,2.61,2.61,0,0,1,3.66-3.29,2.57,2.57,0,0,1,1.32,2.1,2.35,2.35,0,0,1-.5,1.59C168,135.53,167.8,135.63,167.79,135.61Z" transform="translate(0 -6.54)"/><path class="cls-7" d="M152.94,156.05a2.38,2.38,0,0,1-3.18-3.54,2.38,2.38,0,1,1,3.18,3.54Z" transform="translate(0 -6.54)"/><path class="cls-4" d="M152.94,156.05s.12-.19.3-.5a2.38,2.38,0,0,0,.3-1.45,2.22,2.22,0,0,0-1.18-1.7,2.15,2.15,0,0,0-3,2.68,2.2,2.2,0,0,0,1.58,1.35,2.4,2.4,0,0,0,1.47-.14c.33-.14.5-.27.52-.24s-.1.2-.43.42a2.39,2.39,0,0,1-1.63.33,2.54,2.54,0,0,1-1.95-1.54,2.6,2.6,0,0,1,3.65-3.29,2.54,2.54,0,0,1,1.32,2.1,2.35,2.35,0,0,1-.49,1.59C153.16,156,153,156.07,152.94,156.05Z" transform="translate(0 -6.54)"/><path class="cls-7" d="M134.92,179.55a2.38,2.38,0,1,1,.18-3.36A2.36,2.36,0,0,1,134.92,179.55Z" transform="translate(0 -6.54)"/><path class="cls-4" d="M134.92,179.55s.12-.18.3-.5a2.38,2.38,0,0,0,.3-1.45,2.22,2.22,0,0,0-1.18-1.7,2.15,2.15,0,0,0-3,2.69,2.24,2.24,0,0,0,1.58,1.35,2.32,2.32,0,0,0,1.47-.15c.33-.14.5-.27.52-.24s-.1.21-.43.42a2.39,2.39,0,0,1-1.63.33,2.54,2.54,0,0,1-2-1.53,2.6,2.6,0,0,1,3.65-3.29,2.53,2.53,0,0,1,1.32,2.09,2.35,2.35,0,0,1-.49,1.59C135.14,179.47,134.94,179.57,134.92,179.55Z" transform="translate(0 -6.54)"/><path class="cls-7" d="M111.92,211a2.38,2.38,0,1,1,.17-3.36A2.38,2.38,0,0,1,111.92,211Z" transform="translate(0 -6.54)"/><path class="cls-4" d="M111.92,211s.11-.19.29-.5a2.4,2.4,0,0,0,.3-1.45,2.2,2.2,0,0,0-1.18-1.71,2.16,2.16,0,1,0-1.41,4,2.4,2.4,0,0,0,1.47-.14c.33-.15.5-.28.53-.24s-.11.2-.44.42a2.36,2.36,0,0,1-1.63.32,2.54,2.54,0,0,1-1.95-1.53,2.61,2.61,0,0,1,3.66-3.29,2.59,2.59,0,0,1,1.32,2.1,2.36,2.36,0,0,1-.5,1.59C112.13,210.88,111.93,211,111.92,211Z" transform="translate(0 -6.54)"/><path class="cls-7" d="M89.55,239a2.38,2.38,0,1,1,.18-3.36A2.38,2.38,0,0,1,89.55,239Z" transform="translate(0 -6.54)"/><path class="cls-4" d="M89.55,239s.12-.19.3-.5a2.42,2.42,0,0,0,.29-1.45A2.2,2.2,0,0,0,89,235.38a2.14,2.14,0,0,0-3,2.69,2.2,2.2,0,0,0,1.57,1.35,2.4,2.4,0,0,0,1.47-.14c.33-.15.5-.28.53-.24s-.1.2-.44.42a2.36,2.36,0,0,1-1.63.32,2.55,2.55,0,0,1-2-1.53A2.61,2.61,0,0,1,89.19,235a2.54,2.54,0,0,1,1.32,2.1,2.36,2.36,0,0,1-.5,1.59C89.76,239,89.57,239.06,89.55,239Z" transform="translate(0 -6.54)"/><path class="cls-9" d="M116.36,153.32c.11.09-4.23,5.87-9.69,12.91s-10,12.68-10.1,12.6,4.22-5.87,9.69-12.92S116.25,153.23,116.36,153.32Z" transform="translate(0 -6.54)"/><path class="cls-9" d="M123.05,145.05a9.37,9.37,0,0,1-1.72,2.61,9.69,9.69,0,0,1-2.14,2.3,18.94,18.94,0,0,1,3.86-4.91Z" transform="translate(0 -6.54)"/><path class="cls-9" d="M150.54,130.76c.11.09-4.47,5.94-10.22,13.06s-10.52,12.84-10.64,12.75,4.47-5.94,10.23-13.07S150.43,130.66,150.54,130.76Z" transform="translate(0 -6.54)"/><path class="cls-9" d="M128.17,176.5c.11.09-5.65,7.48-12.88,16.51S102.11,209.28,102,209.19s5.66-7.48,12.88-16.51S128.06,176.41,128.17,176.5Z" transform="translate(0 -6.54)"/><path class="cls-9" d="M94.05,158.7a7.45,7.45,0,0,1-.91,1.06c-.61.65-1.47,1.61-2.5,2.82a74.54,74.54,0,0,0-12.75,21.21c-.58,1.49-1,2.7-1.32,3.54a6.21,6.21,0,0,1-.51,1.29,7.42,7.42,0,0,1,.32-1.35c.23-.87.63-2.1,1.17-3.61a65.43,65.43,0,0,1,12.81-21.32c1.08-1.18,2-2.11,2.64-2.72A6.92,6.92,0,0,1,94.05,158.7Z" transform="translate(0 -6.54)"/><polygon class="cls-3" points="207.51 183.23 199.07 197.27 201.31 209.47 214.12 219.28 222.6 205.45 220.25 192.62 207.51 183.23"/><polygon class="cls-10" points="208.91 191 204.43 197.84 206.07 206.8 212.72 211.61 217.52 204.65 215.88 195.68 208.91 191"/><polygon class="cls-11" points="208.92 191.04 207.51 183.23 220.25 192.62 215.88 195.68 208.92 191.04"/><polygon class="cls-11" points="212.72 211.61 214.12 219.28 201.31 209.47 206.07 206.8 212.72 211.61"/><polygon class="cls-11" points="222.6 205.45 217.52 204.65 212.72 211.61 214.12 219.28 222.6 205.45"/><path class="cls-9" d="M214.06,201" transform="translate(0 -6.54)"/><polygon class="cls-9" points="205.4 203.16 214.06 194.45 215.88 195.68 216.2 197.44 206.9 207.4 206.07 206.8 205.4 203.16"/><path class="cls-4" d="M212.72,218.15a14.66,14.66,0,0,1,.95,3.79,14.88,14.88,0,0,1,.45,3.88,15.05,15.05,0,0,1-1-3.79A14.12,14.12,0,0,1,212.72,218.15Z" transform="translate(0 -6.54)"/><path class="cls-4" d="M206.13,213.28a7.59,7.59,0,0,1-2.32,1.57,8,8,0,0,1-2.57,1.12,7.59,7.59,0,0,1,2.32-1.57A7.47,7.47,0,0,1,206.13,213.28Z" transform="translate(0 -6.54)"/><path class="cls-4" d="M199.07,203.81a14,14,0,0,1,5.36.56,6.92,6.92,0,0,1-2.71,0A7.4,7.4,0,0,1,199.07,203.81Z" transform="translate(0 -6.54)"/><path class="cls-4" d="M207.51,189.77a14.66,14.66,0,0,1,1,3.86,15.06,15.06,0,0,1,.44,3.94,15.38,15.38,0,0,1-1-3.85A15.42,15.42,0,0,1,207.51,189.77Z" transform="translate(0 -6.54)"/><path class="cls-4" d="M208.91,197.54a2.83,2.83,0,0,1,.48.27l1.39.88,5.2,3.36.07,0v.08c.49,2.55,1.07,5.6,1.7,9l0,.1-.06.09-4.65,6.77-.14.2-.15.22-.22-.16-6.64-4.83-.08-.06v-.09c-.6-3.37-1.14-6.41-1.59-9v-.08l0-.06,3.4-5,.92-1.32a3.21,3.21,0,0,1,.32-.42,3.62,3.62,0,0,1-.29.53l-.87,1.4-3.16,5,0-.14c.49,2.55,1.06,5.58,1.7,8.95l-.1-.16,6.66,4.81-.37.06.14-.19c1.64-2.38,3.22-4.66,4.68-6.76l0,.18c-.6-3.37-1.14-6.43-1.59-9l.08.12-5-3.47-1.38-1A5.76,5.76,0,0,1,208.91,197.54Z" transform="translate(0 -6.54)"/><path class="cls-4" d="M220.22,199.14a7.4,7.4,0,0,1-2.07,1.77,7.18,7.18,0,0,1-2.37,1.35c-.08-.12.85-.91,2.07-1.78A7.24,7.24,0,0,1,220.22,199.14Z" transform="translate(0 -6.54)"/><path class="cls-4" d="M222.6,212a8,8,0,0,1-2.59-.12,5.53,5.53,0,0,1-2.53-.64,8.37,8.37,0,0,1,2.59.12A5.83,5.83,0,0,1,222.6,212Z" transform="translate(0 -6.54)"/><path class="cls-9" d="M201.57,214.79a26.11,26.11,0,0,1-1.19-5.07,26.61,26.61,0,0,1-.69-5.17,25.67,25.67,0,0,1,1.2,5.07A26.1,26.1,0,0,1,201.57,214.79Z" transform="translate(0 -6.54)"/><path class="cls-9" d="M206.49,192.45a29.38,29.38,0,0,1-2.91,5.51A29.28,29.28,0,0,1,200,203a54.79,54.79,0,0,1,3.17-5.35A50.23,50.23,0,0,1,206.49,192.45Z" transform="translate(0 -6.54)"/><polygon class="cls-3" points="177.15 154.62 164.43 163.1 161.46 174.28 168.36 187.67 181.02 179.38 184.15 167.62 177.15 154.62"/><polygon class="cls-10" points="175.23 161.73 168.72 165.71 166.54 173.93 170.23 180.64 177.06 176.68 179.25 168.45 175.23 161.73"/><polygon class="cls-11" points="175.23 161.76 177.15 154.62 184.15 167.62 179.25 168.45 175.23 161.76"/><polygon class="cls-11" points="170.23 180.64 168.36 187.67 161.46 174.28 166.54 173.93 170.23 180.64"/><polygon class="cls-11" points="181.02 179.38 177.06 176.68 170.23 180.64 168.36 187.67 181.02 179.38"/><path class="cls-9" d="M178.2,173.22" transform="translate(0 -6.54)"/><polygon class="cls-9" points="167.43 170.59 178.2 166.69 179.25 168.45 178.82 170.06 167 174.76 166.54 173.93 167.43 170.59"/><path class="cls-4" d="M170.23,187.18a26.22,26.22,0,0,1-1.87,7,25,25,0,0,1,1.87-7Z" transform="translate(0 -6.54)"/><path class="cls-4" d="M166.61,180.44a6.85,6.85,0,0,1-2.58.42,6.71,6.71,0,0,1-2.61-.1,13.11,13.11,0,0,1,5.19-.32Z" transform="translate(0 -6.54)"/><path class="cls-4" d="M164.43,169.64a6.05,6.05,0,0,1,2.28,1.08c1.19.72,2.09,1.4,2,1.53a12.54,12.54,0,0,1-4.29-2.61Z" transform="translate(0 -6.54)"/><path class="cls-4" d="M177.15,161.15a13.42,13.42,0,0,1-.71,3.65,13.27,13.27,0,0,1-1.21,3.5,13.33,13.33,0,0,1,.71-3.64A13.61,13.61,0,0,1,177.15,161.15Z" transform="translate(0 -6.54)"/><path class="cls-4" d="M175.23,168.27s.11.12.3.41.49.78.83,1.3l3,4.91,0,.07,0,.08-2.13,8.24,0,.1-.09.05-6.63,3.86-.19.11-.23.14-.13-.24-3.68-6.72,0-.09,0-.09,2.24-8.2,0-.08.06,0,4.87-2.85,1.3-.74a2.54,2.54,0,0,1,.44-.22,3,3,0,0,1-.46.33l-1.29.84-4.66,3,.09-.11-2.13,8.23,0-.19,3.71,6.71-.36-.1.19-.11,6.64-3.84-.11.15,2.24-8.21,0,.15-2.82-4.92c-.3-.55-.56-1-.77-1.38A5.06,5.06,0,0,1,175.23,168.27Z" transform="translate(0 -6.54)"/><path class="cls-4" d="M184.14,174.12a12.52,12.52,0,0,1-5,.87,12.52,12.52,0,0,1,5-.87Z" transform="translate(0 -6.54)"/><path class="cls-4" d="M181,185.92a7.1,7.1,0,0,1-2.14-1.12c-1.14-.71-2-1.45-1.87-1.56a6.83,6.83,0,0,1,2.14,1.12C180.29,185.06,181.12,185.8,181,185.92Z" transform="translate(0 -6.54)"/><path class="cls-9" d="M162.16,179.9a22.83,22.83,0,0,1,1-4.76,22.62,22.62,0,0,1,1.5-4.63,22.83,22.83,0,0,1-1,4.76A23.18,23.18,0,0,1,162.16,179.9Z" transform="translate(0 -6.54)"/><path class="cls-9" d="M175.22,163a25.22,25.22,0,0,1-4.65,3.51,25.55,25.55,0,0,1-5.08,2.83,43.45,43.45,0,0,1,4.8-3.27A44.6,44.6,0,0,1,175.22,163Z" transform="translate(0 -6.54)"/></g><g id="Floor"><path class="cls-4" d="M459.65,411.08c0,.14-102.91.26-229.81.26S0,411.22,0,411.08s102.88-.26,229.84-.26S459.65,410.93,459.65,411.08Z" transform="translate(0 -6.54)"/></g><g id="Character"><path class="cls-12" d="M390.55,395.33l27.26-7.65s16.94,25.14,22.11,24.21L427,358.5l-43,10.18Z" transform="translate(0 -6.54)"/><path class="cls-13" d="M427,358.5l-4.29,1.19,14,50.75s1.61,2.13,3.21,1.45Z" transform="translate(0 -6.54)"/><path class="cls-14" d="M316.09,287.88s-50.94-9.38-67.38.77v57.27c18.19,9.8,43.86,26.28,43.86,26.28l25.18-39.54Z" transform="translate(0 -6.54)"/><path class="cls-14" d="M391.19,366.71a3.15,3.15,0,0,1-1.77.63c-2.88.13-5.84.5-8.78.89-2.45.35-4.9.73-7.35,1a33.62,33.62,0,0,1-5.81.62,3.46,3.46,0,0,1-.88.13l-.21,0a3.58,3.58,0,0,1-.76.1l-.19,0a3.18,3.18,0,0,1-.77.1,4.34,4.34,0,0,1-.53,0l-10.75,2.1s29.89-22.36,33.66-29.76c3.33-6.53,6.84-26.17,6.95-26.6l-77.91-28,1.67,44.79s-28.67,41.26-33.53,48.92c-2.69,4.23-11.08,21.05-6,30.33,3.54,6.45,13.79,9.53,22.22,10.7a39.18,39.18,0,0,0,8.7-1.67c6.18-2,12.2-4.46,18.39-6.44,6.67-2.13,13.39-4.1,20-6.3,4.5-1.48,8.93-3.11,13.5-4.29a4.64,4.64,0,0,1,3.25-1.19h.1a5.11,5.11,0,0,1,1.67-.32c.2-.07.38-.15.6-.21,4-.93,8.09-1.75,12.09-2.79a30.31,30.31,0,0,1,4-1.14l1-.3c3.71-1.21,7.5-2.83,11.34-3.85l.41-.11.28-.07c.26-.07.52-.15.78-.2l.33,0c.3-.07.59-.14.88-.19Z" transform="translate(0 -6.54)"/><path class="cls-14" d="M307.76,345.62c-.05,0-.5-.76-1.5-2a26.31,26.31,0,0,0-4.93-4.76A37,37,0,0,0,292.4,334a92.56,92.56,0,0,0-12-3.51c-4.35-1-8.44-2.11-12.23-2.8s-7.21-1.3-10.09-1.73-5.22-.73-6.84-.9l-1.87-.19a2.8,2.8,0,0,1-.65-.09,2.91,2.91,0,0,1,.65,0c.43,0,1.07,0,1.88.09,1.63.11,4,.34,6.88.73s6.33.92,10.13,1.63,7.93,1.76,12.26,2.77a86.89,86.89,0,0,1,12.06,3.56,36.7,36.7,0,0,1,9,5,24.92,24.92,0,0,1,4.86,4.93,15.19,15.19,0,0,1,1,1.58A3.59,3.59,0,0,1,307.76,345.62Z" transform="translate(0 -6.54)"/><path class="cls-14" d="M392.16,324.76a3.44,3.44,0,0,1-.77,0l-2.18-.24-7.9-1,.23-.17a44.07,44.07,0,0,1-5.6,16.18,51.85,51.85,0,0,1-3.16,4.73,49.68,49.68,0,0,1-3.48,4,27.48,27.48,0,0,0-3.23,3.43,11.66,11.66,0,0,0-1.67,3.7,13.46,13.46,0,0,0-.38,3.36c0,1,0,1.88-.12,2.59s-.14,1.26-.2,1.63a2.19,2.19,0,0,1-.12.56,2.24,2.24,0,0,1,0-.57c0-.43.06-1,.1-1.63s.05-1.57,0-2.58a12.59,12.59,0,0,1,.32-3.44,11.81,11.81,0,0,1,1.66-3.86,11.06,11.06,0,0,1,1.52-1.81c.56-.56,1.16-1.11,1.73-1.72a48.63,48.63,0,0,0,3.41-4,52.11,52.11,0,0,0,3.12-4.68,45.46,45.46,0,0,0,5.65-16l0-.21.2,0,7.88,1.16,2.16.35A4.46,4.46,0,0,1,392.16,324.76Z" transform="translate(0 -6.54)"/><path class="cls-14" d="M361.75,365.67a3.39,3.39,0,0,1-.46.38l-1.39,1c-1.21.86-3,2.09-5.2,3.57l-17.4,11.44c-3.43,2.23-6.87,4-9.86,5.86a37,37,0,0,0-7.41,5.59,16.75,16.75,0,0,0-3.53,5.12c-.57,1.37-.77,2.17-.82,2.16a2.13,2.13,0,0,1,.12-.59,10.76,10.76,0,0,1,.51-1.64,16.1,16.1,0,0,1,3.45-5.3,36.27,36.27,0,0,1,7.43-5.75c3-1.87,6.43-3.67,9.82-5.89,6.77-4.5,13-8.42,17.49-11.31l5.29-3.43,1.44-.93A2.33,2.33,0,0,1,361.75,365.67Z" transform="translate(0 -6.54)"/><path class="cls-14" d="M317.76,331.24a2.41,2.41,0,0,1-.28.54l-.9,1.49-3.38,5.42-11.31,17.82-11.41,17.76c-1.44,2.22-2.62,4-3.47,5.37l-1,1.45a3.8,3.8,0,0,1-.35.5A2.12,2.12,0,0,1,286,381c.19-.35.49-.86.87-1.51.77-1.3,1.92-3.16,3.34-5.46,2.85-4.59,6.84-10.89,11.28-17.84s8.49-13.21,11.44-17.73l3.52-5.34,1-1.44A2.77,2.77,0,0,1,317.76,331.24Z" transform="translate(0 -6.54)"/><path class="cls-14" d="M317.18,291a1.69,1.69,0,0,1,.3.25,10.05,10.05,0,0,1,.74.81,12,12,0,0,1,2,3.52,12.73,12.73,0,0,1,.69,6c-.27,2.28-1.3,4.57-1.86,7.06a39.36,39.36,0,0,0-.34,13.08c.19,1.61.35,2.95.48,4a7.68,7.68,0,0,1,.12,1.47,8,8,0,0,1-.32-1.43c-.18-.94-.41-2.29-.65-4a37.36,37.36,0,0,1,.2-13.25c.58-2.56,1.62-4.82,1.9-7a12.78,12.78,0,0,0-.56-5.77A15.73,15.73,0,0,0,317.18,291Z" transform="translate(0 -6.54)"/><path class="cls-15" d="M194.53,138.43s32,59.65,39.05,61.93,75.54,6.34,75.54,6.34l4.32-37.22-67.68,4.33-39-44.38Z" transform="translate(0 -6.54)"/><path class="cls-14" d="M312.12,166.51,308,167.75l-3.09,37.73,6.5,45.3-1.49,52S378,325.51,389.4,321.09c8-3.1,6.57-15.9,6.57-15.9l-12.66-86-2-15.24a73.7,73.7,0,0,0-13.73-34.28c-4.41-5.95-9.5-11.54-14.19-13.62l-8.94-2.62Z" transform="translate(0 -6.54)"/><polygon class="cls-12" points="301.71 163.47 308.3 163.05 308.3 161.55 318.02 158.16 344.33 147.35 349.24 148.63 353.21 149.72 354.62 150.38 356.91 151.89 319.91 165.84 303.2 167.56 301.63 167.2 301.71 163.47"/><path class="cls-16" d="M304.86,186.75s68.4,10.07,68.47-4.29c0,0,5.83,8,9.06,43.18l7.87,53.79,3.42,21.45S360.27,317,311.44,290.37l1.2-10.67V250.5l-1.2-10.07-4.87-33.66S303.79,189,304.86,186.75Z" transform="translate(0 -6.54)"/><path class="cls-14" d="M339.49,300.71s-23.15-66.57-15.9-132.64c0,0,.94-6.82,5.38-1.09,0,0,5.88,103.58,15.46,131.42C344.43,298.4,344.15,308,339.49,300.71Z" transform="translate(0 -6.54)"/><path class="cls-12" d="M327.88,168.82s1.95,33.79,2.57,40.64c0,0,6,56.47,7.38,62.68,0,0,5.17,25.14,5.78,26.68,0,0,0,7-3.64,1.29,0,0-9.11-29.68-10.39-41.36,0,0-6.75-38.37-6.22-53Z" transform="translate(0 -6.54)"/><path class="cls-12" d="M323.84,168.82l-.48,36.89,6.69-1.62-2.17-35.27S326,162.36,323.84,168.82Z" transform="translate(0 -6.54)"/><polygon class="cls-14" points="307.95 162.43 276.32 165.1 276.32 197.99 306.38 200.84 307.95 162.43"/><path class="cls-4" d="M311.43,251.7c-.14,0-2.43-17.34-5.11-38.76s-4.75-38.82-4.61-38.84,2.44,17.34,5.12,38.77S311.58,251.69,311.43,251.7Z" transform="translate(0 -6.54)"/><path class="cls-9" d="M275.29,202.37H275l-.8-.05-3.08-.25c-2.67-.23-6.53-.58-11.3-1s-10.45-1.05-16.75-1.82c-1.57-.18-3.18-.4-4.83-.63-.82-.14-1.65-.24-2.49-.41-.42-.09-.83-.14-1.27-.26l-.66-.22a1.94,1.94,0,0,1-.54-.48c-1.13-1.35-2.1-2.81-3.11-4.28l-3-4.5c-8-12.25-15-23.5-20-31.65l-5.94-9.67-1.58-2.65-.41-.69-.12-.25s.07.07.17.22l.44.67c.41.62,1,1.49,1.67,2.59l6.08,9.59c5.14,8.09,12.17,19.31,20.18,31.55l3,4.5c1,1.46,2,2.94,3.07,4.23a1.42,1.42,0,0,0,.4.38l.56.17c.39.11.82.17,1.23.26.82.17,1.65.27,2.47.41,1.63.23,3.24.45,4.81.65,6.29.79,12,1.4,16.72,1.92l11.29,1.22,3.07.34.79.11A.84.84,0,0,1,275.29,202.37Z" transform="translate(0 -6.54)"/><path class="cls-9" d="M304.86,207.79c0,.15-6.19-.2-13.79-.76s-13.77-1.15-13.76-1.29,6.19.2,13.8.77S304.87,207.65,304.86,207.79Z" transform="translate(0 -6.54)"/><path class="cls-9" d="M268.11,222.87a3.27,3.27,0,0,1,0-.55l.12-1.58c.13-1.45.31-3.45.54-6h0c0-3.23-.17-7.36-.54-12.08s-1-10-1.72-15.61c-1.35-9.84-2.8-18.71-3.68-25.16-.45-3.22-.78-5.84-1-7.65-.09-.86-.17-1.55-.22-2.08a5,5,0,0,1-.05-.73,3.5,3.5,0,0,1,.15.72c.08.52.19,1.21.32,2.07l1.15,7.62c1,6.43,2.48,15.29,3.82,25.14.77,5.6,1.35,10.91,1.68,15.65s.41,8.88.39,12.11h0c-.28,2.5-.52,4.51-.68,5.94-.09.66-.15,1.18-.21,1.58A2,2,0,0,1,268.11,222.87Z" transform="translate(0 -6.54)"/><path class="cls-17" d="M171.33,111.09s-1.68,1.82,1.58,3.13c3.06,1.22,12.14,6.19,12.14,6.19h0a12.39,12.39,0,0,0-.57,3.87,2.62,2.62,0,0,0,1.32,2.27s-.52,5.51,2.47,8.62,8.67,3.73,8.67,3.73l11.35-7.27s-12.69-17.16-13.68-18.17c-.62-.62-3.32-2.79-5.11-3.23s-12.79-3.41-12.79-3.41l-9.25,1.34s-.51,3,2.12,3C172.67,111.21,171.33,111.09,171.33,111.09Z" transform="translate(0 -6.54)"/><path class="cls-18" d="M192.68,128.8a11.78,11.78,0,0,1-1.44-2c-.83-1.26-2-3-3.16-5a5.15,5.15,0,0,0-1-1.26,1.87,1.87,0,0,0-1.22-.57,1,1,0,0,0-.28.07c-.06,0-.05,0-.08,0l-.09.11a2.75,2.75,0,0,0-.28.57,8.94,8.94,0,0,0-.37,1.15,10.07,10.07,0,0,0-.31,1.74,3.73,3.73,0,0,0,0,.64s-.22-.19-.23-.63a6.79,6.79,0,0,1,.15-1.83,8.19,8.19,0,0,1,.32-1.22,3.7,3.7,0,0,1,.31-.68,2.2,2.2,0,0,1,.14-.18,1,1,0,0,1,.22-.15,1.37,1.37,0,0,1,.42-.12,2.3,2.3,0,0,1,1.6.66,5.43,5.43,0,0,1,1.11,1.37c1.21,2,2.28,3.78,3,5.1A11.41,11.41,0,0,1,192.68,128.8Z" transform="translate(0 -6.54)"/><path class="cls-18" d="M191.92,118a18.2,18.2,0,0,1-2.41-2.26,6.81,6.81,0,0,0-2.87-1.9,16.36,16.36,0,0,0-2-.47c-.73-.13-1.48-.31-2.23-.51a49.34,49.34,0,0,0-7.76-1.63c-2-.21-3.28,0-3.29-.11a3.41,3.41,0,0,1,.88-.19,14.52,14.52,0,0,1,2.43-.07,39.26,39.26,0,0,1,7.87,1.5c.75.19,1.48.37,2.2.51a15.06,15.06,0,0,1,2.08.52,7,7,0,0,1,3,2.09A24.55,24.55,0,0,1,191.92,118Z" transform="translate(0 -6.54)"/><path class="cls-15" d="M270.06,281.17l64.51-7.52L335,221.3l31.48-1.15s-2.05,55.16-2.17,64.5c-.09,6.36-8.15,14.53-15.08,16.12-3.4.78-75.16-.63-75.16-.63Z" transform="translate(0 -6.54)"/><path class="cls-12" d="M363.35,170.8c-3.91-4.39-10.21-4.7-14.88-.85a42.71,42.71,0,0,0-14,26.93c-1.48,14.83.17,32.34.17,32.34l31.95-1.06,6.77-27.8" transform="translate(0 -6.54)"/><path class="cls-19" d="M272,280.75a4.17,4.17,0,0,1-.51-.09,4.9,4.9,0,0,1-2.57-.77c-1.87-1.16-3.93-2-5.78-3.22A22.61,22.61,0,0,1,261,275c-1-.55-1.91-1.11-2.8-1.71a4.14,4.14,0,0,1-.69-.46l-.19-.13a4.64,4.64,0,0,1-1.2-.52l-5.74-2.78s-9.8-1.71-13.34-1.48-1,3.74-1,3.74l10.2,3.7,7.27,4.16-6.08.47s-15.69-2.38-17.16-1.81-1.1,3.09.09,3.79c1.86,1.1,18.85,6.42,18.39,6.72s-12.88-.15-17.48.31c-1.63.16-.35,3.7,1.33,4.09,3.26.75,7.38,1.44,7.38,1.44s-1.9.54-.4,3.11,20.73,4.18,20.73,4.18l15.13-2-.95-15.65Z" transform="translate(0 -6.54)"/><path class="cls-20" d="M257.52,272.8l-.2-.14a5.37,5.37,0,0,1-.74-.26,39.87,39.87,0,0,0,3.87,2.28c-.8-.46-1.58-1-2.32-1.46A4.67,4.67,0,0,1,257.52,272.8Z" transform="translate(0 -6.54)"/><path class="cls-20" d="M255.25,295.79a60.59,60.59,0,0,1-7.88-.41,59.19,59.19,0,0,1-7.83-.92,58.58,58.58,0,0,1,7.88.41A59.78,59.78,0,0,1,255.25,295.79Z" transform="translate(0 -6.54)"/><path class="cls-4" d="M356.7,171.11a15.91,15.91,0,0,0-3.83.69,15,15,0,0,0-7.19,5.78,32.15,32.15,0,0,0-3.79,8.62c-.7,2.33-1.11,3.78-1.18,3.76a3.75,3.75,0,0,1,.16-1.05c.14-.67.35-1.63.67-2.81a28.81,28.81,0,0,1,3.71-8.81,14.61,14.61,0,0,1,7.51-5.84,9.64,9.64,0,0,1,2.88-.45A3.53,3.53,0,0,1,356.7,171.11Z" transform="translate(0 -6.54)"/><path class="cls-21" d="M344.46,326.76c0,.09-1.53,0-4,.08a64.32,64.32,0,0,0-18.87,3.21c-2.34.76-3.76,1.32-3.8,1.25a4.12,4.12,0,0,1,1-.5c.63-.29,1.55-.67,2.72-1.1a53.83,53.83,0,0,1,9.34-2.47,54.4,54.4,0,0,1,9.64-.76c1.24,0,2.24.07,2.93.14A5.36,5.36,0,0,1,344.46,326.76Z" transform="translate(0 -6.54)"/><path class="cls-22" d="M251.29,104.94a63.56,63.56,0,0,1-3.53-21.06,64.32,64.32,0,0,1,4.1-20.81A47,47,0,0,1,262.41,46a48.69,48.69,0,0,1,14.77-10.16c2.2-1,4.56-1.56,6.73-2.64l8.87-2.1c.91.15,1.71-.47,2.61-.36a66.72,66.72,0,0,1,28.9,1.81c10.75,3.16,20,8.75,27.08,17.61A39.93,39.93,0,0,1,360,82a71.9,71.9,0,0,1-8.27,23.76A120.32,120.32,0,0,1,332,132.35q-3.79,3.93-7.89,7.51a1.19,1.19,0,0,0-.33,1.65,70.29,70.29,0,0,1,4.51,14.89c-.22.46-.43.93-1.09.77a3.52,3.52,0,0,1-.68-1.81,70.76,70.76,0,0,0-3.31-11.75c-.13-.32-.22-.65-.37-1-.26-.57-.62-.66-1.12-.26a10.28,10.28,0,0,0-1.13,1.06,2.5,2.5,0,0,1-1.72.83c-.48,0-1,0-1.21-.52s.32-.73.7-.95a1.56,1.56,0,0,1,.6-.15c.3,0,.7,0,.8-.29.43-1.47,1.8-2.06,2.82-2.94a141.48,141.48,0,0,0,12.73-12.6c2.8-3.1,5.3-6.42,7.78-9.74a78.46,78.46,0,0,0,6.51-10.18c1.51-2.84,3-5.66,4.29-8.61,3.48-8.1,5.75-16.48,5.23-25.36A37.3,37.3,0,0,0,356,60.37a43.26,43.26,0,0,0-11.88-15.73,38,38,0,0,0-8.42-5.81c-3.37-2.19-7.15-3.44-10.87-4.84a3.76,3.76,0,0,0-.9-.14,63.63,63.63,0,0,0-20.44-2.51,66.81,66.81,0,0,0-11.35,1.32,73.7,73.7,0,0,0-13.57,4A43.93,43.93,0,0,0,257.16,54.9a59.11,59.11,0,0,0-6.85,18.86c-.48,2.39-.79,4.8-1.11,7.2a7,7,0,0,0,.12,3.09c0,1.55.39,3.09.06,4.64-.1.07-.31.09-.29.17a96.94,96.94,0,0,0,6.38,23.5,104,104,0,0,0,15.44,25.51,52.61,52.61,0,0,0,14.15,12.52c4.27,2.54,8.75,4,13.79,2.77,2.29-.56,4.65-1,6.58-2.5.26-.21.48,0,.69.12a1,1,0,0,1,.23.35.77.77,0,0,1-.26.93c-4.31,2.13-8.79,3.55-13.65,2.67a26.73,26.73,0,0,1-10.7-4.81c-8-5.7-14-13.18-19.23-21.37A105.17,105.17,0,0,1,252.72,109c-.51-1.34-1-2.69-1.43-4" transform="translate(0 -6.54)"/><path class="cls-23" d="M295.39,30.72a5.08,5.08,0,0,1-2.61.36l2.53-.59C295.34,30.56,295.36,30.64,295.39,30.72Z" transform="translate(0 -6.54)"/><path class="cls-24" d="M312.52,154.83c.3-.1.38-1.15.93-.23.85,1.76,1.82,3.48,1.51,5.56l-1-.28Z" transform="translate(0 -6.54)"/><path class="cls-25" d="M306.2,151.2a1.33,1.33,0,0,0,1.67-.81c.19-.43.66-.75.94-1.16a1,1,0,0,1,1.52-.43c.85.41,0,.81,0,1.21a21.18,21.18,0,0,1-4.23,2.05Z" transform="translate(0 -6.54)"/><path class="cls-24" d="M311.24,151.42c0-.39-.26-1,.35-1,.44-.07.34.5.48.77a4.69,4.69,0,0,1,.45,1.06c.07.3.29.72,0,1-.53.35-.52-.4-.85-.5Z" transform="translate(0 -6.54)"/><path class="cls-26" d="M273.84,111.23c.69.14,1.4.25,2.12.33,1.53.16,1.52.14,1.93-1.38A54.34,54.34,0,0,0,280,92.43c-.32-5.1-1.64-9.93-4.84-14.05A16,16,0,0,0,259.9,72c-4.8.53-11.06,9.88-11.11,8.91.63-1.81,1-3.7,1.49-5.53A69.61,69.61,0,0,1,259,56a48.41,48.41,0,0,1,9.47-10.81,42.77,42.77,0,0,1,8.37-5.44c2-1,4-1.91,6-2.72A55.56,55.56,0,0,1,295,33.91a98.67,98.67,0,0,1,15-1.15c4.07,0,8.12.12,12.17.48.63,0,1.23.45,1.89.21a36.94,36.94,0,0,1,7,2.5,18.25,18.25,0,0,1,4.64,2.5,31.6,31.6,0,0,1,4.86,6.37,51.65,51.65,0,0,1,4.2,8.5,61.36,61.36,0,0,1,3.36,13.17,65.3,65.3,0,0,1,.38,13,68.74,68.74,0,0,1-1.74,10.36c-.53,2.27-1.4,4.45-1.87,6.75a13.57,13.57,0,0,1-1.23,2.86c-3.07,6.4-6.07,12.86-10,18.78a125,125,0,0,1-10,13.62c-1.2,1.36-2.52,2.63-3.59,4.1a3.68,3.68,0,0,1-1.13.87,4.43,4.43,0,0,0-1.65,2.11c-.16.46-2.37,2.67-1.79,1.58a33.8,33.8,0,0,1,2.08-7.8c.14-.38-.55,7.95-2.38,6.38-.38-.33.48,1.12.3,1.42-.68,1.14-2.47-1.5-.63-.37.09,0,.07.24.06.37a1.26,1.26,0,0,1-.74.82,6.88,6.88,0,0,1-2.51,1.55c-.54.87-1.67,1.63-2.28,2.46-5.55,3.95-11.5,6.79-18.53,6.54a14.72,14.72,0,0,1-6.05-1.33,43.22,43.22,0,0,1-10.3-8.2,90.94,90.94,0,0,1-14-19,105.52,105.52,0,0,1-7.28-15.75A107.53,107.53,0,0,1,249.37,93c-.34-1.59.64-2.25,1.06-1.17a30,30,0,0,0,13.31,15.38c.39.22.78.45,1.18.66a31.49,31.49,0,0,0,8.92,3.35" transform="translate(0 -6.54)"/><path class="cls-27" d="M277.36,80.42c-4.48-6.14-14.09-18.43-11.13-27a40.24,40.24,0,0,0-16.85,43.13,40.8,40.8,0,0,0,20.54,26.8,9,9,0,0,1,10.32-4.72c2,.47,4.91-.49,7.67-1.66-1.07-8.39-2-17.19-2.31-25.74C283.26,87.4,280.06,84.13,277.36,80.42Z" transform="translate(0 -6.54)"/><path class="cls-28" d="M318.14,137a21.39,21.39,0,0,0,3.66-3.77,131.07,131.07,0,0,0,20-31.79c.59-1.32,1.38-2.61,1.87-4s.92-3,1.36-4.47a69.41,69.41,0,0,0,2.14-9.66,55.15,55.15,0,0,0,.57-10c-.12-3-.58-6-1-9a51,51,0,0,0-4.05-13.18,35.46,35.46,0,0,0-5.35-9.08c-.85-1-1.52-2.16-2.28-3.25a13,13,0,0,1,4.4,2.45,51,51,0,0,1,9.82,9,40.69,40.69,0,0,1,7.33,12.84,44.87,44.87,0,0,1,2,8.69,39.39,39.39,0,0,1-.5,11.82,63.75,63.75,0,0,1-5,16.09,99.68,99.68,0,0,1-8.52,15.09c-2.49,3.63-5.15,7.13-7.94,10.52a69,69,0,0,1-6.18,6.74c-1.77,1.64-3.41,3.42-5.16,5.08-1.51,1.41-3.08,2.75-4.67,4.08-.48.4-1.1.59-1.08,1.43,0,.21-.33,1.18-1.06.47a1.25,1.25,0,0,0-.7-1.61c-1-.46-.94-1.16-.4-2A2.91,2.91,0,0,0,318.14,137Z" transform="translate(0 -6.54)"/><path class="cls-29" d="M324.13,33.59a5,5,0,0,1-2.84.08,38.35,38.35,0,0,0-7.31-.45c-4.08,0-8.18.1-12.27.46A90.67,90.67,0,0,0,287.79,36a54.26,54.26,0,0,0-8.39,3A50,50,0,0,0,269,45.4a36.71,36.71,0,0,0-6.05,6,58.56,58.56,0,0,0-6,8.88,66.42,66.42,0,0,0-6.3,15.74c-.39,1.58-1,3.1-1.36,4.7,0,.23-.11.43-.41.3a87.86,87.86,0,0,1,2.76-14c2.84-9.62,7.71-17.94,15.7-24.2A49,49,0,0,1,282.11,35a74.17,74.17,0,0,1,21.26-4A62.07,62.07,0,0,1,324.13,33.59Z" transform="translate(0 -6.54)"/><path class="cls-30" d="M314.24,141.31l.64-.67a4.36,4.36,0,0,1,3.78,2.29l-.89.72a1.84,1.84,0,0,0,2.44-.28c.32-.29.57-.66.9-.94,1.66-1.46,1.63-1.4,2.41.67a105.84,105.84,0,0,1,3.85,14.08,6,6,0,0,1-2,4.79c-2.16,1.88-4.68,2.72-7.54,1.3.16-.38.55-.41.86-.48a4.77,4.77,0,0,0,4-4.67c.29-2.91-.28-5.6-2.6-7.64a4.4,4.4,0,0,0-2.68-1.19c-.66,0-1.19-.2-1.28-1a.87.87,0,0,0-.57-.66.66.66,0,0,0-.74,0c-.27.27,0,.46.19.64s.49.44.31.78a.67.67,0,0,1-1,.25c-1-.21-1.91-1.09-3-.22-.13.11-.47-.17-.34-.61.3-1-.3-1.67-1.38-1.53a2.6,2.6,0,0,0-2,1.11,15.54,15.54,0,0,0-1.51,2.92c-.69-.57-.56.38-.91.52-4.54,1.88-9.15,3.28-14.07,1.88a16.49,16.49,0,0,1-6.2-2.76c3,.59,5.95,1.27,9.05.9a29.77,29.77,0,0,0,7.84-2.08,58,58,0,0,0,7.73-4.35,3.86,3.86,0,0,1,2.15,1.09,1.52,1.52,0,0,0,2.28-.11,7.2,7.2,0,0,1,3.35-2C315.42,143.77,315,142.41,314.24,141.31Z" transform="translate(0 -6.54)"/><path class="cls-31" d="M314.28,149.34c.79-.14,1.22-.36.25-1-.22-.15-.67-.35-.48-.66s.66-.75,1.06-.6c.6.22,1.55.27,1.35,1.34-.1.48.17.51.5.52a5.47,5.47,0,0,1,5.16,3.69,9.92,9.92,0,0,1,.63,6.79c-.66,2.42-2.58,3.5-4.93,3.83a3.79,3.79,0,0,1-2.89-3.1c-.24-1.93-1.27-3.63-1.53-5.55a5.41,5.41,0,0,1,.74-2.14A2.88,2.88,0,0,0,314.28,149.34Z" transform="translate(0 -6.54)"/><path class="cls-32" d="M276.16,120.38c-.4.27-.72.43-.35,1.09a24.26,24.26,0,0,0,6.88,7.94,16.42,16.42,0,0,0,10.9,2.88,20.27,20.27,0,0,0,7.81-2.15,37.8,37.8,0,0,0,11.78-8.63c1.09-1.22,2.18-2.45,3.23-3.71.48-.58,1.27-1.22.06-1.93-.14-.08.14-.24.28-.31,1.81.32,2,1.8,2.33,3.22-.13,0-.26,0-.28-.07-.53-1.15-.94-.87-1.75-.1-2.56,2.44-3.75,5.6-5,8.75a43.4,43.4,0,0,1-6.78,11.86c-2.28,2.72-4.9,4.89-8.7,5-2.59,0-4.48-1.38-6.23-3A33.25,33.25,0,0,1,284,132a3.25,3.25,0,0,0-1.15-1.36,23.55,23.55,0,0,1-7.39-7.86c-.24-.38-.28-1.09-.78-1.08s-.61.76-.84,1.21c-.09.18-.06.42-.3.51-.16-2.67,1-3.76,4-3.48Z" transform="translate(0 -6.54)"/><path class="cls-33" d="M316.51,59.1c-8.27,2.36-13,8.06-15.32,16.19A16.14,16.14,0,0,1,316.51,59.1Z" transform="translate(0 -6.54)"/><path class="cls-34" d="M275.73,63.48c.35.38.93.49,1.17,1s.64,1.16-.14,1.65a20.76,20.76,0,0,0-12.52-5.2A17,17,0,0,1,275.73,63.48Z" transform="translate(0 -6.54)"/><path class="cls-35" d="M276.76,66.13a3.2,3.2,0,0,0,.14-1.65l1.32,1.08a5.49,5.49,0,0,1,2.71,3.65c.48,1.13,1,2.26,1.45,3.4l.42,1.75C281.08,71.4,279.41,68.4,276.76,66.13Z" transform="translate(0 -6.54)"/><path class="cls-36" d="M297.74,113.52a4.42,4.42,0,0,1-4.14,3c-2.53.22-3.64-1.24-4.66-2.74,1,.41,1.48,1.32,2.55,1.65a4.6,4.6,0,0,0,3.44.06A10.67,10.67,0,0,0,297.74,113.52Z" transform="translate(0 -6.54)"/><path class="cls-37" d="M297.24,132.75c1.93-.87,4-1.38,5.89-2.33,1.67-.84,3.18-1.94,4.75-2.93a40.45,40.45,0,0,0,4.38-3.59,19.66,19.66,0,0,1-1.29,3.46,49.71,49.71,0,0,1-3.22,6.5c-.21.36-.39.8-.95.73a2.15,2.15,0,0,1-1.62.29,12.88,12.88,0,0,0-5.74,1.42,5.92,5.92,0,0,1-1.58.6c-1.09-.07-1.31-.87-1.25-1.71A5.53,5.53,0,0,1,297.24,132.75Z" transform="translate(0 -6.54)"/><path class="cls-38" d="M292.39,141.43c-2.31-1.29-3.63-3.48-5.06-5.57-.6-.88-1.14-1.81-1.69-2.73-.15-.25-.34-.58-.16-.85s.53,0,.78.07c1.86.76,3.87.72,5.81,1.08a1.54,1.54,0,0,1,1.08,1.77c0,1.36,1,2.39,1.2,3.7A3.42,3.42,0,0,1,292.39,141.43Z" transform="translate(0 -6.54)"/><path class="cls-39" d="M295.64,143.07a6.25,6.25,0,0,1-2.33-.86c-.35-.39-.14-.75.12-1a15.73,15.73,0,0,1,7.1-5c.86-.13,1.14.37,1.26,1.1.33,2-1.53,4.6-3.89,5.3C297.16,142.81,296.39,142.9,295.64,143.07Z" transform="translate(0 -6.54)"/><path class="cls-40" d="M295.64,143.07c.59-.61,1.42-.58,2.16-.81,1.94-.6,4.15-3,3.67-5.06-.14-.63-.35-.83-.93-.68-.09-.46.26-.61.57-.72a11.93,11.93,0,0,1,4.55-.72c.38,0,.78.1.87.59-1.71,2.82-3.75,5.33-6.78,6.8A5.45,5.45,0,0,1,295.64,143.07Z" transform="translate(0 -6.54)"/><path class="cls-41" d="M294.24,139.22c-.39-1.49-1.8-2.66-1.37-4.42.16-.67-.63-.86-.8-1.37l5.17-.68a4,4,0,0,1-.26,2.13,1.51,1.51,0,0,0,.66,1.82A5.8,5.8,0,0,1,294.24,139.22Z" transform="translate(0 -6.54)"/><path class="cls-42" d="M294.24,139.22l3.4-2.52c2.89-1.4,5.84-2.58,9.16-2.11a1,1,0,0,1-.27,1.08,8.72,8.72,0,0,0-6,.85,16.19,16.19,0,0,0-7.13,5.19c-.1.11-.07.33-.1.5-.34-.22-.81-.28-.92-.78C293,140.69,293.63,140,294.24,139.22Z" transform="translate(0 -6.54)"/><path class="cls-43" d="M314.27,143.51a2.38,2.38,0,0,1-1.21,2c-.51.18-1.22-.35-1.49-1-.2-.45.89-1.89,1.47-2S314,143,314.27,143.51Z" transform="translate(0 -6.54)"/><path class="cls-44" d="M269.78,63.14c-3.28-16.74,2.62-26.53,2.62-26.53l3,5.18c14,7.53,28.85-8.08,29.51-8.76l0,0c-11.61-19.62-35.27-12.79-35.27-12.79C257.25,34.25,269.78,63.14,269.78,63.14Z" transform="translate(0 -6.54)"/><path class="cls-45" d="M271.73,36.06l3,5.18c14,7.53,28.85-8.09,29.51-8.77-.53.41-5.88-5.92-13.31-7.13a62.07,62.07,0,0,0-10.73-.67A32.44,32.44,0,0,0,271.73,36.06Z" transform="translate(0 -6.54)"/><path class="cls-46" d="M289.49,101.33c-.85,2.11-21.09,12.11-36.36-2,0,0-.48-13.6,6.44-18.93s14.54-3.42,21,3C286.74,89.57,290.06,99.91,289.49,101.33Z" transform="translate(0 -6.54)"/><path class="cls-47" d="M303.76,98.2c1.34,1.83,23.43,6.5,34.73-11,0,0-2.91-13.29-10.94-16.75s-14.93.3-19.57,8.11C303.51,86.12,302.86,97,303.76,98.2Z" transform="translate(0 -6.54)"/><path class="cls-48" d="M318.07,136.22a21.35,21.35,0,0,0,3.65-3.77,131.07,131.07,0,0,0,20-31.79c.59-1.32,1.38-2.6,1.87-4s.92-3,1.36-4.47a68.34,68.34,0,0,0,2.15-9.66,54.37,54.37,0,0,0,.56-10c-.12-3-.58-6-1-9a51,51,0,0,0-4-13.18,35.63,35.63,0,0,0-5.35-9.08c-.85-1-1.53-2.16-2.29-3.25a12.89,12.89,0,0,1,4.4,2.46,51,51,0,0,1,9.83,9,40.66,40.66,0,0,1,7.32,12.84,44.15,44.15,0,0,1,2,8.69,39.39,39.39,0,0,1-.49,11.82,63.64,63.64,0,0,1-5,16.09A99.63,99.63,0,0,1,344.54,114q-3.75,5.45-8,10.52a69,69,0,0,1-6.18,6.75c-1.77,1.64-3.4,3.42-5.16,5.07-1.5,1.41-3.08,2.75-4.66,4.08-.49.4-1.11.59-1.09,1.43,0,.22-.32,1.18-1.06.47a1.23,1.23,0,0,0-.69-1.6c-1-.47-.94-1.17-.4-2A2.94,2.94,0,0,0,318.07,136.22Z" transform="translate(0 -6.54)"/><path class="cls-24" d="M310.46,149.43c.3-.1.37-1.15.92-.22.86,1.75,1.82,3.48,1.52,5.56l-1-.28Z" transform="translate(0 -6.54)"/><path class="cls-49" d="M288.27,100.81c-.46,1.27-11.77,6.65-22.28,4.38a19.29,19.29,0,0,1-12.53-8.64,23.12,23.12,0,0,1,4.7-11.22h0a14,14,0,0,1,6.52-4.38C278.08,76.81,289.64,97.08,288.27,100.81Z" transform="translate(0 -6.54)"/><path class="cls-50" d="M288.27,100.81c-.46,1.27-11.77,6.65-22.28,4.38-8.08-5.7-7.83-19.86-7.83-19.86h0a14,14,0,0,1,6.52-4.38C278.08,76.81,289.64,97.08,288.27,100.81Z" transform="translate(0 -6.54)"/><path class="cls-51" d="M254.88,89.15s-.67,4,.85,6.28,15.94,3.16,24.17,1.31.66-9.18.66-9.18-5.8-8.34-15.12-6.79S254.88,89.15,254.88,89.15Z" transform="translate(0 -6.54)"/><path class="cls-9" d="M261.81,96.57c-.19-1.26,6.56-.21,6.74.72S262,97.85,261.81,96.57Z" transform="translate(0 -6.54)"/><path class="cls-9" d="M270.32,97.31s2.72-1.06,3.51-.16C273.83,97.15,271.74,98.58,270.32,97.31Z" transform="translate(0 -6.54)"/><path class="cls-52" d="M305.24,98.49c.89,1,13.4,1.79,22.3-4.23A19.29,19.29,0,0,0,336,81.58a22.92,22.92,0,0,0-8.53-8.66v0a14,14,0,0,0-7.69-1.63C305.75,72.42,302.57,95.54,305.24,98.49Z" transform="translate(0 -6.54)"/><path class="cls-53" d="M305.24,98.49c.89,1,13.4,1.79,22.3-4.23,5.38-8.3-.12-21.34-.12-21.34v0a14,14,0,0,0-7.69-1.63C305.75,72.42,302.57,95.54,305.24,98.49Z" transform="translate(0 -6.54)"/><path class="cls-54" d="M331.89,75.23s2.1,3.48,1.55,6.15-13.62,8.86-22,10.22-4-8.28-4-8.28,2.28-9.89,11.51-11.93S331.89,75.23,331.89,75.23Z" transform="translate(0 -6.54)"/><path class="cls-9" d="M328.22,84.7c-.3-1.24-6.17,2.25-6,3.18s6.3-1.93,6-3.18" transform="translate(0 -6.54)"/><path class="cls-9" d="M320.59,88.56s-2.92,0-3.32,1.16C317.27,89.72,319.75,90.27,320.59,88.56Z" transform="translate(0 -6.54)"/><ellipse class="cls-30" cx="310" cy="147.51" rx="5.28" ry="0.98" transform="translate(-25.6 68.62) rotate(-13.28)"/><ellipse class="cls-30" cx="308.97" cy="148.92" rx="2.97" ry="1.13" transform="translate(-25.95 68.42) rotate(-13.28)"/><ellipse class="cls-30" cx="306.72" cy="150.48" rx="1.4" ry="1" transform="translate(-26.36 67.95) rotate(-13.28)"/><ellipse class="cls-30" cx="312.58" cy="146.25" rx="2.95" ry="0.64" transform="translate(-25.24 69.18) rotate(-13.28)"/><ellipse class="cls-30" cx="316.8" cy="144.37" rx="1.59" ry="2.18" transform="translate(-24.69 70.1) rotate(-13.28)"/><ellipse class="cls-30" cx="313.1" cy="144.77" rx="3.51" ry="0.9" transform="translate(-24.88 69.26) rotate(-13.28)"/><ellipse class="cls-30" cx="313.45" cy="145.58" rx="2.43" ry="0.45" transform="translate(-25.06 69.36) rotate(-13.28)"/><ellipse class="cls-30" cx="313.75" cy="143.09" rx="3.03" ry="0.7" transform="translate(-24.48 69.36) rotate(-13.28)"/><path class="cls-30" d="M308.86,145.52a111.22,111.22,0,0,1,9.34-8.1s3.76,5,3.19,6.75S308.86,145.52,308.86,145.52Z" transform="translate(0 -6.54)"/><path class="cls-30" d="M313,154l-2-6.28,3.3,1.16s1.92,4.77-.82,5.78S313,154,313,154Z" transform="translate(0 -6.54)"/><polygon class="cls-30" points="314.28 142.81 318.58 142.17 317.38 139.04 313.94 139.56 311.86 141.7 314.28 142.81"/><path class="cls-55" d="M378.21,62a78.06,78.06,0,0,1-6.15,58,79.39,79.39,0,0,1-46.52,38.31,78.22,78.22,0,0,1-60.17-6,76.83,76.83,0,0,1-36.78-45.6,77.76,77.76,0,0,1,6.15-58,79.33,79.33,0,0,1,46.53-38.3,78.15,78.15,0,0,1,60.16,6A76.75,76.75,0,0,1,378.21,62c.08.26.92.08.85-.14a77.32,77.32,0,0,0-34.91-44.63A79.14,79.14,0,0,0,289,8a80.43,80.43,0,0,0-48.44,30.3A78.56,78.56,0,0,0,225,92.47a77,77,0,0,0,26.74,51.29,78.64,78.64,0,0,0,52.09,18.38c38.61-.62,74-30.6,78-71.7a77,77,0,0,0-2.75-28.63C379,61.54,378.14,61.72,378.21,62Z" transform="translate(0 -6.54)"/><path class="cls-56" d="M378.64,61.88c12,41-12,84.34-53.56,96.74s-84.94-10.81-96.91-51.84,12-84.35,53.56-96.75S366.66,20.84,378.64,61.88Z" transform="translate(0 -6.54)"/><path class="cls-57" d="M378.64,61.88c-12-41-55.36-64.25-96.91-51.85s-65.53,55.72-53.56,96.75,55.36,64.24,96.91,51.84S390.6,102.91,378.64,61.88Zm-67.18,75.25c-34,10.13-69.44-8.84-79.23-42.39s9.82-69,43.79-79.1S345.46,24.48,355.25,58,345.43,127,311.46,137.13Z" transform="translate(0 -6.54)"/><path class="cls-58" d="M234.55,85.22c1.06,10.47,4.11,16.71,4.11,16.71a85.24,85.24,0,0,1,.5-16.45C237.62,85.37,236.08,85.3,234.55,85.22Z" transform="translate(0 -6.54)"/><path class="cls-58" d="M234.68,69.64a73.18,73.18,0,0,0-.46,10.22c1.9.12,3.82.21,5.73.32A83.73,83.73,0,0,1,242.44,70C239.86,69.76,237.26,69.8,234.68,69.64Z" transform="translate(0 -6.54)"/><path class="cls-58" d="M270.59,22.45s-26.12,5.65-34,36.65c-.62,2.45-1.09,4.81-1.46,7.09,2.81.23,5.63.17,8.44.37,5-13.71,14.81-27.81,33.78-34.91Z" transform="translate(0 -6.54)"/><path class="cls-14" d="M335.3,161.88c.73,1-.42,1.87-1.71,3.11-5.42,5.18-11.45,6.1-18.16,3.9-1.63-.54-4.14-7.3-3-8.53a4.43,4.43,0,0,1,3.62-1c4.79.29,9.14-1.32,13.49-3,2.47-1,4.35-1.23,4.62,1.63A24,24,0,0,0,335.3,161.88Z" transform="translate(0 -6.54)"/><path class="cls-14" d="M301.21,158.91c2,1.47,4.58,1.19,7,.81,2.82-.45,4,.31,4.47,2.44.42,2,1,3.92,1.51,5.92-12.22-.64-14.95-2.48-13.73-9.11A.52.52,0,0,1,301.21,158.91Z" transform="translate(0 -6.54)"/><path class="cls-14" d="M341.69,148.8c-.91,2.19-3.23,3.25-5.38,4.1-2.57,1-3.21,2.24-2.53,4.23s1.1,3.75,1.66,5.67c9.85-6.54,11.23-9.42,6.94-14.34C342,148.38,341.79,148.48,341.69,148.8Z" transform="translate(0 -6.54)"/><path class="cls-59" d="M334.69,161.93c.69.94-.4,1.77-1.62,2.93-5.12,4.88-10.83,5.74-17.18,3.68-1.54-.51-3.92-6.88-2.85-8a4.15,4.15,0,0,1,3.41-.95c4.54.27,8.66-1.24,12.77-2.85,2.34-.92,4.11-1.16,4.37,1.53A21.23,21.23,0,0,0,334.69,161.93Z" transform="translate(0 -6.54)"/><path class="cls-60" d="M301.87,159.48c1.73,1.31,4,1.06,6.13.73,2.48-.39,3.56.28,3.95,2.17s.88,3.48,1.33,5.25c-10.77-.58-13.19-2.22-12.11-8.1A.46.46,0,0,1,301.87,159.48Z" transform="translate(0 -6.54)"/><path class="cls-61" d="M325.82,163.17a2.26,2.26,0,0,1-2.29,2.53c-1.6.18-2.51-.59-2.59-2a2.23,2.23,0,0,1,2.17-2.37C324.69,161.07,325.58,161.69,325.82,163.17Z" transform="translate(0 -6.54)"/><path class="cls-60" d="M341.6,149.39c-.83,2-3,3-4.91,3.75-2.34.92-2.92,2.05-2.3,3.87s1,3.44,1.52,5.2c9-6,10.23-8.61,6.32-13.13C341.91,149,341.69,149.09,341.6,149.39Z" transform="translate(0 -6.54)"/><path class="cls-14" d="M194.53,138.43l12.19-9,39,44.38,30.56-2.17v32.89l-42.74-4.17s-1.78,1-9.76-11.65l-6.16-9.7Z" transform="translate(0 -6.54)"/><path class="cls-16" d="M195.49,138.78l10.93-8s2.35,1.45,2.35,2.81l-10.93,7.56A2.37,2.37,0,0,1,195.49,138.78Z" transform="translate(0 -6.54)"/><path class="cls-62" d="M206.42,130.82s2.41,1.29,2.35,2.81l-2.35,1.63s-1.25-2.41-2.6-2.55Z" transform="translate(0 -6.54)"/><path class="cls-61" d="M199.3,136s1.58.09,1.59,3.08l5.53-3.82a4.06,4.06,0,0,0-2.6-2.55Z" transform="translate(0 -6.54)"/><path class="cls-13" d="M197.6,142.15a3.45,3.45,0,0,1,2.17-1.44l31.93,53.5s2.14,3.15,7.61,2.66l65.55,8.61v1.29l-69.43-6.23-2.24-.22a10.46,10.46,0,0,1-3.56-3.28l-1.8-2.34-3.63-5.39-2.37-3.6-12.3-20.4-8.61-15.22-3.32-6L197,143S197.34,142.51,197.6,142.15Z" transform="translate(0 -6.54)"/><path class="cls-12" d="M199.77,140.71s4-3.54,7-4.18l34.16,41.62,62.28,9.39,2.07,17v.7l-.41.25-23.64-3.1-11.47-1.51-27.08-3.55-3.07-.41s-6.89,1-9.54-5.45Z" transform="translate(0 -6.54)"/><polygon class="cls-12" points="245.58 167.5 301.71 163.47 301.71 168.05 303.2 181 243.58 172.02 245.58 167.5"/><path class="cls-63" d="M206.76,136.53s1.53-2.17,3.19-2.33L245.58,174Z" transform="translate(0 -6.54)"/><polygon class="cls-12" points="206.84 130.12 215.87 141.09 226.26 153.75 240.92 171.62 243.58 172.02 245.58 167.5 206.84 130.12"/><path class="cls-14" d="M272.09,280.93v19.31l76,.64s13.4-1.37,16.18-16.23l2.26-56.49-31.95,1.06-.78,14.21-.61,15.11-.64,11.57-.22,3.1Z" transform="translate(0 -6.54)"/><path class="cls-16" d="M273.38,298.77V281.89s2.65-2.25,3.25,0,0,17.52,0,17.52A2.71,2.71,0,0,1,273.38,298.77Z" transform="translate(0 -6.54)"/><path class="cls-62" d="M273.38,298.77s1.4,2,3.25.64l.21-7.15s-1.77,1.77-3.46,1Z" transform="translate(0 -6.54)"/><path class="cls-61" d="M273.38,293.22s1.22,1,3.46-1l.06-4.38s-1.31,1.2-3.52-.6Z" transform="translate(0 -6.54)"/><path class="cls-63" d="M277.4,292.71s-.54,6.22,0,6.54,30.53.64,30.53.64l40.19,1S278,291.63,277.4,292.71Z" transform="translate(0 -6.54)"/><path class="cls-12" d="M277.4,292.71v-4.83L338,274.69l-2.48-83.76,34.75,22-3.72,14.75-.69,17.84-1.61,38.65s-.3,13.78-16.14,16.74Z" transform="translate(0 -6.54)"/><path class="cls-13" d="M277.4,287.88s-.32-6.86,0-7l55.28-7.43L334,247.18l.8-21v-1.93l1.89,4.91.18,6.18.27,9.2.3,10,.32,11.05.28,9.15Z" transform="translate(0 -6.54)"/><path class="cls-64" d="M307.11,187.06s-3.24-.81-2.25,5.38l1.71,14.33L308,196l1.43-5.44v-3.19Z" transform="translate(0 -6.54)"/><path class="cls-12" d="M301.71,170l6.59-.86L323.09,171l13.58-4.94,8.71-3.85,11.53-3.79,5,5,3.86,4.68,2,2.69,1.77,3c4.66,7.15,3.6,8.16,3.6,8.16-1.39,5.28-4.07,4.64-4.07,4.64l-5.47-15.81c-1.07-2-4.6-3.1-4.6-3.1C352.93,165,347.52,170,347.52,170a41.46,41.46,0,0,0-12,18.83s-19.89-1.31-28.28-2.66a2.88,2.88,0,0,0-3.08,1.65c-.93,2-.2,0-.2,0l-.32,0-1.75-12.84-.46-1.32Z" transform="translate(0 -6.54)"/><path class="cls-60" d="M333.17,301s10,3.7,26.51,5.95c0,0,19.89.52,24.33-1.26,0,0,8-.82,10.07-3.07,0,0,3.21,14.62-6.27,18,0,0-2.33.56-8.44-.33l-9.72-1.49-25.19-6.27-10.7-2.9-10.83-3.32-9.05-3.45-6.12-2.16Z" transform="translate(0 -6.54)"/><path class="cls-65" d="M333.17,301s19.85,6,27.88,6l-4.17,8.64-26.27-6.95-13.43-4.56-9.42-3.41Z" transform="translate(0 -6.54)"/><path class="cls-2" d="M394.08,302.63s4.82,20-10.82,18.1l-4.5-.52s10.23-8.4,7.58-14.84Z" transform="translate(0 -6.54)"/><path class="cls-14" d="M332.94,309.09s-.43-4.24,2.09-6.32c0,0,16,3.91,18.05,3.91a47.9,47.9,0,0,0,6.65.45s1.87,5-2.25,7.85Z" transform="translate(0 -6.54)"/><path class="cls-64" d="M333.42,308.6s.32-4.39,1.77-5.35c0,0,22.77,5.57,23.84,4.6,0,0,1.71,2.87-1.55,6.74Z" transform="translate(0 -6.54)"/><polygon class="cls-14" points="330.45 182.95 322.25 182.3 323.38 163.53 329.07 162.28 330.45 182.95"/><polygon class="cls-12" points="323.58 182.4 323.84 163.35 327.85 162.43 329.15 182.95 323.58 182.4"/><path class="cls-12" d="M314.79,400.81S307.93,415,282.43,415a33.37,33.37,0,0,0,16.91,6.6l.56.05c10.39.75,20.89-18,20.89-18A6.18,6.18,0,0,0,314.79,400.81Z" transform="translate(0 -6.54)"/><path class="cls-16" d="M305.36,301l20.9,7.86L345,314.59l15.14,4.05,17.72,3.52s8.92.52,10.42,0a35.54,35.54,0,0,0,3.32-1.36l-.75.34s-1.6,15.07-5.57,20.75L374.9,353.25l-9.64,7.52-8.68,7.16L351,373.1l-8.91,5.23s-20.56,5.13-26.09,21.28a1.6,1.6,0,0,0-1.12.17s-2.93,4.7-6.06,6.34c0,0-4.11,5-16.27,7.34,0,0-6.59,1.24-10.08,1a8.27,8.27,0,0,1-4.76-6.85s-2.2-6.27,3.16-18.49c0,0,5.54-12.49,9.65-14.87l1.28-2.43v-2.79l-42-24.48L249.22,301l6.48.77,4.34.36,3.62-.36,4.58-.36" transform="translate(0 -6.54)"/><path class="cls-61" d="M366.56,227.65l-2.3,56.49s.34,22.35-8.6,20.92c0,0,24,3.07,38-4.18l-11.12-74-3.09-23.55-1.29-6.4-2.38-8.73-1.41-3.69-1.06-2a5.22,5.22,0,0,1-.72,2.33,8.94,8.94,0,0,1-3.62,2.66S372.31,200.41,366.56,227.65Z" transform="translate(0 -6.54)"/><path class="cls-61" d="M292.51,369.43l23.9-36.27,6.92-24.29s1.1-1.34,1.32.2l-6.85,24.36S293.39,369.8,293.39,370,290.46,372.54,292.51,369.43Z" transform="translate(0 -6.54)"/><path class="cls-61" d="M317.76,332.66S332,321,343.61,328.06C343.61,328.06,333.86,323.49,317.76,332.66Z" transform="translate(0 -6.54)"/><polygon class="cls-14" points="304.22 343.56 279.56 319.27 310.9 335.3 305.01 343.98 304.22 343.56"/><polygon class="cls-9" points="305.17 343.69 310.35 336.02 282.51 321.53 305.17 343.69"/><path class="cls-14" d="M282.51,327.32s-22.15-9.83-26.81-25.54l-6.48-.77.17,13.78S269.84,331.6,282.51,327.32Z" transform="translate(0 -6.54)"/><path class="cls-12" d="M281.2,327.21s-23.4-10-26.78-25.58l-5.2-.62.15,12.46S268.61,329.14,281.2,327.21Z" transform="translate(0 -6.54)"/><path class="cls-14" d="M316,399.61s-1.95,20.41-14.35,22l16.21-4.58,2.7-5.06,1.24-8.53-1.24-4.33Z" transform="translate(0 -6.54)"/><path class="cls-63" d="M281.2,327.21s-7.48-3.42-7.57-4c0,0-6-4-6.8-4.65l-3.19-2.68s-1.75,4.69-3.53,4.9C260.11,320.8,273.22,329.2,281.2,327.21Z" transform="translate(0 -6.54)"/><path class="cls-63" d="M314.79,401.81l.89-1a26.62,26.62,0,0,1-6.54,16.64s-4-5.48-8.35-5.59-.21.08-.21.08,5.3-2.34,5.47-2.81c0,0,4.74-3.29,4.74-3.69Z" transform="translate(0 -6.54)"/><polygon class="cls-63" points="313.08 396.75 314.79 394.27 315.81 394.23 315.67 394.83 315.33 396.56 313.08 396.75"/><path class="cls-12" d="M307.87,419.86s10.24-9.1,9.17-19.05a29.2,29.2,0,0,1,10.07-14.13s9.33-5.83,14.31-7.31l11.73-6,24.72-3.75,13.95-1.76,6.54,23.94-13.18,4.07-26.62,7.4-12.7,4.12Z" transform="translate(0 -6.54)"/><polygon class="cls-14" points="397.81 386.99 417.81 381.14 408.86 382.82 397.46 385.56 396.75 385.97 397.81 386.99"/><polygon class="cls-14" points="390.94 361.34 427.08 352.34 426.98 351.96 422.69 353.16 413.83 355.08 401.74 357.94 391.19 360.17 390.94 361.34"/><path class="cls-14" d="M417.81,387.68s14,20.09,18.9,22.76l-.08.2-.23.18-2.63-2.5-3.16-3.27-4.44-5.57-2.25-2.62-3.33-4.61-3-4.51Z" transform="translate(0 -6.54)"/><path class="cls-14" d="M436.4,410.82s3,2.37,3.52,1.07a3.54,3.54,0,0,1-3.21-1.45Z" transform="translate(0 -6.54)"/><path class="cls-14" d="M439.92,411.89,427,358.5h.24l8.24,33.16,4.46,18.78S440.09,411.84,439.92,411.89Z" transform="translate(0 -6.54)"/><path class="cls-12" d="M305,350.52l-13.25,19.85v-1.32l-27.85-16.23-14.15-8.25-.16-12.29-.21-17.49S261.27,323,265,324.58c0,0,9.07,4.6,16.41,3.05" transform="translate(0 -6.54)"/></g></g></svg>