<svg xmlns="http://www.w3.org/2000/svg" xmlns:xlink="http://www.w3.org/1999/xlink" viewBox="0 0 378.37 374.06"><defs><style>.cls-1{fill:none;}.cls-2{isolation:isolate;}.cls-3{clip-path:url(#clip-path);}.cls-4{fill:url(#radial-gradient);}.cls-5{fill:url(#radial-gradient-2);}.cls-10,.cls-108,.cls-109,.cls-11,.cls-110,.cls-111,.cls-112,.cls-142,.cls-157,.cls-6,.cls-61,.cls-62,.cls-71,.cls-8,.cls-9{mix-blend-mode:screen;}.cls-6{fill:url(#radial-gradient-3);}.cls-7{opacity:0.7;}.cls-8{fill:url(#radial-gradient-4);}.cls-9{fill:url(#radial-gradient-5);}.cls-10{fill:url(#radial-gradient-6);}.cls-11{fill:url(#radial-gradient-7);}.cls-12,.cls-13,.cls-136,.cls-14,.cls-142,.cls-146,.cls-15,.cls-16,.cls-17,.cls-18,.cls-19,.cls-20,.cls-21,.cls-22,.cls-23,.cls-24,.cls-25,.cls-26,.cls-27,.cls-28,.cls-29,.cls-30,.cls-31,.cls-32,.cls-33,.cls-34,.cls-35,.cls-36,.cls-37,.cls-38,.cls-39,.cls-40,.cls-41,.cls-42,.cls-43,.cls-44,.cls-45,.cls-46,.cls-47,.cls-48,.cls-49,.cls-50,.cls-51,.cls-52,.cls-53,.cls-54,.cls-55,.cls-56,.cls-57,.cls-58,.cls-59,.cls-60,.cls-61,.cls-65,.cls-85,.cls-86,.cls-87,.cls-88,.cls-89,.cls-90,.cls-91,.cls-92,.cls-93,.cls-94,.cls-95{opacity:0.5;}.cls-106,.cls-12,.cls-13,.cls-136,.cls-139,.cls-14,.cls-146,.cls-15,.cls-158,.cls-159,.cls-16,.cls-17,.cls-18,.cls-19,.cls-20,.cls-21,.cls-22,.cls-23,.cls-24,.cls-25,.cls-26,.cls-27,.cls-28,.cls-29,.cls-30,.cls-31,.cls-32,.cls-33,.cls-34,.cls-35,.cls-36,.cls-37,.cls-38,.cls-39,.cls-40,.cls-41,.cls-42,.cls-43,.cls-44,.cls-45,.cls-46,.cls-47,.cls-48,.cls-49,.cls-50,.cls-51,.cls-52,.cls-53,.cls-54,.cls-55,.cls-56,.cls-57,.cls-58,.cls-59,.cls-60,.cls-65,.cls-69,.cls-78,.cls-79,.cls-80,.cls-81,.cls-82,.cls-85,.cls-86,.cls-87,.cls-88,.cls-89,.cls-90,.cls-91,.cls-92,.cls-93,.cls-94,.cls-95{mix-blend-mode:multiply;}.cls-12{fill:url(#radial-gradient-8);}.cls-13{fill:url(#radial-gradient-9);}.cls-14{fill:url(#radial-gradient-10);}.cls-15{fill:url(#radial-gradient-11);}.cls-16{fill:url(#radial-gradient-12);}.cls-17{fill:url(#radial-gradient-13);}.cls-18{fill:url(#radial-gradient-14);}.cls-19{fill:url(#radial-gradient-15);}.cls-20{fill:url(#radial-gradient-16);}.cls-21{fill:url(#radial-gradient-17);}.cls-22{fill:url(#radial-gradient-18);}.cls-23{fill:url(#radial-gradient-19);}.cls-24{fill:url(#radial-gradient-20);}.cls-25{fill:url(#radial-gradient-21);}.cls-26{fill:url(#radial-gradient-22);}.cls-27{fill:url(#radial-gradient-23);}.cls-28{fill:url(#radial-gradient-24);}.cls-29{fill:url(#radial-gradient-25);}.cls-30{fill:url(#radial-gradient-26);}.cls-31{fill:url(#radial-gradient-27);}.cls-32{fill:url(#radial-gradient-28);}.cls-33{fill:url(#radial-gradient-29);}.cls-34{fill:url(#radial-gradient-30);}.cls-35{fill:url(#radial-gradient-31);}.cls-36{fill:url(#radial-gradient-32);}.cls-37{fill:url(#radial-gradient-33);}.cls-38{fill:url(#radial-gradient-34);}.cls-39{fill:url(#radial-gradient-35);}.cls-40{fill:url(#radial-gradient-36);}.cls-41{fill:url(#radial-gradient-37);}.cls-42{fill:url(#radial-gradient-38);}.cls-43{fill:url(#radial-gradient-39);}.cls-44{fill:url(#radial-gradient-40);}.cls-45{fill:url(#radial-gradient-41);}.cls-46{fill:url(#radial-gradient-42);}.cls-47{fill:url(#radial-gradient-43);}.cls-48{fill:url(#radial-gradient-44);}.cls-49{fill:url(#radial-gradient-46);}.cls-50{fill:url(#radial-gradient-47);}.cls-51{fill:url(#radial-gradient-48);}.cls-52{fill:url(#radial-gradient-49);}.cls-53{fill:url(#radial-gradient-50);}.cls-54{fill:url(#radial-gradient-51);}.cls-55{fill:url(#radial-gradient-52);}.cls-56{fill:url(#radial-gradient-53);}.cls-57{fill:url(#radial-gradient-54);}.cls-58{fill:url(#radial-gradient-55);}.cls-59{fill:url(#radial-gradient-56);}.cls-60{fill:url(#radial-gradient-57);}.cls-61{fill:url(#radial-gradient-58);}.cls-62{opacity:0.35;}.cls-63{fill:url(#radial-gradient-59);}.cls-64{fill:url(#radial-gradient-60);}.cls-65{fill:url(#radial-gradient-61);}.cls-159,.cls-66{fill:#653177;}.cls-67,.cls-69{fill:#a827f5;}.cls-68{fill:#b957ff;}.cls-69{opacity:0.6;}.cls-70{fill:#8416c5;}.cls-72{fill:url(#radial-gradient-62);}.cls-73{fill:url(#radial-gradient-63);}.cls-74{fill:url(#radial-gradient-64);}.cls-75{fill:url(#radial-gradient-65);}.cls-76{fill:url(#Áåçûìÿííûé_ãðàäèåíò_13);}.cls-77{fill:url(#Áåçûìÿííûé_ãðàäèåíò_13-2);}.cls-158,.cls-159,.cls-78,.cls-79,.cls-80,.cls-81,.cls-82{opacity:0.25;}.cls-78{fill:url(#radial-gradient-66);}.cls-79{fill:url(#radial-gradient-67);}.cls-80{fill:url(#radial-gradient-68);}.cls-81{fill:url(#radial-gradient-69);}.cls-83{fill:url(#radial-gradient-70);}.cls-156,.cls-84,.cls-96{opacity:0.34;mix-blend-mode:color-burn;}.cls-84{fill:url(#radial-gradient-71);}.cls-85{fill:url(#radial-gradient-72);}.cls-86{fill:url(#radial-gradient-73);}.cls-87{fill:url(#radial-gradient-74);}.cls-88{fill:url(#radial-gradient-75);}.cls-89{fill:url(#radial-gradient-76);}.cls-90{fill:url(#radial-gradient-77);}.cls-91{fill:url(#radial-gradient-78);}.cls-92{fill:url(#radial-gradient-79);}.cls-93{fill:url(#radial-gradient-80);}.cls-94{fill:url(#radial-gradient-81);}.cls-95{fill:url(#radial-gradient-82);}.cls-96{fill:url(#radial-gradient-83);}.cls-97{fill:url(#radial-gradient-84);}.cls-98{fill:url(#radial-gradient-85);}.cls-99{fill:url(#radial-gradient-86);}.cls-100{fill:url(#radial-gradient-87);}.cls-101{fill:url(#radial-gradient-88);}.cls-102{fill:url(#radial-gradient-89);}.cls-103{fill:url(#radial-gradient-90);}.cls-104{fill:url(#radial-gradient-91);}.cls-105,.cls-106{fill:#e0a326;}.cls-106{opacity:0.54;}.cls-107{fill:url(#radial-gradient-92);}.cls-108,.cls-109,.cls-110,.cls-111,.cls-112{opacity:0.45;}.cls-108{fill:url(#radial-gradient-93);}.cls-109{fill:url(#radial-gradient-94);}.cls-110{fill:url(#radial-gradient-95);}.cls-111{fill:url(#radial-gradient-96);}.cls-112{fill:url(#radial-gradient-97);}.cls-113{fill:#6e840c;}.cls-114{fill:#c8d482;}.cls-115{fill:#758912;}.cls-116{fill:#748a19;}.cls-117{fill:url(#Áåçûìÿííûé_ãðàäèåíò_13-3);}.cls-118{fill:url(#Áåçûìÿííûé_ãðàäèåíò_13-4);}.cls-119{fill:url(#Áåçûìÿííûé_ãðàäèåíò_13-5);}.cls-120{fill:#d4ec94;}.cls-121{fill:#6e830c;}.cls-122{fill:url(#Áåçûìÿííûé_ãðàäèåíò_13-6);}.cls-123{fill:#718308;}.cls-124{fill:#050d09;}.cls-125{fill:#060f08;}.cls-126{fill:#323d2d;}.cls-127{fill:url(#Áåçûìÿííûé_ãðàäèåíò_35);}.cls-128{fill:#1f0103;}.cls-129{fill:#700203;}.cls-130{fill:#fcb2b2;}.cls-131{fill:#f29997;}.cls-132{fill:#490201;}.cls-133{fill:#d36b6c;}.cls-134{fill:#8bad19;}.cls-135{fill:url(#Áåçûìÿííûé_ãðàäèåíò_60);}.cls-136{fill:url(#Áåçûìÿííûé_ãðàäèåíò_71);}.cls-137{fill:url(#Áåçûìÿííûé_ãðàäèåíò_24);}.cls-138{fill:url(#Áåçûìÿííûé_ãðàäèåíò_24-2);}.cls-139,.cls-145{opacity:0.3;}.cls-139{fill:url(#Áåçûìÿííûé_ãðàäèåíò_71-2);}.cls-140{fill:url(#Áåçûìÿííûé_ãðàäèåíò_43);}.cls-141{fill:url(#Áåçûìÿííûé_ãðàäèåíò_35-2);}.cls-142{fill:url(#Áåçûìÿííûé_ãðàäèåíò_80);}.cls-143,.cls-147{fill:#fff;}.cls-144{fill:#8d8d8e;}.cls-145{fill:#9ea5a8;}.cls-146{fill:#bfc2c4;}.cls-147{mix-blend-mode:overlay;}.cls-148{fill:#8852b0;}.cls-149{fill:#fe2d2e;}.cls-150{fill:#2ab4fc;}.cls-151{fill:#168ac5;}.cls-152{fill:#6ed3ff;}.cls-153{fill:#642c7e;}.cls-154{fill:#c11e26;}.cls-155{fill:#d61c1d;}.cls-156{fill:url(#radial-gradient-98);}.cls-157{fill:url(#radial-gradient-99);}.cls-158{fill:url(#radial-gradient-100);}.cls-160{fill:#5d2d6d;}.cls-161{fill:#5a2c69;}.cls-162{fill:#612f72;}.cls-163{fill:#2ab3fb;}.cls-164{fill:#8416c4;}.cls-165{fill:#a727f4;}.cls-166{fill:#178ac5;}.cls-167{fill:#21a1e2;}</style><clipPath id="clip-path" transform="translate(-14.23 -8.78)"><rect class="cls-1" x="-42.73" y="-55.64" width="500" height="500"/></clipPath><radialGradient id="radial-gradient" cx="187.82" cy="259.49" r="115.31" gradientUnits="userSpaceOnUse"><stop offset="0" stop-color="#f20074"/><stop offset="0.38" stop-color="#f10174" stop-opacity="0.99"/><stop offset="0.51" stop-color="#ed0376" stop-opacity="0.96"/><stop offset="0.61" stop-color="#e70679" stop-opacity="0.92"/><stop offset="0.69" stop-color="#df0b7d" stop-opacity="0.85"/><stop offset="0.75" stop-color="#d31182" stop-opacity="0.75"/><stop offset="0.81" stop-color="#c51988" stop-opacity="0.64"/><stop offset="0.87" stop-color="#b42290" stop-opacity="0.51"/><stop offset="0.92" stop-color="#a02d98" stop-opacity="0.35"/><stop offset="0.96" stop-color="#8b39a2" stop-opacity="0.18"/><stop offset="1" stop-color="#7446ac" stop-opacity="0"/></radialGradient><radialGradient id="radial-gradient-2" cx="212.86" cy="179.41" r="201.04" gradientTransform="translate(249.56 -64.9) rotate(45)" gradientUnits="userSpaceOnUse"><stop offset="0" stop-color="#f20074"/><stop offset="0.14" stop-color="#ed0376"/><stop offset="0.31" stop-color="#df0b7d"/><stop offset="0.49" stop-color="#c71887"/><stop offset="0.67" stop-color="#a62a96"/><stop offset="0.87" stop-color="#7b42a9"/><stop offset="0.9" stop-color="#7446ac"/></radialGradient><radialGradient id="radial-gradient-3" cx="190.36" cy="291.45" r="191.16" gradientTransform="matrix(1.31, 0.35, -0.31, 1.15, -8.83, -341.37)" gradientUnits="userSpaceOnUse"><stop offset="0.05" stop-color="#e0a326"/><stop offset="0.41" stop-color="#e0a227" stop-opacity="0.99"/><stop offset="0.55" stop-color="#df9e2b" stop-opacity="0.96"/><stop offset="0.64" stop-color="#de9833" stop-opacity="0.91"/><stop offset="0.71" stop-color="#dd8f3e" stop-opacity="0.83"/><stop offset="0.78" stop-color="#db844c" stop-opacity="0.73"/><stop offset="0.84" stop-color="#d8755d" stop-opacity="0.61"/><stop offset="0.89" stop-color="#d56471" stop-opacity="0.47"/><stop offset="0.93" stop-color="#d25089" stop-opacity="0.3"/><stop offset="0.98" stop-color="#ce3ba3" stop-opacity="0.12"/><stop offset="1" stop-color="#cc2db4" stop-opacity="0"/></radialGradient><radialGradient id="radial-gradient-4" cx="210.43" cy="180.45" r="149.58" gradientTransform="matrix(1, 0, 0, 1, 0, 0)" xlink:href="#radial-gradient-3"/><radialGradient id="radial-gradient-5" cx="210.43" cy="180.45" r="149.58" gradientTransform="matrix(1, 0, 0, 1, 0, 0)" xlink:href="#radial-gradient-3"/><radialGradient id="radial-gradient-6" cx="210.43" cy="180.45" r="149.58" gradientTransform="matrix(1, 0, 0, 1, 0, 0)" xlink:href="#radial-gradient-3"/><radialGradient id="radial-gradient-7" cx="210.43" cy="180.45" r="149.58" gradientTransform="matrix(1, 0, 0, 1, 0, 0)" xlink:href="#radial-gradient-3"/><radialGradient id="radial-gradient-8" cx="212.69" cy="206.85" r="175.96" gradientTransform="matrix(1, 0, 0, 1, 0, 0)" xlink:href="#radial-gradient-2"/><radialGradient id="radial-gradient-9" cx="211.48" cy="260.79" r="129.35" gradientTransform="matrix(1, 0, 0, 1, 0, 0)" xlink:href="#radial-gradient-2"/><radialGradient id="radial-gradient-10" cx="180.65" cy="152.47" r="44.8" gradientTransform="matrix(1, 0, 0, 1, 0, 0)" xlink:href="#radial-gradient-2"/><radialGradient id="radial-gradient-11" cx="194.88" cy="161.25" r="44.8" gradientTransform="matrix(1, 0, 0, 1, 0, 0)" xlink:href="#radial-gradient-2"/><radialGradient id="radial-gradient-12" cx="248.41" cy="239.25" r="44.8" gradientTransform="translate(551.08 548.24) rotate(180)" xlink:href="#radial-gradient-2"/><radialGradient id="radial-gradient-13" cx="248.41" cy="239.25" r="44.8" gradientTransform="translate(596.3 80.82) rotate(101.24)" xlink:href="#radial-gradient-2"/><radialGradient id="radial-gradient-14" cx="313.76" cy="292.52" r="44.8" gradientTransform="translate(536.98 653.03) rotate(-180)" xlink:href="#radial-gradient-2"/><radialGradient id="radial-gradient-15" cx="313.76" cy="292.52" r="44.8" gradientTransform="translate(555.88 632.08) rotate(176.44)" xlink:href="#radial-gradient-2"/><radialGradient id="radial-gradient-16" cx="339.32" cy="302.34" r="53.72" gradientTransform="matrix(0, -1, 1.77, 0, -408.05, 651.97)" xlink:href="#radial-gradient-2"/><radialGradient id="radial-gradient-17" cx="160.78" cy="249.58" r="68.38" gradientTransform="matrix(1, 0, 0, 1, 0, 0)" xlink:href="#radial-gradient-2"/><radialGradient id="radial-gradient-18" cx="241.73" cy="367.39" r="34.58" gradientTransform="matrix(0, 1, -1.77, 0, 887.75, -31.97)" xlink:href="#radial-gradient-2"/><radialGradient id="radial-gradient-19" cx="305.17" cy="242.81" r="44.01" gradientTransform="translate(596.52 367.66) rotate(159.71)" xlink:href="#radial-gradient-2"/><radialGradient id="radial-gradient-20" cx="313.41" cy="408.38" r="43.4" gradientTransform="matrix(-1, 0, 0, -1.77, 571.04, 1053.78)" xlink:href="#radial-gradient-2"/><radialGradient id="radial-gradient-21" cx="287.38" cy="126.51" r="55.24" gradientTransform="translate(0.05 530.1) rotate(-72.91)" xlink:href="#radial-gradient-2"/><radialGradient id="radial-gradient-22" cx="320.87" cy="307.04" r="35.32" gradientTransform="matrix(1, 0, 0, 1, -187.61, -104.33)" xlink:href="#radial-gradient-2"/><radialGradient id="radial-gradient-23" cx="320.87" cy="307.04" r="35.32" gradientTransform="translate(-313.62 296.02) rotate(-53.79)" xlink:href="#radial-gradient-2"/><radialGradient id="radial-gradient-24" cx="375.07" cy="291.44" r="44.81" gradientTransform="translate(-186.34 702.63) rotate(-90)" xlink:href="#radial-gradient-2"/><radialGradient id="radial-gradient-25" cx="375.07" cy="291.44" r="44.81" gradientTransform="matrix(-0.51, -0.86, 0.86, -0.51, 54.35, 807.92)" xlink:href="#radial-gradient-2"/><radialGradient id="radial-gradient-26" cx="211.42" cy="178.89" r="25.36" gradientTransform="translate(155.71 -82.88) rotate(29.94)" xlink:href="#radial-gradient-2"/><radialGradient id="radial-gradient-27" cx="211.42" cy="178.89" r="25.36" gradientTransform="translate(155.71 -82.88) rotate(29.94)" xlink:href="#radial-gradient-2"/><radialGradient id="radial-gradient-28" cx="314.66" cy="321.99" r="25.36" gradientTransform="translate(625.69 602.36) rotate(165.92)" xlink:href="#radial-gradient-2"/><radialGradient id="radial-gradient-29" cx="314.66" cy="321.99" r="25.36" gradientTransform="translate(625.69 602.36) rotate(165.92)" xlink:href="#radial-gradient-2"/><radialGradient id="radial-gradient-30" cx="172.27" cy="285.79" r="25.36" gradientTransform="translate(-176.11 468.44) rotate(-92.84)" xlink:href="#radial-gradient-2"/><radialGradient id="radial-gradient-31" cx="172.27" cy="285.79" r="25.36" gradientTransform="translate(-176.11 468.44) rotate(-92.84)" xlink:href="#radial-gradient-2"/><radialGradient id="radial-gradient-32" cx="93.51" cy="363.28" r="25.36" gradientTransform="translate(197.31 747.81) rotate(-166.86)" xlink:href="#radial-gradient-2"/><radialGradient id="radial-gradient-33" cx="93.51" cy="363.28" r="25.36" gradientTransform="translate(197.31 747.81) rotate(-166.86)" xlink:href="#radial-gradient-2"/><radialGradient id="radial-gradient-34" cx="273.69" cy="215.72" r="19.46" gradientTransform="translate(520.61 -29.05) rotate(90)" xlink:href="#radial-gradient-2"/><radialGradient id="radial-gradient-35" cx="273.69" cy="215.72" r="19.46" gradientTransform="translate(406.08 -91) rotate(69.11)" xlink:href="#radial-gradient-2"/><radialGradient id="radial-gradient-36" cx="338.81" cy="281.3" r="19.46" gradientTransform="matrix(-0.64, 0.77, -0.77, -0.64, 721.26, 243.32)" xlink:href="#radial-gradient-2"/><radialGradient id="radial-gradient-37" cx="338.81" cy="281.3" r="19.46" gradientTransform="matrix(-0.64, 0.77, -0.77, -0.64, 721.26, 243.32)" xlink:href="#radial-gradient-2"/><radialGradient id="radial-gradient-38" cx="518.23" cy="368.28" r="13.26" gradientTransform="translate(-246.38 808.11) rotate(-90)" xlink:href="#radial-gradient-2"/><radialGradient id="radial-gradient-39" cx="518.23" cy="368.28" r="13.26" gradientTransform="matrix(-0.31, -0.95, 0.95, -0.31, -66.06, 898.55)" xlink:href="#radial-gradient-2"/><radialGradient id="radial-gradient-40" cx="540.29" cy="412.83" r="13.27" gradientTransform="matrix(0.84, -0.54, 0.95, 1.46, -672.79, -86.09)" xlink:href="#radial-gradient-2"/><radialGradient id="radial-gradient-41" cx="540.29" cy="412.83" r="13.27" gradientTransform="matrix(0.84, -0.54, 0.95, 1.46, -672.79, -86.09)" xlink:href="#radial-gradient-2"/><radialGradient id="radial-gradient-42" cx="527.81" cy="439.89" r="13.26" gradientTransform="translate(678.78 -331.43) rotate(90)" xlink:href="#radial-gradient-2"/><radialGradient id="radial-gradient-43" cx="527.81" cy="439.89" r="13.26" gradientTransform="translate(-97 -410.86) rotate(21.68)" xlink:href="#radial-gradient-2"/><radialGradient id="radial-gradient-44" cx="586.37" cy="499.61" r="10.55" gradientTransform="matrix(-0.29, 0.96, -1.57, -0.47, 1233.18, -53.47)" xlink:href="#radial-gradient-2"/><radialGradient id="radial-gradient-46" cx="165.7" cy="226.89" r="25.36" gradientTransform="translate(-27.39 -44.55)" xlink:href="#radial-gradient-2"/><radialGradient id="radial-gradient-47" cx="165.7" cy="226.89" r="25.36" gradientTransform="translate(-138.74 115.68) rotate(-38.54)" xlink:href="#radial-gradient-2"/><radialGradient id="radial-gradient-48" cx="250.52" cy="286.8" r="58.77" gradientTransform="matrix(0.87, -0.5, 0.41, 0.72, -109.72, 219.66)" xlink:href="#radial-gradient-2"/><radialGradient id="radial-gradient-49" cx="250.52" cy="286.8" r="58.77" gradientTransform="matrix(0.87, -0.5, 0.41, 0.72, -109.72, 219.66)" xlink:href="#radial-gradient-2"/><radialGradient id="radial-gradient-50" cx="114.73" cy="232.67" r="65.56" gradientTransform="matrix(0.45, 0.89, -0.74, 0.37, 300.38, 94.98)" xlink:href="#radial-gradient-2"/><radialGradient id="radial-gradient-51" cx="126.09" cy="250.85" r="39.63" gradientTransform="matrix(0.45, 0.89, -0.74, 0.37, 300.38, 94.98)" xlink:href="#radial-gradient-2"/><radialGradient id="radial-gradient-52" cx="78.19" cy="268.79" r="32.27" gradientTransform="matrix(0.12, 0.99, -0.83, 0.1, 355.95, 165.97)" xlink:href="#radial-gradient-2"/><radialGradient id="radial-gradient-53" cx="70.23" cy="59.15" r="46.96" gradientTransform="matrix(0.12, 0.99, -0.83, 0.1, 355.95, 165.97)" xlink:href="#radial-gradient-2"/><radialGradient id="radial-gradient-54" cx="79.79" cy="74.85" r="30.75" gradientTransform="matrix(0.12, 0.99, -0.83, 0.1, 355.95, 165.97)" xlink:href="#radial-gradient-2"/><radialGradient id="radial-gradient-55" cx="153.6" cy="257.28" r="58.77" gradientTransform="matrix(0.78, 0.62, -0.52, 0.65, 190.92, 50.29)" xlink:href="#radial-gradient-2"/><radialGradient id="radial-gradient-56" cx="153.6" cy="257.28" r="58.77" gradientTransform="matrix(0.78, 0.62, -0.52, 0.65, 190.92, 50.29)" xlink:href="#radial-gradient-2"/><radialGradient id="radial-gradient-57" cx="132.58" cy="257.51" r="58.77" gradientTransform="matrix(0.78, 0.62, -0.52, 0.65, 190.92, 50.29)" xlink:href="#radial-gradient-2"/><radialGradient id="radial-gradient-58" cx="191.82" cy="142.57" r="170.77" gradientTransform="matrix(1, 0, 0, 1, 0, 0)" xlink:href="#radial-gradient-3"/><radialGradient id="radial-gradient-59" cx="212.26" cy="292.95" r="375.35" gradientTransform="matrix(0.92, -0.35, 0.18, 0.74, -28.44, 155.37)" gradientUnits="userSpaceOnUse"><stop offset="0" stop-color="#d1e1ee"/><stop offset="0.34" stop-color="#8ee1ee"/><stop offset="0.94" stop-color="#732fa4"/></radialGradient><radialGradient id="radial-gradient-60" cx="204.27" cy="293.19" r="375.36" gradientTransform="matrix(0.98, 0.11, -0.18, 0.75, 55.95, 62.35)" xlink:href="#radial-gradient-59"/><radialGradient id="radial-gradient-61" cx="216.53" cy="191.71" r="36.08" gradientTransform="matrix(1, 0, 0, 1, 0, 0)" xlink:href="#radial-gradient-2"/><radialGradient id="radial-gradient-62" cx="187.42" cy="180.85" r="13.96" gradientUnits="userSpaceOnUse"><stop offset="0.06" stop-color="#66b0d8"/><stop offset="1" stop-color="#3f1f7d"/></radialGradient><radialGradient id="radial-gradient-63" cx="187.42" cy="180.85" r="13.96" xlink:href="#radial-gradient-62"/><radialGradient id="radial-gradient-64" cx="235.23" cy="192.98" r="13.96" gradientTransform="matrix(1.03, 0.03, -0.03, 1.18, -0.65, -47.76)" xlink:href="#radial-gradient-62"/><radialGradient id="radial-gradient-65" cx="235.23" cy="192.98" r="13.96" gradientTransform="matrix(1.03, 0.03, -0.03, 1.18, -0.65, -47.76)" xlink:href="#radial-gradient-62"/><linearGradient id="Áåçûìÿííûé_ãðàäèåíò_13" x1="150.65" y1="124.4" x2="179.23" y2="124.4" gradientUnits="userSpaceOnUse"><stop offset="0" stop-color="#96c53e"/><stop offset="1" stop-color="#68b886"/></linearGradient><linearGradient id="Áåçûìÿííûé_ãðàäèåíò_13-2" x1="254.34" y1="72.05" x2="273.51" y2="72.05" xlink:href="#Áåçûìÿííûé_ãðàäèåíò_13"/><radialGradient id="radial-gradient-66" cx="243.1" cy="175.67" r="6.17" gradientUnits="userSpaceOnUse"><stop offset="0" stop-color="#b10058"/><stop offset="1" stop-color="#5c2d7d" stop-opacity="0.6"/></radialGradient><radialGradient id="radial-gradient-67" cx="235.64" cy="152.46" r="8.92" xlink:href="#radial-gradient-66"/><radialGradient id="radial-gradient-68" cx="191.41" cy="164.81" r="6.22" xlink:href="#radial-gradient-66"/><radialGradient id="radial-gradient-69" cx="200.11" cy="146.66" r="7.85" xlink:href="#radial-gradient-66"/><radialGradient id="radial-gradient-70" cx="185.8" cy="123.21" r="6.51" xlink:href="#radial-gradient-66"/><radialGradient id="radial-gradient-71" cx="168.25" cy="125.69" r="10.37" xlink:href="#radial-gradient-62"/><radialGradient id="radial-gradient-72" cx="212.46" cy="92.78" r="52.24" xlink:href="#radial-gradient-62"/><radialGradient id="radial-gradient-73" cx="212.46" cy="92.78" r="52.24" xlink:href="#radial-gradient-62"/><radialGradient id="radial-gradient-74" cx="212.46" cy="92.78" r="52.24" xlink:href="#radial-gradient-62"/><radialGradient id="radial-gradient-75" cx="212.46" cy="92.78" r="52.24" xlink:href="#radial-gradient-62"/><radialGradient id="radial-gradient-76" cx="212.46" cy="92.78" r="52.24" xlink:href="#radial-gradient-62"/><radialGradient id="radial-gradient-77" cx="212.46" cy="92.78" r="52.24" xlink:href="#radial-gradient-62"/><radialGradient id="radial-gradient-78" cx="212.46" cy="92.78" r="52.24" xlink:href="#radial-gradient-62"/><radialGradient id="radial-gradient-79" cx="212.46" cy="92.78" r="52.24" xlink:href="#radial-gradient-62"/><radialGradient id="radial-gradient-80" cx="212.46" cy="92.78" r="52.24" xlink:href="#radial-gradient-62"/><radialGradient id="radial-gradient-81" cx="212.46" cy="92.78" r="52.24" xlink:href="#radial-gradient-62"/><radialGradient id="radial-gradient-82" cx="212.46" cy="92.78" r="52.24" xlink:href="#radial-gradient-62"/><radialGradient id="radial-gradient-83" cx="265.13" cy="74.83" r="14.99" xlink:href="#radial-gradient-62"/><radialGradient id="radial-gradient-84" cx="189.38" cy="77.81" r="75.47" xlink:href="#radial-gradient-62"/><radialGradient id="radial-gradient-85" cx="189.38" cy="77.81" r="75.47" xlink:href="#radial-gradient-62"/><radialGradient id="radial-gradient-86" cx="189.38" cy="77.81" r="75.47" xlink:href="#radial-gradient-62"/><radialGradient id="radial-gradient-87" cx="189.38" cy="77.81" r="75.47" xlink:href="#radial-gradient-62"/><radialGradient id="radial-gradient-88" cx="189.38" cy="77.81" r="75.47" xlink:href="#radial-gradient-62"/><radialGradient id="radial-gradient-89" cx="189.38" cy="77.81" r="75.47" xlink:href="#radial-gradient-62"/><radialGradient id="radial-gradient-90" cx="189.38" cy="77.81" r="75.47" xlink:href="#radial-gradient-62"/><radialGradient id="radial-gradient-91" cx="189.38" cy="77.81" r="75.47" xlink:href="#radial-gradient-62"/><radialGradient id="radial-gradient-92" cx="76.6" cy="66.11" r="115.8" gradientTransform="translate(-2.07 -3.05) scale(1.03 1.06)" xlink:href="#radial-gradient-2"/><radialGradient id="radial-gradient-93" cx="83.95" cy="72.71" r="48.27" gradientTransform="translate(-2.07 -3.05) scale(1.03 1.06)" xlink:href="#radial-gradient-3"/><radialGradient id="radial-gradient-94" cx="123.13" cy="68.53" r="50.54" gradientTransform="translate(-2.07 -3.05) scale(1.03 1.06)" xlink:href="#radial-gradient-3"/><radialGradient id="radial-gradient-95" cx="65.75" cy="78.17" r="64.89" gradientTransform="translate(-2.07 -3.05) scale(1.03 1.06)" xlink:href="#radial-gradient-3"/><radialGradient id="radial-gradient-96" cx="67.1" cy="76.54" r="65.31" gradientTransform="translate(-2.07 -3.05) scale(1.03 1.06)" xlink:href="#radial-gradient-3"/><radialGradient id="radial-gradient-97" cx="126.25" cy="65.27" r="54.63" gradientTransform="translate(-2.07 -3.05) scale(1.03 1.06)" xlink:href="#radial-gradient-3"/><linearGradient id="Áåçûìÿííûé_ãðàäèåíò_13-3" x1="182.58" y1="52.91" x2="236.56" y2="52.91" xlink:href="#Áåçûìÿííûé_ãðàäèåíò_13"/><linearGradient id="Áåçûìÿííûé_ãðàäèåíò_13-4" x1="182.19" y1="47.45" x2="223.29" y2="47.45" xlink:href="#Áåçûìÿííûé_ãðàäèåíò_13"/><linearGradient id="Áåçûìÿííûé_ãðàäèåíò_13-5" x1="211.52" y1="55.96" x2="241.29" y2="55.96" xlink:href="#Áåçûìÿííûé_ãðàäèåíò_13"/><linearGradient id="Áåçûìÿííûé_ãðàäèåíò_13-6" x1="207.94" y1="87.49" x2="212.78" y2="87.49" xlink:href="#Áåçûìÿííûé_ãðàäèåíò_13"/><linearGradient id="Áåçûìÿííûé_ãðàäèåíò_35" x1="200.37" y1="63.99" x2="204.91" y2="63.99" gradientUnits="userSpaceOnUse"><stop offset="0" stop-color="#35334c"/><stop offset="1" stop-color="#111e44"/></linearGradient><linearGradient id="Áåçûìÿííûé_ãðàäèåíò_60" x1="91.95" y1="34.71" x2="91.95" y2="12.7" gradientTransform="matrix(-1, 0, 0, 1, 299.19, 0)" gradientUnits="userSpaceOnUse"><stop offset="0" stop-color="#8f2d74"/><stop offset="1" stop-color="#b95c72"/></linearGradient><linearGradient id="Áåçûìÿííûé_ãðàäèåíò_71" x1="89.7" y1="26.39" x2="89.7" y2="16.27" gradientTransform="matrix(-1, 0, 0, 1, 299.19, 0)" gradientUnits="userSpaceOnUse"><stop offset="0" stop-color="#b0cde5"/><stop offset="1" stop-color="#4e5caa"/></linearGradient><linearGradient id="Áåçûìÿííûé_ãðàäèåíò_24" x1="193.05" y1="57.79" x2="193.05" y2="41.57" gradientUnits="userSpaceOnUse"><stop offset="0" stop-color="#447656"/><stop offset="1" stop-color="#417383"/></linearGradient><linearGradient id="Áåçûìÿííûé_ãðàäèåíò_24-2" x1="216.03" y1="59.79" x2="216.03" y2="43.57" gradientTransform="matrix(-0.98, -0.21, -0.21, 0.98, 442.31, 47.08)" xlink:href="#Áåçûìÿííûé_ãðàäèåíò_24"/><linearGradient id="Áåçûìÿííûé_ãðàäèåíò_71-2" x1="211.57" y1="55.54" x2="241.35" y2="55.54" gradientTransform="matrix(1, 0, 0, 1, 0, 0)" xlink:href="#Áåçûìÿííûé_ãðàäèåíò_71"/><linearGradient id="Áåçûìÿííûé_ãðàäèåíò_43" x1="193.05" y1="57.18" x2="193.05" y2="43.2" gradientUnits="userSpaceOnUse"><stop offset="0" stop-color="#4c4961"/><stop offset="1" stop-color="#2b3759"/></linearGradient><linearGradient id="Áåçûìÿííûé_ãðàäèåíò_35-2" x1="194.68" y1="57.18" x2="194.68" y2="43.2" xlink:href="#Áåçûìÿííûé_ãðàäèåíò_35"/><linearGradient id="Áåçûìÿííûé_ãðàäèåíò_80" x1="192.83" y1="53.15" x2="192.83" y2="43.19" gradientUnits="userSpaceOnUse"><stop offset="0" stop-color="#254275"/><stop offset="0.19" stop-color="#203965"/><stop offset="0.56" stop-color="#12213a"/><stop offset="1"/></linearGradient><radialGradient id="radial-gradient-98" cx="216.5" cy="83.34" r="86.54" gradientTransform="matrix(0.7, -0.07, 0.11, 0.99, 49.87, 17.6)" xlink:href="#radial-gradient-62"/><radialGradient id="radial-gradient-99" cx="221.07" cy="109.61" r="14.7" gradientTransform="matrix(0.7, 0.08, -0.12, 0.99, 70.97, -17.59)" xlink:href="#radial-gradient-62"/><radialGradient id="radial-gradient-100" cx="128.67" cy="72.96" r="236.85" xlink:href="#radial-gradient-66"/></defs><title>Vision</title><g class="cls-2"><g id="BACKGROUND1"><g class="cls-3"><circle class="cls-4" cx="188.89" cy="260.01" r="114.05"/><circle class="cls-5" cx="203.12" cy="268.79" r="102.11" transform="translate(-144.8 213.57) rotate(-45)"/><path class="cls-6" d="M124.36,255.86c-4.6-8.75-3.22-21.34-.42-29.83,5.92-18,21.34-30.9,37.36-39.84,50.1-27.93,105.15,6.65,109.83,28.66s-17.37,33.67-47.36,26.6-52.59,26.22-73.3,26.33c-7.9,0-16-1.28-22.16-6.79A18.2,18.2,0,0,1,124.36,255.86Z" transform="translate(-14.23 -8.78)"/><g class="cls-7"><path class="cls-8" d="M141.83,220.47a205.84,205.84,0,0,1-5.9-21.67,96.58,96.58,0,0,0-18.19,114.55,96.66,96.66,0,0,1,24.09-92.88Z" transform="translate(-14.23 -8.78)"/><path class="cls-9" d="M255.51,187.1A96.53,96.53,0,0,0,141,194.22a193.68,193.68,0,0,0,5.56,21.72A96.55,96.55,0,0,1,258,203.65,100.72,100.72,0,0,0,255.51,187.1Z" transform="translate(-14.23 -8.78)"/><path class="cls-10" d="M282.17,222.84a100.24,100.24,0,0,0-.58-10.81,97.51,97.51,0,0,0-20.86-21.29,114.79,114.79,0,0,1,1.75,15.58A96.88,96.88,0,0,1,282.17,222.84Z" transform="translate(-14.23 -8.78)"/><path class="cls-11" d="M286.4,227.79a95.7,95.7,0,0,1,9.83,15,95.84,95.84,0,0,0-9.78-23.23C286.53,222.27,286.52,225,286.4,227.79Z" transform="translate(-14.23 -8.78)"/></g><path class="cls-12" d="M271.89,196.05a81.76,81.76,0,1,1-158.41,28.47c0-.17,0-.34,0-.52a100.3,100.3,0,1,0,158.39-27.95Z" transform="translate(-14.23 -8.78)"/><path class="cls-13" d="M298.45,253.81c0,.15,0,.29,0,.44,0,55.16-43.4,99.87-96.93,99.87-49.55,0-90.41-38.31-96.22-87.75.24,54.95,43.54,99.42,96.93,99.42s96.92-44.72,96.92-99.88A102.92,102.92,0,0,0,298.45,253.81Z" transform="translate(-14.23 -8.78)"/><ellipse class="cls-14" cx="194.38" cy="174.49" rx="24" ry="11.4"/><path class="cls-15" d="M186.74,188c3.77,3.95,12.14,6.7,21.87,6.7,10.78,0,19.9-3.37,22.93-8-3.77-4-12.14-6.71-21.87-6.71C198.89,179.94,189.77,183.32,186.74,188Z" transform="translate(-14.23 -8.78)"/><ellipse class="cls-16" cx="288.93" cy="286.98" rx="24" ry="11.4" transform="translate(-63.13 505.61) rotate(-78.75)"/><path class="cls-17" d="M288.58,264.62c-4.61,2.92-8.94,10.59-10.84,20.14-2.1,10.57-.57,20.18,3.4,24.05,4.62-2.92,8.95-10.59,10.84-20.14C294.09,278.1,292.55,268.49,288.58,264.62Z" transform="translate(-14.23 -8.78)"/><ellipse class="cls-18" cx="209.48" cy="338.47" rx="24" ry="11.4" transform="translate(-34.86 4.89) rotate(-3.56)"/><path class="cls-19" d="M231,332.42c-4-3.71-12.53-5.94-22.24-5.33-10.77.67-19.66,4.61-22.39,9.44,4,3.71,12.53,5.94,22.24,5.33C219.39,341.19,228.28,337.25,231,332.42Z" transform="translate(-14.23 -8.78)"/><ellipse class="cls-20" cx="173.11" cy="296.18" rx="24.17" ry="28.78" transform="translate(-183.56 266.69) rotate(-56.23)"/><path class="cls-21" d="M186.54,276.08c-11.92-8-26.69-7.25-34.92,1.12-4.55,10.79.43,24.69,12.34,32.65s26.69,7.25,34.92-1.11C203.43,297.94,198.45,284,186.54,276.08Z" transform="translate(-14.23 -8.78)"/><ellipse class="cls-22" cx="208.26" cy="220.38" rx="15.56" ry="18.52" transform="translate(-68.82 362.77) rotate(-76.52)"/><path class="cls-23" d="M204.63,235.51c9,2.15,17.74-1.58,20.84-8.46.33-7.53-5.78-14.81-14.74-17s-17.74,1.58-20.84,8.47C189.56,226.09,195.67,233.37,204.63,235.51Z" transform="translate(-14.23 -8.78)"/><ellipse class="cls-24" cx="244.33" cy="294.14" rx="23.25" ry="19.53" transform="translate(-145.08 211.49) rotate(-39.15)"/><path class="cls-25" d="M232,279c-9,7.31-11.93,18.89-7.43,27.23,7.26,6.07,19.17,5.52,28.14-1.78s11.94-18.89,7.43-27.23C252.89,271.15,241,271.7,232,279Z" transform="translate(-14.23 -8.78)"/><ellipse class="cls-26" cx="144.07" cy="220.07" rx="18.92" ry="8.99" transform="translate(-132.83 197.51) rotate(-53.79)"/><path class="cls-27" d="M136.88,236.17c4.27-.56,9.91-4.6,14.45-10.79,5-6.86,7.12-14.23,5.57-18.32-4.27.55-9.92,4.6-14.45,10.78C137.43,224.7,135.33,232.07,136.88,236.17Z" transform="translate(-14.23 -8.78)"/><ellipse class="cls-28" cx="127.11" cy="313.85" rx="11.4" ry="24" transform="translate(-155.93 99.16) rotate(-30.5)"/><path class="cls-29" d="M142.25,330.31c1.5-5.26-.38-13.87-5.32-22.25-5.47-9.29-13-15.43-18.55-15.68-1.5,5.25.38,13.86,5.32,22.24C129.17,323.91,136.71,330.06,142.25,330.31Z" transform="translate(-14.23 -8.78)"/><path class="cls-30" d="M261.91,199.11c-1.78,3.09-8.5,2.56-15-1.19s-10.33-9.29-8.55-12.38,8.49-2.55,15,1.19S263.69,196,261.91,199.11Z" transform="translate(-14.23 -8.78)"/><path class="cls-31" d="M238.08,188.45c.73,3,4.06,6.72,8.83,9.47,5.29,3.05,10.72,4,13.52,2.54-.73-3-4.06-6.72-8.83-9.47C246.31,188,240.88,187,238.08,188.45Z" transform="translate(-14.23 -8.78)"/><path class="cls-32" d="M218.41,359.66c-.87-3.46,4.33-7.74,11.6-9.57s13.89-.5,14.75,3-4.33,7.74-11.61,9.57S219.27,363.12,218.41,359.66Z" transform="translate(-14.23 -8.78)"/><path class="cls-33" d="M243,350.77c-2.62-1.66-7.59-2-12.94-.68-5.91,1.49-10.46,4.6-11.48,7.57,2.61,1.65,7.59,2,12.93.67C237.38,356.85,241.92,353.74,243,350.77Z" transform="translate(-14.23 -8.78)"/><path class="cls-34" d="M112.2,260.27c3.56-.17,6.75,5.76,7.12,13.25s-2.21,13.72-5.77,13.89-6.75-5.75-7.12-13.25S108.64,260.45,112.2,260.27Z" transform="translate(-14.23 -8.78)"/><path class="cls-35" d="M116.14,286.07c2.13-2.24,3.46-7.05,3.18-12.55-.3-6.09-2.46-11.15-5.18-12.74-2.13,2.25-3.45,7.06-3.18,12.56C111.27,279.43,113.43,284.49,116.14,286.07Z" transform="translate(-14.23 -8.78)"/><path class="cls-36" d="M170.86,355.8c.81-3.47,7.39-4.91,14.7-3.2s12.57,5.9,11.76,9.38-7.39,4.9-14.7,3.19S170.05,359.27,170.86,355.8Z" transform="translate(-14.23 -8.78)"/><path class="cls-37" d="M196.75,359.11c-1.57-2.66-5.83-5.26-11.19-6.51-5.95-1.39-11.41-.7-13.68,1.48,1.57,2.66,5.83,5.25,11.19,6.51C189,362,194.48,361.28,196.75,359.11Z" transform="translate(-14.23 -8.78)"/><ellipse class="cls-38" cx="295.32" cy="250.62" rx="4.95" ry="10.43" transform="translate(-84.19 112.99) rotate(-20.89)"/><path class="cls-39" d="M290,242.47c-1,2.15-.84,6,.67,9.92,1.67,4.37,4.45,7.55,6.81,8.06,1-2.14.84-6-.67-9.91C295.16,246.16,292.38,243,290,242.47Z" transform="translate(-14.23 -8.78)"/><path class="cls-40" d="M270.76,331.67c-2.11-1.74-.85-6.75,2.82-11.19s8.36-6.62,10.46-4.88.85,6.76-2.82,11.19S272.86,333.41,270.76,331.67Z" transform="translate(-14.23 -8.78)"/><path class="cls-41" d="M281.88,315c-2.37.16-5.6,2.2-8.3,5.46-3,3.61-4.38,7.6-3.66,9.9,2.37-.17,5.61-2.21,8.3-5.47C281.21,321.3,282.6,317.32,281.88,315Z" transform="translate(-14.23 -8.78)"/><ellipse class="cls-42" cx="128.44" cy="285.8" rx="3.38" ry="7.11" transform="translate(-96.48 45.1) rotate(-18.05)"/><path class="cls-43" d="M131.77,291.52c.77-1.42.77-4-.12-6.77-1-3-2.77-5.29-4.36-5.72-.77,1.43-.78,4,.12,6.78C128.4,288.84,130.18,291.1,131.77,291.52Z" transform="translate(-14.23 -8.78)"/><path class="cls-44" d="M186.24,224.88c1.76,2.72.52,6.65-2.77,8.79s-7.39,1.66-9.16-1-.52-6.66,2.77-8.79S184.47,222.16,186.24,224.88Z" transform="translate(-14.23 -8.78)"/><path class="cls-45" d="M176.16,234.3a7.3,7.3,0,0,0,7.31-.63c2.68-1.74,4-4.66,3.45-7.16a7.3,7.3,0,0,0-7.31.63C176.93,228.88,175.61,231.81,176.16,234.3Z" transform="translate(-14.23 -8.78)"/><ellipse class="cls-46" cx="232.37" cy="200.46" rx="3.38" ry="7.11" transform="translate(-53.99 333.56) rotate(-68.32)"/><path class="cls-47" d="M225.84,199.36c.6,1.5,2.6,3.18,5.28,4.24,3,1.18,5.84,1.25,7.19.3-.61-1.5-2.61-3.17-5.29-4.24C230.06,198.48,227.18,198.41,225.84,199.36Z" transform="translate(-14.23 -8.78)"/><path class="cls-48" d="M270.3,279.94c-2.33-.69-3.49-3.68-2.6-6.67s3.51-4.86,5.84-4.16,3.49,3.69,2.6,6.68S272.63,280.64,270.3,279.94Z" transform="translate(-14.23 -8.78)"/><path class="cls-48" d="M271.66,269.07a5.9,5.9,0,0,0-4,4.2,5.68,5.68,0,0,0,1.42,6.06,5.9,5.9,0,0,0,4-4.2A5.68,5.68,0,0,0,271.66,269.07Z" transform="translate(-14.23 -8.78)"/><ellipse class="cls-49" cx="146.09" cy="194.82" rx="13.59" ry="6.46" transform="matrix(0.78, -0.62, 0.62, 0.78, -103.8, 124.68)"/><path class="cls-50" d="M138.06,204.61c3.07.42,7.74-1.31,12.05-4.74,4.77-3.8,7.62-8.52,7.32-11.64-3.06-.42-7.74,1.31-12.05,4.74C140.61,196.77,137.76,201.48,138.06,204.61Z" transform="translate(-14.23 -8.78)"/><path class="cls-51" d="M251.54,332.65c.78,1.38-.56,3.62-3,5s-5.05,1.4-5.84,0,.55-3.63,3-5S250.75,331.27,251.54,332.65Z" transform="translate(-14.23 -8.78)"/><path class="cls-52" d="M256.44,324.63c.48.84-.33,2.2-1.82,3.05s-3.07.85-3.55,0,.34-2.21,1.82-3.05S256,323.79,256.44,324.63Z" transform="translate(-14.23 -8.78)"/><path class="cls-53" d="M144.44,311.18c-1.58.79-4-.83-5.41-3.62s-1.26-5.71.32-6.5,4,.82,5.41,3.61S146,310.38,144.44,311.18Z" transform="translate(-14.23 -8.78)"/><path class="cls-54" d="M149.84,317.53c-1,.48-2.42-.5-3.27-2.19s-.77-3.45.19-3.93,2.42.5,3.27,2.19S150.8,317.05,149.84,317.53Z" transform="translate(-14.23 -8.78)"/><path class="cls-55" d="M122.89,276.81c-.87.1-1.72-1.05-1.91-2.58s.37-2.85,1.24-3,1.72,1.05,1.9,2.58S123.75,276.7,122.89,276.81Z" transform="translate(-14.23 -8.78)"/><path class="cls-56" d="M285.53,251.12c-1.26.15-2.5-1.53-2.77-3.76s.54-4.15,1.8-4.3,2.5,1.53,2.77,3.75S286.79,251,285.53,251.12Z" transform="translate(-14.23 -8.78)"/><path class="cls-57" d="M284.06,258.87c-.82.1-1.63-1-1.81-2.46s.36-2.72,1.18-2.82,1.64,1,1.81,2.46S284.89,258.77,284.06,258.87Z" transform="translate(-14.23 -8.78)"/><path class="cls-58" d="M159.62,348.1c-1,1.25-3.57.84-5.76-.91s-3.17-4.17-2.18-5.41,3.57-.84,5.76.91S160.61,346.86,159.62,348.1Z" transform="translate(-14.23 -8.78)"/><path class="cls-59" d="M168.89,349.68c-.6.76-2.17.51-3.51-.55s-1.93-2.54-1.32-3.3,2.17-.5,3.5.56S169.49,348.93,168.89,349.68Z" transform="translate(-14.23 -8.78)"/><path class="cls-60" d="M152.33,336.74c-.61.76-2.18.51-3.51-.55s-1.93-2.54-1.33-3.3,2.18-.5,3.51.56S152.93,336,152.33,336.74Z" transform="translate(-14.23 -8.78)"/><path class="cls-61" d="M163.87,190.69c-.54-1.5,1.17-3.48,3.8-4.43s5.22-.51,5.76,1-1.17,3.47-3.81,4.42S164.41,192.18,163.87,190.69Zm-2.71,7.66c1.61-.58,2.64-1.79,2.31-2.7s-1.89-1.18-3.49-.6-2.65,1.79-2.32,2.7S159.56,198.92,161.16,198.35Zm19.71-7.3c1.61-.58,2.64-1.79,2.32-2.7s-1.9-1.17-3.5-.6-2.64,1.79-2.32,2.7S179.27,191.63,180.87,191.05ZM250,208.55c.45-1.53,3-2.11,5.68-1.32s4.5,2.68,4,4.21-3,2.11-5.68,1.31S249.58,210.07,250,208.55Zm13.48,10.36c1.64.48,3.18.12,3.46-.8s-.83-2.08-2.46-2.56-3.19-.13-3.46.8S261.88,218.42,263.52,218.91Z" transform="translate(-14.23 -8.78)"/><g class="cls-62"><path class="cls-63" d="M366,175.47c-8.71-14.51-40.69-8.16-66-.27l-1,.32c-11,3.46-22.72,7.83-35,13,1.67,1.06,3.32,2.14,4.88,3.32,11.07-4.56,21.67-8.46,31.6-11.6l1-.32c32.37-10.09,54.88-10.8,60.23-1.89s-5.91,28.35-30.12,52C306,255.16,268.38,283,225.86,308.34s-84.91,45.24-119.22,56c-32.37,10.09-54.89,10.8-60.24,1.9s5.91-28.35,30.12-52c7.88-7.71,16.89-15.67,26.8-23.73-.22-1.1-.39-2.21-.53-3.33-.15-.75-.29-1.51-.41-2.27C91.47,293.62,81.61,302.29,73,310.66c-18.91,18.49-39.63,43.58-30.91,58.09s40.69,8.15,66,.27l1-.32c34.53-10.9,76.84-30.8,119.26-56.12,42.86-25.57,80.76-53.63,106.73-79C354,215.07,374.76,190,366,175.47Z" transform="translate(-14.23 -8.78)"/></g><g class="cls-62"><path class="cls-64" d="M392.57,259.63c-1.22-17.08-32.77-25.91-59-30.31l-1.08-.18c-11.4-1.88-23.92-3.28-37.29-4.22,1,1.71,2,3.44,2.88,5.22,12,.92,23.26,2.23,33.6,3.93l1.06.18c33.61,5.63,54.12,15.26,54.87,25.74s-18.19,22.91-50.66,33.26c-34.46,11-80.8,19-130.46,22.51s-96.7,2.17-132.34-3.78C40.51,306.34,20,296.72,19.26,286.24S37.45,263.32,69.92,253c10.57-3.37,22.26-6.46,34.82-9.22.3-1.1.65-2.18,1-3.25.21-.75.43-1.5.67-2.23-13.77,2.94-26.56,6.27-38,9.93C43,256.3,13.05,269.51,14.27,286.59s32.77,25.91,59,30.32l1.08.18c35.92,5.89,82.89,7.19,132.44,3.66,50.05-3.57,96.8-11.64,131.63-22.74C363.8,289.93,393.78,276.71,392.57,259.63Z" transform="translate(-14.23 -8.78)"/></g><path class="cls-65" d="M214,174.62c-10.76-1.39-36.83.55-44.38,13.89s30,7.25,43.13,9.52,29.45,18.13,47.08,7.55S241.42,178.14,214,174.62Z" transform="translate(-14.23 -8.78)"/><path class="cls-66" d="M272.88,72.86l0-.06a.92.92,0,0,0,.09-.23c.09-.28.17-.56.26-.84a.08.08,0,0,0,0,0c0-.16.09-.31.13-.47s0-.33,0-.5c.22-2.61-.06-5.24,0-7.85-.06.23-.09.39-.09.39s.45-9.83-5.26-12.57-5.71,13-5.71,13-.68-4.34-3.2-3.88-.91,10.74,3,15.08c0,0-2.74,16.9-27.4,18-2.44.59-4.92-.54-7-1.69-1-.54-1.95-1.19-3-1.69a2.9,2.9,0,0,1-2.77,1.8,2.52,2.52,0,0,1-.48-.05c-3.4.06-6.74.38-10.13.59s-7.06-.45-10.18.52a2.65,2.65,0,0,1-1.83,0,2.9,2.9,0,0,1-1.06.36c-.64,3.2-3.79,16.24-13.57,21.43-11.19,5.94-18.27,4.34-18.27,4.34s-4.8-6.16-10.51-1.82-6.4,6.39-3.88,11.87a10.1,10.1,0,0,0,3.21,4,2.9,2.9,0,0,1,3-2.36c2.34,0,4.65-.37,7-.41a2.73,2.73,0,0,1,2.17,1.15l.28.06h0a2.94,2.94,0,0,1,1.31.29c5.13,1,18.29,3,24.83-2.07,5.35-4.16,6.57-6.79,6.77-8.12l1,13.83s-16.22,5.48-20.78,14.39S192.24,182,192.24,182s-10.51.22-13.48,5.25-1.6,5.48,5.71,5.71,19.87-2.06,23.07-5-9.26-19.75-7.43-26.38,10.4-8.11,17-9.25,11,13,14.85,20.1,9.17,15.88,9.17,15.88-11.07.55-13.58,8.09,24.06,3.67,28.17-2.95-7.43-10.51-10.28-58c-1.06-17.6-3.88-22.39-3.88-22.39s20.55-8.45,25.35-19.19,2.51-16.67,2.51-16.67A32,32,0,0,0,272.88,72.86Z" transform="translate(-14.23 -8.78)"/><path class="cls-67" d="M198.48,93.25s25.11-1,25.25-1.44a13.43,13.43,0,0,0,1.12-1.43c0-.13,3,1.69,3,1.69s3.8,1.45,4.12,1.45c0,0,13.59-.69,16.93-3,0,0,7.34-4,8-5.58,0,0,4.47-5.2,4.77-7.18l.7-2.46,6.7,1.88a19.7,19.7,0,0,1-.49,11.12,29.12,29.12,0,0,1-4.07,9.12,71,71,0,0,1-14.09,10.93,89.38,89.38,0,0,1-8.94,4.34l-.38.25a74.69,74.69,0,0,1,3,11.62s.85,5.68,1,10c0,0,.56,12.17,1.12,15.87,0,0-34.2-6-44.06-15.38l-.37-3.22-.37-4.67-.12-3-.16-2.41-.24-2.09-.2-2.93-.12-3.66-.17-3.21.29-4.78L200,99.77l-.87-3.52Z" transform="translate(-14.23 -8.78)"/><path class="cls-68" d="M204.86,176.22l-.1-.14c-.51-.81-1.06-1.61-1.53-2.46-.21-.36-.39-.73-.59-1.1-4.77,3.87-10.7,3.81-14.16,3.1a3.46,3.46,0,0,1,.24.57,3.93,3.93,0,0,1,.45,1.25,2,2,0,0,1,.21.54,37.67,37.67,0,0,0,2.39,3.32s-10,.49-13,5.73-1.63,5.73,5.83,6,20.28-2.15,23.54-5.25C209.9,186.1,207.35,181.35,204.86,176.22Z" transform="translate(-14.23 -8.78)"/><path class="cls-67" d="M204.86,176.22l-.1-.14c-.51-.81-1.06-1.61-1.53-2.46-.21-.36-.39-.73-.59-1.1-4.42,3.58-9.84,3.79-13.36,3.25a4.2,4.2,0,0,0-.58.36s0,0,0,.05a4,4,0,0,1,.45,1.26,2,2,0,0,1,.21.54l.16.24c3.89,1.42,12.71-.49,10.9.89-1.33,1-6.41.83-9.9.57.74,1,1.23,1.62,1.23,1.62a25.26,25.26,0,0,0-2.52.29c1.95.5,4.91,1.38,4.85,2.11-.08,1.08-4.33,5.16-10.58,4.16-2.75-.44-3.25-1.65-3-2.87a7.49,7.49,0,0,0-1.77,2c-3,5.25-1.63,5.73,5.83,6s20.28-2.15,23.54-5.25C209.9,186.1,207.35,181.35,204.86,176.22Z" transform="translate(-14.23 -8.78)"/><path class="cls-67" d="M184.62,193c-6.51-.21-8.4-.6-6.77-4.18,1,1.32,4,2.55,11.7,2a33.31,33.31,0,0,0,18.68-7.1c.62,1.85.74,3.3-.07,4.07C204.9,190.85,192.08,193.24,184.62,193Z" transform="translate(-14.23 -8.78)"/><path class="cls-69" d="M195.45,183.82c-.08,0-.4-.4-.8-.74a21.5,21.5,0,0,0-1.69-1.2c-.46-.26-1-.42-1-.51a1.8,1.8,0,0,1,1.13.1,4.8,4.8,0,0,1,1.06.47,4.71,4.71,0,0,1,.79.84C195.33,183.25,195.52,183.79,195.45,183.82Zm-.06-3.08a5.67,5.67,0,0,0-1.32-.34,6,6,0,0,0-1.37.14,2.36,2.36,0,0,0-1.22.56c0,.09.66-.09,1.29-.12a7.45,7.45,0,0,1,1.25,0,6.91,6.91,0,0,1,1.24.15,9.67,9.67,0,0,0,1.26.32C196.57,181.42,196,181,195.39,180.74Z" transform="translate(-14.23 -8.78)"/><path class="cls-70" d="M184.62,193c7.46.24,20.28-2.15,23.54-5.25.81-.77.69-2.22.07-4.07a33.31,33.31,0,0,1-18.68,7.1c-7.74.59-10.66-.64-11.7-2-.08.18-.15.35-.21.52,1.45,1.21,3.77,2.15,11.57,1.93,9.78-.27,14.76-3.44,12.5-1.69s-8.61,3-16.76,2.69c-4.61-.16-6.7-.86-7.64-1.44C177.35,192.56,179.62,192.84,184.62,193Z" transform="translate(-14.23 -8.78)"/><g class="cls-71"><path class="cls-72" d="M187.51,183.23a15.5,15.5,0,0,1-1.9.87,20,20,0,0,0-1.83.94,13.66,13.66,0,0,0-1.75,1.05c-.83.6-1.52,1.38-1.59,1.33a4.68,4.68,0,0,1,1.31-1.67,11.28,11.28,0,0,1,1.73-1.26,15.56,15.56,0,0,1,2-.8A6.85,6.85,0,0,1,187.51,183.23Z" transform="translate(-14.23 -8.78)"/><path class="cls-73" d="M190.55,182.26c0,.16-.85.57-.85.57s-1,.14-1,0,.85-.57.85-.57S190.5,182.09,190.55,182.26Z" transform="translate(-14.23 -8.78)"/></g><path class="cls-68" d="M232.47,200.91c7.67.48,20.93-2,24.38-5.6,2.31-2.4-2.21-10.79-4.83-18.51a16,16,0,0,1-15.7,3.47,48.51,48.51,0,0,0,3.86,7s-10.26.32-13.53,6.46S224.8,200.44,232.47,200.91Z" transform="translate(-14.23 -8.78)"/><path class="cls-67" d="M256.85,195.31c2.31-2.4-2.21-10.79-4.83-18.51a15.83,15.83,0,0,1-14.24,3.84,4.68,4.68,0,0,0-.95.7q.6,1.22,1.14,2.22c4,1.78,13.1-.26,11.19,1.33-1.4,1.16-6.62.82-10.2.42.73,1.25,1.22,1.94,1.22,1.94a21.83,21.83,0,0,0-2.6.28c2,.64,5,1.76,4.93,2.62-.12,1.28-4.61,6-11,4.66-2.82-.59-3.31-2-3-3.48a9,9,0,0,0-1.88,2.38c-3.27,6.13-1.85,6.73,5.82,7.2S253.4,198.89,256.85,195.31Z" transform="translate(-14.23 -8.78)"/><path class="cls-67" d="M232.47,200.91c-6.69-.41-8.62-.92-6.84-5.11,1,1.58,4,3.12,12,2.61A31.89,31.89,0,0,0,257,190.49c.58,2.2.67,3.92-.19,4.82C253.4,198.89,240.14,201.39,232.47,200.91Z" transform="translate(-14.23 -8.78)"/><path class="cls-69" d="M243.89,190.33c-.09,0-.4-.48-.8-.9a6.7,6.7,0,0,0-.83-.76,5.89,5.89,0,0,0-.87-.7c-.47-.32-1-.52-1-.62s.6-.08,1.16.14a4.33,4.33,0,0,1,1.07.59,5,5,0,0,1,.8,1A2.38,2.38,0,0,1,243.89,190.33Zm0-3.64a3.51,3.51,0,0,0-2.76-.31c-.7.16-1.31.54-1.28.64a9.89,9.89,0,0,0,1.34-.12,6.25,6.25,0,0,1,1.28.09,5.93,5.93,0,0,1,1.27.2c.64.16,1.24.49,1.29.41S244.57,187,243.92,186.69Z" transform="translate(-14.23 -8.78)"/><path class="cls-70" d="M232.47,200.48c7.67.47,20.93-2,24.38-5.61.86-.89.77-2.62.19-4.82A31.89,31.89,0,0,1,237.61,198c-8,.51-11-1-12-2.61-.09.21-.16.41-.24.61,1.46,1.47,3.83,2.64,11.86,2.58,10.07-.07,15.29-3.69,12.91-1.68s-8.94,3.28-17.32,2.75c-4.75-.3-6.87-1.19-7.83-1.9C225,199.78,227.33,200.16,232.47,200.48Z" transform="translate(-14.23 -8.78)"/><g class="cls-71"><path class="cls-74" d="M235.73,189.43a13.15,13.15,0,0,1-2,1,18.63,18.63,0,0,0-1.91,1.07,12.63,12.63,0,0,0-1.83,1.2c-.87.68-1.6,1.59-1.67,1.53a5.51,5.51,0,0,1,1.4-2,11.54,11.54,0,0,1,1.81-1.44,14.23,14.23,0,0,1,2-.9A6,6,0,0,1,235.73,189.43Z" transform="translate(-14.23 -8.78)"/><path class="cls-75" d="M238.89,188.35c.05.2-.89.66-.89.66s-1,.14-1.06-.06.89-.65.89-.65S238.85,188.16,238.89,188.35Z" transform="translate(-14.23 -8.78)"/></g><path class="cls-76" d="M177.45,117.27c-6.91,2.18-11,1.26-11,1.26s-4.8-6.16-10.51-1.82-6.4,6.39-3.88,11.87a9.4,9.4,0,0,0,5,5,19.93,19.93,0,0,0,2.9,0,3,3,0,0,1,1.14-.22l.2,0,1-.24,1.54-.32.33-.1.12,0h0a11.11,11.11,0,0,1,1.11-.87,4.08,4.08,0,0,1,.69-.26l.18-.1c.22-.18.44-.35.65-.55l.79.18h0a2.94,2.94,0,0,1,1.31.29,66.23,66.23,0,0,0,8.74,1.16,35.73,35.73,0,0,0,1.41-6.53A16.31,16.31,0,0,0,177.45,117.27Z" transform="translate(-14.23 -8.78)"/><path class="cls-77" d="M272.88,72.86l0-.06a.92.92,0,0,0,.09-.23c.09-.28.17-.56.26-.84a.08.08,0,0,0,0,0c0-.16.09-.31.13-.47s0-.33,0-.5c.22-2.61-.06-5.24,0-7.85-.06.23-.09.39-.09.39s.45-9.83-5.26-12.57-5.71,13-5.71,13-.68-4.34-3.2-3.88-.91,10.74,3,15.08a20.53,20.53,0,0,1-7.79,11.74c.64,1.42,2.3,4,6.45,6.11a10.51,10.51,0,0,0,6.25.83c4.64-10.56,2.4-16.4,2.4-16.4A32,32,0,0,0,272.88,72.86Z" transform="translate(-14.23 -8.78)"/><path class="cls-78" d="M250.92,172.48A19.65,19.65,0,0,1,235,177.77c.19.35.39.69.58,1,.52,0,1.07.07,1.68.07a21.21,21.21,0,0,0,14-5.35Z" transform="translate(-14.23 -8.78)"/><path class="cls-79" d="M224.88,158.1c.19.31.38.63.56,1,2.91-4.24,10.23-13,20.95-12.13,0-.33-.07-.67-.1-1C235.49,145.18,228.05,153.6,224.88,158.1Z" transform="translate(-14.23 -8.78)"/><path class="cls-80" d="M199.94,162.68c-9.68,4.62-14.88,3.24-17.07,2l.6,1.42a12.72,12.72,0,0,0,4.59.78c2.91,0,6.8-.76,11.9-3.14A6.92,6.92,0,0,1,199.94,162.68Z" transform="translate(-14.23 -8.78)"/><path class="cls-81" d="M194.13,138.21c-.41.2-.82.41-1.23.64,3.45,1.26,9.06,5,13.49,16.26.3-.14.61-.27.92-.39C203.07,144,197.8,139.81,194.13,138.21Z" transform="translate(-14.23 -8.78)"/><g class="cls-82"><path class="cls-83" d="M183.59,114.75c1.18,1.27,2.77,3.84,3.25,8.73a31.33,31.33,0,0,1-.26,8.66l1.06-.2a33,33,0,0,0,.19-8.56c-.47-4.88-2-7.62-3.31-9.1Z" transform="translate(-14.23 -8.78)"/></g><path class="cls-84" d="M178.47,117.27c-.57.18-1.12.33-1.65.48,1.62,3.74,2.18,10.66-2.2,9.57-2.71-.68-4-5-4.68-8.6a12.09,12.09,0,0,1-2.49-.19l0,0a6,6,0,0,1-.15,2.88c-1.05,3.38-3.73,1.63-3.73,1.63s.58,3.85-2.45,4.2-3.74-5.71-3.74-5.71c-3,7.46,5,9,4.2,11-.44,1.08-3,.71-5.31.14a7.77,7.77,0,0,0,2.75,1.28c1.1-.22,2.17-.51,3.26-.75.78-.18,1.59-.32,2.37-.55a5.79,5.79,0,0,1,3.08-1.52l.21-.18a66,66,0,0,0,10.87,1.63,35.74,35.74,0,0,0,1.4-6.53A16.22,16.22,0,0,0,178.47,117.27Z" transform="translate(-14.23 -8.78)"/><path class="cls-85" d="M167,128.07c-.05-.07-.47.12-.91.16a9.35,9.35,0,0,1-1.73-.1c-.44-.1-.84-.34-.9-.28s.27.46.74.69a3,3,0,0,0,1,.31,3.13,3.13,0,0,0,1-.19C166.68,128.49,167.06,128.13,167,128.07Z" transform="translate(-14.23 -8.78)"/><path class="cls-86" d="M163.46,125.1a1.89,1.89,0,0,0-.09-.39c0-.07-.11-.26,0-.18a1,1,0,0,0,.77,0,1,1,0,0,0,.43-.27c.17-.19.16-.27.16-.27s0,.06-.21.21a1.09,1.09,0,0,1-1.37.06c-.13-.06.11.57.08.86a3.66,3.66,0,0,1-.14,1.22,3.07,3.07,0,0,1-2,2.13,2.81,2.81,0,0,1-1.46.08,3.07,3.07,0,0,1-1.12-.53,4.49,4.49,0,0,1-.86-.87s-.11-.13-.28-.37a5.93,5.93,0,0,1-.6-1.06,6.23,6.23,0,0,1,1.32-7,15.46,15.46,0,0,1,1.35-1.12s-.18,0-.46.19a5.75,5.75,0,0,0-1.06.75,6.6,6.6,0,0,0-2,3.39,6.72,6.72,0,0,0,.33,4l.09.2a4.54,4.54,0,0,1-1.49.12,4.31,4.31,0,0,1-1.3-.34,6.84,6.84,0,0,1-1-.61,4,4,0,0,1-.91-1,8,8,0,0,1-.78-1.86,3,3,0,0,0,.39,2.09,4.58,4.58,0,0,0,.93,1.2,3.45,3.45,0,0,0,.56.42,3.5,3.5,0,0,0,.64.29,4.39,4.39,0,0,0,1.49.24,4,4,0,0,0,1.61-.36,6.49,6.49,0,0,0,.43.78,4.19,4.19,0,0,0,.3.42,4.41,4.41,0,0,0,1,1,3.45,3.45,0,0,0,1.31.59s0,.07,0,.07.07,0,.15,0a3.22,3.22,0,0,0,1.27-.06,1.69,1.69,0,0,1,.69.53,1.06,1.06,0,0,1,.29.68,1.56,1.56,0,0,1-.25.62,4.72,4.72,0,0,1-.44.6,3.71,3.71,0,0,1-.52.53,3.94,3.94,0,0,1-1.42.82,6.29,6.29,0,0,1-2.46.14,3.44,3.44,0,0,0,2.58.28,4.33,4.33,0,0,0,1.67-.79,4.12,4.12,0,0,0,.62-.58,4,4,0,0,0,.47-.71,2,2,0,0,0,.27-.91,1.48,1.48,0,0,0-.48-1,1.78,1.78,0,0,0-.52-.39,3.43,3.43,0,0,0,1.34-1,3.65,3.65,0,0,0,.71-1.49A3.84,3.84,0,0,0,163.46,125.1Z" transform="translate(-14.23 -8.78)"/><path class="cls-87" d="M270.06,60.05c0,.58,0,1.36-.06,2.12a10.33,10.33,0,0,1-.35,2.08,7.12,7.12,0,0,0-.3.92,2.25,2.25,0,0,0,.53-.84,8.48,8.48,0,0,0,.56-2.11c.11-.78.16-1.57.2-2.15l.05-1a20.38,20.38,0,0,0-.18-3.15,7.12,7.12,0,0,0-1-3,24.63,24.63,0,0,1,.53,3,24.78,24.78,0,0,1,0,3.08Z" transform="translate(-14.23 -8.78)"/><path class="cls-88" d="M167.48,121.65s.19.66.32,1.34a5.83,5.83,0,0,0,.31,1.39,3.5,3.5,0,0,0,.13-1.44,10.74,10.74,0,0,0-.15-1.43,11.1,11.1,0,0,0-.48-1.36c-.29-.66-.67-1.27-.75-1.23a6.07,6.07,0,0,0,.33,1.37C167.36,121,167.48,121.65,167.48,121.65Z" transform="translate(-14.23 -8.78)"/><path class="cls-89" d="M159.05,129a11.22,11.22,0,0,1-1.55,1,4.47,4.47,0,0,1-1.73.38,4.33,4.33,0,0,1-1.76-.24,10.64,10.64,0,0,1-1.63-.89,3,3,0,0,0,1.46,1.3,4.51,4.51,0,0,0,1.32.41,5.35,5.35,0,0,0,.63.05,5.49,5.49,0,0,0,.64-.1,4.42,4.42,0,0,0,1.28-.52A2.88,2.88,0,0,0,159.05,129Z" transform="translate(-14.23 -8.78)"/><path class="cls-90" d="M267,54.85a8.45,8.45,0,0,0-1.36-2.65c-.08,0,.57,1.37.94,2.78a17.7,17.7,0,0,1,.49,2.86,16.78,16.78,0,0,1,.11,2.91c-.06,1.46-.42,2.89-.34,2.92a8.8,8.8,0,0,0,.79-2.88,15.78,15.78,0,0,0,.07-3A15.72,15.72,0,0,0,267,54.85Z" transform="translate(-14.23 -8.78)"/><path class="cls-91" d="M266.9,66.65a3.33,3.33,0,0,0-.47-.64,5.36,5.36,0,0,0-1.35-1l-1.42-.74c-.38-.21-.62-.37-.65-.33s.17.25.52.53.85.59,1.32.92a5.63,5.63,0,0,1,1.15,1,2.72,2.72,0,0,1,.35.56,2.48,2.48,0,0,1,.27.6,4.61,4.61,0,0,1,.22,1.5c0,1.13-.27,2.28-.18,2.3a5.94,5.94,0,0,0,.62-2.28,4.79,4.79,0,0,0-.1-1.68A3.31,3.31,0,0,0,266.9,66.65Z" transform="translate(-14.23 -8.78)"/><path class="cls-92" d="M271,74.79a6.08,6.08,0,0,1-.84.72,5.47,5.47,0,0,1-.9.64c-.49.28-1,.44-1,.52s.62.09,1.21-.11a4.9,4.9,0,0,0,1.1-.56,5,5,0,0,0,.81-.94c.33-.53.48-1.13.4-1.15S271.4,74.38,271,74.79Z" transform="translate(-14.23 -8.78)"/><path class="cls-93" d="M168.55,128.37a5.42,5.42,0,0,1-.53.86,5.34,5.34,0,0,1-.56.85c-.31.4-.72.75-.68.82s.56-.15,1-.51a4.5,4.5,0,0,0,.77-.82,5,5,0,0,0,.42-1c.14-.55.12-1.11,0-1.11S168.78,127.91,168.55,128.37Z" transform="translate(-14.23 -8.78)"/><path class="cls-94" d="M168.76,120.89a9.9,9.9,0,0,0-.8-1.21c-.44-.57-1-1.07-1-1a7,7,0,0,0,.66,1.25c.34.62.61,1.25.61,1.25s.35.6.64,1.23a6.26,6.26,0,0,0,.62,1.28,3.51,3.51,0,0,0-.2-1.43A11.18,11.18,0,0,0,168.76,120.89Z" transform="translate(-14.23 -8.78)"/><path class="cls-95" d="M264.43,75.5a7.87,7.87,0,0,1-.82-.25c-.41-.15-.81-.35-.86-.29s.26.42.65.68a5,5,0,0,0,.83.45,4.77,4.77,0,0,0,.94.13c.48,0,.94-.08.93-.16s-.45-.16-.86-.28S264.43,75.5,264.43,75.5Z" transform="translate(-14.23 -8.78)"/><path class="cls-96" d="M272.86,72.9a.31.31,0,0,1,.05-.1.92.92,0,0,0,.09-.23c.09-.28.17-.56.26-.84l0,0c0-.1,0-.19.07-.29-1.76,0-2.84-.59-1.72-2a13.42,13.42,0,0,0,1.8-4.28c0-.75,0-1.5,0-2.25-.06.23-.09.39-.09.39a23.06,23.06,0,0,0-.41-4.86c-.64,3.11-3.05,5.46-6.14,4.61-2-.55-3.07-3.95-3.65-7.08a44,44,0,0,0-.77,7.78s-.4-2.53-1.71-3.52a14.76,14.76,0,0,0,3.07,5.39c2.48,2.29,3.25,6,.1,7-1.6.48-3.59-2.14-5.17-4.83a18.15,18.15,0,0,0,3.48,7.19,9.29,9.29,0,0,1-.24,1,10.11,10.11,0,0,0,2.31.66c4.39.66,4.1,7.63,1.34,11.54s-10,.48-10,.48h0a15.25,15.25,0,0,0,5.27,4.18,10.51,10.51,0,0,0,6.25.83c4.64-10.56,2.4-16.4,2.4-16.4A31.37,31.37,0,0,0,272.86,72.9Z" transform="translate(-14.23 -8.78)"/><g class="cls-71"><path class="cls-97" d="M158.63,116.86c0,.08-1,.46-1.94,1a11.43,11.43,0,0,0-1.71,1.32,9.13,9.13,0,0,0-1.5,1.53,3.82,3.82,0,0,0-.65,1.29c-.1.39-.08.67-.13.67s-.14-.27-.11-.71a3.64,3.64,0,0,1,.52-1.5,8.29,8.29,0,0,1,1.46-1.75,9.66,9.66,0,0,1,1.91-1.23A5.23,5.23,0,0,1,158.63,116.86Z" transform="translate(-14.23 -8.78)"/><path class="cls-98" d="M159.28,125.57c-.06.07-.62-.41-1-1.06a3.69,3.69,0,0,1-.5-2.85,2.34,2.34,0,0,1,.56-1.33c.08,0-.12.7-.12,1.38a9.67,9.67,0,0,0,.46,2.61C158.93,125,159.34,125.51,159.28,125.57Z" transform="translate(-14.23 -8.78)"/><path class="cls-99" d="M155.58,129.42a1.79,1.79,0,0,1-1.16.07,4.13,4.13,0,0,1-1.12-.41,4.22,4.22,0,0,1-.84-.83c-.36-.48-.52-1-.44-1.07s.38.43.77.78a4.72,4.72,0,0,0,.85.59,4.53,4.53,0,0,0,.9.51C155,129.27,155.57,129.33,155.58,129.42Z" transform="translate(-14.23 -8.78)"/><path class="cls-100" d="M176.07,119.45a3.48,3.48,0,0,1-1.41.63,9.75,9.75,0,0,1-1.53.3,10.56,10.56,0,0,1-1.55-.11,3.57,3.57,0,0,1-1.48-.46,7.35,7.35,0,0,1,1.51,0c.75,0,1.48-.08,1.48-.08a12.63,12.63,0,0,0,1.48-.1A8.8,8.8,0,0,1,176.07,119.45Z" transform="translate(-14.23 -8.78)"/><path class="cls-101" d="M261.77,78.55a6.72,6.72,0,0,1-.47,2.27,15.49,15.49,0,0,1-.91,2.15A15.7,15.7,0,0,1,259,84.86a7.07,7.07,0,0,1-1.69,1.59,22.47,22.47,0,0,1,1.34-1.86,20.92,20.92,0,0,0,1.16-1.93,20.28,20.28,0,0,0,1-2C261.36,79.63,261.68,78.53,261.77,78.55Z" transform="translate(-14.23 -8.78)"/><path class="cls-102" d="M262.38,71.9a11.17,11.17,0,0,1-1.71-2,14.08,14.08,0,0,1-1.37-2.28,8.78,8.78,0,0,1-.62-2.61,4.45,4.45,0,0,1,.47-2.6,10.81,10.81,0,0,0,0,2.55,8.92,8.92,0,0,0,.75,2.41A16.11,16.11,0,0,0,261,69.66,18.09,18.09,0,0,1,262.38,71.9Z" transform="translate(-14.23 -8.78)"/><path class="cls-103" d="M266.17,59.06a4.06,4.06,0,0,1-.38-1.23c-.17-.61-.33-1.22-.33-1.22l-.22-1.24a4.06,4.06,0,0,1-.17-1.28c.08,0,.37.55.6,1.16s.4,1.23.4,1.23.11.64.15,1.28A3,3,0,0,1,266.17,59.06Z" transform="translate(-14.23 -8.78)"/><path class="cls-104" d="M269.54,58a8.36,8.36,0,0,1-.32-1.53c-.16-.75-.39-1.48-.39-1.48a14.77,14.77,0,0,0-.39-1.47A8.31,8.31,0,0,1,268,52a3.76,3.76,0,0,1,.88,1.32,11.74,11.74,0,0,1,.59,1.48,12.31,12.31,0,0,1,.22,1.59A3.87,3.87,0,0,1,269.54,58Z" transform="translate(-14.23 -8.78)"/></g><path class="cls-105" d="M176.8,190.07l-15.18-56.91a3.61,3.61,0,0,1-.42.16,7.12,7.12,0,0,1-1.53.19l-.22,0a3,3,0,0,1-1,.17L173.76,191a1.56,1.56,0,0,0,2,1.15A1.67,1.67,0,0,0,176.8,190.07Z" transform="translate(-14.23 -8.78)"/><path class="cls-105" d="M157.5,119.06a.89.89,0,0,1,.31-.35L138.56,48.24a1.59,1.59,0,0,0-1.95-1.13,1.64,1.64,0,0,0-1.1,2l20.43,74.77A12.89,12.89,0,0,1,157.5,119.06Z" transform="translate(-14.23 -8.78)"/><path class="cls-106" d="M156.66,120.9,136.55,47.26a.22.22,0,0,1,0-.11,1.63,1.63,0,0,0-1,2l20.43,74.77A10.81,10.81,0,0,1,156.66,120.9Z" transform="translate(-14.23 -8.78)"/><path class="cls-106" d="M177.42,190.5l-.08,0a1.72,1.72,0,0,1-.44.06,1.64,1.64,0,0,1-1.57-1.22L160,133.48l-.37,0-.22,0a3.35,3.35,0,0,1-.94.17l15.76,57.62a1.63,1.63,0,0,0,1.57,1.22,1.59,1.59,0,0,0,.43-.06A1.67,1.67,0,0,0,177.42,190.5Z" transform="translate(-14.23 -8.78)"/><path class="cls-107" d="M139.32,50.41S133.67,63.5,109.6,63.5s-45.45-.75-59.95,25.69l13,51.12S74,115.63,94.36,115.38s46.93,4.53,58.72-13.6Z" transform="translate(-14.23 -8.78)"/><path class="cls-108" d="M89.79,64a74.8,74.8,0,0,0-8,1.06l2,52.78a26.18,26.18,0,0,1,8.27-2.29Z" transform="translate(-14.23 -8.78)"/><path class="cls-109" d="M124.18,115.52a66.76,66.76,0,0,0,8.39-1.07l-2.46-55.37a34.56,34.56,0,0,1-8,3Z" transform="translate(-14.23 -8.78)"/><path class="cls-110" d="M63.72,138.28c2-3.71,6.94-11.67,14.49-17.17L76,66.46a40.74,40.74,0,0,0-14.7,8Z" transform="translate(-14.23 -8.78)"/><path class="cls-111" d="M55.7,83.72s8.2-16,29.34-17.24c0,0-9,2.52-11.9,8s9,37.23,9,37.23L99,113.59s-21.54-2.31-30.78,15.14A30.86,30.86,0,0,1,77.65,113S72.52,80.78,66,80.15A12.54,12.54,0,0,0,55.7,83.72Z" transform="translate(-14.23 -8.78)"/><path class="cls-112" d="M120.05,63.9s11.86-.65,17.78-8l12.7,44.7s-6.77,9.76-15.87,10.41c0,0,10.16-3,10.37-11.5s-5.29-32.54-9.53-34.93S133.18,65.42,120.05,63.9Z" transform="translate(-14.23 -8.78)"/></g><path class="cls-113" d="M182.16,53.89a33.37,33.37,0,0,1,.73-11.22,33.84,33.84,0,0,1,4.62-10.16A24.79,24.79,0,0,1,195,25a25.73,25.73,0,0,1,8.79-3.42c1.25-.25,2.53-.25,3.77-.54h4.8c.44.19.93,0,1.38.13a35.17,35.17,0,0,1,14.58,4.43A27.47,27.47,0,0,1,240,37.92a21,21,0,0,1,.58,17.36,37.94,37.94,0,0,1-7.1,11.17,63.47,63.47,0,0,1-13.33,11.24c-1.6,1-3.25,2-4.94,2.89a.63.63,0,0,0-.37.8,37.35,37.35,0,0,1,.51,8.18c-.17.21-.33.42-.65.26a1.85,1.85,0,0,1-.13-1,36.29,36.29,0,0,0-.28-6.42,5,5,0,0,0-.07-.54c-.06-.32-.23-.41-.54-.27A6.23,6.23,0,0,0,213,82a1.31,1.31,0,0,1-1,.22c-.25,0-.53-.12-.56-.42s.26-.33.48-.4a1.16,1.16,0,0,1,.32,0c.16,0,.36.12.45,0,.4-.71,1.17-.84,1.8-1.17a74.19,74.19,0,0,0,8-4.92c1.81-1.24,3.49-2.64,5.17-4a41.37,41.37,0,0,0,4.56-4.42c1.11-1.27,2.23-2.54,3.24-3.89a29.22,29.22,0,0,0,5.74-12.36,19.73,19.73,0,0,0-.08-6.81A22.86,22.86,0,0,0,237,34.23a20.26,20.26,0,0,0-3.62-4,27.86,27.86,0,0,0-5-3.79,2.14,2.14,0,0,0-.44-.18A33.44,33.44,0,0,0,217.8,22.5a34.24,34.24,0,0,0-6-.69,38.57,38.57,0,0,0-7.44.41A23.12,23.12,0,0,0,191.21,29a31.1,31.1,0,0,0-5.79,8.83c-.53,1.16-1,2.36-1.44,3.55a3.81,3.81,0,0,0-.31,1.6,12.81,12.81,0,0,1-.53,2.38c-.06,0-.16,0-.17.05a51.34,51.34,0,0,0,.43,12.81,54.54,54.54,0,0,0,4.83,14.94A27.77,27.77,0,0,0,194,81.25a9.4,9.4,0,0,0,6.73,3.09,8.35,8.35,0,0,0,3.67-.49c.16-.07.25,0,.34.15a.7.7,0,0,1,.08.2.42.42,0,0,1-.25.45,11.4,11.4,0,0,1-7.32-.29,14,14,0,0,1-4.89-3.75,39.35,39.35,0,0,1-7.27-13.28,55.15,55.15,0,0,1-2.65-11.2c-.1-.75-.18-1.49-.24-2.24" transform="translate(-14.23 -8.78)"/><path class="cls-114" d="M213.72,21.2a2.59,2.59,0,0,1-1.38-.13h1.37A.53.53,0,0,0,213.72,21.2Z" transform="translate(-14.23 -8.78)"/><path class="cls-115" d="M207.49,86.84c.17,0,.33-.54.5,0a5,5,0,0,1,.1,3l-.47-.26C207.57,88.68,207.53,87.76,207.49,86.84Z" transform="translate(-14.23 -8.78)"/><path class="cls-116" d="M204.69,84.22a.69.69,0,0,0,.95-.21c.15-.2.43-.31.62-.48a.56.56,0,0,1,.84,0c.38.31-.09.42-.16.62a10.93,10.93,0,0,1-2.41.54Z" transform="translate(-14.23 -8.78)"/><path class="cls-115" d="M207.24,84.94c.07-.19,0-.52.31-.5s.11.3.15.46a2.45,2.45,0,0,1,.11.59c0,.17.06.41-.15.48s-.22-.26-.37-.35S207.26,85.17,207.24,84.94Z" transform="translate(-14.23 -8.78)"/><path class="cls-66" d="M205.36,90.12l0,1.12a5.08,5.08,0,0,1-.78,0,1.27,1.27,0,0,1,.22-1A.75.75,0,0,1,205.36,90.12Z" transform="translate(-14.23 -8.78)"/><path class="cls-66" d="M217.69,91.78l0-2,.57.06c0,.18,0,.35,0,.53-.22.26-.05.56-.09.83S218.2,91.91,217.69,91.78Z" transform="translate(-14.23 -8.78)"/><path class="cls-117" d="M193,59.83c.34.16.68.3,1,.43.77.27.76.25,1.16-.47a28.56,28.56,0,0,0,3.2-8.85,12.94,12.94,0,0,0-.78-7.77,8.41,8.41,0,0,0-7-5.11c-2.52-.31-6.86,3.72-6.77,3.22.54-.85.94-1.78,1.43-2.65a36.68,36.68,0,0,1,6.8-8.86,25.66,25.66,0,0,1,6.16-4.4,22.13,22.13,0,0,1,5-1.77c1.12-.26,2.26-.5,3.41-.67a30,30,0,0,1,6.62-.14A51.92,51.92,0,0,1,221,24c2.08.5,4.14,1,6.17,1.71.32.11.58.38,1,.34a19.2,19.2,0,0,1,3.28,2.13A9.3,9.3,0,0,1,233.44,30a16.64,16.64,0,0,1,1.73,3.85,28.06,28.06,0,0,1,1.12,4.86,32.25,32.25,0,0,1,.13,7.15,34.29,34.29,0,0,1-1.37,6.68,35.73,35.73,0,0,1-2.15,5.1c-.55,1.1-1.25,2.11-1.77,3.23a7,7,0,0,1-1,1.32,76.75,76.75,0,0,1-7.41,8.4A64.28,64.28,0,0,1,216,76.41c-.78.55-1.6,1-2.33,1.67a2.46,2.46,0,0,1-.68.31,2.19,2.19,0,0,0-1.1.87c-.14.22-1.54,1.09-1.11.6a17.43,17.43,0,0,1,2-3.75c.11-.18-1.25,4-2,3-.16-.21.11.64,0,.77-.49.5-1.08-1.07-.28-.27,0,0,0,.13,0,.2a.66.66,0,0,1-.48.33,3.66,3.66,0,0,1-1.47.49c-.39.38-1.06.63-1.47,1-3.32,1.36-6.71,2.09-10.28,1.11a7.71,7.71,0,0,1-2.94-1.41,22.85,22.85,0,0,1-4.29-5.44,48.39,48.39,0,0,1-4.88-11.45,55.72,55.72,0,0,1-1.83-9,54.92,54.92,0,0,1-.22-7.9c0-.86.59-1.08.68-.48a15.78,15.78,0,0,0,5,9.49l.52.48A16.36,16.36,0,0,0,193,59.83" transform="translate(-14.23 -8.78)"/><path class="cls-118" d="M198.47,44.48c-1.55-3.69-5-11.15-2.43-15.17a21.18,21.18,0,0,0-13.85,20.06,21.49,21.49,0,0,0,7.28,16.21,4.76,4.76,0,0,1,5.86-1.17c1,.48,2.57.34,4.13.07.46-4.42,1.06-9,1.92-13.46C200.65,48.77,199.41,46.71,198.47,44.48Z" transform="translate(-14.23 -8.78)"/><path class="cls-119" d="M212.52,78.4a11.12,11.12,0,0,0,2.33-1.49A68.91,68.91,0,0,0,229,63.05c.46-.61,1-1.17,1.44-1.8s.83-1.41,1.23-2.13a36,36,0,0,0,2.27-4.68,28.2,28.2,0,0,0,1.5-5.08c.3-1.55.43-3.14.59-4.72a27,27,0,0,0-.48-7.24,18.94,18.94,0,0,0-1.64-5.3c-.32-.62-.52-1.29-.78-1.94A6.84,6.84,0,0,1,235,32a27.25,27.25,0,0,1,4,5.78,21.64,21.64,0,0,1,2.2,7.46,23.81,23.81,0,0,1,0,4.7,20.89,20.89,0,0,1-1.68,6A33.35,33.35,0,0,1,235,63.51a52.28,52.28,0,0,1-6.18,6.7c-1.72,1.56-3.51,3-5.35,4.43a35.28,35.28,0,0,1-4,2.71c-1.1.62-2.15,1.34-3.25,2-.94.55-1.91,1-2.88,1.53-.3.15-.64.17-.73.6,0,.11-.31.57-.6.11a.65.65,0,0,0-.17-.9c-.46-.36-.34-.71,0-1.07A1.54,1.54,0,0,0,212.52,78.4Z" transform="translate(-14.23 -8.78)"/><path class="cls-120" d="M228.09,26.15a2.7,2.7,0,0,1-1.46-.31,20.8,20.8,0,0,0-3.69-1.11c-2.09-.5-4.2-.94-6.34-1.25a47.23,47.23,0,0,0-7.41-.49,27.07,27.07,0,0,0-4.67.55,26,26,0,0,0-6.11,2,19.7,19.7,0,0,0-3.83,2.35,31.44,31.44,0,0,0-4.16,3.83,34.79,34.79,0,0,0-5.13,7.3c-.39.76-.89,1.46-1.26,2.24-.06.11-.11.2-.25.1a46.13,46.13,0,0,1,3.1-6.83,24.39,24.39,0,0,1,11-10.5,26.12,26.12,0,0,1,8.55-2.24,39.08,39.08,0,0,1,11.37.53A32.42,32.42,0,0,1,228.09,26.15Z" transform="translate(-14.23 -8.78)"/><path class="cls-121" d="M210,80.12l.41-.26a2.32,2.32,0,0,1,1.66,1.63l-.54.26a1,1,0,0,0,1.28.15c.2-.11.37-.26.57-.37,1-.55,1-.52,1.16.63a56.34,56.34,0,0,1,.27,7.68,3.13,3.13,0,0,1-1.61,2.21,3.39,3.39,0,0,1-4-.24c.13-.18.33-.15.5-.15a2.51,2.51,0,0,0,2.6-1.91,4.44,4.44,0,0,0-.41-4.23,2.34,2.34,0,0,0-1.23-.93c-.33-.1-.58-.24-.54-.66a.42.42,0,0,0-.21-.4.33.33,0,0,0-.38-.08c-.17.11,0,.24,0,.35s.2.29.06.44a.36.36,0,0,1-.54,0c-.48-.23-.85-.79-1.51-.48-.08,0-.22-.15-.1-.36.27-.5.05-.89-.52-.94a1.35,1.35,0,0,0-1.15.33,8.31,8.31,0,0,0-1.13,1.31c-.28-.38-.33.12-.53.15-2.54.42-5.08.58-7.43-.74a8.42,8.42,0,0,1-2.84-2.16,14.83,14.83,0,0,0,4.53,1.55,15.19,15.19,0,0,0,4.26-.11,30.31,30.31,0,0,0,4.49-1.29,2,2,0,0,1,1,.81.79.79,0,0,0,1.18.22,3.83,3.83,0,0,1,2-.63C210.31,81.53,210.24,80.78,210,80.12Z" transform="translate(-14.23 -8.78)"/><path class="cls-122" d="M209.05,84.25c.42,0,.67,0,.25-.48-.1-.1-.3-.26-.17-.39s.43-.31.62-.18.76.32.53.85c-.11.23,0,.28.19.32a2.88,2.88,0,0,1,2.2,2.51,5.29,5.29,0,0,1-.5,3.56,2.82,2.82,0,0,1-3,1.37,2,2,0,0,1-1.1-1.94c.11-1-.22-2-.12-3a2.72,2.72,0,0,1,.64-1A1.51,1.51,0,0,0,209.05,84.25Z" transform="translate(-14.23 -8.78)"/><path class="cls-123" d="M193,64.8c-.24.09-.42.14-.31.52a12.87,12.87,0,0,0,2.56,4.9A8.67,8.67,0,0,0,200.52,73a10.54,10.54,0,0,0,4.26-.16,19.69,19.69,0,0,0,7.07-3c.71-.49,1.42-1,2.1-1.5.32-.24.8-.48.27-1-.06-.06.1-.11.18-.13.89.38.8,1.16.8,1.93-.06,0-.12,0-.13-.07-.13-.65-.38-.56-.88-.26a12.13,12.13,0,0,0-3.63,3.88A23.1,23.1,0,0,1,205.65,78a6.06,6.06,0,0,1-5.05,1.49,4.63,4.63,0,0,1-2.83-2.31,17.42,17.42,0,0,1-2.13-5.43,1.78,1.78,0,0,0-.43-.84A12.46,12.46,0,0,1,192.37,66c-.07-.22,0-.59-.27-.64s-.4.31-.57.51-.08.21-.22.23c.25-1.39,1-1.8,2.48-1.3Z" transform="translate(-14.23 -8.78)"/><path class="cls-124" d="M221.11,38.29c-4.52.21-7.63,2.56-9.81,6.44A8.5,8.5,0,0,1,221.11,38.29Z" transform="translate(-14.23 -8.78)"/><path class="cls-125" d="M199.69,35.6c.13.24.41.37.47.66s.19.67-.27.83a10.87,10.87,0,0,0-5.78-4.18A8.92,8.92,0,0,1,199.69,35.6Z" transform="translate(-14.23 -8.78)"/><path class="cls-126" d="M199.89,37.09a1.67,1.67,0,0,0,.27-.83l.55.71a2.89,2.89,0,0,1,.95,2.2l.33,1.91v1A15.65,15.65,0,0,0,199.89,37.09Z" transform="translate(-14.23 -8.78)"/><path class="cls-127" d="M204.91,63.9A2.31,2.31,0,0,1,202.42,65c-1.32-.19-1.71-1.07-2-2,.46.32.59.85,1.11,1.15a2.43,2.43,0,0,0,1.75.45A5.78,5.78,0,0,0,204.91,63.9Z" transform="translate(-14.23 -8.78)"/><path class="cls-128" d="M202.33,73.69c1.09-.21,2.21-.23,3.3-.48a29.23,29.23,0,0,0,2.78-.93A21.33,21.33,0,0,0,211.1,71,11.55,11.55,0,0,1,210,72.58a27.48,27.48,0,0,1-2.44,3c-.15.16-.3.36-.57.25a1.14,1.14,0,0,1-.87,0,6.81,6.81,0,0,0-3.11,0,3.28,3.28,0,0,1-.88.12c-.55-.17-.57-.61-.44-1A2.82,2.82,0,0,1,202.33,73.69Z" transform="translate(-14.23 -8.78)"/><path class="cls-129" d="M198.8,77.55a8.49,8.49,0,0,1-1.92-3.47c-.2-.52-.37-1.06-.54-1.6,0-.15-.1-.34,0-.46s.28,0,.39.14a15.7,15.7,0,0,0,2.85,1.25.82.82,0,0,1,.34,1c-.19.69.23,1.35.16,2A1.78,1.78,0,0,1,198.8,77.55Z" transform="translate(-14.23 -8.78)"/><path class="cls-130" d="M200.26,78.78a3.32,3.32,0,0,1-1.09-.73c-.13-.24,0-.4.19-.51a8.22,8.22,0,0,1,4.24-1.69c.45,0,.54.33.51.72a2.83,2.83,0,0,1-2.63,2.24C201.07,78.83,200.67,78.78,200.26,78.78Z" transform="translate(-14.23 -8.78)"/><path class="cls-131" d="M200.26,78.78a2.25,2.25,0,0,1,1.2-.15c1.07-.08,2.5-1,2.5-2.15,0-.34-.08-.47-.4-.46,0-.25.21-.29.38-.3a6.17,6.17,0,0,1,2.42.18c.19,0,.39.14.38.41a8.86,8.86,0,0,1-4.3,2.66A2.86,2.86,0,0,1,200.26,78.78Z" transform="translate(-14.23 -8.78)"/><path class="cls-132" d="M200,76.64c0-.81-.6-1.58-.17-2.43.17-.32-.21-.52-.24-.8l2.73.28a2.07,2.07,0,0,1-.39,1,.82.82,0,0,0,.11,1A3,3,0,0,1,200,76.64Z" transform="translate(-14.23 -8.78)"/><path class="cls-133" d="M200,76.64l2-.88a8.31,8.31,0,0,1,5,0,.54.54,0,0,1-.27.53,4.6,4.6,0,0,0-3.18-.29,8.49,8.49,0,0,0-4.28,1.79c-.06,0-.07.16-.11.24-.14-.15-.38-.24-.37-.5Z" transform="translate(-14.23 -8.78)"/><path class="cls-134" d="M209.75,81.26c-.18.4-.44.81-.86.85s-.58-.32-.64-.68.68-.86,1-.82S209.66,81,209.75,81.26Z" transform="translate(-14.23 -8.78)"/><path class="cls-135" d="M196.68,34.71c.34-9,4.55-13.27,4.55-13.27l.91,3c6.28,5.55,15.76-.66,16.17-.92l0,0c-3.58-11.45-16.52-10.81-16.52-10.81C193.76,18.4,196.68,34.71,196.68,34.71Z" transform="translate(-14.23 -8.78)"/><path class="cls-136" d="M201,21.07l.92,3c6.27,5.56,15.75-.65,16.17-.92-.32.15-2.29-3.74-5.95-5.26a32.17,32.17,0,0,0-5.42-1.64A17.16,17.16,0,0,0,201,21.07Z" transform="translate(-14.23 -8.78)"/><path class="cls-137" d="M202.16,56.66c-.69,1-12.27,3.65-18.38-5.43,0,0,1.4-7,5.59-8.92s7.86,0,10.38,4.08C202.17,50.3,202.62,56,202.16,56.66Z" transform="translate(-14.23 -8.78)"/><path class="cls-138" d="M209.85,56.78c.46,1.1,11.21,6.16,19.11-1.42,0,0,.12-7.16-3.58-9.9s-7.68-1.65-11,1.79S209.53,56,209.85,56.78Z" transform="translate(-14.23 -8.78)"/><path class="cls-139" d="M212.58,78a11.12,11.12,0,0,0,2.33-1.49A68.91,68.91,0,0,0,229,62.63c.46-.6,1-1.17,1.43-1.8s.83-1.41,1.24-2.12A37.5,37.5,0,0,0,234,54a28.78,28.78,0,0,0,1.5-5.08c.3-1.55.43-3.14.59-4.71a27.48,27.48,0,0,0-.48-7.25,18.47,18.47,0,0,0-1.65-5.29c-.31-.62-.52-1.3-.77-2a7.14,7.14,0,0,1,2,1.79A26.84,26.84,0,0,1,239,37.31a21.21,21.21,0,0,1,2.2,7.46,23.8,23.8,0,0,1,0,4.7,21,21,0,0,1-1.69,6A33.74,33.74,0,0,1,235,63.1a53,53,0,0,1-6.19,6.7c-1.71,1.55-3.5,3-5.34,4.42a34.86,34.86,0,0,1-4,2.71c-1.1.63-2.16,1.34-3.25,2s-1.92,1-2.89,1.53c-.29.15-.64.17-.73.6,0,.11-.3.57-.6.12a.65.65,0,0,0-.16-.91c-.46-.36-.34-.71,0-1.07A1.53,1.53,0,0,0,212.58,78Z" transform="translate(-14.23 -8.78)"/><path class="cls-115" d="M207.08,83.83c.17,0,.33-.55.5,0a5,5,0,0,1,.11,3l-.48-.27C207.17,85.67,207.13,84.75,207.08,83.83Z" transform="translate(-14.23 -8.78)"/><path class="cls-140" d="M201.6,56.24c-.39.6-6.84,2-11.94-.45a10.15,10.15,0,0,1-5.38-5.94,12.14,12.14,0,0,1,3.77-5.17h0a7.29,7.29,0,0,1,3.87-1.46C199.28,42.72,202.75,54.5,201.6,56.24Z" transform="translate(-14.23 -8.78)"/><path class="cls-141" d="M201.6,56.24c-.39.6-6.84,2-11.94-.45-3.46-3.89-1.61-11.11-1.61-11.11h0a7.29,7.29,0,0,1,3.87-1.46C199.28,42.72,202.75,54.5,201.6,56.24Z" transform="translate(-14.23 -8.78)"/><path class="cls-142" d="M185.9,46.23a5.56,5.56,0,0,0-.32,3.32c.5,1.35,7.78,3.55,12.22,3.6s1.45-4.63,1.45-4.63-2-5-6.92-5.3S185.9,46.23,185.9,46.23Z" transform="translate(-14.23 -8.78)"/><path class="cls-143" d="M188.55,50.87c.06-.67,3.39.69,3.37,1.18S188.49,51.55,188.55,50.87Z" transform="translate(-14.23 -8.78)"/><path class="cls-143" d="M192.83,52.28s1.52-.21,1.81.34C194.64,52.62,193.4,53.1,192.83,52.28Z" transform="translate(-14.23 -8.78)"/><path class="cls-143" d="M224,52.82c0-.67-3.43.41-3.46.9s3.46-.22,3.46-.9" transform="translate(-14.23 -8.78)"/><path class="cls-143" d="M219.63,53.88s-1.5-.34-1.84.19C217.79,54.07,219,54.65,219.63,53.88Z" transform="translate(-14.23 -8.78)"/><path class="cls-121" d="M209.86,82.79c0,.28-1.24.52-2.78.52s-2.77-.24-2.77-.52,1.24-.51,2.77-.51S209.86,82.51,209.86,82.79Z" transform="translate(-14.23 -8.78)"/><ellipse class="cls-121" cx="192.15" cy="74.61" rx="1.56" ry="0.6"/><path class="cls-121" d="M205.78,83.91c0,.29-.33.53-.74.53s-.73-.24-.73-.53.33-.52.73-.52S205.78,83.62,205.78,83.91Z" transform="translate(-14.23 -8.78)"/><path class="cls-121" d="M210.11,82.45c0,.19-.7.34-1.55.34s-1.55-.15-1.55-.34.69-.33,1.55-.33S210.11,82.27,210.11,82.45Z" transform="translate(-14.23 -8.78)"/><path class="cls-121" d="M211.78,82c0,.64-.38,1.15-.84,1.15s-.83-.51-.83-1.15.37-1.15.83-1.15S211.78,81.37,211.78,82Z" transform="translate(-14.23 -8.78)"/><path class="cls-121" d="M210.85,81.76c0-.26-.83-.47-1.85-.47s-1.85.21-1.85.47.83.47,1.85.47S210.85,82,210.85,81.76Z" transform="translate(-14.23 -8.78)"/><ellipse class="cls-121" cx="194.85" cy="73.44" rx="1.28" ry="0.24"/><path class="cls-121" d="M211.13,81c0-.21-.71-.37-1.59-.37s-1.6.16-1.6.37.72.36,1.6.36S211.13,81.18,211.13,81Z" transform="translate(-14.23 -8.78)"/><path class="cls-121" d="M206.74,81.63a57.65,57.65,0,0,1,5.76-3s1.33,3,.82,3.84S206.74,81.63,206.74,81.63Z" transform="translate(-14.23 -8.78)"/><path class="cls-121" d="M207.81,86.45,207.53,83l1.55,1s.41,2.68-1.12,2.86S207.81,86.45,207.81,86.45Z" transform="translate(-14.23 -8.78)"/><polygon class="cls-121" points="194.82 75.47 197.1 75.66 196.86 73.91 195.04 73.76 193.71 74.61 194.82 75.47"/><path class="cls-144" d="M252.36,47.21a41.1,41.1,0,0,1-10.16,29,41.78,41.78,0,0,1-28.46,14,41.18,41.18,0,0,1-30.1-10.34,40.38,40.38,0,0,1-13.32-27.8,40.93,40.93,0,0,1,10.16-29,41.83,41.83,0,0,1,28.46-14A41.15,41.15,0,0,1,239,19.4a40.4,40.4,0,0,1,13.32,27.81c0,.15.46.15.46,0a40.71,40.71,0,0,0-12.49-27.08A41.69,41.69,0,0,0,213.17,8.81a42.35,42.35,0,0,0-28.48,9.66A41.37,41.37,0,0,0,170.2,44.32a40.49,40.49,0,0,0,7.49,29.51,41.36,41.36,0,0,0,24.46,15.7c19.85,4.36,41.58-6.73,48.61-27.29a40.53,40.53,0,0,0,2.06-15C252.81,47.09,252.36,47.08,252.36,47.21Z" transform="translate(-14.23 -8.78)"/><path class="cls-145" d="M252.59,47.22C253.76,69.69,236.24,89,213.46,90.3S171.26,74.5,170.09,52,186.44,10.28,209.22,9,251.42,24.76,252.59,47.22Z" transform="translate(-14.23 -8.78)"/><path class="cls-146" d="M252.59,47.22C251.42,24.76,232,7.63,209.22,9S168.92,29.57,170.09,52s20.59,39.6,43.37,38.27S253.76,69.69,252.59,47.22ZM209.08,77.65a33.3,33.3,0,0,1-35.45-31.29c-1-18.37,13.36-34.14,32-35.22a33.3,33.3,0,0,1,35.46,31.29C242,60.79,227.71,76.56,209.08,77.65Z" transform="translate(-14.23 -8.78)"/><path class="cls-147" d="M176,41.76a28.13,28.13,0,0,0,.08,9.06,45.31,45.31,0,0,1,2.24-8.37C177.52,42.21,176.74,42,176,41.76Z" transform="translate(-14.23 -8.78)"/><path class="cls-147" d="M177.92,33.8A38.57,38.57,0,0,0,176.44,39c1,.3,1.93.58,2.9.87a43.43,43.43,0,0,1,2.51-4.94C180.56,34.48,179.22,34.19,177.92,33.8Z" transform="translate(-14.23 -8.78)"/><path class="cls-147" d="M202,14S188,13.7,180.18,28.63c-.62,1.18-1.14,2.33-1.6,3.46,1.4.46,2.86.77,4.27,1.21,4.23-6.42,11-12.46,21.52-13.8Z" transform="translate(-14.23 -8.78)"/><path class="cls-66" d="M217.84,94.07c.29.85-.59,1.24-1.61,1.87-4.29,2.62-8.23,2.1-12.06-.75-.93-.7-1.35-6-.43-6.62a2.57,2.57,0,0,1,2.44,0c3,1.14,6,.84,9,.47,1.72-.21,2.94,0,2.62,2A18.56,18.56,0,0,0,217.84,94.07Z" transform="translate(-14.23 -8.78)"/><path class="cls-66" d="M197,86c1,1.42,2.67,1.73,4.21,1.92,1.85.22,2.48,1,2.39,2.59s-.05,3-.07,4.47c-7.55-2.81-8.95-4.64-7-9.09A.32.32,0,0,1,197,86Z" transform="translate(-14.23 -8.78)"/><path class="cls-66" d="M223.9,86.22c-1,1.37-2.59,1.67-4.08,1.85-1.79.22-2.4,1-2.31,2.51s.05,2.86.07,4.33c7.3-2.72,8.65-4.49,6.81-8.8A.31.31,0,0,0,223.9,86.22Z" transform="translate(-14.23 -8.78)"/><path class="cls-148" d="M217.45,94c.27.8-.56,1.18-1.52,1.76-4.05,2.46-7.78,2-11.41-.72-.88-.65-1.28-5.61-.41-6.23a2.43,2.43,0,0,1,2.3,0c2.8,1.07,5.64.79,8.5.45,1.63-.2,2.78,0,2.48,1.92A17.49,17.49,0,0,0,217.45,94Z" transform="translate(-14.23 -8.78)"/><path class="cls-149" d="M197.32,86.47c.87,1.26,2.36,1.54,3.72,1.71,1.63.2,2.18.88,2.11,2.29s-.05,2.63-.07,4c-6.65-2.5-7.89-4.12-6.21-8.07C197.06,86.26,197.21,86.28,197.32,86.47Z" transform="translate(-14.23 -8.78)"/><path class="cls-150" d="M212.15,93.18a1.48,1.48,0,0,1-1.87,1.34,1.6,1.6,0,0,1,.48-3.17A1.45,1.45,0,0,1,212.15,93.18Z" transform="translate(-14.23 -8.78)"/><path class="cls-149" d="M223.67,86.57c-.87,1.26-2.36,1.53-3.72,1.7-1.63.2-2.18.89-2.11,2.3s0,2.63.07,4c6.65-2.49,7.89-4.12,6.21-8.07A.29.29,0,0,0,223.67,86.57Z" transform="translate(-14.23 -8.78)"/><path class="cls-66" d="M166.78,130.9s2.36-4.87.15-12.23a29.87,29.87,0,0,0,3.55,0,20.52,20.52,0,0,1,0,12.94A27,27,0,0,1,166.78,130.9Z" transform="translate(-14.23 -8.78)"/><path class="cls-150" d="M167.12,130.75s2.63-4.82.22-11.85a18.12,18.12,0,0,1,2.9.16,23.25,23.25,0,0,1,0,12.17A7.44,7.44,0,0,1,167.12,130.75Z" transform="translate(-14.23 -8.78)"/><path class="cls-151" d="M167.12,130.75a5.85,5.85,0,0,0,3.12.48,13.9,13.9,0,0,0,.81-5.41s-1.37,2.14-2.87,1.34C168.18,127.16,167.33,130.88,167.12,130.75Z" transform="translate(-14.23 -8.78)"/><path class="cls-152" d="M167.34,118.9a13.69,13.69,0,0,1,2.9.16,13.2,13.2,0,0,1,.58,2.82,4.5,4.5,0,0,1-2.65.39A24.3,24.3,0,0,0,167.34,118.9Z" transform="translate(-14.23 -8.78)"/><path class="cls-148" d="M200.61,121.15a52.15,52.15,0,0,1-.36-12.5S200.57,120.54,200.61,121.15Z" transform="translate(-14.23 -8.78)"/><path class="cls-70" d="M171.52,124.13s19.86,6.5,29.09-3c0,0-.3,4.21-8.56,9.26,0,0-3,2.35-12.32,2.17a52.68,52.68,0,0,1-9.25-1l.26-.94.16-.86A17.74,17.74,0,0,0,171.52,124.13Z" transform="translate(-14.23 -8.78)"/><path class="cls-67" d="M171.24,121.67s16.35,3.32,29.37-.52c0,0-6.93,9.49-29.09,3A19.11,19.11,0,0,0,171.24,121.67Z" transform="translate(-14.23 -8.78)"/><path class="cls-67" d="M170.48,118.67a30.7,30.7,0,0,0,8.57-1.94s9-2.15,13.31-9.6a30.75,30.75,0,0,0,5.91-14.37l1.55,12.57.43,3.32s-.28,3.78-.21,5.57a52.76,52.76,0,0,0,.57,6.93,32,32,0,0,1-7.26,1.44,59.54,59.54,0,0,1-10.83.34,69.15,69.15,0,0,1-11.28-1.26S170.87,119.84,170.48,118.67Z" transform="translate(-14.23 -8.78)"/><path class="cls-68" d="M170.48,118.67l.52,2s11.49,1.21,17.84-3.61c0,0,4.53-4.93,4.23-10.82C193.07,106.19,189.32,116.58,170.48,118.67Z" transform="translate(-14.23 -8.78)"/><polygon class="cls-67" points="184.25 84.47 183.86 85.13 183.83 85.18 184.25 93.16 185.44 99.71 185.8 99.87 186.02 99.87 186.04 100.86 186.2 100.94 186.49 99.95 186.9 96.38 186.85 93.38 185.66 85.14 185.19 84.43 184.29 83.94 184.04 83.98 183.99 84.66 184.29 84.97 184.25 84.47"/><path class="cls-66" d="M262.13,74.91s.16,1.4,7.15,2.28h.16a19.65,19.65,0,0,1,.5,2.88,36.81,36.81,0,0,1-8.82-2S262.14,75,262.13,74.91Z" transform="translate(-14.23 -8.78)"/><path class="cls-151" d="M269.24,77.33a7.24,7.24,0,0,1,.42,2.49,8.28,8.28,0,0,1-2.37-.3s.3-2-.3-2.55Z" transform="translate(-14.23 -8.78)"/><path class="cls-150" d="M267.29,79.52a23.59,23.59,0,0,1-4.31-1s1.19-1.57.78-2.3L267,77S267.82,77.5,267.29,79.52Z" transform="translate(-14.23 -8.78)"/><path class="cls-152" d="M263,78.48a3.89,3.89,0,0,1-1.63-.5,22.12,22.12,0,0,1,.79-2.49l0,0c.41-1,0,0,0,0s1.46.69,1.6.73A1.88,1.88,0,0,1,263,78.48Z" transform="translate(-14.23 -8.78)"/><path class="cls-66" d="M254.34,86.65A26.39,26.39,0,0,0,261.12,78a42.31,42.31,0,0,0,4.74,1.38,40.23,40.23,0,0,0,4.08.59s.65,2.17-.81,7.6a32.34,32.34,0,0,1-2.09,6s-4.83,1.32-8.72-1.28C258.32,92.31,254.44,87.82,254.34,86.65Z" transform="translate(-14.23 -8.78)"/><path class="cls-70" d="M269.68,80.07a27.59,27.59,0,0,1-3.07,13.62s-.42,4.67-14,13.27c0,0-7.19,4.29-10.93,5.59l-.64.34s27.24-19.58,27.26-32.82A5.4,5.4,0,0,1,269.68,80.07Z" transform="translate(-14.23 -8.78)"/><path class="cls-68" d="M261.24,78.28a22.87,22.87,0,0,1-6.9,8.9S252.12,88.66,248,91c0,0,14.92-6.06,15.4-12A10.92,10.92,0,0,1,261.24,78.28Z" transform="translate(-14.23 -8.78)"/><path class="cls-67" d="M254.34,87.87S263,83,263.41,79a49.61,49.61,0,0,0,4.92,1.12s1.52,4.22-7,14.27C261.35,94.34,254.6,92,254.34,87.87Z" transform="translate(-14.23 -8.78)"/><path class="cls-153" d="M197.38,134.87c-1.13-2.5.88-6.67,3.88-7.91.57,1.38,2.46,1.85,4.45,2.21,11.83,2.16,23.75,1.66,35.63.23,1.44-.17,4-.33,3.19-2.05-.15-.3.15-.55.74-.46.81.11,1.49.35,1.68.9.45,1.33.9,2.66,1.38,4,.18.53.42,1,.63,1.57.85,2.13-1,3.12-4.23,3.7-13.8,2.46-27.57,2.87-41.25-.24C201.35,136.31,199.41,135.52,197.38,134.87Z" transform="translate(-14.23 -8.78)"/><path class="cls-149" d="M198.1,134.62c-1.1-2.18.86-5.81,3.77-6.89.55,1.2,2.39,1.61,4.33,1.93,11.5,1.88,23.08,1.44,34.63.2,1.4-.15,3.95-.29,3.11-1.79-.15-.26.14-.48.71-.4.79.1,1.45.31,1.63.78.44,1.16.89,2.32,1.34,3.47.19.46.41.91.62,1.37.83,1.85-1,2.72-4.11,3.22-13.42,2.14-26.8,2.5-40.1-.21C202,135.87,200.07,135.19,198.1,134.62Z" transform="translate(-14.23 -8.78)"/><path class="cls-66" d="M225.36,137.47a77.2,77.2,0,0,1-11.08-.32c-2.48-.16-3.39-.78-2.83-2.42,1.22-3.58,1.05-3.51,7.39-3.25a84.61,84.61,0,0,0,9.13-.33c1.91-.12,2.76.26,2.69,1.42a8.54,8.54,0,0,0,.12,1.22C231.14,137.19,231.14,137.19,225.36,137.47Z" transform="translate(-14.23 -8.78)"/><path class="cls-150" d="M224.5,137l-9.19-.35c-3.3-.11-3.12-1.42-2.82-2.88s.93-2.11,3.82-1.88a76.08,76.08,0,0,0,10.78,0c1.85-.11,2.18.21,2.22,1.1a3.92,3.92,0,0,0,.19,1C230.3,136.61,230.1,136.77,224.5,137Z" transform="translate(-14.23 -8.78)"/><path class="cls-154" d="M244.52,136.44s3.53-.7,3.71-1.64a1.59,1.59,0,0,0,0-1.51l-2-4.84s-.26-.8-1.63-.78C244.65,127.67,246.5,131,244.52,136.44Z" transform="translate(-14.23 -8.78)"/><path class="cls-155" d="M243.94,128.07s.72,1.3-1.31,1.55l-3.37.4a21.46,21.46,0,0,1-1.63,7.38l6.89-1a5.12,5.12,0,0,0,.76-2.89s.86-2.31-.63-5.88C244.65,127.67,243.83,127.39,243.94,128.07Z" transform="translate(-14.23 -8.78)"/><path class="cls-66" d="M200.15,107.9s.53,18.25,1,18.51l.13.55s.11.61.36.69c0,0,.5,1.43,8.29,2.3a103.4,103.4,0,0,0,13,.8s10.83-.1,12.8-.58c0,0,6.81-.59,7.39-.89a1.47,1.47,0,0,0,1.49-1.76s-.75-5.45-.85-5.63c0,0-1.08-4.66-1.26-5.06,0,0-.95-3.23-1.27-3.94a28.56,28.56,0,0,0-1.28-5S215,110.28,200.15,107.9Z" transform="translate(-14.23 -8.78)"/><path class="cls-66" d="M238.29,101.22l2.58,9.84-40.5,1.83-.22-5S231.05,105.17,238.29,101.22Z" transform="translate(-14.23 -8.78)"/><path class="cls-150" d="M200.88,108.65s.51,17.53,1,17.79l.12.52s.11.59.35.67c0,0,.49,1.36,8.06,2.2a101.69,101.69,0,0,0,12.65.77s10.51-.09,12.43-.56c0,0,6.61-.56,7.18-.85a1.42,1.42,0,0,0,1.44-1.69s-.72-5.23-.82-5.41c0,0-1.05-4.47-1.23-4.86,0,0-.92-3.1-1.23-3.79a26.74,26.74,0,0,0-1.25-4.79S215.3,110.94,200.88,108.65Z" transform="translate(-14.23 -8.78)"/><path class="cls-150" d="M237.91,102.25l1.62,6.4.31,2.6-38.86.47-.1-3.07S237.43,104.34,237.91,102.25Z" transform="translate(-14.23 -8.78)"/><path class="cls-66" d="M220.43,126.36a131.12,131.12,0,0,1-5.77-29.21,4.85,4.85,0,0,0-.08-.55,7.87,7.87,0,0,1-5.07.65c0,.15,0,.3,0,.46.71,10.6,3.1,20.81,6.13,30.87C216.81,132.48,221.6,130.26,220.43,126.36Z" transform="translate(-14.23 -8.78)"/><path class="cls-67" d="M219.47,125.75a142.09,142.09,0,0,1-5.09-27.52,3.8,3.8,0,0,0-.43-1.55,5.22,5.22,0,0,1-2,.61,3.27,3.27,0,0,1-.91.14,3.39,3.39,0,0,1-.73-.09,4.35,4.35,0,0,0-.1,1.34,151.1,151.1,0,0,0,5.41,29.09C216.61,131.44,220.48,129.43,219.47,125.75Z" transform="translate(-14.23 -8.78)"/><path class="cls-156" d="M219.47,125.75a142.09,142.09,0,0,1-5.09-27.52,4,4,0,0,0-.36-1.41,2.73,2.73,0,0,1-1,.34c0,.13,0,.25,0,.39a142.7,142.7,0,0,0,5.09,27.52c.64,2.32-.67,4-2,4C217.66,130.79,220.33,128.88,219.47,125.75Z" transform="translate(-14.23 -8.78)"/><path class="cls-157" d="M214.66,120.46a8.25,8.25,0,0,1-.41-1.31c-.21-.8-.47-1.88-.73-3-.5-2.16-.92-4.35-.92-4.35s-.39-2.21-.69-4.42c-.15-1.11-.28-2.22-.37-3a8.74,8.74,0,0,1-.1-1.4,9.48,9.48,0,0,1,.27,1.37c.14.82.32,1.92.51,3,.38,2.19.8,4.36.8,4.36s.38,2.19.8,4.37c.22,1.09.44,2.18.6,3A10.57,10.57,0,0,1,214.66,120.46Zm1.59,5.45c-.26-.67-.46-1.37-.46-1.37s-.25-.67-.45-1.37a10.49,10.49,0,0,0-.41-1.43,5,5,0,0,0,.11,1.53,14.76,14.76,0,0,0,.35,1.5,12.41,12.41,0,0,0,.6,1.35,3.77,3.77,0,0,0,.77,1.16A9.18,9.18,0,0,0,216.25,125.91Zm-2.7-28.58a17.48,17.48,0,0,1-2.75.19,17.25,17.25,0,0,1-2.74-.15c-1.36-.19-2.68-.64-2.7-.56a8.36,8.36,0,0,0,2.64,1,14.21,14.21,0,0,0,2.76.33,14.45,14.45,0,0,0,2.81-.38,9.35,9.35,0,0,0,2.75-1C216.31,96.64,214.93,97.12,213.55,97.33Zm7.65-3c-.63.38-1.26.69-1.26.69s-.62.37-1.26.69a7.11,7.11,0,0,0-1.29.66,3,3,0,0,0,1.35-.24,11.18,11.18,0,0,0,1.33-.53,14.53,14.53,0,0,0,1.25-.87,4.92,4.92,0,0,0,1.15-1.13A7.45,7.45,0,0,0,221.2,94.28Z" transform="translate(-14.23 -8.78)"/><path class="cls-150" d="M245.13,137s-14.34,2.51-24.75,2c0,0-13.41-.59-20.23-3.2,0,0-10.29,3.62-17.1,11,0,0-5.09,4.41-1,14.62l1.05,3.15,1,2.25s4.58,3.62,15.51-1.65a8.3,8.3,0,0,1,1.89-7.19s2.65-4.81,15.42-6c0,0,5.07-1.87,9.57,7.53l7.55,15.75,1.13,2.09s8.67.32,15.1-5c0,0-3.26-15.43-3.84-20.9C246.47,151.4,244.76,137.71,245.13,137Z" transform="translate(-14.23 -8.78)"/><path class="cls-66" d="M183.05,146.77s6,7.89,19.44,10.08l.22.15a9.59,9.59,0,0,0-3,5.49s-14.38-1.66-19.66-7.51C180.09,155,180.11,148.54,183.05,146.77Z" transform="translate(-14.23 -8.78)"/><path class="cls-68" d="M180.47,154.63a9.39,9.39,0,0,1,2.21-7.11s4,3.75,6.53,5c0,0-3.8,5.58-1,6.59A22.84,22.84,0,0,1,180.47,154.63Z" transform="translate(-14.23 -8.78)"/><path class="cls-67" d="M189.21,152.55s5.15,3.17,8.25,3.7c0,0-2.84,4.5-1.44,5a35.54,35.54,0,0,1-8.89-2.53A7.15,7.15,0,0,1,189.21,152.55Z" transform="translate(-14.23 -8.78)"/><path class="cls-70" d="M197.46,156.25s3.59,1.19,4.56,1.06a11.4,11.4,0,0,0-2.53,4.54s-2.58-.35-4.38-.71C195.11,161.14,196.17,156.45,197.46,156.25Z" transform="translate(-14.23 -8.78)"/><path class="cls-66" d="M227.77,163.59s8.61,1.61,20.24-2.84a20.44,20.44,0,0,1,.94,4.89s-3.33,2.9-9.84,4.13a33.23,33.23,0,0,1-7.88.48S227.9,163.86,227.77,163.59Z" transform="translate(-14.23 -8.78)"/><path class="cls-67" d="M231.51,169.64l-2.25-5.3s7.5,1.27,18.9-2.78l.28,3.78A29.26,29.26,0,0,1,231.51,169.64Z" transform="translate(-14.23 -8.78)"/><path class="cls-70" d="M231.51,169.64l-2.25-5.3a41.1,41.1,0,0,0,8.37-.18s-2.47,5.93,1.18,5C238.81,169.11,234.08,170.21,231.51,169.64Z" transform="translate(-14.23 -8.78)"/><path class="cls-152" d="M189.21,152s.13-12.11,10.94-16.16a48,48,0,0,0-17.1,11S187.1,151.49,189.21,152Z" transform="translate(-14.23 -8.78)"/><path class="cls-68" d="M184.14,166.79s0-.16-.09-.44c-.24-1.43-.67-5.89,3-7a25.26,25.26,0,0,1-6.52-3.9A38.9,38.9,0,0,0,184.14,166.79Z" transform="translate(-14.23 -8.78)"/><path class="cls-67" d="M187,159.33s-4.09.22-2.89,7.69l4.33,8.6s8.24,2.67,14-3l.13-.1-.23-.55-1.17-2.8a27.32,27.32,0,0,1-1.54-4.08,10.77,10.77,0,0,1-.12-2.67s-6.61-1.18-7.42-1.69C192.11,160.78,187.11,159.51,187,159.33Z" transform="translate(-14.23 -8.78)"/><path class="cls-70" d="M195.11,161.6s-2,7.82,13.12,22.08a65.29,65.29,0,0,0-3-6.76s-.76-1.43-2.5-4.28c0,0,0,.12-.47-.92,0,0-1.71-3.9-2.08-5a8,8,0,0,1-.62-4.26Z" transform="translate(-14.23 -8.78)"/><path class="cls-70" d="M239.11,169.77s-2.64,7.82-1.14,13.79c0,0-1.27-2.32-1.48-2.92l-.38-.88-1-2.48s-3.17-6.27-3.43-7c0,0,6.38-.16,8.09-.65Z" transform="translate(-14.23 -8.78)"/><path class="cls-67" d="M249,165.64a23.72,23.72,0,0,1-9.84,4.13s-3,8.29-1.14,13.79l14.39-4.84-.47-1.82S248.66,165.72,249,165.64Z" transform="translate(-14.23 -8.78)"/><path class="cls-158" d="M201.18,123.52a35,35,0,0,1-.76-5.69c-.24-2.85-.34-5.72-.34-5.72s0-2.87.17-5.73a34.23,34.23,0,0,1,.59-5.7c.13,0,.06,2.86.07,5.71s.11,5.71.11,5.71,0,2.85.07,5.7S201.31,123.5,201.18,123.52Zm-.29-4.43c-.27-1.62-.53-3.24-.53-3.24l-.72-3.2a16.54,16.54,0,0,0-.83-3.2,13.71,13.71,0,0,0,.18,3.31c.18,1.64.45,3.27.45,3.27s.36,1.61.8,3.2a13.67,13.67,0,0,0,1.07,3.14A16.13,16.13,0,0,0,200.89,119.09Zm29.93-13.46a12.45,12.45,0,0,1-.62-2.83,11.44,11.44,0,0,1,0-1.31,12.7,12.7,0,0,1,0-1.31,12.27,12.27,0,0,1,.6-2.84,22,22,0,0,1,2-3.81,8.46,8.46,0,0,0-2.59,3.58,12.39,12.39,0,0,0-.84,3,11,11,0,0,0-.12,1.41,12.61,12.61,0,0,0,.13,1.41,12.06,12.06,0,0,0,.86,3,8.53,8.53,0,0,0,2.61,3.56A21.78,21.78,0,0,1,230.82,105.63Zm8.72,6.27c-.75-.22-1.46-.5-1.46-.5s-.74-.18-1.47-.44-1.45-.59-1.53-.49.53.66,1.24,1.09a10.31,10.31,0,0,0,1.48.73,9.6,9.6,0,0,0,1.63.26c.82.06,1.63,0,1.63-.17S240.29,112.12,239.54,111.9Zm-14.29,32.46a18.48,18.48,0,0,0-1.17,2.1,19.38,19.38,0,0,0-.67,2.31,5.93,5.93,0,0,0-.2,2.39,12,12,0,0,0,.84-2.2c.4-1.1.9-2.14.9-2.14s.39-1.08.88-2.13a12.82,12.82,0,0,0,1-2.15C226.7,142.46,225.91,143.35,225.25,144.36ZM216,148.19c-1.35-.88-2.59-1.89-2.59-1.89s-1.31-.9-2.54-2a27.11,27.11,0,0,0-2.45-2.11,9.89,9.89,0,0,0,2,2.6,26.74,26.74,0,0,0,2.43,2.22,27.15,27.15,0,0,0,2.81,1.7,10.51,10.51,0,0,0,3.06,1.19A24.22,24.22,0,0,0,216,148.19Zm-16.8,15.65a14.81,14.81,0,0,1,1-1.89,15.29,15.29,0,0,1,1.07-1.84,15.13,15.13,0,0,0,1.29-1.77c-.08-.1-1,.52-1.8,1.35a11.55,11.55,0,0,0-1.38,1.8,12.16,12.16,0,0,0-.78,2.14,4.7,4.7,0,0,0-.17,2.25A14.73,14.73,0,0,0,199.22,163.84Zm11.25-64.4c-1.39,0-2.77,0-2.77,0s-1.37.1-2.75.08a24.55,24.55,0,0,0-2.78-.08,7,7,0,0,0,2.73.74,23,23,0,0,0,2.83.2s1.41-.1,2.8-.32a10.45,10.45,0,0,0,2.75-.62A11.49,11.49,0,0,0,210.47,99.44ZM226,96.32a22.68,22.68,0,0,1-2.22.9s-1.09.48-2.25.84a15.57,15.57,0,0,0-2.34.72,6,6,0,0,0,2.5-.07,10.3,10.3,0,0,0,4.64-1.81c1-.67,2-1.52,1.88-1.62A14.71,14.71,0,0,0,226,96.32Z" transform="translate(-14.23 -8.78)"/><path class="cls-151" d="M240.78,113.44s3.85,10.7-.94,16.13c0,0,4.92.19,4.22-2.07,0,0-.6-4.36-.73-5A53.28,53.28,0,0,0,240.78,113.44Z" transform="translate(-14.23 -8.78)"/><path class="cls-151" d="M201.34,120.46s1.55,8,6.34,9c0,0-3.81-.15-5.38-1.84C202.3,127.63,201.35,127.37,201.34,120.46Z" transform="translate(-14.23 -8.78)"/><path class="cls-151" d="M198.07,155.87s15.46-6.15,20.67-4.06c0,0-8,.48-12.06,2.46,0,0-3.38,1.57-4.19,2.58A43.87,43.87,0,0,1,198.07,155.87Z" transform="translate(-14.23 -8.78)"/><path class="cls-151" d="M218.74,151.81s2.76-.22,6.41,5.11c0,0,3.4,6.25,3.42,6.78a30.32,30.32,0,0,0,9.19-.26S235.09,154.7,218.74,151.81Z" transform="translate(-14.23 -8.78)"/><path class="cls-159" d="M256.4,85c-.26.26-.53.5-.82.75,1.06,2.27,3.17,7.58,1.23,10.59-2.51,3.89-17.19,14.05-22.08,6.9-2.5-3.65-1.27-7.46.53-10.32l-.37,0c-2.44.59-4.93-.53-7-1.69-1-.54-1.95-1.19-3-1.69a2.88,2.88,0,0,1-2.76,1.8,3.73,3.73,0,0,1-.48,0c-3,0-6,.3-9,.51-6.92,3.39-12.13,6.74-8.1,7.65,8.9,2,23.71-5,23.71-5-1.89,3.64-2.14,8.28.37,13.29s6.9,14.93,4.64,21.2-12,18.19-23.33,11.17-9-42.53-9-42.53l-2.92-2.73c-.3,1.16-.72,2.59-1.3,4.17,2.69,2.87.93,16.92-3.68,23.9s-17.19,4.39-17.19,4.39a8.35,8.35,0,0,0-1,4.89c6.14.7,14.47.77,19.26-2.95,5.35-4.16,6.57-6.79,6.77-8.12l1,13.83a64,64,0,0,0-6.88,2.93c7.49.63,4.74,16.24,1.21,21.41-3.76,5.52-.62,9.91-4.26,12.42-1.83,1.26-4.38-.17-6.46-1.9a121.09,121.09,0,0,0,7,12.2s-10.51.23-13.48,5.25-1.6,5.48,5.71,5.71,19.87-2.05,23.07-5-9.26-19.76-7.43-26.39,10.4-8.11,17-9.25c2.34-.4,4.39,1.1,6.23,3.52,1.55-3.41,3.92-6.55,7.57-7.83,9.66-3.39,15.18,22.7,14.18,27.6-.74,3.58-6.25,3.93-9.15,3.86,2.77,4.8,5.19,8.83,5.19,8.83a22.78,22.78,0,0,0-7.83,2.05l5,2.69,18.09-1.12c1.69-6-8.34-12.68-11-56.5-1.06-17.59-3.89-22.39-3.89-22.39s20.56-8.45,25.36-19.18a39.11,39.11,0,0,0,2.07-5.74Z" transform="translate(-14.23 -8.78)"/><path class="cls-151" d="M244.69,136.82a31.63,31.63,0,0,1-7.95,1.32h-.22l-.23,0a21.38,21.38,0,0,0-2.27,1,27.71,27.71,0,0,0-2.44,1.43,26.2,26.2,0,0,0-2.15,1.84,27.24,27.24,0,0,0-4,4.71,24.58,24.58,0,0,0-2.74,5.45c-.11.33-.21.62-.29.9a8.3,8.3,0,0,1,.54.64l.64-1.14a33.1,33.1,0,0,1,3.27-4.8,28.26,28.26,0,0,1,4.08-4,23.47,23.47,0,0,1,2.09-1.53,24.42,24.42,0,0,1,2.12-1.47,29.29,29.29,0,0,1,5.14-2.54,34.17,34.17,0,0,1,4.9-1.38,2.64,2.64,0,0,1-.14-.57C244.94,136.72,244.82,136.78,244.69,136.82Z" transform="translate(-14.23 -8.78)"/><path class="cls-151" d="M212.87,150.05a41.9,41.9,0,0,1-3.67-3.13c-.48-.44-.84-.86-1.11-1.12l-.41-.43-.43-.42c-.27-.28-.68-.63-1.12-1.12a41.12,41.12,0,0,1-3.1-3.69,46.38,46.38,0,0,1-2.64-4.1l-.17-.29c-.14.05-.41.14-.79.29l.12.38a27.2,27.2,0,0,0,2.08,4.63,34.47,34.47,0,0,0,2.87,4.22c.42.56.83,1,1.09,1.29l.42.48.48.43c.31.26.73.67,1.28,1.1a34.68,34.68,0,0,0,4.19,2.88c.58.33,1.17.62,1.74.9l1.22-.21a3.82,3.82,0,0,1,1,0C215,151.51,213.91,150.8,212.87,150.05Z" transform="translate(-14.23 -8.78)"/><path class="cls-160" d="M100,106.33c.1-1.41-.46-2.86.28-4.23,5.2-.57,9.18-2.94,11.21-7.92s1.08-9.61-2.45-13.62a11.84,11.84,0,0,0-6.88-3.73,6.16,6.16,0,0,1-2.14-.68c0-.62-.07-1.23-.07-1.84,0-2,0-2,2-1.55,7,1.66,15.12,9.85,12.15,20.88-1.82,6.78-6.34,10.79-13.07,12.43-.27.06-.59,0-.77.26Z" transform="translate(-14.23 -8.78)"/><path class="cls-66" d="M81.1,86.63a17.38,17.38,0,0,1,13.29-14c1.16-.24,1.44.08,1.34,1.15-.07.79-.06,1.6-.08,2.4-1,.63-2.26.62-3.38,1a12.7,12.7,0,0,0-8.33,16.6A12.22,12.22,0,0,1,84.76,96a1.92,1.92,0,0,1-1.69,1.64c-1.42-1-1.61-2.67-1.89-4.21a16.28,16.28,0,0,0-.32-2.19v-.57C81.25,89.34,80.8,88,81.1,86.63Z" transform="translate(-14.23 -8.78)"/><path class="cls-161" d="M106.23,89.82A8.41,8.41,0,0,1,99,97.72a8.63,8.63,0,0,1-9.31-6.23A8.4,8.4,0,0,1,94,81.78c1,.27.48,1,.43,1.5a7,7,0,0,0,10.33,7.14C105.18,90.16,105.57,89.62,106.23,89.82Z" transform="translate(-14.23 -8.78)"/><path class="cls-160" d="M106.23,89.82a7.37,7.37,0,0,1-12.08-3.36,9.35,9.35,0,0,1-.07-3.65c0-.38.24-.72-.13-1a7.59,7.59,0,0,1,8.42.24A7.77,7.77,0,0,1,106.23,89.82Z" transform="translate(-14.23 -8.78)"/><path class="cls-162" d="M100,76.15c6.7.48,11.41,4.34,12.64,10.94a12.8,12.8,0,0,1-9.93,15c-.79.18-1.62.67-2.45.06a17.34,17.34,0,0,0,6.12-3.2,13.22,13.22,0,0,0,2.9-15.27c-1.58-3.65-4.53-5.42-8-6.66C100.77,76.81,100,77,100,76.15Z" transform="translate(-14.23 -8.78)"/><path class="cls-66" d="M92.71,101c.78.64,1.83.64,2.67,1.13-.09.71-.68.6-1.09.54a13.26,13.26,0,0,1-9.47-5.77c-.17-.25-.13-.55-.25-.8C81.7,90.49,82.2,85.2,86.24,80.41a12.16,12.16,0,0,1,7.31-4c.7-.12,1.4-.18,2.1-.27,0,.74-.63.65-1,.74-9.8,2.48-12,13.68-7,20.3A10.58,10.58,0,0,0,92.71,101Z" transform="translate(-14.23 -8.78)"/><path class="cls-162" d="M84.57,96.08a13.82,13.82,0,0,0,9.06,6.11c.61.12,1.19.33,1.75-.08.7,1.17.31,2.46.25,3.67,0,.62-.79.31-1.2.23a15.86,15.86,0,0,1-7.74-4,14.42,14.42,0,0,1-3.62-4.51A4.06,4.06,0,0,0,84.57,96.08Z" transform="translate(-14.23 -8.78)"/><path class="cls-149" d="M99.89,105.45c.1-1.34-.43-2.72.27-4,5-.54,8.8-2.79,10.75-7.5s1-9.11-2.35-12.91A11.43,11.43,0,0,0,102,77.5a6,6,0,0,1-2.06-.64c0-.59-.06-1.17-.07-1.75,0-1.91,0-1.91,1.94-1.46,6.75,1.57,14.49,9.33,11.65,19.77-1.75,6.43-6.08,10.22-12.53,11.77-.25.06-.56,0-.73.26Z" transform="translate(-14.23 -8.78)"/><path class="cls-163" d="M81.84,86.78A16.53,16.53,0,0,1,94.57,73.5c1.11-.22,1.38.08,1.29,1.09-.08.76-.06,1.52-.09,2.27a13.45,13.45,0,0,1-3.23.94,12,12,0,0,0-8,15.72,11,11,0,0,1,.78,2.14,1.81,1.81,0,0,1-1.62,1.55c-1.36-1-1.53-2.52-1.81-4a14.54,14.54,0,0,0-.3-2.07v-.54C82,89.35,81.55,88.05,81.84,86.78Z" transform="translate(-14.23 -8.78)"/><path class="cls-164" d="M105.91,89.8A8,8,0,0,1,99,97.29a8.27,8.27,0,0,1-8.91-5.9,7.92,7.92,0,0,1,4.06-9.2c.91.25.46.94.41,1.42a6.28,6.28,0,0,0,2.52,6.28,6.42,6.42,0,0,0,7.38.48C104.91,90.12,105.28,89.62,105.91,89.8Z" transform="translate(-14.23 -8.78)"/><path class="cls-165" d="M105.91,89.8a7.08,7.08,0,0,1-11.57-3.18,8.72,8.72,0,0,1-.07-3.45c0-.36.24-.69-.12-1a7.95,7.95,0,0,1,11.76,7.61Z" transform="translate(-14.23 -8.78)"/><path class="cls-155" d="M99.91,76.86c6.43.46,10.94,4.11,12.12,10.36a12.14,12.14,0,0,1-9.52,14.16c-.75.17-1.55.63-2.35.06a16.75,16.75,0,0,0,5.87-3A12.41,12.41,0,0,0,108.81,84c-1.52-3.46-4.34-5.14-7.69-6.32C100.68,77.48,99.92,77.69,99.91,76.86Z" transform="translate(-14.23 -8.78)"/><path class="cls-166" d="M93,100.37c.75.61,1.75.61,2.56,1.07-.09.68-.66.57-1,.51a12.68,12.68,0,0,1-9.08-5.46c-.16-.23-.12-.52-.24-.76-2.74-5.29-2.27-10.3,1.6-14.83a11.63,11.63,0,0,1,7-3.77c.66-.12,1.34-.18,2-.27,0,.71-.59.62-1,.71-9.39,2.35-11.45,13-6.66,19.23A10.07,10.07,0,0,0,93,100.37Z" transform="translate(-14.23 -8.78)"/><path class="cls-167" d="M85.16,95.73a13.25,13.25,0,0,0,8.69,5.8,2,2,0,0,0,1.67-.09c.67,1.12.29,2.33.24,3.48,0,.58-.76.29-1.15.22a15.34,15.34,0,0,1-7.42-3.77,13.8,13.8,0,0,1-3.47-4.27A3.72,3.72,0,0,0,85.16,95.73Z" transform="translate(-14.23 -8.78)"/><path class="cls-160" d="M228.25,116.4c0-.43-.27-.84-.11-1.28a3.83,3.83,0,0,0,3-2.9,3.77,3.77,0,0,0-1.35-4,3.68,3.68,0,0,0-2.24-.81,2,2,0,0,1-.68-.1c0-.19-.08-.37-.1-.55-.1-.61-.1-.61.53-.56a5.17,5.17,0,0,1,4.61,5.73,5.05,5.05,0,0,1-3.37,4.33c-.07,0-.18,0-.22.12Z" transform="translate(-14.23 -8.78)"/><path class="cls-66" d="M221.68,111.33A5.3,5.3,0,0,1,225,106.5c.34-.12.44,0,.46.29s.05.48.08.73a4.76,4.76,0,0,1-1,.45,3.86,3.86,0,0,0-1.75,5.37,4,4,0,0,1,.35.64.58.58,0,0,1-.44.57,1.85,1.85,0,0,1-.76-1.18,4.71,4.71,0,0,0-.19-.64l0-.17C221.85,112.14,221.65,111.74,221.68,111.33Z" transform="translate(-14.23 -8.78)"/><path class="cls-161" d="M229.39,111.15a2.56,2.56,0,0,1-1.81,2.7,2.63,2.63,0,0,1-3.09-1.45,2.55,2.55,0,0,1,.84-3.11c.3,0,.19.27.19.43A2.13,2.13,0,0,0,229,111.4C229.09,111.29,229.18,111.12,229.39,111.15Z" transform="translate(-14.23 -8.78)"/><path class="cls-160" d="M229.39,111.15a2.25,2.25,0,0,1-3.79-.47,2.91,2.91,0,0,1-.19-1.09c0-.12,0-.23-.08-.3a2.29,2.29,0,0,1,2.54-.32A2.38,2.38,0,0,1,229.39,111.15Z" transform="translate(-14.23 -8.78)"/><path class="cls-162" d="M226.88,107.32a4,4,0,0,1,2,7.66c-.22.1-.45.28-.73.14a5.35,5.35,0,0,0,1.7-1.25,4,4,0,0,0,.18-4.72,3.75,3.75,0,0,0-2.72-1.64C227.15,107.48,226.92,107.58,226.88,107.32Z" transform="translate(-14.23 -8.78)"/><path class="cls-66" d="M225.83,115.12c.26.16.58.11.85.22,0,.22-.18.21-.3.21a4.06,4.06,0,0,1-3.12-1.31c-.06-.06-.06-.15-.11-.23a4,4,0,0,1-.21-4.78,3.67,3.67,0,0,1,2-1.54l.62-.17c0,.22-.16.22-.26.27a3.91,3.91,0,0,0-1.17,6.42A3.2,3.2,0,0,0,225.83,115.12Z" transform="translate(-14.23 -8.78)"/><path class="cls-162" d="M223.15,114a4.17,4.17,0,0,0,3,1.43c.19,0,.37,0,.52-.1a1.74,1.74,0,0,1,.24,1.09c0,.19-.22.13-.35.12a4.83,4.83,0,0,1-2.51-.84,4.44,4.44,0,0,1-1.29-1.19A1.2,1.2,0,0,0,223.15,114Z" transform="translate(-14.23 -8.78)"/><path class="cls-149" d="M228.19,116.14c0-.41-.25-.8-.1-1.22a3.67,3.67,0,0,0,2.89-2.75,3.52,3.52,0,0,0-1.29-3.77,3.44,3.44,0,0,0-2.15-.77,1.72,1.72,0,0,1-.64-.1,4.35,4.35,0,0,1-.1-.52c-.09-.57-.09-.57.51-.53a4.89,4.89,0,0,1,4.41,5.42,4.82,4.82,0,0,1-3.24,4.11c-.07,0-.17,0-.21.11Z" transform="translate(-14.23 -8.78)"/><path class="cls-163" d="M221.91,111.34a5,5,0,0,1,3.23-4.57c.32-.12.42,0,.43.27s.05.45.08.68a3.93,3.93,0,0,1-.93.43,3.65,3.65,0,0,0-1.69,5.09,4.09,4.09,0,0,1,.34.61.58.58,0,0,1-.42.55,1.77,1.77,0,0,1-.73-1.12,3.28,3.28,0,0,0-.18-.61l0-.17C222.07,112.11,221.88,111.73,221.91,111.34Z" transform="translate(-14.23 -8.78)"/><path class="cls-164" d="M229.29,111.16a2.43,2.43,0,0,1-1.74,2.56,2.5,2.5,0,0,1-3-1.37,2.41,2.41,0,0,1,.8-2.95c.29,0,.19.26.19.41a1.91,1.91,0,0,0,1,1.77,1.93,1.93,0,0,0,2.24-.19C229,111.3,229.09,111.13,229.29,111.16Z" transform="translate(-14.23 -8.78)"/><path class="cls-165" d="M229.29,111.16a2.16,2.16,0,0,1-3.63-.43,2.67,2.67,0,0,1-.17-1c0-.11,0-.22-.09-.29a2.42,2.42,0,0,1,3.89,1.76Z" transform="translate(-14.23 -8.78)"/><path class="cls-155" d="M226.9,107.53A3.74,3.74,0,0,1,231,110.1a3.68,3.68,0,0,1-2.22,4.69c-.21.09-.43.27-.7.13a5.12,5.12,0,0,0,1.63-1.18,3.78,3.78,0,0,0,.18-4.48,3.61,3.61,0,0,0-2.61-1.55C227.16,107.69,226.94,107.78,226.9,107.53Z" transform="translate(-14.23 -8.78)"/><path class="cls-166" d="M225.88,114.92c.25.15.55.11.81.21,0,.21-.17.2-.29.2a3.86,3.86,0,0,1-3-1.23c-.06-.06-.06-.15-.1-.22a3.75,3.75,0,0,1-.2-4.53,3.53,3.53,0,0,1,1.94-1.46l.59-.17c0,.21-.15.22-.25.26a3.7,3.7,0,0,0-1.13,6.09A3.08,3.08,0,0,0,225.88,114.92Z" transform="translate(-14.23 -8.78)"/><path class="cls-167" d="M223.32,113.88a4,4,0,0,0,2.87,1.35c.18,0,.36,0,.5-.1a1.67,1.67,0,0,1,.23,1c0,.17-.21.12-.33.11a4.61,4.61,0,0,1-2.41-.79,4,4,0,0,1-1.23-1.13A1.17,1.17,0,0,0,223.32,113.88Z" transform="translate(-14.23 -8.78)"/></g></g></svg>