<svg id="Capa_1" data-name="Capa 1" xmlns="http://www.w3.org/2000/svg" viewBox="0 0 95.47 95.27"><defs><style>.cls-1{fill:#a827f5;}.cls-2{fill:#8416c5;}.cls-3{fill:#fe2d2e;}.cls-4{fill:#d61c1d;}.cls-5{fill:#168ac5;}.cls-6{fill:#2ab4fc;}</style></defs><title>Icono-solucionado</title><path class="cls-1" d="M26.91,48.72a21.9,21.9,0,0,1,7-15.79C40.68,26.21,49,24.25,57.94,27S72.47,36.12,74.32,45.4a24,24,0,0,1-12,26.06c-.6.32-1.12.85-1.9.71-1-.55-.78-1.41-.51-2.21,1.64-4.75.91-9.44-.32-14.12a3.75,3.75,0,0,0-1.28-2.2,15.2,15.2,0,0,0-5.42-5.78c-.37-.46-1-.53-1.44-.8A6.86,6.86,0,0,0,49,45.6c-2.07-1.23-4.37-1.31-6.68-1.3-2.11-.58-4.09.37-6.13.54C35,45.23,34,46,32.78,46.28a10,10,0,0,0-3.42,1.91C28.62,48.71,27.89,49.31,26.91,48.72Z" transform="translate(-2.59 -2.97)"/><path class="cls-2" d="M74.54,51.8a21.9,21.9,0,0,1-7,15.79c-6.8,6.72-15.08,8.68-24,5.9S29,64.4,27.13,55.12a24,24,0,0,1,12-26.06c.59-.32,1.11-.85,1.89-.71,1,.55.78,1.42.51,2.21-1.63,4.75-.91,9.44.32,14.12a3.71,3.71,0,0,0,1.29,2.2,15.1,15.1,0,0,0,5.41,5.78c.37.46,1,.53,1.45.8a6.82,6.82,0,0,0,2.51,1.46c2.08,1.23,4.37,1.31,6.69,1.3,2.11.58,4.08-.37,6.12-.54,1.16-.39,2.18-1.12,3.37-1.44a10.08,10.08,0,0,0,3.43-1.91C72.83,51.81,73.56,51.21,74.54,51.8Z" transform="translate(-2.59 -2.97)"/><path class="cls-3" d="M56.21,13.55c0-2.87.08-5.75-.11-8.6C56,3,56.88,2.89,58.32,3.13A40,40,0,0,1,70.1,6.71C86,14.79,96.32,27.5,97.85,45.31,100.23,73.29,82.5,93.13,59,98c-2.79.57-2.82.48-2.81-2.42,0-2.66,0-5.32.07-8,.92-1,2.2-1.07,3.42-1.26,8.61-1.36,16.3-4.65,22.31-11.13,16.38-17.66,11.22-45.3-8.92-56A37.6,37.6,0,0,0,59.89,15C58.57,14.8,57.16,14.75,56.21,13.55Z" transform="translate(-2.59 -2.97)"/><path class="cls-4" d="M56.21,13.55c10.41.6,19.4,4.25,26.73,11.88,11.6,12.06,13,32.78,3.14,46.31A37.18,37.18,0,0,1,62,86.88c-1.91.36-3.88.46-5.82.68-.31-1.57,1-1.43,1.84-1.68,6.52-2,12.58-4.8,17.48-9.64,10.81-10.67,13.2-27.34,7-41.44C77.7,24,68.91,19,58.44,15.62,57.44,15.3,55.83,15.45,56.21,13.55Z" transform="translate(-2.59 -2.97)"/><path class="cls-1" d="M74.54,51.8c-1.78,1.13-3.23,2.8-5.36,3.39-4.49,1.66-4.81,1.44-4.83-3.41q0-7.87,0-15.74a13.72,13.72,0,0,1,.16-2.72c.27-1.29.93-1.68,2.07-.83C72.53,37.57,75,44.09,74.54,51.8Z" transform="translate(-2.59 -2.97)"/><path class="cls-1" d="M59.06,57.3a12.15,12.15,0,0,1-7.14-1.68c-1-.69-1-1.79-1-2.83-.05-7.75-.08-15.5,0-23.26,0-2.87.58-3.26,3.61-3,.69.06,1.43-.09,2,.46.57,1.49.22,3,.22,4.53,0,6.93,0,13.86,0,20.79,0,1.88.44,3.46,2.32,4.3A.53.53,0,0,1,59.06,57.3Z" transform="translate(-2.59 -2.97)"/><path class="cls-1" d="M66.57,32.48c-1-.18-1.2.4-1.19,1.22V54.06c0,1.34.52,2,2,1.52.6-.19,1.23-.26,1.84-.39a6.24,6.24,0,0,1-3.34,1.27c-5.07,1.08-5.23.94-5.28-4.2-.08-6.57.13-13.14-.09-19.71,0-1.36.18-2.88,2-3.19A10.33,10.33,0,0,1,66.57,32.48Z" transform="translate(-2.59 -2.97)"/><path class="cls-1" d="M62.5,29.36c-1,2.13-.84,4.44-.88,6.69-.09,5.36,0,10.73,0,16.09,0,4.45,0,4.45,4.25,4.32-2.13,1.26-4.49.73-6.77.84v-.44a2.33,2.33,0,0,1-1.39-2.37c-.1-8.19-.13-16.39,0-24.57,0-.92,0-2.09,1.45-2.1A8,8,0,0,1,62.5,29.36Z" transform="translate(-2.59 -2.97)"/><path class="cls-1" d="M59.16,27.82a5,5,0,0,0-.5,2.65q0,12,0,23.93a5.8,5.8,0,0,0,.42,2.47c-3.17-.08-3.36-.26-3.37-3.32,0-8.56,0-17.11-.07-25.67,0-.73.43-.76.91-.86C57.31,27.63,58.45,27,59.16,27.82Z" transform="translate(-2.59 -2.97)"/><path class="cls-1" d="M48.14,53.51a12.46,12.46,0,0,1-5.47-5.89c-1.8-6-.89-12-.84-18.08,0-1,.66-1.49,1.27-2.06a6.53,6.53,0,0,1,2.94-.8,4,4,0,0,1,1.41,3.54c-.06,5.42.35,10.85-.29,16.27A8.06,8.06,0,0,0,48,51.76,1.58,1.58,0,0,1,48.14,53.51Z" transform="translate(-2.59 -2.97)"/><path class="cls-1" d="M48.14,53.51c-2.23-1.81-2.34-4.28-2.08-6.84a104.41,104.41,0,0,0,0-20,6.85,6.85,0,0,1,3.35-.42,3,3,0,0,1,.9,2.23c.3,7.6.11,15.19.09,22.79a3.8,3.8,0,0,1-1,3.07A1.86,1.86,0,0,1,48.14,53.51Z" transform="translate(-2.59 -2.97)"/><path class="cls-1" d="M49.4,54.35c-.92-1,0-2,0-3-.07-7.26.24-14.53-.15-21.79a30.87,30.87,0,0,1,.16-3.32c1.73,0,3.47-.39,5.15.31-1.54.09-2.64.51-2.63,2.44.05,8.87,0,17.74,0,26.61A5.59,5.59,0,0,1,49.4,54.35Z" transform="translate(-2.59 -2.97)"/><path class="cls-1" d="M43.1,27.47a110.78,110.78,0,0,0-.25,17.28,8.64,8.64,0,0,1-.18,2.87A5.09,5.09,0,0,1,41.05,45a21.55,21.55,0,0,1-.48-14.85c.2-.58.29-1.21.44-1.81A3.57,3.57,0,0,1,43.1,27.47Z" transform="translate(-2.59 -2.97)"/><path class="cls-5" d="M44.82,87.56c-10.5-.59-19.57-4.24-27-11.86C6.15,63.65,4.74,43,14.68,29.44A37.55,37.55,0,0,1,39,14.32c1.93-.36,3.92-.46,5.87-.68.31,1.57-1,1.42-1.86,1.68-6.57,2-12.69,4.79-17.63,9.63C14.42,35.61,12,52.26,18.31,66.34,23.14,77.16,32,82.18,42.57,85.5,43.59,85.82,45.21,85.67,44.82,87.56Z" transform="translate(-2.59 -2.97)"/><path class="cls-6" d="M44.82,87.56c0,2.87-.08,5.75.12,8.6.13,1.94-.79,2.06-2.25,1.82A40.61,40.61,0,0,1,30.81,94.4c-16-8.07-26.46-20.76-28-38.56C.4,27.89,18.29,8.08,42.06,3.25c2.81-.57,2.84-.48,2.83,2.42,0,2.65,0,5.31-.07,8-.92,1-2.22,1.07-3.45,1.26C32.68,16.26,24.92,19.54,18.86,26a35.64,35.64,0,0,0,9,56,38.14,38.14,0,0,0,13.25,4.14C42.45,86.32,43.87,86.37,44.82,87.56Z" transform="translate(-2.59 -2.97)"/></svg>