<svg id="Capa_1" data-name="Capa 1" xmlns="http://www.w3.org/2000/svg" viewBox="0 0 95.47 95.27"><defs><style>.cls-1{fill:#fe2d2e;}.cls-2{fill:#d61c1d;}.cls-3{fill:#168ac5;}.cls-4{fill:#2ab4fc;}.cls-5{fill:#a827f5;}.cls-6{fill:#8416c5;}</style></defs><title>Imagotipo-Modificado</title><path class="cls-1" d="M56.21,13.55c0-2.87.08-5.75-.11-8.6C56,3,56.88,2.89,58.32,3.13A40,40,0,0,1,70.1,6.71C86,14.79,96.32,27.5,97.85,45.31,100.23,73.29,82.5,93.13,59,98c-2.79.57-2.82.48-2.81-2.42,0-2.66,0-5.32.07-8,.92-1,2.2-1.07,3.42-1.26,8.61-1.36,16.3-4.65,22.31-11.13,16.38-17.66,11.22-45.3-8.92-56A37.6,37.6,0,0,0,59.89,15C58.57,14.8,57.16,14.75,56.21,13.55Z" transform="translate(-2.59 -2.97)"/><path class="cls-2" d="M56.21,13.55c10.41.6,19.4,4.25,26.73,11.88,11.6,12.06,13,32.78,3.14,46.31A37.18,37.18,0,0,1,62,86.88c-1.91.36-3.88.46-5.82.68-.31-1.57,1-1.43,1.84-1.68,6.52-2,12.58-4.8,17.48-9.64,10.81-10.67,13.2-27.34,7-41.44C77.7,24,68.91,19,58.44,15.62,57.44,15.3,55.83,15.45,56.21,13.55Z" transform="translate(-2.59 -2.97)"/><path class="cls-3" d="M44.82,87.56c-10.5-.59-19.57-4.24-27-11.86C6.15,63.65,4.74,43,14.68,29.44A37.55,37.55,0,0,1,39,14.32c1.93-.36,3.92-.46,5.87-.68.31,1.57-1,1.42-1.86,1.68-6.57,2-12.69,4.79-17.63,9.63C14.42,35.61,12,52.26,18.31,66.34,23.14,77.16,32,82.18,42.57,85.5,43.59,85.82,45.21,85.67,44.82,87.56Z" transform="translate(-2.59 -2.97)"/><path class="cls-4" d="M44.82,87.56c0,2.87-.08,5.75.12,8.6.13,1.94-.79,2.06-2.25,1.82A40.61,40.61,0,0,1,30.81,94.4c-16-8.07-26.46-20.76-28-38.56C.4,27.89,18.29,8.08,42.06,3.25c2.81-.57,2.84-.48,2.83,2.42,0,2.65,0,5.31-.07,8-.92,1-2.22,1.07-3.45,1.26C32.68,16.26,24.92,19.54,18.86,26a35.64,35.64,0,0,0,9,56,38.14,38.14,0,0,0,13.25,4.14C42.45,86.32,43.87,86.37,44.82,87.56Z" transform="translate(-2.59 -2.97)"/><ellipse class="cls-5" cx="48.28" cy="46.99" rx="23.74" ry="24.23"/><path class="cls-6" d="M58.13,56C47,56,38.73,46.82,38.25,36a17.33,17.33,0,0,1,1.3-7.31A24.53,24.53,0,0,0,26.91,50.26c0,13.51,10.66,24.46,23.82,24.46S74.54,63.77,74.54,50.26a26.17,26.17,0,0,0-.16-2.81A20.67,20.67,0,0,1,58.13,56Z" transform="translate(-2.59 -2.97)"/></svg>