<svg xmlns="http://www.w3.org/2000/svg" xmlns:xlink="http://www.w3.org/1999/xlink" viewBox="0 0 1300 500"><defs><style>.cls-1{fill:url(#Degradado_sin_nombre_2);}.cls-2{fill:url(#Degradado_sin_nombre_390);}.cls-3{fill:url(#Degradado_sin_nombre_31);}.cls-4{fill:url(#Degradado_sin_nombre_132);}.cls-5{isolation:isolate;}.cls-6{clip-path:url(#clip-path);}.cls-7{fill:#3a3b52;}.cls-10,.cls-13,.cls-7{opacity:0.2;mix-blend-mode:multiply;}.cls-8{fill:#fff;}.cls-9{clip-path:url(#clip-path-2);}.cls-10{fill:#6d4e77;}.cls-11{mix-blend-mode:soft-light;fill:url(#Degradado_sin_nombre_17);}.cls-12{clip-path:url(#clip-path-3);}.cls-13{fill:#b04e77;}.cls-14{fill:url(#Degradado_sin_nombre_70);}.cls-15{clip-path:url(#clip-path-4);}</style><linearGradient id="Degradado_sin_nombre_2" x1="1365.4" y1="-501.4" x2="-228.89" y2="1049.64" gradientTransform="matrix(0, -0.39, 0.99, 0, 519.34, 528.95)" gradientUnits="userSpaceOnUse"><stop offset="0" stop-color="#a21968"/><stop offset="1" stop-color="#1c1cb2"/></linearGradient><linearGradient id="Degradado_sin_nombre_390" x1="-25" y1="-1029" x2="-120.48" y2="-880.23" gradientTransform="translate(-820.79 431.63) rotate(86.2)" gradientUnits="userSpaceOnUse"><stop offset="0" stop-color="#dc3f82"/><stop offset="1" stop-color="#6d3bd0"/></linearGradient><linearGradient id="Degradado_sin_nombre_31" x1="793.83" y1="1409.3" x2="727.16" y2="1543.69" gradientTransform="matrix(0.8, 0.6, -0.6, 0.8, 1349.41, -1431.74)" gradientUnits="userSpaceOnUse"><stop offset="0" stop-color="#95dffd"/><stop offset="1" stop-color="#e79b60"/></linearGradient><linearGradient id="Degradado_sin_nombre_132" x1="-4507.47" y1="2363.92" x2="-4435.19" y2="2271.47" gradientTransform="translate(-3954.38 -1715.05) rotate(-130.51)" gradientUnits="userSpaceOnUse"><stop offset="0" stop-color="#e79b26"/><stop offset="1" stop-color="#f9ec64"/></linearGradient><clipPath id="clip-path"><polyline class="cls-1" points="0.06 372.97 -0.11 1.61 1299.89 0 1300.11 498.39 0.11 500 0.06 372.97"/></clipPath><clipPath id="clip-path-2"><circle class="cls-2" cx="151.8" cy="309.43" r="51.85" transform="translate(-190.77 271.47) rotate(-57.55)"/></clipPath><radialGradient id="Degradado_sin_nombre_17" cx="758.13" cy="1481.26" r="98.25" gradientTransform="translate(251.1 -1235.67) rotate(-2.61)" gradientUnits="userSpaceOnUse"><stop offset="0.73" stop-color="#fff" stop-opacity="0"/><stop offset="1" stop-color="#ffff71"/></radialGradient><clipPath id="clip-path-3"><circle class="cls-3" cx="1075.77" cy="209.55" r="81.83" transform="translate(334.17 1016.53) rotate(-58.44)"/></clipPath><linearGradient id="Degradado_sin_nombre_70" x1="162.69" y1="-2084.35" x2="222.66" y2="-2161.07" gradientTransform="translate(-664.24 1699.21) rotate(43.11)" gradientUnits="userSpaceOnUse"><stop offset="0" stop-color="#a2e6fd"/><stop offset="1" stop-color="#5fa4d4"/></linearGradient><clipPath id="clip-path-4"><path class="cls-4" d="M680.77,138.24a53.32,53.32,0,1,1-5.91,75.19A53.33,53.33,0,0,1,680.77,138.24Z"/></clipPath></defs><title>Mesa de trabajo 1</title><g class="cls-5"><g id="Capa_1" data-name="Capa 1"><polyline class="cls-1" points="0.06 372.97 -0.11 1.61 1299.89 0 1300.11 498.39 0.11 500 0.06 372.97"/><g class="cls-6"><path class="cls-7" d="M935.81-1124.27c-83-62.58-182-85.29-276.21-44.9-55.77,23.9-112.38,75-138.82,157.1-39.91,124,4.13,265.66,66,349s141,134.31,197.53,226.5c101,164.86,109.42,439.67,49.22,668.08s-178.37,415-307.16,562.67c-84.86,97.28-178.58,182.63-279.09,209.33-44,11.69-90.21,11.24-128.08-18.68S54,890.48,60.4,821.36a220.14,220.14,0,0,1,15.08-62.22c-21.41-7-42.82-13.82-64.35-19.51-3.78-1-3.5-10.94.31-9.93,17.6,4.66,35.12,10,52.61,15.65,5.08,1.63,10.15,3.29,15.23,4.94,23.34-51,63.89-87.14,103.27-100.71,55.79-19.22,112-6.28,168.14-10.36,94.18-6.82,191.18-65,262.45-171.71S726.94,204.23,715.6,59.69,635.36-209.77,544.13-233.7c-48.27-12.66-99.74,1.78-147.83,29.41C309.36-154.34,230.65-60.41,175.6,59.09,131.13,155.6,102.39,266.42,60.19,365.23S-44.17,555.18-117,568.75c-66.29,12.35-129.72-46.86-157.88-136.56s-22.87-204.36,7.38-300.91C-254.06,88.45-235.4,47.7-210,20.77c53.74-57,121.19-39.58,183-36.1,83.2,4.69,175.46-26.77,236-126.16,61-100,87.41-261.82,168.69-309.18,23.87-13.91,49.24-15.1,73.72-24.78s50.31-31.7,59.81-68.84c14.18-55.39-15.31-108.87-47.3-133.23-101.28-77.12-232.68-6.37-332.18,104.41s-181.41,259-282.06,366.94C-207.63-144.71-274.12-91-306.48,4.66c-34.46,101.92-19.29,220.17,1.83,323C-194.1,866-52.24,1416.4,275.6,1642.68l535-122.86c-103.59-15.21-198.77-96.88-259.47-222.64-31.89-66.08-54.91-147.7-50-234.56,5.17-92.06,41.09-178.36,84.88-245.73s95.65-119.64,144.63-177.22c159.75-187.81,291.32-437.53,377.68-716.82,35-113.07,62.85-232.31,71.2-353.84C1199.5-722.07,1096.7-1003,935.81-1124.27Z"/></g><path class="cls-8" d="M558.37,117.57a7.76,7.76,0,1,1-7.75,7.76A7.77,7.77,0,0,1,558.37,117.57Z"/><path class="cls-8" d="M1243,166.86a7.76,7.76,0,1,1-7.75,7.77A7.76,7.76,0,0,1,1243,166.86Z"/><path class="cls-8" d="M19.15,268.84a7.76,7.76,0,1,1-7.75,7.76A7.77,7.77,0,0,1,19.15,268.84Z"/><path class="cls-8" d="M850.75,39.45A7.76,7.76,0,1,1,843,47.21,7.76,7.76,0,0,1,850.75,39.45Z"/><path class="cls-8" d="M223.92,158a7.76,7.76,0,1,1-7.75,7.77A7.76,7.76,0,0,1,223.92,158Z"/><path class="cls-8" d="M1127.34,261.08a7.76,7.76,0,1,1-7.75,7.77A7.76,7.76,0,0,1,1127.34,261.08Z"/><path class="cls-8" d="M15.79,150a1.59,1.59,0,1,1-1.59,1.59A1.59,1.59,0,0,1,15.79,150Z"/><path class="cls-8" d="M348.24,58.51a1.59,1.59,0,1,1-1.59,1.59A1.59,1.59,0,0,1,348.24,58.51Z"/><path class="cls-8" d="M1169.39,56.3a1.6,1.6,0,1,1-1.59,1.6A1.6,1.6,0,0,1,1169.39,56.3Z"/><circle class="cls-8" cx="842.88" cy="183.75" r="1.59"/><path class="cls-8" d="M216.17,239.93a1.59,1.59,0,1,1-1.59,1.59A1.59,1.59,0,0,1,216.17,239.93Z"/><path class="cls-8" d="M1125.75,53.15a1.6,1.6,0,1,1-1.59,1.6A1.59,1.59,0,0,1,1125.75,53.15Z"/><path class="cls-8" d="M374.4,40.46a1.6,1.6,0,1,1-1.59,1.6A1.59,1.59,0,0,1,374.4,40.46Z"/><path class="cls-8" d="M839.68,155.63a1.59,1.59,0,1,1-1.59,1.59A1.59,1.59,0,0,1,839.68,155.63Z"/><path class="cls-8" d="M799.43,280.76a3.6,3.6,0,1,1-3.6,3.6A3.59,3.59,0,0,1,799.43,280.76Z"/><path class="cls-8" d="M1141.61,94.89a3.6,3.6,0,1,1-3.59,3.6A3.61,3.61,0,0,1,1141.61,94.89Z"/><path class="cls-8" d="M422.83,40a3.6,3.6,0,1,1-3.59,3.59A3.6,3.6,0,0,1,422.83,40Z"/><path class="cls-8" d="M652.85,284.36a3.6,3.6,0,1,1-3.59,3.59A3.58,3.58,0,0,1,652.85,284.36Z"/><path class="cls-8" d="M607.92,181.92a3.6,3.6,0,1,1-3.6,3.6A3.59,3.59,0,0,1,607.92,181.92Z"/><path class="cls-8" d="M350.7,178.52a3.6,3.6,0,1,1-3.59,3.59A3.59,3.59,0,0,1,350.7,178.52Z"/><path class="cls-8" d="M299,56.54a3.6,3.6,0,1,1-3.59,3.6A3.6,3.6,0,0,1,299,56.54Z"/><path class="cls-8" d="M389.18,240.29a3.6,3.6,0,1,1-3.6,3.6A3.6,3.6,0,0,1,389.18,240.29Z"/><path class="cls-8" d="M754.09,174.62a3.6,3.6,0,1,1-3.59,3.6A3.6,3.6,0,0,1,754.09,174.62Z"/><path class="cls-8" d="M994.35,265.25a3.6,3.6,0,1,1-3.6,3.59A3.59,3.59,0,0,1,994.35,265.25Z"/><path class="cls-8" d="M268.81,288a3.6,3.6,0,1,1-3.6,3.6A3.59,3.59,0,0,1,268.81,288Z"/><path class="cls-8" d="M155,129.49a3.6,3.6,0,1,1-3.6,3.6A3.59,3.59,0,0,1,155,129.49Z"/><path class="cls-8" d="M376,75.62a3.6,3.6,0,1,1-3.6,3.6A3.6,3.6,0,0,1,376,75.62Z"/><path class="cls-8" d="M550.62,261.18h0a15.41,15.41,0,0,0-15.4,15.42h0a15.4,15.4,0,0,0-15.42-15.4h0a15.41,15.41,0,0,0,15.4-15.42h0A15.42,15.42,0,0,0,550.62,261.18Z"/><path class="cls-8" d="M166.8,42h0c-8.5,0-15.39,3.46-15.39,7.72h0c0-4.26-6.9-7.7-15.41-7.69h0c8.51,0,15.4-3.46,15.4-7.72h0C151.4,38.61,158.3,42.05,166.8,42Z"/><path class="cls-8" d="M1009.76,166.21h0a15.41,15.41,0,0,0-15.4,15.42h0a15.42,15.42,0,0,0-15.42-15.4h0a15.41,15.41,0,0,0,15.4-15.42h0A15.4,15.4,0,0,0,1009.76,166.21Z"/><path class="cls-8" d="M70.86,98.47h0a15.4,15.4,0,0,0-15.39,15.42h0A15.41,15.41,0,0,0,40,98.5h0a15.41,15.41,0,0,0,15.4-15.42h0A15.4,15.4,0,0,0,70.86,98.47Z"/><path class="cls-8" d="M577.94,293.79a7.76,7.76,0,1,1-7.75,7.76A7.77,7.77,0,0,1,577.94,293.79Z"/><path class="cls-8" d="M1262.57,343.08a7.76,7.76,0,1,1-7.75,7.77A7.75,7.75,0,0,1,1262.57,343.08Z"/><path class="cls-8" d="M38.73,445.06A7.76,7.76,0,1,1,31,452.82,7.77,7.77,0,0,1,38.73,445.06Z"/><path class="cls-8" d="M870.32,215.67a7.76,7.76,0,1,1-7.75,7.76A7.75,7.75,0,0,1,870.32,215.67Z"/><path class="cls-8" d="M243.49,334.24a7.76,7.76,0,1,1-7.75,7.77A7.76,7.76,0,0,1,243.49,334.24Z"/><path class="cls-8" d="M1146.91,437.3a7.76,7.76,0,1,1-7.75,7.77A7.76,7.76,0,0,1,1146.91,437.3Z"/><path class="cls-8" d="M35.36,326.17a1.59,1.59,0,1,1-1.59,1.59A1.6,1.6,0,0,1,35.36,326.17Z"/><path class="cls-8" d="M367.81,234.73a1.59,1.59,0,1,1-1.59,1.59A1.59,1.59,0,0,1,367.81,234.73Z"/><path class="cls-8" d="M1189,232.52a1.6,1.6,0,1,1-1.59,1.6A1.6,1.6,0,0,1,1189,232.52Z"/><circle class="cls-8" cx="862.45" cy="359.97" r="1.59"/><path class="cls-8" d="M235.74,416.15a1.59,1.59,0,1,1-1.59,1.59A1.59,1.59,0,0,1,235.74,416.15Z"/><path class="cls-8" d="M1145.32,229.37a1.6,1.6,0,1,1-1.59,1.59A1.59,1.59,0,0,1,1145.32,229.37Z"/><path class="cls-8" d="M394,216.68a1.6,1.6,0,1,1-1.59,1.6A1.59,1.59,0,0,1,394,216.68Z"/><path class="cls-8" d="M859.25,331.84a1.6,1.6,0,1,1-1.59,1.6A1.6,1.6,0,0,1,859.25,331.84Z"/><path class="cls-8" d="M819,457a3.6,3.6,0,1,1-3.59,3.6A3.59,3.59,0,0,1,819,457Z"/><path class="cls-8" d="M1161.18,271.11a3.6,3.6,0,1,1-3.59,3.6A3.6,3.6,0,0,1,1161.18,271.11Z"/><path class="cls-8" d="M442.4,216.23a3.6,3.6,0,1,1-3.59,3.6A3.61,3.61,0,0,1,442.4,216.23Z"/><path class="cls-8" d="M672.42,460.57a3.6,3.6,0,1,1-3.59,3.6A3.6,3.6,0,0,1,672.42,460.57Z"/><path class="cls-8" d="M627.49,358.14a3.6,3.6,0,1,1-3.6,3.6A3.59,3.59,0,0,1,627.49,358.14Z"/><path class="cls-8" d="M370.27,354.74a3.6,3.6,0,1,1-3.59,3.59A3.58,3.58,0,0,1,370.27,354.74Z"/><path class="cls-8" d="M318.52,232.76a3.6,3.6,0,1,1-3.59,3.6A3.6,3.6,0,0,1,318.52,232.76Z"/><path class="cls-8" d="M408.75,416.51a3.6,3.6,0,1,1-3.6,3.6A3.59,3.59,0,0,1,408.75,416.51Z"/><path class="cls-8" d="M773.66,350.84a3.6,3.6,0,1,1-3.59,3.6A3.6,3.6,0,0,1,773.66,350.84Z"/><path class="cls-8" d="M1013.92,441.47a3.6,3.6,0,1,1-3.59,3.59A3.58,3.58,0,0,1,1013.92,441.47Z"/><path class="cls-8" d="M288.38,464.17a3.6,3.6,0,1,1-3.59,3.6A3.61,3.61,0,0,1,288.38,464.17Z"/><path class="cls-8" d="M174.57,305.71a3.6,3.6,0,1,1-3.59,3.6A3.59,3.59,0,0,1,174.57,305.71Z"/><path class="cls-8" d="M395.59,251.84a3.6,3.6,0,1,1-3.6,3.6A3.59,3.59,0,0,1,395.59,251.84Z"/><path class="cls-8" d="M570.19,437.4h0a15.41,15.41,0,0,0-15.4,15.42h0a15.4,15.4,0,0,0-15.42-15.4h0A15.41,15.41,0,0,0,554.77,422h0A15.42,15.42,0,0,0,570.19,437.4Z"/><path class="cls-8" d="M274.3,278.65h0c-8.5,0-15.4,3.46-15.39,7.72h0c0-4.26-6.9-7.7-15.41-7.7h0c8.51,0,15.4-3.46,15.4-7.71h0C258.9,275.21,265.8,278.66,274.3,278.65Z"/><path class="cls-8" d="M1029.33,342.43h0a15.41,15.41,0,0,0-15.4,15.42h0a15.42,15.42,0,0,0-15.42-15.4h0a15.41,15.41,0,0,0,15.4-15.42h0A15.4,15.4,0,0,0,1029.33,342.43Z"/><path class="cls-8" d="M90.43,274.69h0A15.4,15.4,0,0,0,75,290.11h0a15.4,15.4,0,0,0-15.42-15.39h0A15.41,15.41,0,0,0,75,259.29h0A15.41,15.41,0,0,0,90.43,274.69Z"/><circle class="cls-2" cx="151.8" cy="309.43" r="51.85" transform="translate(-190.77 271.47) rotate(-57.55)"/><g class="cls-9"><path class="cls-10" d="M107.59,225.61A54,54,0,0,1,136,208.52c6.23-1.43,13-1.69,18.83.81s10.66,8.25,10.63,14.64c0,6.63-4.88,12.2-9.94,16.48-7.17,6.07-15.3,10.92-22.63,16.81s-14,13.11-16.91,22.05c-3.42,10.6-1,22.39,4.12,32.27A62.62,62.62,0,0,0,215,331.5c8-6.43,14.46-15.05,17.11-25a49.23,49.23,0,0,0,1-19.12,64.62,64.62,0,0,0-26.24-43.58c-6.12-4.35-13.18-7.79-17.53-13.91,24.49-2.23,49.37,12.1,60.71,33.91a66.41,66.41,0,0,1,1.34,57.64c-6.45,13.95-17.86,25.39-31.33,32.8s-28.94,10.88-44.32,11c-7.79.06-19.38,7.34-26.84,5.1-8.23-2.48-28.22.23-34.9-5.18-21.77-17.63-46.42-62-41.2-89.51s55.52-52.46,80.74-64.66"/><path class="cls-10" d="M168.93,253a18,18,0,0,0-8.32,1,9.23,9.23,0,0,0-5.54,6c-1.19,4.84,2.68,9.39,6.59,12.48a64.81,64.81,0,0,0,37.73,13.77c3.15.1,6.56-.13,9-2.14s3.32-5.67,2.69-8.84a18.16,18.16,0,0,0-4.66-8.37c-10.29-11.44-26.55-15-41.77-17.3"/><path class="cls-10" d="M159.65,300.92c1.49,2.67,4.15,4.47,6.82,6a22,22,0,0,0,9,3.11c3.19.22,6.62-.85,8.57-3.38a9,9,0,0,0,1.21-8.23,13.25,13.25,0,0,0-5.28-6.65C173.34,287.24,152.76,288.62,159.65,300.92Z"/><path class="cls-10" d="M129.47,280.51c.85,4,2.64,8.27,6.37,10a11.17,11.17,0,0,0,8.2,0,7.94,7.94,0,0,0,3.68-2.26,7.62,7.62,0,0,0,1.44-3.66,13.77,13.77,0,0,0-4.71-12.73C136.84,265.77,127.43,270.94,129.47,280.51Z"/><path class="cls-10" d="M138,313.07a15.58,15.58,0,0,0,6.39,3.91c2.45.63,5.33.09,6.92-1.87s1.54-4.7.74-7a12.58,12.58,0,0,0-7.9-7.76c-2.8-.91-9.6-1.05-11.44,2C130.6,305.67,135.74,311.06,138,313.07Z"/><path class="cls-10" d="M189.84,321.94a11.61,11.61,0,0,0-3.58,9.91,13.1,13.1,0,0,0,5.62,9,21,21,0,0,0,9.71,3.14,16.52,16.52,0,0,0,8.06-.7c4.25-1.72,6.9-6.23,7.42-10.78.66-5.74-2.31-12.62-8.49-13.34C202.58,318.48,194.71,317.55,189.84,321.94Z"/><path class="cls-10" d="M130.68,342.67a16.94,16.94,0,0,0,4.6,6.6A15.56,15.56,0,0,0,143,353.4c12.8,2.15,16.94-14.64,8.65-22.31C143.87,323.85,126.59,331.09,130.68,342.67Z"/><path class="cls-10" d="M84.13,312.58a36.62,36.62,0,0,1,14.26.54,19.34,19.34,0,0,1,9.31,4.7,19.51,19.51,0,0,1,4.38,7.72c1.49,4.45,2.13,9.39.54,13.8s-5.81,8.09-10.5,7.91c-2.81-.11-5.38-1.51-7.8-2.94-4-2.38-8-5-10.68-8.89S80,326.23,82.4,322.21"/><path class="cls-10" d="M97.68,278.24c3.47-1.22,7.31-.09,10.68,1.38a31.6,31.6,0,0,1,10.88,7.32,10.25,10.25,0,0,1,2.78,5,5,5,0,0,1-2,5.07,7.2,7.2,0,0,1-3.07.82,20.46,20.46,0,0,1-8.07-.43,25.94,25.94,0,0,1-7.47-4.17l-5.66-4.05a7.31,7.31,0,0,1-2.44-2.41,2.51,2.51,0,0,1,.49-3.14"/><path class="cls-10" d="M170.11,319.76c-2.39-.78-5.1,1.15-5.62,3.6a6.84,6.84,0,0,0,2.75,6.59,6.59,6.59,0,0,0,4.1,1.5,4.38,4.38,0,0,0,3.72-2.06,5.29,5.29,0,0,0,.54-3.09c-.24-2.85-2-5.7-4.78-6.5"/><path class="cls-10" d="M174.17,351c-3.63.87-6.25,4-8.27,7.13A5.3,5.3,0,0,0,165,360a4.8,4.8,0,0,0,.46,2.65,13.58,13.58,0,0,0,11.65,8.11c6.13.28,14.79-5.35,13.5-12.42C189.53,352.41,179.11,349.81,174.17,351Z"/></g><circle class="cls-11" cx="1075.77" cy="209.55" r="98.24" transform="translate(-8.9 366.67) rotate(-19.26)"/><circle class="cls-3" cx="1075.77" cy="209.55" r="81.83" transform="translate(334.17 1016.53) rotate(-58.44)"/><g class="cls-12"><path class="cls-13" d="M1067.68,319c25.56-21.44,44.61-51.57,49-84.64s-7.25-68.73-32.91-90.05c-12-10-26.47-16.56-40.64-23.17-9.83-4.58-20-9.5-26.76-18a6.43,6.43,0,0,1-1.74-3.66c-.09-2.81,2.95-4.57,5.61-5.5,15.94-5.61,33.65-4.91,49.87-.15s31.06,13.38,44.71,23.33c24.68,18,46.74,41.94,54.21,71.56,8.09,32.06-3.24,68.23-28.16,89.95-7.54,6.57-16.12,11.84-24.93,16.55a253.77,253.77,0,0,1-33.72,15"/><path class="cls-13" d="M977.81,161.35c8.17,9.94,22.83,11.39,35.62,10a121.16,121.16,0,0,0,78.94-42.26c6.24-7.46,11.78-17.58,7.91-26.5-7.29,20.64-24.24,37.08-44.09,46.3s-42.36,11.66-64.17,9.79c-5.16-.45-10.38-1.12-15.51-.39s-10.31,3.12-13.08,7.5c-3.78,6-2.19,13.76-.48,20.63,1.66,6.67,3.4,13.51,7.35,19.15a33.51,33.51,0,0,0,9.91,9.13c15.59,9.66,36.17,7.78,52.73-.08s30-20.91,43.2-33.63,26.85-25.6,43.62-33c12.77-5.64,26.91-7.85,40.87-7.38,6.2.21,12.83.85,18.23-2.23.9-5.11-3.64-9.9-8.68-11.17s-10.31.07-15.31,1.46c-11.29,3.13-22.57,6.62-32.95,12.05-14.85,7.77-27.37,19.23-39.82,30.45s-25.21,22.47-40.34,29.68-33.15,10-48.69,3.72c-9.1-3.67-17.17-10.32-26.91-11.65"/><path class="cls-13" d="M946.57,246.88a142.56,142.56,0,0,1,79.67-17.51c20.93,1.59,41.63,7.84,62.55,6.09,20.65-1.74,40.29-11.43,55.24-25.77s25.34-33.1,31-53c.47-1.69,1.81-3.84,3.38-3.07,2.38,6.45,1.55,13.74-.9,20.17s-6.4,12.15-10.37,17.76c-10.38,14.69-21.62,29.6-37.44,38.14-10,5.37-21.18,7.9-32.26,10.19-10.87,2.24-22,4.34-33,3-9.8-1.2-19.12-5.09-28.93-6.17-12.42-1.36-24.93,1.86-36.58,6.4-9.89,3.86-19.73,8.94-26.28,17.3s-9,20.66-3.46,29.72a8.66,8.66,0,0,0,3.31,3.4c3.7,1.85,8-.86,11.2-3.43,20.93-16.6,43.65-33.89,70.3-35.74,9-.63,18.06.58,27.1,1.15,21.64,1.37,43.72-1,64-8.84s38.54-21.29,50.49-39.39c2,6.24,0,13.22-3.73,18.6s-9.06,9.42-14.37,13.26c-6.69,4.84-13.6,9.53-21.36,12.35-7.58,2.75-15.71,3.62-23.77,4.13-22.54,1.45-45.22.34-67.69,2.6-10.48,1.05-21.09,2.9-30.35,7.9a48.93,48.93,0,0,0-20.53,21.27,4.07,4.07,0,0,0-.6,2.73c.73,2.85,5,1.3,7.28-.62a62.34,62.34,0,0,1,80-1.1c3.66,3,7.27,7.67,5.34,12a10.92,10.92,0,0,1-4.21,4.24c-15.35,10.23-34.4,13.24-52.84,13.8-6.86.21-13.84.1-20.39-1.94-7.58-2.36-14.13-7.15-20.34-12.09-18.3-14.6-35.82-32.89-39.7-56"/><path class="cls-13" d="M1155.09,120.22c2.57,5.84,1.45,12.83-1.72,18.36s-8.17,9.79-13.45,13.36c-12.36,8.34-26.62,13.41-39.64,20.68s-25.42,17.61-29.85,31.85c-1.44,4.63-1.88,10,.77,14a14.54,14.54,0,0,0,5.71,4.79,29.07,29.07,0,0,0,17.22,2.36,59,59,0,0,0,16.7-5.54,123.43,123.43,0,0,0,42.37-33.2c8.49-10.39,15.49-23,14.77-36.44-.51-9.43-4.76-18.18-7.48-27.23"/><path class="cls-13" d="M1080.7,196.63c-2.23,3.06-4.13,7.07-2.13,9.9a6.88,6.88,0,0,0,4,2.42c3.14.84,6.63.47,10-.16a70,70,0,0,0,27.83-11.91,44,44,0,0,0,10.05-9.66,17.5,17.5,0,0,0,3.34-7.31,8.33,8.33,0,0,0-2-7.13,11.47,11.47,0,0,0-5.94-2.89c-7.83-1.7-18.14,4.76-24.81,8.77A68.89,68.89,0,0,0,1080.7,196.63Z"/></g><path class="cls-14" d="M956.88,311.73a44.25,44.25,0,1,1-2.07-62.55A44.26,44.26,0,0,1,956.88,311.73Z"/><path class="cls-13" d="M949.15,335.34a39.61,39.61,0,0,1-22.26,9.89c-4.67.48-9.59.07-13.65-2.29s-7-7-6.43-11.62c.62-4.82,4.66-8.44,8.73-11.11,5.77-3.78,12.13-6.58,18-10.2s11.39-8.29,14.3-14.55c3.45-7.41,2.76-16.22-.09-23.88a46,46,0,0,0-67.29-23c-6.4,4-11.88,9.67-14.7,16.65A36,36,0,0,0,863.34,279a47.44,47.44,0,0,0,15.2,34.11c4.06,3.72,8.89,6.86,11.51,11.71-18-.58-34.88-13.26-41.18-30.17a48.79,48.79,0,0,1,4.22-42.11,53.8,53.8,0,0,1,25.78-21.07,68.92,68.92,0,0,1,33.28-4c5.68.65,14.77-3.6,20-1.3,5.77,2.54,20.58,2.38,25,6.92,14.27,14.8,28.23,49.34,22,68.92s-45.17,33.21-64.64,39.83"/><path class="cls-4" d="M680.77,138.24a53.32,53.32,0,1,1-5.91,75.19A53.33,53.33,0,0,1,680.77,138.24Z"/><g class="cls-15"><path class="cls-13" d="M717.52,291a62.45,62.45,0,0,1-37.8,6.77c-7.32-1-14.71-3.5-20-8.63s-8.13-13.31-5.47-20.21c2.76-7.16,10.31-11.18,17.54-13.73,10.26-3.61,21-5.51,31.4-8.86s20.56-8.41,27.36-16.89c8.06-10,10.32-23.8,8.84-36.6A72.48,72.48,0,0,0,645,132.22c-11.29,3.67-21.83,10.33-28.78,20a57,57,0,0,0-8.89,20.28,74.75,74.75,0,0,0,10.44,57.94c4.82,7.22,11,13.86,13.22,22.26-27.4-7.66-48.41-33.4-51.7-61.67a76.9,76.9,0,0,1,22.28-62.89c12.73-12.43,29.77-20.11,47.4-22.57s35.78.14,52.47,6.34c8.45,3.14,24,0,31.12,5.53,7.88,6.07,30.62,11.38,35.62,20,16.29,28,24.68,86.16,7.7,113.77S694.22,285,661.93,287.84"/><path class="cls-13" d="M766.38,92.08c-1.11,11.43-9.43,20.78-18.15,28.25-23,19.69-51.47,32.2-80.72,40.06-10.68,2.87-22.19,5.53-29.73,13.62-2.73,2.94-4.86,6.74-4.69,10.76s3.29,8,7.3,8.18c4.72.18,8-4.41,10.84-8.19a60.93,60.93,0,0,1,30.65-21.46c13.53-4.13,28-3.4,41.94-5.94a89.86,89.86,0,0,0,54.47-33.05c4.08-5.29,7.65-11.14,13-15.18s13.1-5.85,18.63-2.11c3.18,2.15,5.11,5.79,6,9.53,2.12,9-1.34,18.59-7.31,25.61S794.39,153.93,786,157.68c-17,7.59-35.36,11.64-53.69,14.89-13.9,2.47-27.94,4.52-41.38,8.85s-26.4,11.16-35.77,21.72C645.07,214.5,640,232.07,647.91,245c1.27,2.05,3.46,4.14,5.76,3.42,1.67-.52,2.56-2.32,3.1-4,2.8-8.65,1.35-18.34,4.75-26.77s11.3-14.39,19.19-19.1A157.82,157.82,0,0,1,807,183.74c5.41,1.69,10.91,3.8,14.91,7.81a4.81,4.81,0,0,1,1.57,2.61c.48,3.34-4.43,4.31-7.76,3.81-12.67-1.9-25.4-4.48-38.17-3.57a71.29,71.29,0,0,0-50.46,26.9c-5,6.47-9.08,14.69-7.14,22.66,2.56,10.5,14.3,16,25,17.27,14.87,1.69,29.91-2,43.72-7.8,15.27-6.36,29.61-15.34,40.94-27.4s19.51-27.33,21.82-43.71c4-28.47-10.15-57.1-30.59-77.31"/></g></g></g></svg>